<svg preserveAspectRatio="xMidYMid meet" data-bbox="10.115 39.35 582.857 521.3" viewBox="0 0 600 600" xmlns:xlink="http://www.w3.org/1999/xlink" xmlns="http://www.w3.org/2000/svg" data-type="ugc" role="presentation" aria-hidden="true" aria-labelledby="svgcid-ngxkaghhqu60"><title id="svgcid-ngxkaghhqu60"></title>
    <g>
        <defs>
            <linearGradient gradientUnits="userSpaceOnUse" y2="300" x2="507.68" y1="300" x1="92.32" id="svgcid-4l2fnv529bam">
                <stop stop-color="#373737" offset=".34"></stop>
                <stop stop-color="#303030" offset=".51"></stop>
            </linearGradient>
            <linearGradient xlink:href="#svgcid-4l2fnv529bam" y2="372.55" x2="273.14" y1="372.55" x1="192" id="svgcid-hhf5mi-f4gir5"></linearGradient>
            <linearGradient xlink:href="#svgcid-4l2fnv529bam" y2="372.71" x2="337.84" y1="372.71" x1="268.63" id="svgcid--ombb24-6qtfyx"></linearGradient>
            <linearGradient xlink:href="#svgcid-4l2fnv529bam" y2="372.65" x2="410.71" y1="372.65" x1="335.49" id="svgcid-qhobpf-7838bb"></linearGradient>
        </defs>
        <path d="M186.66 551.65A52.83 52.83 0 0 1 141 525.29L26.18 326.35a52.82 52.82 0 0 1 0-52.7L141 74.72a52.82 52.82 0 0 1 45.64-26.37h229.74A52.86 52.86 0 0 1 462 74.71l114.91 198.94a52.82 52.82 0 0 1 0 52.69L462 525.28a52.85 52.85 0 0 1-45.65 26.37z" fill="#ffdd54"></path>
        <path d="M416.38 57.35a43.79 43.79 0 0 1 37.85 21.87l114.88 198.93a43.78 43.78 0 0 1 0 43.7L454.23 520.79a43.8 43.8 0 0 1-37.85 21.86H186.66a43.8 43.8 0 0 1-37.85-21.87L34 321.84a43.81 43.81 0 0 1 0-43.69L148.81 79.21a43.81 43.81 0 0 1 37.85-21.86h229.72m0-18H186.66a61.69 61.69 0 0 0-53.44 30.87L18.38 269.15a61.71 61.71 0 0 0 0 61.7l114.84 198.93a61.69 61.69 0 0 0 53.44 30.87h229.72a61.68 61.68 0 0 0 53.44-30.87L584.7 330.85a61.66 61.66 0 0 0 0-61.7L469.82 70.22a61.68 61.68 0 0 0-53.44-30.87z" fill="#dbbe48"></path>
        <path d="M499.89 347l-37.58-28.14a7.08 7.08 0 0 1-2.84-5.64l-.13-25.37a7.11 7.11 0 0 1 2.84-5.71l38.07-28.5a18.52 18.52 0 0 0 4.94-24.09l-41.4-71.7a18.52 18.52 0 0 0-23.33-7.77l-43.36 18.56a7.12 7.12 0 0 1-6.31-.36l-22-12.58a7.09 7.09 0 0 1-3.53-5.31l-5.62-47a18.52 18.52 0 0 0-18.39-16.32h-82.47a18.52 18.52 0 0 0-18.39 16.32l-5.62 47a7.09 7.09 0 0 1-3.53 5.31l-22 12.58a7.12 7.12 0 0 1-6.31.36l-43.36-18.57a18.52 18.52 0 0 0-23.33 7.77l-41.4 71.7a18.52 18.52 0 0 0 4.94 24.09l38.07 28.5a7.08 7.08 0 0 1 2.83 5.71l-.12 25.37a7.08 7.08 0 0 1-2.84 5.64L100.11 347a18.52 18.52 0 0 0-5 24.09l41.05 71.08a18.52 18.52 0 0 0 23.33 7.77L203 431.31a7.1 7.1 0 0 1 6.36.39l21.91 12.8a7.1 7.1 0 0 1 3.47 5.28l5.6 46.84a18.52 18.52 0 0 0 18.39 16.32h82.44a18.52 18.52 0 0 0 18.39-16.32l5.6-46.84a7.1 7.1 0 0 1 3.47-5.28l21.91-12.8a7.1 7.1 0 0 1 6.36-.39l43.51 18.63a18.52 18.52 0 0 0 23.33-7.77l41-71.08a18.52 18.52 0 0 0-4.85-24.09zM355.56 235.92l41.63-28.15a5.84 5.84 0 0 1 9.11 4.84V305a5.84 5.84 0 0 1-9.11 4.84l-41.63-28.14zm-27.78 80.13l-89.39 1.25a41.05 41.05 0 0 1-41-41.05V218A17.78 17.78 0 0 1 215 200.27l89.19.5a41.05 41.05 0 0 1 41.4 41v56.46a17.78 17.78 0 0 1-17.81 17.82z" stroke="#303030" stroke-miterlimit="10" stroke-width="5" fill="url(#svgcid-4l2fnv529bam)"></path>
        <path d="M232.47 415.54a37.35 37.35 0 0 1-16.67-3.73 41.06 41.06 0 0 1-12.8-9.73 43.49 43.49 0 0 1-8.16-13.76 45.35 45.35 0 0 1-2.84-15.77 44.51 44.51 0 0 1 11.49-29.86 41.57 41.57 0 0 1 12.9-9.54 37.79 37.79 0 0 1 16.39-3.6 36.51 36.51 0 0 1 16.73 3.87 41.49 41.49 0 0 1 12.71 9.9 44.79 44.79 0 0 1 8.08 13.78 45.26 45.26 0 0 1 2.84 15.66 43.7 43.7 0 0 1-3 16.14 44.31 44.31 0 0 1-8.39 13.56 41.22 41.22 0 0 1-12.89 9.54 37.93 37.93 0 0 1-16.39 3.54zm.1-63a12.85 12.85 0 0 0-6.47 1.53 16 16 0 0 0-5 4.37 20.21 20.21 0 0 0-3.26 6.45 26 26 0 0 0-1.16 7.67 26.37 26.37 0 0 0 1.2 7.89 20.79 20.79 0 0 0 3.3 6.47 15.6 15.6 0 0 0 5 4.25 13.38 13.38 0 0 0 6.49 1.51 12.85 12.85 0 0 0 6.47-1.53 15.15 15.15 0 0 0 4.91-4.35 21.89 21.89 0 0 0 3.26-6.58 26.34 26.34 0 0 0 1.15-7.66 25.52 25.52 0 0 0-1.23-7.85 21.7 21.7 0 0 0-3.37-6.51 15.24 15.24 0 0 0-5-4.19 13.11 13.11 0 0 0-6.29-1.48z" fill="url(#svgcid-hhf5mi-f4gir5)"></path>
        <path d="M232.47 410.54a32.24 32.24 0 0 1-14.47-3.22 35.82 35.82 0 0 1-11.24-8.54 38.32 38.32 0 0 1-7.23-12.19 40.27 40.27 0 0 1-2.54-14 39.52 39.52 0 0 1 10.19-26.49 36.09 36.09 0 0 1 11.34-8.39 32.73 32.73 0 0 1 14.25-3.12 31.4 31.4 0 0 1 14.46 3.33 36.45 36.45 0 0 1 11.19 8.7 39.46 39.46 0 0 1 7.18 12.25 39.9 39.9 0 0 1 2.53 13.93 38.61 38.61 0 0 1-2.69 14.3 39.22 39.22 0 0 1-7.44 12 35.79 35.79 0 0 1-11.3 8.34 32.65 32.65 0 0 1-14.23 3.1zm-20.8-38a31.11 31.11 0 0 0 1.43 9.39 25.46 25.46 0 0 0 4.11 8 20.84 20.84 0 0 0 6.6 5.6 18.42 18.42 0 0 0 8.87 2.11 17.86 17.86 0 0 0 8.92-2.17 20.42 20.42 0 0 0 6.49-5.75 27 27 0 0 0 4-8.07 31.23 31.23 0 0 0 1.37-9.13 30.06 30.06 0 0 0-1.48-9.4 26.11 26.11 0 0 0-4.17-8 20.15 20.15 0 0 0-6.54-5.54 18.22 18.22 0 0 0-8.71-2.06 17.94 17.94 0 0 0-8.92 2.17 21 21 0 0 0-6.54 5.7 25.38 25.38 0 0 0-4.06 8 30.86 30.86 0 0 0-1.37 9.16z" fill="#ffdd54"></path>
        <path d="M305.08 415.86a61.94 61.94 0 0 1-18.15-2.75 56.72 56.72 0 0 1-16.2-7.88 5 5 0 0 1-1.55-6.36l6.44-12.56a5 5 0 0 1 3.67-2.66 5.12 5.12 0 0 1 .78-.06 5 5 0 0 1 3.53 1.46 15.51 15.51 0 0 0 2.52 1.76 47.35 47.35 0 0 0 5.3 2.77 40.65 40.65 0 0 0 6.67 2.29 28.81 28.81 0 0 0 7.2.9c7 0 7-2 7-2.7s-.19-1-.25-1.07a7.05 7.05 0 0 0-2.26-1.64 32.19 32.19 0 0 0-5.3-2c-2.34-.69-5-1.42-7.88-2.18a74.24 74.24 0 0 1-10.08-3.48 30.26 30.26 0 0 1-7.89-4.89 19.78 19.78 0 0 1-5.27-7.32 24.34 24.34 0 0 1-1.7-9.41 28.26 28.26 0 0 1 2.6-12.29 25.59 25.59 0 0 1 7.27-9.16 31.77 31.77 0 0 1 10.33-5.34 41.27 41.27 0 0 1 12.14-1.74 46.49 46.49 0 0 1 16.32 2.8 58.88 58.88 0 0 1 12.68 6.41 5 5 0 0 1 1.58 6.52l-6.44 11.82a5 5 0 0 1-3.67 2.56 5.81 5.81 0 0 1-.72 0 5 5 0 0 1-3.53-1.46 15 15 0 0 0-1.88-1.35 28.35 28.35 0 0 0-4-2.09A35.79 35.79 0 0 0 309 353a21.38 21.38 0 0 0-5.4-.69c-3.78 0-5.36.76-6 1.22a2.35 2.35 0 0 0-.95 2.23 1.84 1.84 0 0 0 .15.91 4.66 4.66 0 0 0 1.58 1.25 21.85 21.85 0 0 0 4.34 1.69c2.09.62 4.52 1.28 7.24 2 3.89 1 7.4 2.16 10.52 3.33a32.34 32.34 0 0 1 9 5 22.36 22.36 0 0 1 6.16 7.79 25 25 0 0 1 2.18 10.86 26.69 26.69 0 0 1-2.82 12.63 24.22 24.22 0 0 1-7.64 8.68 31 31 0 0 1-10.55 4.61 50.26 50.26 0 0 1-11.73 1.35z" fill="url(#svgcid--ombb24-6qtfyx)"></path>
        <path d="M323.76 354.71a17.86 17.86 0 0 0-2.69-2 33.36 33.36 0 0 0-4.75-2.49 41.52 41.52 0 0 0-6.07-2.05 26.2 26.2 0 0 0-6.65-.85q-6 0-9 2.22a7.33 7.33 0 0 0-2.95 6.23 6.4 6.4 0 0 0 1.1 3.85 9.52 9.52 0 0 0 3.22 2.69 27.35 27.35 0 0 0 5.33 2.11q3.23.94 7.44 2 5.49 1.47 10 3.16a27.42 27.42 0 0 1 7.6 4.22 17.62 17.62 0 0 1 4.8 6.07 20.22 20.22 0 0 1 1.69 8.71 21.72 21.72 0 0 1-2.27 10.29 19.27 19.27 0 0 1-6.07 6.91 26 26 0 0 1-8.87 3.86 45.55 45.55 0 0 1-10.55 1.21 56.39 56.39 0 0 1-16.68-2.53 51.46 51.46 0 0 1-14.77-7.18l6.44-12.56a20.1 20.1 0 0 0 3.43 2.48 52.1 52.1 0 0 0 5.85 3.06 45.1 45.1 0 0 0 7.5 2.59 34 34 0 0 0 8.44 1q12 0 12-7.7a6.48 6.48 0 0 0-1.37-4.22 11.68 11.68 0 0 0-3.9-3 37.35 37.35 0 0 0-6.13-2.32q-3.59-1.05-8-2.22a67.62 67.62 0 0 1-9.34-3.22 25.08 25.08 0 0 1-6.59-4.06 14.86 14.86 0 0 1-4-5.49 19.4 19.4 0 0 1-1.32-7.49 23.23 23.23 0 0 1 2.17-9.99 20.46 20.46 0 0 1 5.86-7.39 26.5 26.5 0 0 1 8.7-4.49 36 36 0 0 1 10.64-1.57 41.45 41.45 0 0 1 14.59 2.45 54.76 54.76 0 0 1 11.61 5.86z" fill="#ffdd54"></path>
        <path d="M375.84 415.65a35.69 35.69 0 0 1-16.61-3.94 42.87 42.87 0 0 1-12.66-10 45.5 45.5 0 0 1-8.18-13.87 44.47 44.47 0 0 1-.18-31.11 42.83 42.83 0 0 1 8-13.55 40.68 40.68 0 0 1 12.79-9.74 39.08 39.08 0 0 1 17.4-3.78 37.44 37.44 0 0 1 20 5.28 33 33 0 0 1 12.7 13.92 5 5 0 0 1-1.67 6.28l-11.19 7.7a5 5 0 0 1-2.84.88 5.07 5.07 0 0 1-1.44-.21 5 5 0 0 1-3.2-2.93 12.09 12.09 0 0 0-2.3-3.79 11.77 11.77 0 0 0-3.06-2.42 14.76 14.76 0 0 0-3.67-1.38 17 17 0 0 0-3.74-.46 13.12 13.12 0 0 0-6.61 1.57 15.29 15.29 0 0 0-4.92 4.35 21 21 0 0 0-3.15 6.48 26.69 26.69 0 0 0-1.11 7.51 25.24 25.24 0 0 0 1.27 8 21.13 21.13 0 0 0 3.48 6.53 16.69 16.69 0 0 0 5.18 4.32 12.62 12.62 0 0 0 6.18 1.51 15.48 15.48 0 0 0 3.74-.48 14.24 14.24 0 0 0 3.62-1.48 13.73 13.73 0 0 0 3.22-2.61 12.78 12.78 0 0 0 2.32-3.74 5 5 0 0 1 4.62-3.09 5 5 0 0 1 2.49.67l11.93 6.86a5 5 0 0 1 2.15 6.19 27.05 27.05 0 0 1-6 9.12 36.36 36.36 0 0 1-8.5 6.3 42.89 42.89 0 0 1-9.79 3.82 41 41 0 0 1-10.27 1.29z" fill="url(#svgcid-qhobpf-7838bb)"></path>
        <path d="M340.49 372a39.52 39.52 0 0 1 2.42-13.56 37.63 37.63 0 0 1 7-12 35.41 35.41 0 0 1 11.24-8.55 34 34 0 0 1 15.2-3.27 32.27 32.27 0 0 1 17.36 4.54A27.86 27.86 0 0 1 404.55 351l-11.19 7.7a16.68 16.68 0 0 0-7.65-8.76 20 20 0 0 0-4.91-1.85 22 22 0 0 0-4.85-.58 18.07 18.07 0 0 0-9.08 2.22 20.64 20.64 0 0 0-6.49 5.75 25.9 25.9 0 0 0-3.9 8 31.55 31.55 0 0 0-1.32 8.92 30 30 0 0 0 1.53 9.55 25.69 25.69 0 0 0 4.33 8.08 21.61 21.61 0 0 0 6.7 5.59 17.64 17.64 0 0 0 8.55 2.11 20.56 20.56 0 0 0 5-.63 18.63 18.63 0 0 0 4.9-2 18.42 18.42 0 0 0 4.38-3.53 17.31 17.31 0 0 0 3.28-5.23l11.92 6.86a22 22 0 0 1-4.9 7.45 31.69 31.69 0 0 1-7.34 5.43 38.28 38.28 0 0 1-8.65 3.38 36.35 36.35 0 0 1-9 1.16 30.56 30.56 0 0 1-14.3-3.38 37.6 37.6 0 0 1-11.18-8.81 40.91 40.91 0 0 1-9.89-26.43z" fill="#ffdd54"></path>
    </g>
</svg>