<?xml version="1.0" encoding="UTF-8" standalone="no"?>
<svg
   width="256px"
   height="256px"
   viewBox="0 0 256 256"
   version="1.1"
   preserveAspectRatio="xMidYMid"
   id="svg4"
   sodipodi:docname="GitHub-Actions-logo.svg"
   xml:space="preserve"
   inkscape:version="1.3.2 (091e20e, 2023-11-25, custom)"
   xmlns:inkscape="http://www.inkscape.org/namespaces/inkscape"
   xmlns:sodipodi="http://sodipodi.sourceforge.net/DTD/sodipodi-0.dtd"
   xmlns="http://www.w3.org/2000/svg"
   xmlns:svg="http://www.w3.org/2000/svg"
   xmlns:rdf="http://www.w3.org/1999/02/22-rdf-syntax-ns#"
   xmlns:cc="http://creativecommons.org/ns#"
   xmlns:dc="http://purl.org/dc/elements/1.1/"><defs
     id="defs4" /><sodipodi:namedview
     id="namedview4"
     pagecolor="#ffffff"
     bordercolor="#000000"
     borderopacity="0.25"
     inkscape:showpageshadow="2"
     inkscape:pageopacity="0.0"
     inkscape:pagecheckerboard="0"
     inkscape:deskcolor="#d1d1d1"
     inkscape:zoom="1.1890995"
     inkscape:cx="121.52053"
     inkscape:cy="152.63651"
     inkscape:window-width="1920"
     inkscape:window-height="1057"
     inkscape:window-x="-8"
     inkscape:window-y="-8"
     inkscape:window-maximized="1"
     inkscape:current-layer="svg4" /><title
     id="title1">GitHub Actions</title><path
     id="path1"
     style="fill:#2088ff;fill-opacity:1"
     d="M 53.603516,0 C 23.998607,0 0,23.991402 0,53.589844 0,79.605508 18.546077,101.28615 43.140625,106.15234 v 7.56446 c 0.0037,22.88267 0.256332,45.76929 -0.07813,68.64648 -0.264813,18.17679 14.927252,40.59002 39.363281,41.92383 h 3.167969 0.08594 c -5.38e-4,-0.002 -0.0014,-0.004 -0.002,-0.006 3.052021,-0.0459 5.502918,-2.53161 5.50586,-5.58398 -8.3e-5,-3.08715 -2.502692,-5.58976 -5.589844,-5.58985 -1.80054,0.15573 -4.658135,0.11075 -6.320312,-0.23828 -12.787959,-2.69144 -24.376026,-14.19067 -24.822266,-28.4375 -0.203423,-6.49425 -0.272044,-15.39804 -0.277344,-24.03906 v -2.79102 c 0.01145,-13.17625 0.154463,-25.04259 0.164063,-25.83203 v -2.44141 c 1.767553,1.16342 3.461735,2.39163 5.18164,3.56055 6.308762,4.28633 14.162755,6.27027 21.597657,6.32617 l 24.515622,-0.13476 c 0.75377,5.04758 2.54104,9.7488 5.0918,13.93164 0.58132,0.95327 1.20198,1.87648 1.86328,2.77148 0.0974,0.13227 0.19582,0.2636 0.29492,0.39453 0.5514,0.72624 1.12689,1.42972 1.72852,2.11329 0.18618,0.21214 0.37165,0.42493 0.5625,0.63281 0.35758,0.3884 0.71637,0.77344 1.08984,1.14648 0.45881,0.45955 0.93206,0.90446 1.41406,1.33985 0.33971,0.30606 0.68441,0.60476 1.03516,0.89843 0.55052,0.46213 1.11074,0.91137 1.6875,1.3418 0.30264,0.22532 0.61232,0.43991 0.92188,0.65625 0.56783,0.3978 1.14605,0.78188 1.73632,1.14844 0.30883,0.19134 0.62086,0.37603 0.93555,0.55859 0.6366,0.37017 1.28372,0.7216 1.94336,1.05469 0.20673,0.10416 0.40829,0.21597 0.61719,0.31641 0.008,0.004 0.017,0.008 0.0254,0.0117 0.79858,0.38406 1.61854,0.73256 2.44726,1.06055 0.21762,0.0859 0.43276,0.17583 0.65235,0.25781 0.86501,0.32366 1.7467,0.61078 2.64062,0.8711 0.19183,0.0557 0.3831,0.11131 0.57617,0.16406 0.91951,0.25179 1.85259,0.46821 2.79883,0.65039 0.17716,0.034 0.35517,0.0642 0.53321,0.0957 0.98351,0.17464 1.97792,0.31957 2.98632,0.41602 0.12178,0.0116 0.24508,0.0169 0.36719,0.0273 1.07222,0.092 2.15394,0.14844 3.25,0.14844 1.11399,0 2.21341,-0.0573 3.30274,-0.15234 0.0981,-0.009 0.19702,-0.0142 0.29492,-0.0234 1.01823,-0.0969 2.02275,-0.23945 3.01562,-0.41602 0.1794,-0.0318 0.35861,-0.0633 0.53711,-0.0977 0.94037,-0.18141 1.86729,-0.39827 2.78125,-0.64844 0.20484,-0.056 0.40791,-0.11451 0.61133,-0.17383 0.89273,-0.26082 1.77287,-0.54904 2.63672,-0.87305 0.21102,-0.079 0.41775,-0.16539 0.62695,-0.24804 0.83661,-0.33118 1.66483,-0.68201 2.47071,-1.07031 0.005,-0.003 0.0104,-0.005 0.0156,-0.008 0.21014,-0.10117 0.41315,-0.21341 0.62109,-0.31836 0.67381,-0.34074 1.33466,-0.70066 1.98438,-1.08007 0.302,-0.17598 0.60186,-0.35304 0.89844,-0.53711 0.59982,-0.3731 1.18706,-0.76457 1.76367,-1.16993 0.2935,-0.20587 0.58773,-0.40907 0.875,-0.62304 0.59482,-0.44402 1.1714,-0.90901 1.73828,-1.38672 0.32709,-0.27499 0.64935,-0.55407 0.9668,-0.83984 0.50309,-0.454 0.99483,-0.92012 1.47265,-1.4004 0.35447,-0.35536 0.69701,-0.7206 1.03711,-1.08984 0.22773,-0.2479 0.44884,-0.50188 0.66992,-0.75586 0.56226,-0.64412 1.10318,-1.30466 1.6211,-1.98633 0.11777,-0.15548 0.23226,-0.31334 0.34765,-0.4707 0.62061,-0.84366 1.20607,-1.71213 1.75586,-2.60742 0.0364,-0.0595 0.0713,-0.11994 0.10743,-0.17969 2.54234,-4.19215 4.31996,-8.90004 5.06054,-13.95508 v -0.51562 c 0.21078,-1.6102 0.33008,-3.24832 0.33008,-4.91602 0,-1.67242 -0.12008,-3.31511 -0.33203,-4.92969 v -0.63085 C 177.38204,109.82155 161.73816,95.875 142.83203,95.875 c -18.9831,0 -34.67366,14.06089 -37.24023,32.33203 H 81.507812 c -11.367682,0 -22.958137,-7.25028 -24.890624,-11.14453 -1.392785,-2.80778 -1.501954,-7.45841 -1.501954,-9.91992 C 84.019169,106.3401 107.20703,82.679862 107.20703,53.589844 107.20703,23.991402 83.207508,0 53.603516,0 Z m 0,10.992188 c 23.531637,0 42.609375,19.070971 42.609375,42.597656 0,23.525767 -19.077738,42.597656 -42.609375,42.597656 -23.531638,0 -42.607422,-19.071889 -42.607422,-42.597656 0,-23.526685 19.075784,-42.597656 42.607422,-42.597656 z m -10.337891,15.27539 c -5.74051,-0.225183 -10.571285,4.220404 -10.738281,11.15625 -0.131953,5.451574 -0.02398,10.907008 -0.01758,16.361328 0.0073,5.606391 -0.09887,11.215633 0.03125,16.81836 0.202502,8.693568 8.546892,13.683204 16.001953,9.34375 9.159388,-5.331568 18.179595,-10.90118 27.058593,-16.710938 7.389089,-4.831389 7.407145,-13.574135 0.09961,-18.394531 -8.723226,-5.754794 -17.567035,-11.325321 -26.53125,-16.710938 -1.9767,-1.193418 -3.990794,-1.78822 -5.904297,-1.863281 z m -0.0039,10.734375 c 8.919316,5.602726 17.083009,10.723053 25.236328,15.861328 1.234264,0.778665 1.19949,1.589316 -0.05859,2.365235 -7.612663,4.704053 -15.22279,9.41282 -22.828125,14.126953 -1.319481,0.81714 -2.338097,0.896988 -2.341797,-1.0625 -0.0074,-4.16357 -0.0108,-8.326198 -0.01172,-12.556641 v -5.482422 l 0.002,-3.708984 c 8.83e-4,-1.868796 9.53e-4,-3.758312 0.002,-5.673828 z m 99.570311,69.865237 c 14.70213,0 26.62109,11.91679 26.62109,26.61523 0,14.69755 -11.91896,26.61328 -26.62109,26.61328 -14.70119,0 -26.61914,-11.91573 -26.61914,-26.61328 0,-14.69844 11.91795,-26.61523 26.61914,-26.61523 z m 10.83203,13.72461 c -1.40699,0.002 -2.81268,0.53872 -3.88476,1.61328 l -12.45118,12.47851 -4.09179,-4.02734 -0.16992,-0.1582 c -2.17257,-1.96865 -5.53004,-1.88915 -7.60547,0.21875 -2.1304,2.16284 -2.10281,5.64357 0.0605,7.77343 l 7.98438,7.85938 0.17187,0.16211 c 2.16249,1.95491 5.49994,1.88589 7.57813,-0.19727 l 16.30859,-16.34375 0.16016,-0.16797 c 1.98197,-2.15918 1.92475,-5.51785 -0.16992,-7.60742 -1.07483,-1.0718 -2.48364,-1.60535 -3.89063,-1.60351 z"
     sodipodi:nodetypes="ssccccccccccscccccccsccccccccccccccccccccccsccccccccccccccccccccccccccsccscsccsssssssscccccccsccccccccccssssscccccccccccccc" /><g
     id="g4"
     transform="translate(20.74987,-0.095495)"><path
       d="m 133.22712,223.87908 c 3.03573,0 5.49784,-2.46059 5.49784,-5.49647 0,-3.03497 -2.46211,-5.49648 -5.49784,-5.49648 -3.03573,0 -5.49784,2.46151 -5.49784,5.49648 0,3.03588 2.46211,5.49647 5.49784,5.49647"
       fill="#85b3df"
       id="path2" /><path
       d="m 112.1789,223.87908 c 3.03573,0 5.49785,-2.46059 5.49785,-5.49647 0,-3.03497 -2.46212,-5.49648 -5.49785,-5.49648 -3.03572,0 -5.49784,2.46151 -5.49784,5.49648 0,3.03588 2.46212,5.49647 5.49784,5.49647"
       fill="#85b3df"
       id="path3" /></g><path
     d="m 142.75876,244.90103 c -14.70215,0 -26.61964,-11.91544 -26.61964,-26.61392 0,-14.69848 11.91749,-26.61392 26.61964,-26.61392 14.70123,0 26.62055,11.91544 26.62055,26.61392 0,14.69848 -11.91932,26.61392 -26.62055,26.61392 m 0,-64.22078 c -18.90617,0 -34.55028,13.9473 -37.21124,32.11039 h -6.15208 c -2.6857,0 -4.86468,2.4615 -4.86468,5.49647 0,3.03588 2.17898,5.49647 4.86468,5.49647 h 6.15208 c 2.66096,18.16309 18.30507,32.11039 37.21124,32.11039 20.77451,0 37.61624,-16.83753 37.61624,-37.60686 0,-20.76933 -16.84173,-37.60686 -37.61624,-37.60686"
     fill="#85b3df"
     id="path4" /><metadata
     id="metadata7"><rdf:RDF><cc:Work
         rdf:about=""><dc:title>GitHub Actions</dc:title></cc:Work></rdf:RDF></metadata></svg>
