<svg xmlns="http://www.w3.org/2000/svg" xmlns:xlink="http://www.w3.org/1999/xlink" xmlns:lucid="lucid" width="1920" height="240"><g transform="translate(0 0)" lucid:page-tab-id="_hQ8zkRaX~wp"><path d="M0 0h1920v240H0z" fill="#fdf6e3"/><path d="M80 80c0 16.57-13.43 30-30 30S20 96.57 20 80s13.43-30 30-30 30 13.43 30 30z" stroke="#a5a5a5" stroke-width="2" fill="#f6edc5"/><use xlink:href="#a" transform="matrix(1,0,0,1,20,112) translate(11.024999999999999 14.4)"/><path d="M82 80h58.5" stroke="#6c7777" stroke-width="2" fill="none"/><path d="M82.03 81h-1.1l.07-.98-.03-1.02h1.06z" stroke="#6c7777" stroke-width=".05" fill="#6c7777"/><path d="M155.76 80l-14.26 4.64v-9.28z" stroke="#6c7777" stroke-width="2" fill="#6c7777"/><path d="M160 20h160v120H160z" stroke="#a5a5a5" stroke-width="2" fill="#268bd2"/><use xlink:href="#b" transform="matrix(1,0,0,1,160,20) translate(20.505000000000003 51.9)"/><use xlink:href="#c" transform="matrix(1,0,0,1,160,20) translate(49.505 51.9)"/><use xlink:href="#d" transform="matrix(1,0,0,1,160,20) translate(109.505 51.9)"/><use xlink:href="#e" transform="matrix(1,0,0,1,160,20) translate(58.529999999999994 73.5)"/><path d="M640 20h160v120H640z" stroke="#a5a5a5" stroke-width="2" fill="#859900"/><use xlink:href="#f" transform="matrix(1,0,0,1,640,20) translate(18.104999999999997 40.65)"/><use xlink:href="#g" transform="matrix(1,0,0,1,640,20) translate(93.00500000000001 40.65)"/><use xlink:href="#h" transform="matrix(1,0,0,1,640,20) translate(41.529999999999994 62.25)"/><use xlink:href="#i" transform="matrix(1,0,0,1,640,20) translate(98.47999999999999 62.25)"/><use xlink:href="#j" transform="matrix(1,0,0,1,640,20) translate(36.15499999999999 83.85000000000001)"/><path d="M802 80h58.5" stroke="#6c7777" stroke-width="2" fill="none"/><path d="M802.03 81H801v-2h1.03z" stroke="#6c7777" stroke-width=".05" fill="#6c7777"/><path d="M875.76 80l-14.26 4.64v-9.28z" stroke="#6c7777" stroke-width="2" fill="#6c7777"/><path d="M880 20h160v120H880z" stroke="#a5a5a5" stroke-width="2" fill="#268bd2"/><use xlink:href="#k" transform="matrix(1,0,0,1,880,20) translate(33.505 63.15)"/><use xlink:href="#l" transform="matrix(1,0,0,1,880,20) translate(67.505 63.15)"/><use xlink:href="#m" transform="matrix(1,0,0,1,880,20) translate(87.505 63.15)"/><path d="M1042 80h58.5" stroke="#6c7777" stroke-width="2" fill="none"/><path d="M1042.03 81H1041v-2h1.03z" stroke="#6c7777" stroke-width=".05" fill="#6c7777"/><path d="M1115.76 80l-14.26 4.64v-9.28z" stroke="#6c7777" stroke-width="2" fill="#6c7777"/><path d="M1120 20h160v120h-160z" stroke="#a5a5a5" stroke-width="2" fill="#268bd2"/><use xlink:href="#n" transform="matrix(1,0,0,1,1120,20) translate(10.079999999999993 29.4)"/><use xlink:href="#o" transform="matrix(1,0,0,1,1120,20) translate(76.98 29.4)"/><use xlink:href="#p" transform="matrix(1,0,0,1,1120,20) translate(119.93 29.4)"/><use xlink:href="#q" transform="matrix(1,0,0,1,1120,20) translate(34.62999999999999 51)"/><use xlink:href="#r" transform="matrix(1,0,0,1,1120,20) translate(98.48 51)"/><use xlink:href="#s" transform="matrix(1,0,0,1,1120,20) translate(8.079999999999993 72.60000000000001)"/><use xlink:href="#t" transform="matrix(1,0,0,1,1120,20) translate(72.92999999999999 72.60000000000001)"/><use xlink:href="#p" transform="matrix(1,0,0,1,1120,20) translate(121.92999999999999 72.60000000000001)"/><use xlink:href="#u" transform="matrix(1,0,0,1,1120,20) translate(23.95499999999999 94.20000000000002)"/><use xlink:href="#v" transform="matrix(1,0,0,1,1120,20) translate(72.20499999999998 94.20000000000002)"/><path d="M1282 80h58.5" stroke="#6c7777" stroke-width="2" fill="none"/><path d="M1282.03 81H1281v-2h1.03z" stroke="#6c7777" stroke-width=".05" fill="#6c7777"/><path d="M1355.76 80l-14.26 4.64v-9.28z" stroke="#6c7777" stroke-width="2" fill="#6c7777"/><path d="M1360 20h160v120h-160z" stroke="#a5a5a5" stroke-width="2" fill="#268bd2"/><use xlink:href="#w" transform="matrix(1,0,0,1,1360,20) translate(8.604999999999999 40.65)"/><use xlink:href="#x" transform="matrix(1,0,0,1,1360,20) translate(49.555 40.65)"/><use xlink:href="#y" transform="matrix(1,0,0,1,1360,20) translate(37.60499999999999 62.25)"/><use xlink:href="#z" transform="matrix(1,0,0,1,1360,20) translate(34.58 83.85000000000001)"/><path d="M1522 80h58.5" stroke="#6c7777" stroke-width="2" fill="none"/><path d="M1522.03 81H1521v-2h1.03z" stroke="#6c7777" stroke-width=".05" fill="#6c7777"/><path d="M1595.76 80l-14.26 4.64v-9.28z" stroke="#6c7777" stroke-width="2" fill="#6c7777"/><path d="M1600 20h160v120h-160z" stroke="#a5a5a5" stroke-width="2" fill="#268bd2"/><use xlink:href="#A" transform="matrix(1,0,0,1,1600,20) translate(26.57999999999999 63.15)"/><use xlink:href="#B" transform="matrix(1,0,0,1,1600,20) translate(108.48 63.15)"/><path d="M1740 140c0 16.57-13.43 30-30 30s-30-13.43-30-30 13.43-30 30-30 30 13.43 30 30z" stroke="#a5a5a5" stroke-width="2" fill="#cb4b16"/><path d="M1694.25 157.5l10.5-24.5 10.5 8.75 10.5-19.25-8.75 26.25-10.5-9.63z" stroke="#a5a5a5" stroke-width="2" fill="#fff"/><use xlink:href="#C" transform="matrix(1,0,0,1,1680,172) translate(7 14.4)"/><path d="M1710 172v39h-270v-51.5" stroke="#6c7777" stroke-width="2" fill="none"/><path d="M1709.98 171l1.02-.03v1.06h-2v-1.1z" stroke="#6c7777" stroke-width=".05" fill="#6c7777"/><path d="M1440 144.24l4.63 14.26h-9.27z" stroke="#6c7777" stroke-width="2" fill="#6c7777"/><path d="M1900 80c0 16.57-13.43 30-30 30s-30-13.43-30-30 13.43-30 30-30 30 13.43 30 30z" stroke="#a5a5a5" stroke-width="6" fill="#f6edc5"/><use xlink:href="#D" transform="matrix(1,0,0,1,1840,112) translate(14 14.4)"/><path d="M322 80h58.5" stroke="#6c7777" stroke-width="2" fill="none"/><path d="M322.03 81H321v-2h1.03z" stroke="#6c7777" stroke-width=".05" fill="#6c7777"/><path d="M395.76 80l-14.26 4.64v-9.28z" stroke="#6c7777" stroke-width="2" fill="#6c7777"/><path d="M400 20h160v120H400z" stroke="#a5a5a5" stroke-width="2" fill="#859900"/><g><use xlink:href="#f" transform="matrix(1,0,0,1,400,20) translate(10.079999999999993 51.9)"/><use xlink:href="#E" transform="matrix(1,0,0,1,400,20) translate(84.98 51.9)"/><use xlink:href="#i" transform="matrix(1,0,0,1,400,20) translate(129.93 51.9)"/><use xlink:href="#F" transform="matrix(1,0,0,1,400,20) translate(27.57999999999999 73.5)"/></g><path d="M562 80h58.5" stroke="#6c7777" stroke-width="2" fill="none"/><path d="M562.03 81H561v-2h1.03z" stroke="#6c7777" stroke-width=".05" fill="#6c7777"/><path d="M635.76 80l-14.26 4.64v-9.28z" stroke="#6c7777" stroke-width="2" fill="#6c7777"/><path d="M1762 80h56.5" stroke="#6c7777" stroke-width="2" fill="none"/><path d="M1762.03 81H1761v-2h1.03z" stroke="#6c7777" stroke-width=".05" fill="#6c7777"/><path d="M1833.76 80l-14.26 4.64v-9.28z" stroke="#6c7777" stroke-width="2" fill="#6c7777"/><path d="M1020 160h260v60h-260z" fill="#fff" fill-opacity="0"/><path d="M1046 160h-26v60h26" stroke="#a5a5a5" stroke-width="2" fill="none"/><g><use xlink:href="#G" transform="matrix(1,0,0,1,1035,165) translate(0 31.1)"/><use xlink:href="#H" transform="matrix(1,0,0,1,1035,165) translate(25.95 31.1)"/><use xlink:href="#I" transform="matrix(1,0,0,1,1035,165) translate(77.8 31.1)"/><use xlink:href="#J" transform="matrix(1,0,0,1,1035,165) translate(143.7 31.1)"/><use xlink:href="#K" transform="matrix(1,0,0,1,1035,165) translate(157.64999999999998 31.1)"/></g><path d="M1018 190h-8.83m-8.84 0h-17.66m-8.84 0H960v-3.83m0-8.84v-17.66m0-8.84V142" stroke="#6c7777" stroke-width="2" fill="none"/><path d="M1019 191h-1.03v-2h1.03zM961 142.03h-2V141h2z" stroke="#6c7777" stroke-width=".05" fill="#6c7777"/><path d="M300 140c0 16.57-13.43 30-30 30s-30-13.43-30-30 13.43-30 30-30 30 13.43 30 30z" stroke="#a5a5a5" stroke-width="2" fill="#cb4b16"/><path d="M259.8 126.2L270 137l10.2-10.8 3.6 3.6L273 140l10.8 10.2-3.6 3.6L270 143l-10.2 10.8-3.6-3.6L267 140l-10.8-10.2z" stroke="#a5a5a5" stroke-width="2" fill="#fff"/><g><use xlink:href="#C" transform="matrix(1,0,0,1,240,172) translate(7 14.4)"/></g><path d="M400 190c0 16.57-13.43 30-30 30s-30-13.43-30-30 13.43-30 30-30 30 13.43 30 30z" stroke="#a5a5a5" stroke-width="6" fill="#f6edc5"/><g><use xlink:href="#D" transform="matrix(1,0,0,1,340,222) translate(14 14.4)"/></g><path d="M270 172v18h51.5" stroke="#6c7777" stroke-width="2" fill="none"/><path d="M269.98 171l1.02-.03v1.06h-2v-1.1z" stroke="#6c7777" stroke-width=".05" fill="#6c7777"/><path d="M336.76 190l-14.26 4.63v-9.26z" stroke="#6c7777" stroke-width="2" fill="#6c7777"/><defs><path fill="#6c7878" d="M185-189c-5-48-123-54-124 2 14 75 158 14 163 119 3 78-121 87-175 55-17-10-28-26-33-46l33-7c5 56 141 63 141-1 0-78-155-14-162-118-5-82 145-84 179-34 5 7 8 16 11 25" id="L"/><path fill="#6c7878" d="M59-47c-2 24 18 29 38 22v24C64 9 27 4 27-40v-127H5v-23h24l9-43h21v43h35v23H59v120" id="M"/><path fill="#6c7878" d="M141-36C126-15 110 5 73 4 37 3 15-17 15-53c-1-64 63-63 125-63 3-35-9-54-41-54-24 1-41 7-42 31l-33-3c5-37 33-52 76-52 45 0 72 20 72 64v82c-1 20 7 32 28 27v20c-31 9-61-2-59-35zM48-53c0 20 12 33 32 33 41-3 63-29 60-74-43 2-92-5-92 41" id="N"/><path fill="#6c7878" d="M114-163C36-179 61-72 57 0H25l-1-190h30c1 12-1 29 2 39 6-27 23-49 58-41v29" id="O"/><g id="a"><use transform="matrix(0.05,0,0,0.05,0,0)" xlink:href="#L"/><use transform="matrix(0.05,0,0,0.05,12,0)" xlink:href="#M"/><use transform="matrix(0.05,0,0,0.05,17,0)" xlink:href="#N"/><use transform="matrix(0.05,0,0,0.05,27,0)" xlink:href="#O"/><use transform="matrix(0.05,0,0,0.05,32.95,0)" xlink:href="#M"/></g><path fill="#f6edc5" d="M135-143c-3-34-86-38-87 0 15 53 115 12 119 90S17 21 10-45l28-5c4 36 97 45 98 0-10-56-113-15-118-90-4-57 82-63 122-42 12 7 21 19 24 35" id="P"/><path fill="#f6edc5" d="M100-194c63 0 86 42 84 106H49c0 40 14 67 53 68 26 1 43-12 49-29l28 8c-11 28-37 45-77 45C44 4 14-33 15-96c1-61 26-98 85-98zm52 81c6-60-76-77-97-28-3 7-6 17-6 28h103" id="Q"/><path fill="#f6edc5" d="M59-47c-2 24 18 29 38 22v24C64 9 27 4 27-40v-127H5v-23h24l9-43h21v43h35v23H59v120" id="R"/><g id="b"><use transform="matrix(0.05,0,0,0.05,0,0)" xlink:href="#P"/><use transform="matrix(0.05,0,0,0.05,9,0)" xlink:href="#Q"/><use transform="matrix(0.05,0,0,0.05,19,0)" xlink:href="#R"/></g><path fill="#f6edc5" d="M115-194c53 0 69 39 70 98 0 66-23 100-70 100C84 3 66-7 56-30L54 0H23l1-261h32v101c10-23 28-34 59-34zm-8 174c40 0 45-34 45-75 0-40-5-75-45-74-42 0-51 32-51 76 0 43 10 73 51 73" id="S"/><path fill="#f6edc5" d="M84 4C-5 8 30-112 23-190h32v120c0 31 7 50 39 49 72-2 45-101 50-169h31l1 190h-30c-1-10 1-25-2-33-11 22-28 36-60 37" id="T"/><path fill="#f6edc5" d="M85-194c31 0 48 13 60 33l-1-100h32l1 261h-30c-2-10 0-23-3-31C134-8 116 4 85 4 32 4 16-35 15-94c0-66 23-100 70-100zm9 24c-40 0-46 34-46 75 0 40 6 74 45 74 42 0 51-32 51-76 0-42-9-74-50-73" id="U"/><path fill="#f6edc5" d="M177-190C167-65 218 103 67 71c-23-6-38-20-44-43l32-5c15 47 100 32 89-28v-30C133-14 115 1 83 1 29 1 15-40 15-95c0-56 16-97 71-98 29-1 48 16 59 35 1-10 0-23 2-32h30zM94-22c36 0 50-32 50-73 0-42-14-75-50-75-39 0-46 34-46 75s6 73 46 73" id="V"/><g id="c"><use transform="matrix(0.05,0,0,0.05,0,0)" xlink:href="#S"/><use transform="matrix(0.05,0,0,0.05,10,0)" xlink:href="#T"/><use transform="matrix(0.05,0,0,0.05,20,0)" xlink:href="#U"/><use transform="matrix(0.05,0,0,0.05,30,0)" xlink:href="#V"/><use transform="matrix(0.05,0,0,0.05,40,0)" xlink:href="#Q"/><use transform="matrix(0.05,0,0,0.05,50,0)" xlink:href="#R"/></g><path fill="#f6edc5" d="M141-36C126-15 110 5 73 4 37 3 15-17 15-53c-1-64 63-63 125-63 3-35-9-54-41-54-24 1-41 7-42 31l-33-3c5-37 33-52 76-52 45 0 72 20 72 64v82c-1 20 7 32 28 27v20c-31 9-61-2-59-35zM48-53c0 20 12 33 32 33 41-3 63-29 60-74-43 2-92-5-92 41" id="W"/><path fill="#f6edc5" d="M117-194c89-4 53 116 60 194h-32v-121c0-31-8-49-39-48C34-167 62-67 57 0H25l-1-190h30c1 10-1 24 2 32 11-22 29-35 61-36" id="X"/><g id="d"><use transform="matrix(0.05,0,0,0.05,0,0)" xlink:href="#W"/><use transform="matrix(0.05,0,0,0.05,10,0)" xlink:href="#X"/><use transform="matrix(0.05,0,0,0.05,20,0)" xlink:href="#U"/></g><path fill="#f6edc5" d="M100-194c62-1 85 37 85 99 1 63-27 99-86 99S16-35 15-95c0-66 28-99 85-99zM99-20c44 1 53-31 53-75 0-43-8-75-51-75s-53 32-53 75 10 74 51 75" id="Y"/><path fill="#f6edc5" d="M24 0v-261h32V0H24" id="Z"/><g id="e"><use transform="matrix(0.05,0,0,0.05,0,0)" xlink:href="#V"/><use transform="matrix(0.05,0,0,0.05,10,0)" xlink:href="#Y"/><use transform="matrix(0.05,0,0,0.05,20,0)" xlink:href="#W"/><use transform="matrix(0.05,0,0,0.05,30,0)" xlink:href="#Z"/><use transform="matrix(0.05,0,0,0.05,33.95,0)" xlink:href="#P"/></g><path fill="#f6edc5" d="M114-163C36-179 61-72 57 0H25l-1-190h30c1 12-1 29 2 39 6-27 23-49 58-41v29" id="aa"/><path fill="#f6edc5" d="M96-169c-40 0-48 33-48 73s9 75 48 75c24 0 41-14 43-38l32 2c-6 37-31 61-74 61-59 0-76-41-82-99-10-93 101-131 147-64 4 7 5 14 7 22l-32 3c-4-21-16-35-41-35" id="ab"/><path fill="#f6edc5" d="M106-169C34-169 62-67 57 0H25v-261h32l-1 103c12-21 28-36 61-36 89 0 53 116 60 194h-32v-121c2-32-8-49-39-48" id="ac"/><g id="f"><use transform="matrix(0.05,0,0,0.05,0,0)" xlink:href="#aa"/><use transform="matrix(0.05,0,0,0.05,5.95,0)" xlink:href="#Q"/><use transform="matrix(0.05,0,0,0.05,15.949999999999998,0)" xlink:href="#P"/><use transform="matrix(0.05,0,0,0.05,24.95,0)" xlink:href="#Q"/><use transform="matrix(0.05,0,0,0.05,34.95,0)" xlink:href="#W"/><use transform="matrix(0.05,0,0,0.05,44.95,0)" xlink:href="#aa"/><use transform="matrix(0.05,0,0,0.05,50.900000000000006,0)" xlink:href="#ab"/><use transform="matrix(0.05,0,0,0.05,59.900000000000006,0)" xlink:href="#ac"/></g><path fill="#f6edc5" d="M115-194c55 1 70 41 70 98S169 2 115 4C84 4 66-9 55-30l1 105H24l-1-265h31l2 30c10-21 28-34 59-34zm-8 174c40 0 45-34 45-75s-6-73-45-74c-42 0-51 32-51 76 0 43 10 73 51 73" id="ad"/><path fill="#f6edc5" d="M206 0h-36l-40-164L89 0H53L-1-190h32L70-26l43-164h34l41 164 42-164h31" id="ae"/><g id="g"><use transform="matrix(0.05,0,0,0.05,0,0)" xlink:href="#ad"/><use transform="matrix(0.05,0,0,0.05,10,0)" xlink:href="#Y"/><use transform="matrix(0.05,0,0,0.05,20,0)" xlink:href="#ae"/><use transform="matrix(0.05,0,0,0.05,32.95,0)" xlink:href="#Q"/><use transform="matrix(0.05,0,0,0.05,42.95,0)" xlink:href="#aa"/></g><path fill="#f6edc5" d="M179-190L93 31C79 59 56 82 12 73V49c39 6 53-20 64-50L1-190h34L92-34l54-156h33" id="af"/><g id="h"><use transform="matrix(0.05,0,0,0.05,0,0)" xlink:href="#P"/><use transform="matrix(0.05,0,0,0.05,9,0)" xlink:href="#T"/><use transform="matrix(0.05,0,0,0.05,19,0)" xlink:href="#ad"/><use transform="matrix(0.05,0,0,0.05,29,0)" xlink:href="#ad"/><use transform="matrix(0.05,0,0,0.05,39,0)" xlink:href="#Z"/><use transform="matrix(0.05,0,0,0.05,42.95,0)" xlink:href="#af"/></g><g id="i"><use transform="matrix(0.05,0,0,0.05,0,0)" xlink:href="#Y"/><use transform="matrix(0.05,0,0,0.05,10,0)" xlink:href="#X"/></g><path fill="#f6edc5" d="M16-82v-28h88v28H16" id="ag"/><path fill="#f6edc5" d="M24-231v-30h32v30H24zM24 0v-190h32V0H24" id="ah"/><g id="j"><use transform="matrix(0.05,0,0,0.05,0,0)" xlink:href="#ad"/><use transform="matrix(0.05,0,0,0.05,10,0)" xlink:href="#P"/><use transform="matrix(0.05,0,0,0.05,19,0)" xlink:href="#T"/><use transform="matrix(0.05,0,0,0.05,29,0)" xlink:href="#ag"/><use transform="matrix(0.05,0,0,0.05,34.95,0)" xlink:href="#R"/><use transform="matrix(0.05,0,0,0.05,39.95,0)" xlink:href="#ah"/><use transform="matrix(0.05,0,0,0.05,43.900000000000006,0)" xlink:href="#Q"/><use transform="matrix(0.05,0,0,0.05,53.900000000000006,0)" xlink:href="#aa"/><use transform="matrix(0.05,0,0,0.05,59.85,0)" xlink:href="#ag"/><use transform="matrix(0.05,0,0,0.05,65.80000000000001,0)" xlink:href="#Z"/><use transform="matrix(0.05,0,0,0.05,69.75000000000001,0)" xlink:href="#ah"/><use transform="matrix(0.05,0,0,0.05,73.70000000000002,0)" xlink:href="#P"/><use transform="matrix(0.05,0,0,0.05,82.70000000000002,0)" xlink:href="#R"/></g><g id="k"><use transform="matrix(0.05,0,0,0.05,0,0)" xlink:href="#S"/><use transform="matrix(0.05,0,0,0.05,10,0)" xlink:href="#T"/><use transform="matrix(0.05,0,0,0.05,20,0)" xlink:href="#af"/></g><g id="l"><use transform="matrix(0.05,0,0,0.05,0,0)" xlink:href="#W"/><use transform="matrix(0.05,0,0,0.05,10,0)" xlink:href="#R"/></g><g id="m"><use transform="matrix(0.05,0,0,0.05,0,0)" xlink:href="#Y"/><use transform="matrix(0.05,0,0,0.05,10,0)" xlink:href="#X"/><use transform="matrix(0.05,0,0,0.05,20,0)" xlink:href="#ab"/><use transform="matrix(0.05,0,0,0.05,29,0)" xlink:href="#Q"/></g><g id="n"><use transform="matrix(0.05,0,0,0.05,0,0)" xlink:href="#ad"/><use transform="matrix(0.05,0,0,0.05,10,0)" xlink:href="#aa"/><use transform="matrix(0.05,0,0,0.05,15.949999999999998,0)" xlink:href="#Q"/><use transform="matrix(0.05,0,0,0.05,25.950000000000003,0)" xlink:href="#ad"/><use transform="matrix(0.05,0,0,0.05,35.95,0)" xlink:href="#W"/><use transform="matrix(0.05,0,0,0.05,45.95,0)" xlink:href="#aa"/><use transform="matrix(0.05,0,0,0.05,51.900000000000006,0)" xlink:href="#Q"/></g><g id="o"><use transform="matrix(0.05,0,0,0.05,0,0)" xlink:href="#R"/><use transform="matrix(0.05,0,0,0.05,5,0)" xlink:href="#Y"/><use transform="matrix(0.05,0,0,0.05,15,0)" xlink:href="#Y"/><use transform="matrix(0.05,0,0,0.05,25,0)" xlink:href="#Z"/><use transform="matrix(0.05,0,0,0.05,28.950000000000003,0)" xlink:href="#P"/></g><g id="p"><use transform="matrix(0.05,0,0,0.05,0,0)" xlink:href="#W"/><use transform="matrix(0.05,0,0,0.05,10,0)" xlink:href="#X"/><use transform="matrix(0.05,0,0,0.05,20,0)" xlink:href="#U"/></g><path fill="#f6edc5" d="M212-179c-10-28-35-45-73-45-59 0-87 40-87 99 0 60 29 101 89 101 43 0 62-24 78-52l27 14C228-24 195 4 139 4 59 4 22-46 18-125c-6-104 99-153 187-111 19 9 31 26 39 46" id="ai"/><g id="q"><use transform="matrix(0.05,0,0,0.05,0,0)" xlink:href="#ai"/><use transform="matrix(0.05,0,0,0.05,12.950000000000001,0)" xlink:href="#ag"/><use transform="matrix(0.05,0,0,0.05,18.900000000000002,0)" xlink:href="#ad"/><use transform="matrix(0.05,0,0,0.05,28.900000000000002,0)" xlink:href="#W"/><use transform="matrix(0.05,0,0,0.05,38.900000000000006,0)" xlink:href="#aa"/><use transform="matrix(0.05,0,0,0.05,44.85000000000001,0)" xlink:href="#R"/><use transform="matrix(0.05,0,0,0.05,49.85000000000001,0)" xlink:href="#P"/></g><path fill="#f6edc5" d="M143 0L79-87 56-68V0H24v-261h32v163l83-92h37l-77 82L181 0h-38" id="aj"/><g id="r"><use transform="matrix(0.05,0,0,0.05,0,0)" xlink:href="#Z"/><use transform="matrix(0.05,0,0,0.05,3.95,0)" xlink:href="#ah"/><use transform="matrix(0.05,0,0,0.05,7.9,0)" xlink:href="#aj"/><use transform="matrix(0.05,0,0,0.05,16.9,0)" xlink:href="#Q"/></g><path fill="#f6edc5" d="M210-169c-67 3-38 105-44 169h-31v-121c0-29-5-50-35-48C34-165 62-65 56 0H25l-1-190h30c1 10-1 24 2 32 10-44 99-50 107 0 11-21 27-35 58-36 85-2 47 119 55 194h-31v-121c0-29-5-49-35-48" id="ak"/><g id="s"><use transform="matrix(0.05,0,0,0.05,0,0)" xlink:href="#R"/><use transform="matrix(0.05,0,0,0.05,5,0)" xlink:href="#ac"/><use transform="matrix(0.05,0,0,0.05,15,0)" xlink:href="#Q"/><use transform="matrix(0.05,0,0,0.05,25,0)" xlink:href="#aa"/><use transform="matrix(0.05,0,0,0.05,30.950000000000003,0)" xlink:href="#ak"/><use transform="matrix(0.05,0,0,0.05,45.9,0)" xlink:href="#W"/><use transform="matrix(0.05,0,0,0.05,55.900000000000006,0)" xlink:href="#Z"/></g><g id="t"><use transform="matrix(0.05,0,0,0.05,0,0)" xlink:href="#ad"/><use transform="matrix(0.05,0,0,0.05,10,0)" xlink:href="#W"/><use transform="matrix(0.05,0,0,0.05,20,0)" xlink:href="#P"/><use transform="matrix(0.05,0,0,0.05,29,0)" xlink:href="#R"/><use transform="matrix(0.05,0,0,0.05,34,0)" xlink:href="#Q"/></g><path fill="#f6edc5" d="M185-189c-5-48-123-54-124 2 14 75 158 14 163 119 3 78-121 87-175 55-17-10-28-26-33-46l33-7c5 56 141 63 141-1 0-78-155-14-162-118-5-82 145-84 179-34 5 7 8 16 11 25" id="al"/><path fill="#f6edc5" d="M205 0l-28-72H64L36 0H1l101-248h38L239 0h-34zm-38-99l-47-123c-12 45-31 82-46 123h93" id="am"/><path fill="#f6edc5" d="M127-220V0H93v-220H8v-28h204v28h-85" id="an"/><g id="u"><use transform="matrix(0.05,0,0,0.05,0,0)" xlink:href="#al"/><use transform="matrix(0.05,0,0,0.05,12,0)" xlink:href="#am"/><use transform="matrix(0.05,0,0,0.05,22.65,0)" xlink:href="#an"/><use transform="matrix(0.05,0,0,0.05,32.25,0)" xlink:href="#am"/></g><path fill="#f6edc5" d="M87 75C49 33 22-17 22-94c0-76 28-126 65-167h31c-38 41-64 92-64 168S80 34 118 75H87" id="ao"/><path fill="#f6edc5" d="M33-261c38 41 65 92 65 168S71 34 33 75H2C39 34 66-17 66-93S39-220 2-261h31" id="ap"/><g id="v"><use transform="matrix(0.05,0,0,0.05,0,0)" xlink:href="#ab"/><use transform="matrix(0.05,0,0,0.05,9,0)" xlink:href="#W"/><use transform="matrix(0.05,0,0,0.05,19,0)" xlink:href="#S"/><use transform="matrix(0.05,0,0,0.05,29,0)" xlink:href="#Z"/><use transform="matrix(0.05,0,0,0.05,32.95,0)" xlink:href="#Q"/><use transform="matrix(0.05,0,0,0.05,42.95,0)" xlink:href="#ao"/><use transform="matrix(0.05,0,0,0.05,48.900000000000006,0)" xlink:href="#P"/><use transform="matrix(0.05,0,0,0.05,57.900000000000006,0)" xlink:href="#ap"/></g><g id="w"><use transform="matrix(0.05,0,0,0.05,0,0)" xlink:href="#aa"/><use transform="matrix(0.05,0,0,0.05,5.95,0)" xlink:href="#Q"/><use transform="matrix(0.05,0,0,0.05,15.949999999999998,0)" xlink:href="#W"/><use transform="matrix(0.05,0,0,0.05,25.950000000000003,0)" xlink:href="#U"/></g><g id="x"><use transform="matrix(0.05,0,0,0.05,0,0)" xlink:href="#ak"/><use transform="matrix(0.05,0,0,0.05,14.950000000000001,0)" xlink:href="#Y"/><use transform="matrix(0.05,0,0,0.05,24.950000000000003,0)" xlink:href="#R"/><use transform="matrix(0.05,0,0,0.05,29.950000000000003,0)" xlink:href="#ac"/><use transform="matrix(0.05,0,0,0.05,39.95,0)" xlink:href="#Q"/><use transform="matrix(0.05,0,0,0.05,49.95,0)" xlink:href="#aa"/><use transform="matrix(0.05,0,0,0.05,55.900000000000006,0)" xlink:href="#S"/><use transform="matrix(0.05,0,0,0.05,65.9,0)" xlink:href="#Y"/><use transform="matrix(0.05,0,0,0.05,75.9,0)" xlink:href="#W"/><use transform="matrix(0.05,0,0,0.05,85.9,0)" xlink:href="#aa"/><use transform="matrix(0.05,0,0,0.05,91.85000000000001,0)" xlink:href="#U"/></g><g id="y"><use transform="matrix(0.05,0,0,0.05,0,0)" xlink:href="#ah"/><use transform="matrix(0.05,0,0,0.05,3.95,0)" xlink:href="#X"/><use transform="matrix(0.05,0,0,0.05,13.949999999999998,0)" xlink:href="#P"/><use transform="matrix(0.05,0,0,0.05,22.95,0)" xlink:href="#R"/><use transform="matrix(0.05,0,0,0.05,27.950000000000003,0)" xlink:href="#W"/><use transform="matrix(0.05,0,0,0.05,37.95,0)" xlink:href="#Z"/><use transform="matrix(0.05,0,0,0.05,41.900000000000006,0)" xlink:href="#Z"/><use transform="matrix(0.05,0,0,0.05,45.85000000000001,0)" xlink:href="#W"/><use transform="matrix(0.05,0,0,0.05,55.85,0)" xlink:href="#R"/><use transform="matrix(0.05,0,0,0.05,60.85,0)" xlink:href="#ah"/><use transform="matrix(0.05,0,0,0.05,64.80000000000001,0)" xlink:href="#Y"/><use transform="matrix(0.05,0,0,0.05,74.80000000000001,0)" xlink:href="#X"/></g><g id="z"><use transform="matrix(0.05,0,0,0.05,0,0)" xlink:href="#ah"/><use transform="matrix(0.05,0,0,0.05,3.95,0)" xlink:href="#X"/><use transform="matrix(0.05,0,0,0.05,13.949999999999998,0)" xlink:href="#P"/><use transform="matrix(0.05,0,0,0.05,22.95,0)" xlink:href="#R"/><use transform="matrix(0.05,0,0,0.05,27.950000000000003,0)" xlink:href="#aa"/><use transform="matrix(0.05,0,0,0.05,33.9,0)" xlink:href="#T"/><use transform="matrix(0.05,0,0,0.05,43.9,0)" xlink:href="#ab"/><use transform="matrix(0.05,0,0,0.05,52.900000000000006,0)" xlink:href="#R"/><use transform="matrix(0.05,0,0,0.05,57.900000000000006,0)" xlink:href="#ah"/><use transform="matrix(0.05,0,0,0.05,61.85,0)" xlink:href="#Y"/><use transform="matrix(0.05,0,0,0.05,71.85,0)" xlink:href="#X"/><use transform="matrix(0.05,0,0,0.05,81.85,0)" xlink:href="#P"/></g><g id="A"><use transform="matrix(0.05,0,0,0.05,0,0)" xlink:href="#W"/><use transform="matrix(0.05,0,0,0.05,10,0)" xlink:href="#P"/><use transform="matrix(0.05,0,0,0.05,19,0)" xlink:href="#P"/><use transform="matrix(0.05,0,0,0.05,28,0)" xlink:href="#Q"/><use transform="matrix(0.05,0,0,0.05,38,0)" xlink:href="#ak"/><use transform="matrix(0.05,0,0,0.05,52.95,0)" xlink:href="#S"/><use transform="matrix(0.05,0,0,0.05,62.95,0)" xlink:href="#Z"/><use transform="matrix(0.05,0,0,0.05,66.9,0)" xlink:href="#Q"/></g><path fill="#f6edc5" d="M30-248c87 1 191-15 191 75 0 78-77 80-158 76V0H30v-248zm33 125c57 0 124 11 124-50 0-59-68-47-124-48v98" id="aq"/><g id="B"><use transform="matrix(0.05,0,0,0.05,0,0)" xlink:href="#aq"/><use transform="matrix(0.05,0,0,0.05,12,0)" xlink:href="#ai"/></g><path fill="#f6edc5" d="M30 0v-248h187v28H63v79h144v27H63v87h162V0H30" id="ar"/><path fill="#f6edc5" d="M108 0H70L1-190h34L89-25l56-165h34" id="as"/><g id="C"><use transform="matrix(0.05,0,0,0.05,0,0)" xlink:href="#ar"/><use transform="matrix(0.05,0,0,0.05,12,0)" xlink:href="#as"/><use transform="matrix(0.05,0,0,0.05,21,0)" xlink:href="#Q"/><use transform="matrix(0.05,0,0,0.05,31,0)" xlink:href="#X"/><use transform="matrix(0.05,0,0,0.05,41,0)" xlink:href="#R"/></g><path fill="#6c7878" d="M30 0v-248h187v28H63v79h144v27H63v87h162V0H30" id="at"/><path fill="#6c7878" d="M117-194c89-4 53 116 60 194h-32v-121c0-31-8-49-39-48C34-167 62-67 57 0H25l-1-190h30c1 10-1 24 2 32 11-22 29-35 61-36" id="au"/><path fill="#6c7878" d="M85-194c31 0 48 13 60 33l-1-100h32l1 261h-30c-2-10 0-23-3-31C134-8 116 4 85 4 32 4 16-35 15-94c0-66 23-100 70-100zm9 24c-40 0-46 34-46 75 0 40 6 74 45 74 42 0 51-32 51-76 0-42-9-74-50-73" id="av"/><g id="D"><use transform="matrix(0.05,0,0,0.05,0,0)" xlink:href="#at"/><use transform="matrix(0.05,0,0,0.05,12,0)" xlink:href="#au"/><use transform="matrix(0.05,0,0,0.05,22,0)" xlink:href="#av"/></g><g id="E"><use transform="matrix(0.05,0,0,0.05,0,0)" xlink:href="#ad"/><use transform="matrix(0.05,0,0,0.05,10,0)" xlink:href="#W"/><use transform="matrix(0.05,0,0,0.05,20,0)" xlink:href="#aa"/><use transform="matrix(0.05,0,0,0.05,25.950000000000003,0)" xlink:href="#R"/><use transform="matrix(0.05,0,0,0.05,30.950000000000003,0)" xlink:href="#P"/></g><path fill="#f6edc5" d="M33 0v-38h34V0H33" id="aw"/><g id="F"><use transform="matrix(0.05,0,0,0.05,0,0)" xlink:href="#ad"/><use transform="matrix(0.05,0,0,0.05,10,0)" xlink:href="#ab"/><use transform="matrix(0.05,0,0,0.05,19,0)" xlink:href="#ad"/><use transform="matrix(0.05,0,0,0.05,29,0)" xlink:href="#ah"/><use transform="matrix(0.05,0,0,0.05,32.95,0)" xlink:href="#ab"/><use transform="matrix(0.05,0,0,0.05,41.95,0)" xlink:href="#aj"/><use transform="matrix(0.05,0,0,0.05,50.95,0)" xlink:href="#Q"/><use transform="matrix(0.05,0,0,0.05,60.95,0)" xlink:href="#aa"/><use transform="matrix(0.05,0,0,0.05,65.9,0)" xlink:href="#aw"/><use transform="matrix(0.05,0,0,0.05,70.9,0)" xlink:href="#ab"/><use transform="matrix(0.05,0,0,0.05,79.9,0)" xlink:href="#Y"/><use transform="matrix(0.05,0,0,0.05,89.9,0)" xlink:href="#ak"/></g><path fill="#6c7878" d="M101-234c-31-9-42 10-38 44h38v23H63V0H32v-167H5v-23h27c-7-52 17-82 69-68v24" id="ax"/><path fill="#6c7878" d="M100-194c62-1 85 37 85 99 1 63-27 99-86 99S16-35 15-95c0-66 28-99 85-99zM99-20c44 1 53-31 53-75 0-43-8-75-51-75s-53 32-53 75 10 74 51 75" id="ay"/><g id="G"><use transform="matrix(0.05,0,0,0.05,0,0)" xlink:href="#ax"/><use transform="matrix(0.05,0,0,0.05,5,0)" xlink:href="#ay"/><use transform="matrix(0.05,0,0,0.05,15,0)" xlink:href="#O"/></g><path fill="#6c7878" d="M24-231v-30h32v30H24zM24 0v-190h32V0H24" id="az"/><path fill="#6c7878" d="M210-169c-67 3-38 105-44 169h-31v-121c0-29-5-50-35-48C34-165 62-65 56 0H25l-1-190h30c1 10-1 24 2 32 10-44 99-50 107 0 11-21 27-35 58-36 85-2 47 119 55 194h-31v-121c0-29-5-49-35-48" id="aA"/><path fill="#6c7878" d="M100-194c63 0 86 42 84 106H49c0 40 14 67 53 68 26 1 43-12 49-29l28 8c-11 28-37 45-77 45C44 4 14-33 15-96c1-61 26-98 85-98zm52 81c6-60-76-77-97-28-3 7-6 17-6 28h103" id="aB"/><path fill="#6c7878" d="M24 0v-261h32V0H24" id="aC"/><path fill="#6c7878" d="M179-190L93 31C79 59 56 82 12 73V49c39 6 53-20 64-50L1-190h34L92-34l54-156h33" id="aD"/><g id="H"><use transform="matrix(0.05,0,0,0.05,0,0)" xlink:href="#M"/><use transform="matrix(0.05,0,0,0.05,5,0)" xlink:href="#az"/><use transform="matrix(0.05,0,0,0.05,8.95,0)" xlink:href="#aA"/><use transform="matrix(0.05,0,0,0.05,23.9,0)" xlink:href="#aB"/><use transform="matrix(0.05,0,0,0.05,33.9,0)" xlink:href="#aC"/><use transform="matrix(0.05,0,0,0.05,37.85,0)" xlink:href="#aD"/></g><path fill="#6c7878" d="M84 4C-5 8 30-112 23-190h32v120c0 31 7 50 39 49 72-2 45-101 50-169h31l1 190h-30c-1-10 1-25-2-33-11 22-28 36-60 37" id="aE"/><path fill="#6c7878" d="M135-143c-3-34-86-38-87 0 15 53 115 12 119 90S17 21 10-45l28-5c4 36 97 45 98 0-10-56-113-15-118-90-4-57 82-63 122-42 12 7 21 19 24 35" id="aF"/><path fill="#6c7878" d="M68-38c1 34 0 65-14 84H32c9-13 17-26 17-46H33v-38h35" id="aG"/><g id="I"><use transform="matrix(0.05,0,0,0.05,0,0)" xlink:href="#O"/><use transform="matrix(0.05,0,0,0.05,5.95,0)" xlink:href="#aB"/><use transform="matrix(0.05,0,0,0.05,15.949999999999998,0)" xlink:href="#M"/><use transform="matrix(0.05,0,0,0.05,20.95,0)" xlink:href="#aE"/><use transform="matrix(0.05,0,0,0.05,30.950000000000003,0)" xlink:href="#O"/><use transform="matrix(0.05,0,0,0.05,36.9,0)" xlink:href="#au"/><use transform="matrix(0.05,0,0,0.05,46.9,0)" xlink:href="#aF"/><use transform="matrix(0.05,0,0,0.05,55.900000000000006,0)" xlink:href="#aG"/></g><g id="J"><use transform="matrix(0.05,0,0,0.05,0,0)" xlink:href="#az"/><use transform="matrix(0.05,0,0,0.05,3.95,0)" xlink:href="#ax"/></g><g id="K"><use transform="matrix(0.05,0,0,0.05,0,0)" xlink:href="#au"/><use transform="matrix(0.05,0,0,0.05,10,0)" xlink:href="#aB"/><use transform="matrix(0.05,0,0,0.05,20,0)" xlink:href="#aB"/><use transform="matrix(0.05,0,0,0.05,30,0)" xlink:href="#av"/><use transform="matrix(0.05,0,0,0.05,40,0)" xlink:href="#aB"/><use transform="matrix(0.05,0,0,0.05,50,0)" xlink:href="#av"/></g></defs></g></svg>