<?xml version="1.0" encoding="UTF-8" standalone="no"?>
<svg
   width="1920"
   height="1080"
   viewBox="0 0 1920 1080"
   version="1.1"
   id="svg888"
   inkscape:version="1.2.1 (9c6d41e410, 2022-07-14)"
   sodipodi:docname="GitGuiCli.svg"
   inkscape:export-filename="S:\github.com\cprima\cprimanet\biz\marketing\visualidentity\template_svg_1080p.png"
   inkscape:export-xdpi="96"
   inkscape:export-ydpi="96"
   xmlns:inkscape="http://www.inkscape.org/namespaces/inkscape"
   xmlns:sodipodi="http://sodipodi.sourceforge.net/DTD/sodipodi-0.dtd"
   xmlns="http://www.w3.org/2000/svg"
   xmlns:svg="http://www.w3.org/2000/svg"
   xmlns:rdf="http://www.w3.org/1999/02/22-rdf-syntax-ns#"
   xmlns:cc="http://creativecommons.org/ns#"
   xmlns:dc="http://purl.org/dc/elements/1.1/">
  <defs
     id="defs882">
    <rect
       x="115.05466"
       y="1051.9283"
       width="3476.2287"
       height="79.790828"
       id="rect9862" />
    <inkscape:path-effect
       effect="spiro"
       id="path-effect5961"
       is_visible="true"
       lpeversion="1" />
    <inkscape:path-effect
       effect="simplify"
       id="path-effect5957"
       is_visible="true"
       lpeversion="1"
       steps="1"
       threshold="0.00457143"
       smooth_angles="360"
       helper_size="0"
       simplify_individual_paths="false"
       simplify_just_coalesce="false" />
    <inkscape:path-effect
       effect="spiro"
       id="path-effect1406"
       is_visible="true"
       lpeversion="1" />
    <inkscape:path-effect
       effect="simplify"
       id="path-effect1402"
       is_visible="true"
       lpeversion="1"
       steps="1"
       threshold="0.00457143"
       smooth_angles="360"
       helper_size="0"
       simplify_individual_paths="false"
       simplify_just_coalesce="false" />
    <inkscape:path-effect
       effect="spiro"
       id="path-effect1179"
       is_visible="true"
       lpeversion="1" />
    <inkscape:path-effect
       effect="simplify"
       id="path-effect1175"
       is_visible="true"
       lpeversion="1"
       steps="1"
       threshold="0.00457143"
       smooth_angles="360"
       helper_size="0"
       simplify_individual_paths="false"
       simplify_just_coalesce="false" />
    <inkscape:path-effect
       effect="spiro"
       id="path-effect1169"
       is_visible="true"
       lpeversion="1" />
    <inkscape:path-effect
       effect="simplify"
       id="path-effect1165"
       is_visible="true"
       lpeversion="1"
       steps="1"
       threshold="0.00457143"
       smooth_angles="360"
       helper_size="0"
       simplify_individual_paths="false"
       simplify_just_coalesce="false" />
    <inkscape:path-effect
       effect="spiro"
       id="path-effect5483"
       is_visible="true"
       lpeversion="1" />
    <inkscape:path-effect
       effect="simplify"
       id="path-effect5481"
       is_visible="true"
       lpeversion="1"
       steps="1"
       threshold="0.00457143"
       smooth_angles="360"
       helper_size="0"
       simplify_individual_paths="false"
       simplify_just_coalesce="false" />
    <inkscape:path-effect
       effect="spiro"
       id="path-effect5477"
       is_visible="true"
       lpeversion="1" />
    <inkscape:path-effect
       effect="simplify"
       id="path-effect5475"
       is_visible="true"
       lpeversion="1"
       steps="1"
       threshold="0.00457143"
       smooth_angles="360"
       helper_size="0"
       simplify_individual_paths="false"
       simplify_just_coalesce="false" />
    <rect
       x="0"
       y="359.5"
       width="1920"
       height="360"
       id="rect1613" />
    <rect
       x="0"
       y="359.5"
       width="1920"
       height="180"
       id="rect1607" />
    <rect
       x="115.05466"
       y="1051.9283"
       width="3476.2288"
       height="79.790825"
       id="rect9862-0" />
  </defs>
  <sodipodi:namedview
     id="base"
     pagecolor="#ffffff"
     bordercolor="#666666"
     borderopacity="1.0"
     inkscape:pageopacity="0.0"
     inkscape:pageshadow="2"
     inkscape:zoom="0.9374137"
     inkscape:cx="974.48971"
     inkscape:cy="731.26732"
     inkscape:document-units="px"
     inkscape:current-layer="layer1"
     inkscape:document-rotation="0"
     showgrid="false"
     units="px"
     inkscape:window-width="1685"
     inkscape:window-height="1097"
     inkscape:window-x="1983"
     inkscape:window-y="23"
     inkscape:window-maximized="0"
     inkscape:pagecheckerboard="0"
     showguides="true"
     inkscape:guide-bbox="true"
     inkscape:showpageshadow="2"
     inkscape:deskcolor="#d1d1d1">
    <sodipodi:guide
       position="0,1080"
       orientation="0,1920"
       id="guide374"
       inkscape:locked="false" />
    <sodipodi:guide
       position="1920,1080"
       orientation="1080,0"
       id="guide376"
       inkscape:locked="false" />
    <sodipodi:guide
       position="1920,0"
       orientation="0,-1920"
       id="guide378"
       inkscape:locked="false" />
    <sodipodi:guide
       position="0,0"
       orientation="-1080,0"
       id="guide380"
       inkscape:locked="false" />
    <inkscape:page
       x="0"
       y="0"
       width="1920"
       height="1080"
       id="page577"
       inkscape:export-filename="..\..\..\..\..\..\..\net.cprima\net.cprima.2022.StarryArgon\input\GitGuiCli.png"
       inkscape:export-xdpi="96"
       inkscape:export-ydpi="96" />
    <inkscape:page
       x="1930"
       y="0"
       width="1920"
       height="1080"
       id="page579" />
    <inkscape:page
       x="5790"
       y="0"
       width="1920"
       height="1080"
       id="page637" />
  </sodipodi:namedview>
  <metadata
     id="metadata885">
    <rdf:RDF>
      <cc:Work
         rdf:about="">
        <dc:format>image/svg+xml</dc:format>
        <dc:type
           rdf:resource="http://purl.org/dc/dcmitype/StillImage" />
      </cc:Work>
    </rdf:RDF>
  </metadata>
  <g
     inkscape:label="backgrounds"
     inkscape:groupmode="layer"
     id="layer1"
     style="display:inline">
    <rect
       style="opacity:1;mix-blend-mode:normal;fill:#fdf6e3;fill-opacity:1;stroke-width:6.94023;stroke-linecap:round;stop-color:#000000"
       id="rect1460"
       width="5780"
       height="1080"
       x="0"
       y="0"
       inkscape:label="base3" />
    <rect
       style="display:none;opacity:1;mix-blend-mode:normal;fill:#eee8d5;fill-opacity:1;stroke-width:6.94023;stroke-linecap:round;stop-color:#000000"
       id="rect1451"
       width="5780"
       height="1080"
       x="0"
       y="0"
       inkscape:label="base2" />
  </g>
  <g
     inkscape:groupmode="layer"
     id="layer14"
     inkscape:label="broadcastdesign"
     style="display:none">
    <g
       inkscape:groupmode="layer"
       id="layer3"
       inkscape:label="ticker"
       style="display:none"
       sodipodi:insensitive="true">
      <rect
         y="1016"
         x="0"
         height="64"
         width="1920"
         id="rect4399"
         style="display:inline;fill:#002b36;fill-opacity:1;stroke:none;stroke-width:1;stroke-miterlimit:4;stroke-dasharray:none" />
      <text
         xml:space="preserve"
         id="text9860"
         style="font-size:32px;line-height:1;font-family:'Linux Libertine';-inkscape-font-specification:'Linux Libertine, Normal';text-align:center;word-spacing:0px;white-space:pre;shape-inside:url(#rect9862-0);display:inline"
         transform="translate(-892.45801,-14.676943)"
         x="852.12109"
         y="0"><tspan
           x="147.8252"
           y="1077.0207"
           id="tspan14178"><tspan
             style="fill:#fdf6e3"
             id="tspan14176">Please give feedback via the link in the description. 4 + 2 questions, no personal data collected.  Don't forget to subscribe to Anders' YouTube channel! Connect with my on LinkedIn, I will try to answer any questions and share my response with the participants.</tspan></tspan></text>
    </g>
    <g
       inkscape:groupmode="layer"
       id="layer8"
       inkscape:label="bug"
       style="display:none">
      <text
         xml:space="preserve"
         style="font-size:48px;line-height:1.25;font-family:'Linux Libertine';-inkscape-font-specification:'Linux Libertine, Normal';text-align:end;word-spacing:0px;text-anchor:end;fill:#002b36"
         x="1898.2344"
         y="70.816055"
         id="text2227"><tspan
           sodipodi:role="line"
           id="tspan2225"
           x="1898.2344"
           y="70.816055">cprima.net</tspan></text>
    </g>
    <g
       inkscape:groupmode="layer"
       id="layer7"
       inkscape:label="PIP-layout"
       style="display:none">
      <rect
         style="display:inline;fill:#268bd2;stroke:none;stroke-width:22.5296;stop-color:#000000"
         id="rect1086"
         width="1600"
         height="900"
         x="20"
         y="96" />
      <rect
         style="display:inline;fill:#93a1a1;stroke:none;stroke-width:5.00658;stop-color:#000000"
         id="rect1186"
         width="355.55554"
         height="200"
         x="1562.4445"
         y="814" />
      <rect
         style="display:inline;fill:#93a1a1;stroke:none;stroke-width:5.00658;stop-color:#000000"
         id="rect1206"
         width="355.55554"
         height="200"
         x="1562.4445"
         y="116" />
      <rect
         style="display:inline;fill:#fdf6e3;stroke:none;stroke-width:15.9308;stop-color:#000000"
         id="rect5655"
         width="800"
         height="900"
         x="20"
         y="96" />
    </g>
    <g
       inkscape:groupmode="layer"
       id="layer9"
       inkscape:label="toc-left"
       style="display:none">
      <g
         id="g4929"
         transform="matrix(1.0477454,0,0,1,-1.1933879,0)"
         inkscape:label="toc-bgs">
        <rect
           style="display:inline;fill:#eee8d5;stroke:none;stroke-width:2.37132;stop-color:#000000"
           id="rect925"
           width="754"
           height="72"
           x="24.994843"
           y="871.76343"
           rx="8"
           ry="8" />
        <rect
           style="display:inline;fill:#eee8d5;stroke:none;stroke-width:2.37132;stop-color:#000000"
           id="rect51905"
           width="754"
           height="72"
           x="24.994843"
           y="761.76343"
           rx="8"
           ry="8"
           inkscape:label="toc-bg-7" />
        <rect
           style="display:inline;fill:#eee8d5;stroke:none;stroke-width:2.37132;stop-color:#000000"
           id="rect921"
           width="754"
           height="72"
           x="24.994843"
           y="651.76343"
           rx="8"
           ry="8"
           inkscape:label="toc-bg-6" />
        <rect
           style="fill:#eee8d5;stroke:none;stroke-width:2.37132;stop-color:#000000"
           id="rect51903"
           width="754"
           height="72"
           x="24.994843"
           y="541.45325"
           rx="8"
           ry="8"
           inkscape:label="toc-bg-5" />
        <rect
           style="fill:#eee8d5;stroke:none;stroke-width:2.37132;stop-color:#000000"
           id="rect51421"
           width="754"
           height="72"
           x="24.994843"
           y="431.1431"
           rx="8"
           ry="8"
           inkscape:label="toc-bg-4" />
        <rect
           style="display:inline;fill:#eee8d5;stroke:none;stroke-width:2.65121;stop-color:#000000"
           id="rect51911"
           width="754"
           height="90"
           x="24.994843"
           y="320.83292"
           rx="8"
           ry="8"
           inkscape:label="toc-bg-3" />
        <rect
           style="display:inline;fill:#eee8d5;stroke:none;stroke-width:2.37132;stop-color:#000000"
           id="rect51907"
           width="754"
           height="72"
           x="24.994843"
           y="210.52274"
           rx="8"
           ry="8"
           inkscape:label="toc-bg-2" />
        <rect
           style="display:inline;fill:#eee8d5;stroke:none;stroke-width:2.37132;stop-color:#000000"
           id="rect51909"
           width="754"
           height="72"
           x="24.994843"
           y="100.21255"
           rx="8"
           ry="8"
           inkscape:label="toc-bg-1" />
      </g>
      <text
         xml:space="preserve"
         style="font-style:normal;font-variant:normal;font-weight:normal;font-stretch:normal;font-size:88px;line-height:1.25;font-family:'Linux Libertine';-inkscape-font-specification:'Linux Libertine, Normal';font-variant-ligatures:normal;font-variant-caps:normal;font-variant-numeric:normal;font-variant-east-asian:normal;display:inline;mix-blend-mode:normal;fill:#000000;fill-opacity:1;stroke:none"
         x="33.610424"
         y="167.60426"
         id="text1674-1"
         inkscape:label="toc-text"><tspan
           sodipodi:role="line"
           x="33.610424"
           y="167.60426"
           style="font-style:normal;font-variant:normal;font-weight:normal;font-stretch:normal;font-size:88px;font-family:'Linux Libertine';-inkscape-font-specification:'Linux Libertine, Normal';font-variant-ligatures:normal;font-variant-caps:normal;font-variant-numeric:normal;font-variant-east-asian:normal"
           id="tspan919">Bar</tspan><tspan
           sodipodi:role="line"
           x="33.610424"
           y="277.60425"
           style="font-style:normal;font-variant:normal;font-weight:normal;font-stretch:normal;font-size:88px;line-height:1.25;font-family:'Linux Libertine';-inkscape-font-specification:'Linux Libertine, Normal';font-variant-ligatures:normal;font-variant-caps:normal;font-variant-numeric:normal;font-variant-east-asian:normal;display:inline;mix-blend-mode:normal;fill:#000000;fill-opacity:1;stroke:none"
           id="tspan917">Foo</tspan><tspan
           sodipodi:role="line"
           x="33.610424"
           y="387.60425"
           style="font-style:normal;font-variant:normal;font-weight:normal;font-stretch:normal;font-size:88px;line-height:1.25;font-family:'Linux Libertine';-inkscape-font-specification:'Linux Libertine, Normal';font-variant-ligatures:normal;font-variant-caps:normal;font-variant-numeric:normal;font-variant-east-asian:normal;display:inline;mix-blend-mode:normal;fill:#000000;fill-opacity:1;stroke:none"
           id="tspan23603">Save Searches</tspan><tspan
           sodipodi:role="line"
           x="33.610424"
           y="497.60425"
           style="font-style:normal;font-variant:normal;font-weight:normal;font-stretch:normal;font-size:88px;line-height:1.25;font-family:'Linux Libertine';-inkscape-font-specification:'Linux Libertine, Normal';font-variant-ligatures:normal;font-variant-caps:normal;font-variant-numeric:normal;font-variant-east-asian:normal;display:inline;mix-blend-mode:normal;fill:#000000;fill-opacity:1;stroke:none"
           id="tspan20151">Subselect Results</tspan><tspan
           sodipodi:role="line"
           x="33.610424"
           y="607.60425"
           style="font-style:normal;font-variant:normal;font-weight:normal;font-stretch:normal;font-size:88px;line-height:1.25;font-family:'Linux Libertine';-inkscape-font-specification:'Linux Libertine, Normal';font-variant-ligatures:normal;font-variant-caps:normal;font-variant-numeric:normal;font-variant-east-asian:normal;display:inline;mix-blend-mode:normal;fill:#000000;fill-opacity:1;stroke:none"
           id="tspan19951">Search Result</tspan><tspan
           sodipodi:role="line"
           x="33.610424"
           y="717.60425"
           style="font-style:normal;font-variant:normal;font-weight:normal;font-stretch:normal;font-size:88px;line-height:1.25;font-family:'Linux Libertine';-inkscape-font-specification:'Linux Libertine, Normal';font-variant-ligatures:normal;font-variant-caps:normal;font-variant-numeric:normal;font-variant-east-asian:normal;display:inline;mix-blend-mode:normal;fill:#000000;fill-opacity:1;stroke:none"
           id="tspan16121">Regular Expressions</tspan><tspan
           sodipodi:role="line"
           x="33.610424"
           y="827.60425"
           style="font-style:normal;font-variant:normal;font-weight:normal;font-stretch:normal;font-size:88px;line-height:1.25;font-family:'Linux Libertine';-inkscape-font-specification:'Linux Libertine, Normal';font-variant-ligatures:normal;font-variant-caps:normal;font-variant-numeric:normal;font-variant-east-asian:normal;display:inline;mix-blend-mode:normal;fill:#000000;fill-opacity:1;stroke:none"
           id="tspan15921">Extended Search</tspan><tspan
           sodipodi:role="line"
           id="tspan1672-8"
           x="33.610424"
           y="937.60425"
           style="font-style:normal;font-variant:normal;font-weight:normal;font-stretch:normal;font-size:88px;line-height:1.25;font-family:'Linux Libertine';-inkscape-font-specification:'Linux Libertine, Normal';font-variant-ligatures:normal;font-variant-caps:normal;font-variant-numeric:normal;font-variant-east-asian:normal;display:inline;mix-blend-mode:normal;fill:#000000;fill-opacity:1;stroke:none">Normal Search</tspan></text>
    </g>
  </g>
  <g
     inkscape:groupmode="layer"
     id="layer13"
     inkscape:label="togaf"
     sodipodi:insensitive="true"
     style="display:none">
    <g
       inkscape:groupmode="layer"
       id="layer5"
       inkscape:label="app"
       style="display:none">
      <path
         id="rect4399-1-5"
         style="display:inline;fill:#b58900;fill-opacity:1;stroke:none;stroke-width:0.707107;stroke-miterlimit:4;stroke-dasharray:none"
         d="M 0,0 H 1920 V 12 L 0,52 Z"
         sodipodi:nodetypes="ccccc" />
    </g>
    <g
       inkscape:groupmode="layer"
       id="g1684"
       inkscape:label="biz"
       style="display:none">
      <path
         id="rect4399-1-5-0"
         style="display:inline;fill:#268bd2;fill-opacity:1;stroke:none;stroke-width:0.707107;stroke-miterlimit:4;stroke-dasharray:none"
         d="M 0,0 H 1920 V 12 L 0,52 Z"
         sodipodi:nodetypes="ccccc" />
      <rect
         style="opacity:1;fill:#eee8d5;fill-opacity:1;stroke:none;stroke-width:4;stroke-linecap:round;stop-color:#000000"
         id="rect1723"
         width="200.30829"
         height="151.7487"
         x="52.606216"
         y="-271.12433" />
    </g>
    <g
       inkscape:groupmode="layer"
       id="g1705"
       inkscape:label="dat"
       style="display:none">
      <path
         id="rect4399-1-5-7"
         style="display:inline;fill:#dc322f;fill-opacity:1;stroke:none;stroke-width:0.707107;stroke-miterlimit:4;stroke-dasharray:none"
         d="M 0,0 H 1920 V 12 L 0,52 Z"
         sodipodi:nodetypes="ccccc" />
    </g>
    <g
       inkscape:groupmode="layer"
       id="g1715"
       inkscape:label="tec"
       style="display:none">
      <path
         id="rect4399-1-5-2"
         style="display:inline;fill:#859900;fill-opacity:1;stroke:none;stroke-width:0.707107;stroke-miterlimit:4;stroke-dasharray:none"
         d="M 0,0 H 1920 V 12 L 0,52 Z"
         sodipodi:nodetypes="ccccc" />
    </g>
    <g
       inkscape:groupmode="layer"
       id="g1537"
       inkscape:label="lowerthird-app"
       style="display:none">
      <rect
         style="display:inline;fill:#b58900;fill-opacity:1;stroke:none;stroke-width:0.873478"
         id="rect1535"
         width="1920"
         height="206"
         x="0"
         y="810" />
    </g>
    <g
       inkscape:groupmode="layer"
       id="g1541"
       inkscape:label="lowerthird-biz"
       style="display:none">
      <rect
         style="display:inline;fill:#268bd2;fill-opacity:1;stroke:none;stroke-width:0.873478"
         id="rect1539"
         width="1920"
         height="206"
         x="0"
         y="810" />
    </g>
    <g
       inkscape:groupmode="layer"
       id="g1545"
       inkscape:label="lowerthird-dat"
       style="display:none">
      <rect
         style="display:inline;fill:#dc322f;fill-opacity:1;stroke:none;stroke-width:0.873478"
         id="rect1543"
         width="1920"
         height="206"
         x="0"
         y="810" />
    </g>
    <g
       inkscape:groupmode="layer"
       id="layer4"
       inkscape:label="lowerthird-tec"
       style="display:none">
      <rect
         style="display:inline;fill:#859900;fill-opacity:1;stroke:none;stroke-width:0.873478"
         id="rect4155-7"
         width="1920"
         height="206"
         x="0"
         y="810" />
    </g>
  </g>
  <g
     inkscape:groupmode="layer"
     id="layer2"
     inkscape:label="goldencut"
     style="display:none;opacity:0.303085"
     sodipodi:insensitive="true">
    <path
       style="display:inline;fill:none;fill-rule:evenodd;stroke:#000000;stroke-width:1;stroke-linecap:butt;stroke-linejoin:miter;stroke-miterlimit:4;stroke-dasharray:none;stroke-opacity:1"
       d="M 0,269.5 H 1920"
       id="path4237-9"
       inkscape:connector-curvature="0" />
    <path
       style="display:inline;fill:none;fill-rule:evenodd;stroke:#000000;stroke-width:1;stroke-linecap:butt;stroke-linejoin:miter;stroke-miterlimit:4;stroke-dasharray:none;stroke-opacity:1"
       d="M 0,539.5 H 1920"
       id="path4237-9-9"
       inkscape:connector-curvature="0" />
    <path
       style="display:inline;fill:none;fill-rule:evenodd;stroke:#000000;stroke-width:1;stroke-linecap:butt;stroke-linejoin:miter;stroke-miterlimit:4;stroke-dasharray:none;stroke-opacity:1"
       d="M 0,809.5 H 1920"
       id="path4237-9-9-8"
       inkscape:connector-curvature="0" />
    <path
       style="display:inline;fill:none;fill-rule:evenodd;stroke:#000000;stroke-width:1;stroke-linecap:butt;stroke-linejoin:miter;stroke-miterlimit:4;stroke-dasharray:none;stroke-opacity:1"
       d="M 0,359.5 H 1920"
       id="path4237-9-9-5"
       inkscape:connector-curvature="0" />
    <path
       style="display:inline;fill:none;fill-rule:evenodd;stroke:#000000;stroke-width:1;stroke-linecap:butt;stroke-linejoin:miter;stroke-miterlimit:4;stroke-dasharray:none;stroke-opacity:1"
       d="M 0,719.5 H 1920"
       id="path4237-9-9-1"
       inkscape:connector-curvature="0" />
    <path
       style="display:inline;fill:none;stroke:#000000;stroke-width:1px;stroke-linecap:butt;stroke-linejoin:miter;stroke-opacity:1"
       d="M 20,996 1620,96"
       id="path5473"
       inkscape:path-effect="#path-effect5475;#path-effect5477"
       inkscape:original-d="M 20,996 1620,96" />
    <path
       style="display:inline;fill:none;stroke:#000000;stroke-width:1px;stroke-linecap:butt;stroke-linejoin:miter;stroke-opacity:1"
       d="M 20,96 1620,996"
       id="path5479"
       inkscape:path-effect="#path-effect5481;#path-effect5483"
       inkscape:original-d="M 20,96 1620,996" />
    <path
       style="display:inline;fill:none;stroke:#000000;stroke-width:1px;stroke-linecap:butt;stroke-linejoin:miter;stroke-opacity:1"
       d="M 0,0 1920,1080"
       id="path1161"
       inkscape:path-effect="#path-effect1165;#path-effect1169"
       inkscape:original-d="M 0,0 1920,1080" />
    <path
       style="display:inline;fill:none;stroke:#000000;stroke-width:1px;stroke-linecap:butt;stroke-linejoin:miter;stroke-opacity:1"
       d="M 0,1080 1920,0"
       id="path1398"
       inkscape:path-effect="#path-effect1402;#path-effect1406"
       inkscape:original-d="M 0,1080 1920,0" />
    <g
       id="g6519"
       transform="translate(-3426.5425,81.90556)">
      <path
         id="path1430"
         style="opacity:0.392683;fill:none;stroke:#002b36;stroke-width:4;stroke-linecap:round;stop-color:#000000"
         d="m 4624.5425,243.75994 c 0,186.67225 -106.5562,378 -238,378 -131.4438,0 -238,-191.32775 -238,-378 0,-186.672238 106.5562,-297.999995 238,-297.999995 131.4438,0 238,111.327757 238,297.999995 z"
         sodipodi:nodetypes="sssss" />
      <path
         style="fill:none;stroke:#000000;stroke-width:1px;stroke-linecap:butt;stroke-linejoin:miter;stroke-opacity:1"
         d="m 4624.5425,281.75995 h -476"
         id="path6353" />
    </g>
    <text
       xml:space="preserve"
       style="font-size:36px;line-height:1.25;font-family:'Linux Libertine';-inkscape-font-specification:'Linux Libertine, Normal';word-spacing:0px;display:inline;fill:#002b36"
       x="1321.7205"
       y="370.93591"
       id="text3338"><tspan
         sodipodi:role="line"
         id="tspan3336"
         x="1321.7205"
         y="370.93591"
         style="font-size:36px;text-align:end;text-anchor:end">eyeline</tspan></text>
    <path
       style="display:inline;fill:none;stroke:#000000;stroke-width:0.999998px;stroke-linecap:butt;stroke-linejoin:miter;stroke-opacity:1"
       d="M 960.00001,1080 V 0"
       id="path6078" />
    <rect
       style="display:inline;fill:#657b83;stroke-width:5.99812;stroke-linecap:round;stroke-dasharray:23.9925, 5.99812;stop-color:#000000"
       id="rect1274"
       width="1280"
       height="720"
       x="320"
       y="270" />
    <rect
       style="display:inline;fill:#93a1a1;stroke-width:5.99811;stroke-linecap:round;stroke-dasharray:23.9925, 5.99811;stop-color:#000000"
       id="rect1036"
       width="1280"
       height="540"
       x="320"
       y="270" />
  </g>
  <g
     inkscape:groupmode="layer"
     id="layer6"
     inkscape:label="visualization"
     style="display:inline">
    <g
       id="g13616"
       transform="matrix(0.63004032,0,0,0.63004038,476.191,1118.7401)"
       style="stroke-width:1.5872">
      <g
         id="g13576"
         transform="translate(-10.34385,-85.341189)"
         style="stroke-width:1.5872">
        <path
           id="path11909"
           style="opacity:1;fill:none;stroke:#002b36;stroke-width:7.936;stroke-linecap:round;stroke-linejoin:round;stroke-dasharray:none;stop-color:#000000"
           d="m 341.76226,-1200.4178 a 297.5,147.5 0 0 1 170.97251,-45.4397 m 265.67271,45.3317 a 297.5,147.5 0 0 0 -170.97251,-45.4397 m 0.0271,-0.043 a 36.24959,37.5 0 0 0 3.84849,48.3373 72.49918,75 0 0 1 21.05115,58.3847 v 0 a 72.49918,75 0 0 1 -21.05115,47.6817 72.49918,75 0 0 1 -102.52786,0 72.49918,75 0 0 1 0,-106.0664 36.24959,37.5 0 0 0 10.52369,-23.8399 36.24959,37.5 0 0 0 -6.57158,-24.3463 m -171.18855,45.2236 a 147.5,297.5 0 0 1 45.4397,170.9725 m -45.3317,265.67274 a 147.5,297.5 0 0 0 45.4397,-170.9725 m 0.043,0.027 a 37.5,36.24959 0 0 0 -48.3373,3.8485 75,72.49918 0 0 1 -58.38467,21.0511 v 0 a 75,72.49918 0 0 1 -47.68169,-21.0511 75,72.49918 0 0 1 0,-102.52794 75,72.49918 0 0 1 106.06636,0 37.5,36.24959 0 0 0 23.8399,10.5237 37.5,36.24959 0 0 0 24.3463,-6.5716 m 391.42162,-170.8644 a 147.5,297.5 0 0 0 -45.4397,170.9725 m 45.3317,265.67274 a 147.5,297.5 0 0 1 -45.4397,-170.9725 m -0.043,0.027 a 37.5,36.24959 0 0 1 48.3373,3.8485 75,72.49918 0 0 0 58.3847,21.0511 v 0 a 75,72.49918 0 0 0 47.68169,-21.0511 75,72.49918 0 0 0 0,-102.52794 75,72.49918 0 0 0 -106.06639,0 37.5,36.24959 0 0 1 -23.8399,10.5237 37.5,36.24959 0 0 1 -24.3463,-6.5716 m -391.31362,265.56484 a 297.5,147.5 0 0 0 170.97251,45.4397 m 265.67271,-45.3317 a 297.5,147.5 0 0 1 -170.97251,45.4397 m 0.0271,0.043 a 36.24959,37.5 0 0 1 3.84849,-48.3373 72.49918,75 0 0 0 21.05115,-58.3847 v 0 a 72.49918,75 0 0 0 -21.05115,-47.6817 72.49918,75 0 0 0 -102.52786,0 72.49918,75 0 0 0 0,106.0664 36.24959,37.5 0 0 1 10.52369,23.8399 36.24959,37.5 0 0 1 -6.57158,24.3463" />
        <path
           style="color:#000000;fill:#268bd2;stroke-width:1.5872;stroke-linecap:round;stroke-linejoin:round;-inkscape-stroke:none"
           d="m 906.71409,-982.05768 c 0,17.8894 -7.0796,35.7798 -21.2383,49.4668 -28.3185,27.3744 -74.2733,27.3744 -102.5918,0 -6.8103,-6.5826 -15.8274,-10.5566 -25.4043,-11.2187 -9.2153,-0.6378 -18.376,1.8311 -25.9316,7.0019 a 2.5,2.5 0 0 0 -0.9238,1.418 2.5,2.5 0 0 0 -0.072,0.4004 2.5,2.5 0 0 0 -0.082,0.4414 c 5.1773,64.7194 20.7606,124.1696 44.4336,169.4336 -44.1598,23.1782 -102.6239,38.6668 -166.38278,43.9355 -3.9897,-6.3742 -5.9098,-13.929 -5.3828,-21.5449 0.582,-8.4178 4.08,-16.3285 9.8281,-22.2754 14.6257,-15.1301 21.9375,-34.9512 21.9375,-54.7715 v 0 c 0,-19.8203 -7.3118,-39.6394 -21.9375,-54.7695 -29.2509,-30.2592 -76.87,-30.2592 -106.121,0 -12.7497,13.1889 -20.4631,30.6706 -21.748,49.2461 -1.5484,22.3968 6.3754,44.3927 21.748,60.2949 11.3588,11.7505 13.0988,30.1147 4.3731,43.9297 -63.7229,-5.2646 -122.1564,-20.7375 -166.3086,-43.8926 23.749,-45.2959 39.3773,-104.8505 44.5645,-169.6933 a 2.5,2.5 0 0 0 -0.082,-0.4414 2.5,2.5 0 0 0 -0.074,-0.4024 2.5,2.5 0 0 0 -0.9219,-1.416 c -7.5557,-5.1709 -16.7144,-7.6416 -25.9297,-7.0039 -9.5769,0.6621 -18.5959,4.6381 -25.4063,11.2207 -28.3183,27.3744 -74.2713,27.3744 -102.5898,0 -28.3175,-27.374 -28.3175,-71.55962 0,-98.93362 12.3255,-11.9151 28.6989,-19.1489 46.1152,-20.3535 21.0008,-1.4519 41.6124,5.9862 56.4746,20.3535 13.8366,13.3753 35.6001,15.1029 51.4981,4.1074 a 2.5,2.5 0 0 0 0.068,-0.1054 2.5,2.5 0 0 0 0.795,-1.2325 2.5,2.5 0 0 0 0.1738,-0.2695 2.5,2.5 0 0 0 -0.066,-0.3105 2.5,2.5 0 0 0 0.057,-0.3106 c -5.187,-64.8421 -20.8178,-124.3957 -44.5664,-169.6914 44.1518,-23.155 102.5866,-38.6278 166.3086,-43.8926 8.7244,13.8148 6.9833,32.1778 -4.375,43.9278 -15.3727,15.9022 -23.2965,37.898 -21.748,60.2949 1.2848,18.5754 8.9982,36.0592 21.748,49.248 29.251,30.2591 76.872,30.2591 106.123,0 14.6256,-15.1301 21.9375,-34.9512 21.9375,-54.7715 0,-19.8202 -7.3119,-39.6413 -21.9375,-54.7714 -5.7481,-5.947 -9.2462,-13.8557 -9.8282,-22.2735 -0.527,-7.6159 1.3931,-15.1707 5.3828,-21.5449 63.72048,5.2653 122.15218,20.7359 166.30278,43.8906 -23.7486,45.2958 -39.3794,104.8513 -44.5664,169.6934 a 2.5,2.5 0 0 0 0.057,0.3105 2.5,2.5 0 0 0 0.1074,0.5801 2.5,2.5 0 0 0 0.795,1.2324 2.5,2.5 0 0 0 0.068,0.1055 c 15.898,10.9955 37.6595,9.2679 51.4961,-4.1074 14.8622,-14.3674 35.4739,-21.8074 56.4746,-20.3555 17.4163,1.2046 33.7917,8.4403 46.1172,20.3555 14.1587,13.687 21.2383,31.57542 21.2383,49.46482 z"
           id="path13450" />
        <text
           xml:space="preserve"
           style="font-size:85.3333px;line-height:1.25;font-family:'Linux Libertine';-inkscape-font-specification:'Linux Libertine, Normal';word-spacing:0px;stroke-width:1.5872"
           x="485.99774"
           y="-952.82819"
           id="text13508"><tspan
             sodipodi:role="line"
             id="tspan13506"
             x="485.99774"
             y="-952.82819"
             style="font-size:85.3333px;stroke-width:1.5872">skill</tspan></text>
      </g>
      <g
         id="g13582"
         transform="translate(-10.34385,-85.341189)"
         style="stroke-width:1.5872">
        <path
           style="color:#000000;fill:#2aa198;stroke-width:1.5872;stroke-linecap:round;stroke-linejoin:round;-inkscape-stroke:none"
           d="m 996.79466,-1328.7672 c 17.88944,0 35.77984,7.0796 49.46684,21.2383 27.3744,28.3185 27.3744,74.2733 0,102.5918 -6.5826,6.8103 -10.5566,15.8274 -11.2187,25.4043 -0.6378,9.2153 1.8311,18.376 7.0019,25.9316 a 2.5,2.5 0 0 0 1.418,0.9238 2.5,2.5 0 0 0 0.4004,0.072 2.5,2.5 0 0 0 0.4414,0.082 c 64.7194,-5.1773 124.1696,-20.7606 169.4336,-44.4336 23.1782,44.1598 38.6668,102.6239 43.9355,166.3828 -6.3742,3.9897 -13.929,5.9098 -21.5449,5.3828 -8.4178,-0.582 -16.3285,-4.08 -22.2754,-9.8281 -15.1301,-14.6257 -34.9512,-21.9375 -54.7715,-21.9375 v 0 c -19.8203,0 -39.6394,7.3118 -54.7695,21.9375 -30.2592,29.2509 -30.2592,76.87004 0,106.12104 13.1889,12.7497 30.6706,20.4631 49.2461,21.748 22.3968,1.5484 44.3927,-6.3754 60.2949,-21.748 11.7505,-11.3588 30.1147,-13.0988 43.9297,-4.3731 -5.2646,63.7229 -20.7375,122.1564 -43.8926,166.3086 -45.2959,-23.749 -104.8505,-39.3773 -169.6933,-44.5645 a 2.5,2.5 0 0 0 -0.4414,0.082 2.5,2.5 0 0 0 -0.4024,0.074 2.5,2.5 0 0 0 -1.416,0.9219 c -5.1709,7.5557 -7.6416,16.7144 -7.0039,25.9297 0.6621,9.5769 4.6381,18.5959 11.2207,25.4063 27.3744,28.3183 27.3744,74.2713 0,102.5898 -27.374,28.3175 -71.55964,28.3175 -98.93364,0 -11.91514,-12.3255 -19.14887,-28.6989 -20.35351,-46.1152 -1.4519,-21.0008 5.98617,-41.6124 20.35351,-56.4746 13.37533,-13.8366 15.1029,-35.6001 4.10743,-51.4981 a 2.5,2.5 0 0 0 -0.10547,-0.068 2.5,2.5 0 0 0 -1.23242,-0.795 2.5,2.5 0 0 0 -0.26954,-0.1738 2.5,2.5 0 0 0 -0.31054,0.066 2.5,2.5 0 0 0 -0.31055,-0.057 c -64.84209,5.187 -124.39571,20.8178 -169.69141,44.5664 -23.155,-44.1518 -38.62778,-102.5866 -43.89257,-166.3086 13.8148,-8.7244 32.17778,-6.9833 43.92773,4.375 15.9022,15.3727 37.898,23.2965 60.29492,21.748 18.57543,-1.2848 36.05918,-8.9982 49.24805,-21.748 30.25912,-29.251 30.25912,-76.87204 0,-106.12304 -15.13008,-14.6256 -34.95121,-21.9375 -54.77148,-21.9375 -19.82028,0 -39.64139,7.3119 -54.77149,21.9375 -5.94691,5.7481 -13.85563,9.2462 -22.27344,9.8282 -7.61587,0.527 -15.17071,-1.3931 -21.54492,-5.3828 5.2653,-63.7205 20.73595,-122.1522 43.89063,-166.3028 45.29575,23.7486 104.85127,39.3794 169.69336,44.5664 a 2.5,2.5 0 0 0 0.31054,-0.057 2.5,2.5 0 0 0 0.58007,-0.1074 2.5,2.5 0 0 0 1.23243,-0.795 2.5,2.5 0 0 0 0.10547,-0.068 c 10.9955,-15.898 9.2679,-37.6595 -4.10743,-51.4961 -14.36736,-14.8622 -21.80737,-35.4739 -20.35547,-56.4746 1.20465,-17.4163 8.44033,-33.7917 20.35547,-46.1172 13.68699,-14.1587 31.57543,-21.2383 49.46483,-21.2383 z"
           id="path11992" />
        <path
           id="path11994"
           style="opacity:1;fill:none;stroke:#002b36;stroke-width:7.936;stroke-linecap:round;stroke-linejoin:round;stroke-dasharray:none;stop-color:#000000"
           d="m 1214.8638,-1200.2446 a 147.5,297.5 0 0 1 45.4397,170.9725 m -45.3317,265.67274 a 147.5,297.5 0 0 0 45.4397,-170.97251 m 0.043,0.0271 a 37.5,36.24959 0 0 0 -48.3373,3.84849 75,72.49918 0 0 1 -58.3847,21.05115 v 0 a 75,72.49918 0 0 1 -47.6817,-21.05115 75,72.49918 0 0 1 0,-102.52792 75,72.49918 0 0 1 106.0664,0 37.5,36.24959 0 0 0 23.8399,10.5237 37.5,36.24959 0 0 0 24.3463,-6.5716 m -45.2236,-171.1885 a 297.5,147.5 0 0 1 -170.9725,45.4397 m -265.67274,-45.3317 a 297.5,147.5 0 0 0 170.9725,45.4397 m -0.027,0.043 a 36.24959,37.5 0 0 0 -3.84849,-48.3373 72.49918,75 0 0 1 -21.0511,-58.3847 v 0 a 72.49918,75 0 0 1 21.0511,-47.6817 72.49918,75 0 0 1 102.52793,0 72.49918,75 0 0 1 0,106.0664 36.24959,37.5 0 0 0 -10.5237,23.8399 36.24959,37.5 0 0 0 6.5716,24.3463 m 170.8644,391.42164 a 297.5,147.5 0 0 0 -170.9725,-45.4397 m -265.67274,45.3317 a 297.5,147.5 0 0 1 170.9725,-45.4397 m -0.027,-0.043 a 36.24959,37.5 0 0 1 -3.8485,48.3373 72.49918,75 0 0 0 -21.0511,58.3847 v 0 a 72.49918,75 0 0 0 21.0511,47.68169 72.49918,75 0 0 0 102.52794,0 72.49918,75 0 0 0 0,-106.06639 36.24959,37.5 0 0 1 -10.5237,-23.8399 36.24959,37.5 0 0 1 6.5716,-24.3463 M 778.43455,-1200.3526 a 147.5,297.5 0 0 0 -45.4397,170.9725 m 45.3317,265.67274 a 147.5,297.5 0 0 1 -45.4397,-170.97251 m -0.043,0.0271 a 37.5,36.24959 0 0 1 48.3373,3.84849 75,72.49918 0 0 0 58.3847,21.05115 v 0 a 75,72.49918 0 0 0 47.6817,-21.05115 75,72.49918 0 0 0 0,-102.52792 75,72.49918 0 0 0 -106.0664,0 37.5,36.24959 0 0 1 -23.8399,10.5237 37.5,36.24959 0 0 1 -24.3463,-6.5716" />
        <text
           xml:space="preserve"
           style="font-size:85.3333px;line-height:1.25;font-family:'Linux Libertine';-inkscape-font-specification:'Linux Libertine, Normal';word-spacing:0px;stroke-width:1.5872"
           x="925.64716"
           y="-954.36334"
           id="text13512"><tspan
             sodipodi:role="line"
             id="tspan13510"
             x="925.64716"
             y="-954.36334"
             style="font-size:85.3333px;stroke-width:1.5872">CLI</tspan></text>
      </g>
      <g
         id="g13588"
         transform="translate(-10.34385,-85.341189)"
         style="stroke-width:1.5872">
        <path
           id="path11913"
           style="opacity:1;fill:none;stroke:#002b36;stroke-width:7.936;stroke-linecap:round;stroke-linejoin:round;stroke-dasharray:none;stop-color:#000000"
           d="m 778.29956,-763.44836 a 297.5,147.5 0 0 1 170.97251,-45.4397 m 265.67273,45.3317 a 297.5,147.5 0 0 0 -170.9725,-45.4397 m 0.027,-0.043 a 36.24959,37.5 0 0 0 3.8485,48.3373 72.49918,75 0 0 1 21.0511,58.3847 v 0 a 72.49918,75 0 0 1 -21.0511,47.6817 72.49918,75 0 0 1 -102.5279,0 72.49918,75 0 0 1 0,-106.0664 36.24959,37.5 0 0 0 10.52369,-23.8399 36.24959,37.5 0 0 0 -6.57158,-24.3463 m -171.18855,45.2236 a 147.5,297.5 0 0 1 45.4397,170.9725 m -45.3317,265.67274 a 147.5,297.5 0 0 0 45.4397,-170.9725 m 0.043,0.027 a 37.5,36.24959 0 0 0 -48.3373,3.8485 75,72.49918 0 0 1 -58.38467,21.0511 v 0 a 75,72.49918 0 0 1 -47.68169,-21.0511 75,72.49918 0 0 1 0,-102.52794 75,72.49918 0 0 1 106.06636,0 37.5,36.24959 0 0 0 23.8399,10.5237 37.5,36.24959 0 0 0 24.3463,-6.5716 m 391.42164,-170.8644 a 147.5,297.5 0 0 0 -45.4397,170.9725 m 45.3317,265.67274 a 147.5,297.5 0 0 1 -45.4397,-170.9725 m -0.043,0.027 a 37.5,36.24959 0 0 1 48.3373,3.8485 75,72.49918 0 0 0 58.3847,21.0511 v 0 a 75,72.49918 0 0 0 47.6817,-21.0511 75,72.49918 0 0 0 0,-102.52794 75,72.49918 0 0 0 -106.0664,0 37.5,36.24959 0 0 1 -23.8399,10.5237 37.5,36.24959 0 0 1 -24.3463,-6.5716 m -391.31364,265.56484 a 297.5,147.5 0 0 0 170.97251,45.4397 m 265.67273,-45.3317 a 297.5,147.5 0 0 1 -170.9725,45.4397 m 0.027,0.043 a 36.24959,37.5 0 0 1 3.8485,-48.3373 72.49918,75 0 0 0 21.0511,-58.3847 v 0 a 72.49918,75 0 0 0 -21.0511,-47.6817 72.49918,75 0 0 0 -102.5279,0 72.49918,75 0 0 0 0,106.0664 36.24959,37.5 0 0 1 10.52369,23.8399 36.24959,37.5 0 0 1 -6.57158,24.3463" />
        <path
           style="color:#000000;fill:#b58900;stroke-width:1.5872;stroke-linecap:round;stroke-linejoin:round;-inkscape-stroke:none"
           d="m 1343.2513,-545.08823 c 0,17.8894 -7.0796,35.7798 -21.2383,49.4668 -28.3185,27.3744 -74.2733,27.3744 -102.5918,0 -6.8103,-6.5826 -15.8274,-10.5566 -25.4043,-11.2187 -9.2153,-0.6378 -18.376,1.8311 -25.9316,7.0019 a 2.5,2.5 0 0 0 -0.9238,1.418 2.5,2.5 0 0 0 -0.072,0.4004 2.5,2.5 0 0 0 -0.082,0.4414 c 5.1773,64.7194 20.7606,124.1696 44.4336,169.4336 -44.1598,23.1782 -102.6239,38.6668 -166.3828,43.9355 -3.9897,-6.3742 -5.9098,-13.929 -5.3828,-21.5449 0.582,-8.4178 4.08,-16.3285 9.8281,-22.2754 14.6257,-15.1301 21.9375,-34.9512 21.9375,-54.7715 v 0 c 0,-19.8203 -7.3118,-39.6394 -21.9375,-54.7695 -29.2509,-30.2592 -76.86998,-30.2592 -106.12098,0 -12.7497,13.1889 -20.4631,30.6706 -21.748,49.2461 -1.5484,22.3968 6.3754,44.3927 21.748,60.2949 11.3588,11.7505 13.0988,30.1147 4.3731,43.9297 -63.7229,-5.2646 -122.1564,-20.7375 -166.3086,-43.8926 23.749,-45.2959 39.3773,-104.8505 44.5645,-169.6933 a 2.5,2.5 0 0 0 -0.082,-0.4414 2.5,2.5 0 0 0 -0.074,-0.4024 2.5,2.5 0 0 0 -0.9219,-1.416 c -7.5557,-5.1709 -16.7144,-7.6416 -25.9297,-7.0039 -9.5769,0.6621 -18.5959,4.6381 -25.4063,11.2207 -28.3183,27.3744 -74.2713,27.3744 -102.5898,0 -28.3175,-27.374 -28.3175,-71.55962 0,-98.93362 12.3255,-11.9151 28.6989,-19.1489 46.1152,-20.3535 21.0008,-1.4519 41.6124,5.9862 56.4746,20.3535 13.8366,13.3753 35.6001,15.1029 51.4981,4.1074 a 2.5,2.5 0 0 0 0.068,-0.1054 2.5,2.5 0 0 0 0.795,-1.2325 2.5,2.5 0 0 0 0.1738,-0.2695 2.5,2.5 0 0 0 -0.066,-0.3105 2.5,2.5 0 0 0 0.057,-0.3106 c -5.187,-64.8421 -20.8178,-124.3957 -44.5664,-169.6914 44.1518,-23.155 102.5866,-38.6278 166.3086,-43.8926 8.7244,13.8148 6.9833,32.1778 -4.375,43.9278 -15.3727,15.9022 -23.2965,37.898 -21.748,60.2949 1.2848,18.5754 8.9982,36.0592 21.748,49.248 29.251,30.2591 76.87198,30.2591 106.12298,0 14.6256,-15.1301 21.9375,-34.9512 21.9375,-54.7715 0,-19.8202 -7.3119,-39.6413 -21.9375,-54.7714 -5.7481,-5.947 -9.2462,-13.8557 -9.8282,-22.2735 -0.527,-7.6159 1.3931,-15.1707 5.3828,-21.5449 63.7205,5.2653 122.1522,20.7359 166.3028,43.8906 -23.7486,45.2958 -39.3794,104.8513 -44.5664,169.6934 a 2.5,2.5 0 0 0 0.057,0.3105 2.5,2.5 0 0 0 0.1074,0.5801 2.5,2.5 0 0 0 0.795,1.2324 2.5,2.5 0 0 0 0.068,0.1055 c 15.898,10.9955 37.6595,9.2679 51.4961,-4.1074 14.8622,-14.3674 35.4739,-21.8074 56.4746,-20.3555 17.4163,1.2046 33.7917,8.4403 46.1172,20.3555 14.1587,13.687 21.2383,31.57542 21.2383,49.46482 z"
           id="path13452" />
        <text
           xml:space="preserve"
           style="font-size:85.3333px;line-height:1.25;font-family:'Linux Libertine';-inkscape-font-specification:'Linux Libertine, Normal';word-spacing:0px;stroke-width:1.5872"
           x="820.32666"
           y="-525.33789"
           id="text13516"><tspan
             sodipodi:role="line"
             id="tspan13514"
             x="820.32666"
             y="-525.33789"
             style="font-size:85.3333px;stroke-width:1.5872">filesystem</tspan></text>
      </g>
      <g
         id="g13594"
         transform="translate(-10.34385,-85.341189)"
         style="stroke-width:1.5872">
        <path
           id="path11911"
           style="opacity:1;fill:none;stroke:#002b36;stroke-width:7.936;stroke-linecap:round;stroke-linejoin:round;stroke-dasharray:none;stop-color:#000000"
           d="m 778.08336,-763.66446 a 147.5,297.5 0 0 1 45.4397,170.9725 m -45.3317,265.67272 a 147.5,297.5 0 0 0 45.4397,-170.97251 m 0.043,0.0271 a 37.5,36.24959 0 0 0 -48.3373,3.84849 75,72.49918 0 0 1 -58.3847,21.05115 v 0 a 75,72.49918 0 0 1 -47.6817,-21.05115 75,72.49918 0 0 1 0,-102.5279 75,72.49918 0 0 1 106.0664,0 37.5,36.24959 0 0 0 23.8399,10.5237 37.5,36.24959 0 0 0 24.3463,-6.5716 m -45.2236,-171.1885 a 297.5,147.5 0 0 1 -170.9725,45.4397 m -265.67274,-45.3317 a 297.5,147.5 0 0 0 170.9725,45.4397 m -0.027,0.043 a 36.24959,37.5 0 0 0 -3.84849,-48.3373 72.49918,75 0 0 1 -21.0511,-58.3847 v 0 a 72.49918,75 0 0 1 21.0511,-47.6817 72.49918,75 0 0 1 102.52793,0 72.49918,75 0 0 1 0,106.0664 36.24959,37.5 0 0 0 -10.52369,23.8399 36.24959,37.5 0 0 0 6.5716,24.3463 m 170.86439,391.42162 a 297.5,147.5 0 0 0 -170.9725,-45.4397 m -265.67274,45.3317 a 297.5,147.5 0 0 1 170.9725,-45.4397 m -0.027,-0.043 a 36.24959,37.5 0 0 1 -3.8485,48.3373 72.49918,75 0 0 0 -21.0511,58.3847 v 0 a 72.49918,75 0 0 0 21.0511,47.68169 72.49918,75 0 0 0 102.52794,0 72.49918,75 0 0 0 0,-106.06639 36.24959,37.5 0 0 1 -10.5237,-23.8399 36.24959,37.5 0 0 1 6.5716,-24.3463 M 341.65411,-763.77246 a 147.5,297.5 0 0 0 -45.4397,170.9725 m 45.3317,265.67272 a 147.5,297.5 0 0 1 -45.4397,-170.97251 m -0.043,0.0271 a 37.5,36.24959 0 0 1 48.3373,3.84849 75,72.49918 0 0 0 58.3847,21.05115 v 0 a 75,72.49918 0 0 0 47.6817,-21.05115 75,72.49918 0 0 0 0,-102.5279 75,72.49918 0 0 0 -106.0664,0 37.5,36.24959 0 0 1 -23.8399,10.5237 37.5,36.24959 0 0 1 -24.3463,-6.5716" />
        <path
           style="color:#000000;fill:#859900;stroke-width:1.5872;stroke-linecap:round;stroke-linejoin:round;-inkscape-stroke:none"
           d="m 560.0142,-892.18708 c 17.88944,0 35.77984,7.0796 49.46684,21.2383 27.3744,28.3185 27.3744,74.2733 0,102.5918 -6.5826,6.8103 -10.5566,15.8274 -11.2187,25.4043 -0.6378,9.2153 1.8311,18.376 7.0019,25.9316 a 2.5,2.5 0 0 0 1.418,0.9238 2.5,2.5 0 0 0 0.4004,0.072 2.5,2.5 0 0 0 0.4414,0.082 c 64.7194,-5.1773 124.1696,-20.7606 169.4336,-44.4336 23.1782,44.1598 38.6668,102.6239 43.9355,166.3828 -6.3742,3.9897 -13.929,5.9098 -21.5449,5.3828 -8.4178,-0.582 -16.3285,-4.08 -22.2754,-9.8281 -15.1301,-14.6257 -34.9512,-21.9375 -54.7715,-21.9375 v 0 c -19.8203,0 -39.6394,7.3118 -54.7695,21.9375 -30.2592,29.2509 -30.2592,76.87004 0,106.12104 13.1889,12.7497 30.6706,20.4631 49.2461,21.748 22.3968,1.5484 44.3927,-6.3754 60.2949,-21.748 11.7505,-11.3588 30.1147,-13.0988 43.9297,-4.3731 -5.2646,63.7229 -20.7375,122.1564 -43.8926,166.3086 -45.2959,-23.749 -104.8505,-39.3773 -169.6933,-44.5645 a 2.5,2.5 0 0 0 -0.4414,0.082 2.5,2.5 0 0 0 -0.4024,0.074 2.5,2.5 0 0 0 -1.416,0.9219 c -5.1709,7.5557 -7.6416,16.7144 -7.0039,25.9297 0.6621,9.5769 4.6381,18.5959 11.2207,25.4063 27.3744,28.3183 27.3744,74.2713 0,102.5898 -27.374,28.3175 -71.55964,28.3175 -98.93364,0 -11.91514,-12.3255 -19.14887,-28.6989 -20.35351,-46.1152 -1.4519,-21.0008 5.98617,-41.6124 20.35351,-56.4746 13.37533,-13.8366 15.1029,-35.6001 4.10743,-51.4981 a 2.5,2.5 0 0 0 -0.10547,-0.068 2.5,2.5 0 0 0 -1.23242,-0.795 2.5,2.5 0 0 0 -0.26954,-0.1738 2.5,2.5 0 0 0 -0.31054,0.066 2.5,2.5 0 0 0 -0.31055,-0.057 c -64.84209,5.187 -124.39571,20.8178 -169.69141,44.5664 -23.155,-44.1518 -38.62778,-102.5866 -43.89257,-166.3086 13.8148,-8.7244 32.17778,-6.9833 43.92773,4.375 15.9022,15.3727 37.898,23.2965 60.29492,21.748 18.57543,-1.2848 36.05918,-8.9982 49.24805,-21.748 30.25912,-29.251 30.25912,-76.87204 0,-106.12304 -15.13008,-14.6256 -34.95121,-21.9375 -54.77148,-21.9375 -19.82028,0 -39.64139,7.3119 -54.77149,21.9375 -5.94691,5.7481 -13.85563,9.2462 -22.27344,9.8282 -7.61587,0.527 -15.17071,-1.3931 -21.54492,-5.3828 5.2653,-63.7205 20.73595,-122.1522 43.89063,-166.3028 45.29575,23.7486 104.85127,39.3794 169.69336,44.5664 a 2.5,2.5 0 0 0 0.31054,-0.057 2.5,2.5 0 0 0 0.58007,-0.1074 2.5,2.5 0 0 0 1.23243,-0.795 2.5,2.5 0 0 0 0.10547,-0.068 c 10.9955,-15.898 9.2679,-37.6595 -4.10743,-51.4961 -14.36736,-14.8622 -21.80737,-35.4739 -20.35547,-56.4746 1.20465,-17.4163 8.44033,-33.7917 20.35547,-46.1172 13.68699,-14.1587 31.57543,-21.2383 49.46483,-21.2383 z"
           id="path13448" />
        <text
           xml:space="preserve"
           style="font-size:85.3333px;line-height:1.25;font-family:'Linux Libertine';-inkscape-font-specification:'Linux Libertine, Normal';word-spacing:0px;stroke-width:1.5872"
           x="488.86667"
           y="-517.7832"
           id="text13520"><tspan
             sodipodi:role="line"
             id="tspan13518"
             x="488.86667"
             y="-517.7832"
             style="font-size:85.3333px;stroke-width:1.5872">GUI</tspan></text>
      </g>
    </g>
  </g>
  <g
     inkscape:groupmode="layer"
     id="g1680"
     inkscape:label="title_text"
     style="display:none"
     sodipodi:insensitive="true">
    <text
       xml:space="preserve"
       style="font-style:normal;font-variant:normal;font-weight:normal;font-stretch:normal;font-size:85.3333px;line-height:1.25;font-family:'Linux Libertine';-inkscape-font-specification:'Linux Libertine, Normal';font-variant-ligatures:normal;font-variant-caps:normal;font-variant-numeric:normal;font-variant-east-asian:normal;display:none;opacity:1;mix-blend-mode:normal;fill:#002b36;fill-opacity:1;stroke:none"
       x="345.20108"
       y="511.89893"
       id="text1674"
       inkscape:label="middle2"><tspan
         sodipodi:role="line"
         id="tspan1672"
         x="0"
         y="0"
         style="font-style:normal;font-variant:normal;font-weight:normal;font-stretch:normal;font-size:85.3333px;font-family:'Linux Libertine';-inkscape-font-specification:'Linux Libertine, Normal';font-variant-ligatures:normal;font-variant-caps:normal;font-variant-numeric:normal;font-variant-east-asian:normal;fill:#002b36">Title A Lorem ipsum dolor sit amet</tspan></text>
    <text
       xml:space="preserve"
       style="font-style:normal;font-variant:normal;font-weight:normal;font-stretch:normal;font-size:85.3333px;line-height:1.25;font-family:'Linux Libertine';-inkscape-font-specification:'Linux Libertine, Normal';font-variant-ligatures:normal;font-variant-caps:normal;font-variant-numeric:normal;font-variant-east-asian:normal;display:none;opacity:1;mix-blend-mode:normal;fill:#002b36;fill-opacity:1;stroke:none"
       x="622.26361"
       y="597.89893"
       id="text1678"
       inkscape:label="middle1"><tspan
         sodipodi:role="line"
         id="tspan1676"
         x="0"
         y="0"
         style="font-style:normal;font-variant:normal;font-weight:normal;font-stretch:normal;font-size:85.3333px;font-family:'Linux Libertine';-inkscape-font-specification:'Linux Libertine, Normal';font-variant-ligatures:normal;font-variant-caps:normal;font-variant-numeric:normal;font-variant-east-asian:normal;fill:#002b36">Title B Foo Bar Baz</tspan></text>
    <text
       xml:space="preserve"
       style="font-style:normal;font-variant:normal;font-weight:normal;font-stretch:normal;font-size:85.3333px;line-height:1;font-family:'Linux Libertine';-inkscape-font-specification:'Linux Libertine, Normal';font-variant-ligatures:normal;font-variant-caps:normal;font-variant-numeric:normal;font-variant-east-asian:normal;text-align:center;text-anchor:middle;display:inline;mix-blend-mode:normal;fill:#002b36;fill-opacity:1;stroke:none"
       x="968.88831"
       y="167.89893"
       id="text1674-9"
       inkscape:label="top"><tspan
         sodipodi:role="line"
         id="tspan1672-3"
         x="968.88831"
         y="167.89893"
         style="font-style:normal;font-variant:normal;font-weight:normal;font-stretch:normal;font-size:85.3333px;font-family:'Linux Libertine';-inkscape-font-specification:'Linux Libertine, Normal';font-variant-ligatures:normal;font-variant-caps:normal;font-variant-numeric:normal;font-variant-east-asian:normal;text-align:center;text-anchor:middle;fill:#002b36">Git tool selection: GUI &amp;&amp; CLI</tspan></text>
  </g>
</svg>
