<?xml version="1.0" encoding="UTF-8" standalone="no"?>
<svg
   width="1920"
   height="1080"
   viewBox="0 0 1920 1080"
   version="1.1"
   id="svg888"
   inkscape:version="1.4 (86a8ad7, 2024-10-11)"
   sodipodi:docname="UiPathSolutionPackaging.svg"
   inkscape:export-filename="UiPathSolutionPackaging_001.png"
   inkscape:export-xdpi="96"
   inkscape:export-ydpi="96"
   xml:space="preserve"
   xmlns:inkscape="http://www.inkscape.org/namespaces/inkscape"
   xmlns:sodipodi="http://sodipodi.sourceforge.net/DTD/sodipodi-0.dtd"
   xmlns:xlink="http://www.w3.org/1999/xlink"
   xmlns="http://www.w3.org/2000/svg"
   xmlns:svg="http://www.w3.org/2000/svg"
   xmlns:rdf="http://www.w3.org/1999/02/22-rdf-syntax-ns#"
   xmlns:cc="http://creativecommons.org/ns#"
   xmlns:dc="http://purl.org/dc/elements/1.1/"><defs
     id="defs882"><rect
       x="115.05466"
       y="1051.9283"
       width="3476.2287"
       height="79.790828"
       id="rect9862" /><inkscape:path-effect
       effect="spiro"
       id="path-effect5961"
       is_visible="true"
       lpeversion="1" /><inkscape:path-effect
       effect="simplify"
       id="path-effect5957"
       is_visible="true"
       lpeversion="1"
       steps="1"
       threshold="0.00457143"
       smooth_angles="360"
       helper_size="0"
       simplify_individual_paths="false"
       simplify_just_coalesce="false" /><inkscape:path-effect
       effect="spiro"
       id="path-effect1406"
       is_visible="true"
       lpeversion="1" /><inkscape:path-effect
       effect="simplify"
       id="path-effect1402"
       is_visible="true"
       lpeversion="1"
       steps="1"
       threshold="0.00457143"
       smooth_angles="360"
       helper_size="0"
       simplify_individual_paths="false"
       simplify_just_coalesce="false" /><inkscape:path-effect
       effect="spiro"
       id="path-effect1179"
       is_visible="true"
       lpeversion="1" /><inkscape:path-effect
       effect="simplify"
       id="path-effect1175"
       is_visible="true"
       lpeversion="1"
       steps="1"
       threshold="0.00457143"
       smooth_angles="360"
       helper_size="0"
       simplify_individual_paths="false"
       simplify_just_coalesce="false" /><inkscape:path-effect
       effect="spiro"
       id="path-effect1169"
       is_visible="true"
       lpeversion="1" /><inkscape:path-effect
       effect="simplify"
       id="path-effect1165"
       is_visible="true"
       lpeversion="1"
       steps="1"
       threshold="0.00457143"
       smooth_angles="360"
       helper_size="0"
       simplify_individual_paths="false"
       simplify_just_coalesce="false" /><inkscape:path-effect
       effect="spiro"
       id="path-effect5483"
       is_visible="true"
       lpeversion="1" /><inkscape:path-effect
       effect="simplify"
       id="path-effect5481"
       is_visible="true"
       lpeversion="1"
       steps="1"
       threshold="0.00457143"
       smooth_angles="360"
       helper_size="0"
       simplify_individual_paths="false"
       simplify_just_coalesce="false" /><inkscape:path-effect
       effect="spiro"
       id="path-effect5477"
       is_visible="true"
       lpeversion="1" /><inkscape:path-effect
       effect="simplify"
       id="path-effect5475"
       is_visible="true"
       lpeversion="1"
       steps="1"
       threshold="0.00457143"
       smooth_angles="360"
       helper_size="0"
       simplify_individual_paths="false"
       simplify_just_coalesce="false" /><linearGradient
       inkscape:collect="always"
       id="linearGradient1085"><stop
         style="stop-color:#000000;stop-opacity:1"
         offset="0"
         id="stop1081" /><stop
         style="stop-color:#0c0c0c;stop-opacity:0.94901961;"
         offset="0.09260008"
         id="stop4251" /><stop
         style="stop-color:#848484;stop-opacity:0.47843137;"
         offset="0.92600071"
         id="stop3750" /><stop
         style="stop-color:#ffffff;stop-opacity:0"
         offset="1"
         id="stop1083" /></linearGradient><rect
       x="0"
       y="359.5"
       width="1920"
       height="360"
       id="rect1613" /><rect
       x="0"
       y="359.5"
       width="1920"
       height="180"
       id="rect1607" /><linearGradient
       inkscape:collect="always"
       xlink:href="#linearGradient1085"
       id="linearGradient2688"
       gradientUnits="userSpaceOnUse"
       gradientTransform="translate(-1.3671877e-7,-1.3251953e-5)"
       x1="313.80145"
       y1="991.67053"
       x2="313.80145"
       y2="39.515759" /><rect
       x="115.05466"
       y="1051.9283"
       width="3476.2288"
       height="79.790825"
       id="rect9862-0" /><rect
       x="115.05466"
       y="1051.9283"
       width="3476.2288"
       height="79.790825"
       id="rect3" /><style
       id="style1">.fa-secondary{opacity:.4}</style><style
       id="style1-0">.fa-secondary{opacity:.4}</style><style
       id="style1-8">.fa-secondary{opacity:.4}</style><style
       id="style1-4">.fa-secondary{opacity:.4}</style><style
       id="style1-1">.fa-secondary{opacity:.4}</style><style
       id="style1-15">.fa-secondary{opacity:.4}</style></defs><sodipodi:namedview
     id="base"
     pagecolor="#ffffff"
     bordercolor="#666666"
     borderopacity="1.0"
     inkscape:pageopacity="0.0"
     inkscape:pageshadow="2"
     inkscape:zoom="0.64"
     inkscape:cx="1081.25"
     inkscape:cy="328.125"
     inkscape:document-units="px"
     inkscape:current-layer="svg888"
     inkscape:document-rotation="0"
     showgrid="false"
     units="px"
     inkscape:window-width="2546"
     inkscape:window-height="1748"
     inkscape:window-x="1165"
     inkscape:window-y="33"
     inkscape:window-maximized="0"
     inkscape:pagecheckerboard="0"
     showguides="true"
     inkscape:guide-bbox="true"
     inkscape:showpageshadow="2"
     inkscape:deskcolor="#d1d1d1" /><metadata
     id="metadata885"><rdf:RDF><cc:Work
         rdf:about=""><dc:format>image/svg+xml</dc:format><dc:type
           rdf:resource="http://purl.org/dc/dcmitype/StillImage" /></cc:Work></rdf:RDF></metadata><g
     inkscape:label="background_base3"
     inkscape:groupmode="layer"
     id="layer1"
     style="display:inline"><rect
       style="opacity:1;mix-blend-mode:normal;fill:#fdf6e3;fill-opacity:1;stroke-width:4;stroke-linecap:round;stop-color:#000000"
       id="rect1451"
       width="1920"
       height="1080"
       x="0"
       y="0" /></g><g
     inkscape:groupmode="layer"
     id="layer11"
     inkscape:label="h2r"
     style="display:none" /><g
     inkscape:groupmode="layer"
     id="layer3"
     inkscape:label="ticker"
     style="display:inline"><rect
       y="1016"
       x="0"
       height="64"
       width="1920"
       id="rect4399"
       style="display:inline;fill:#002b36;fill-opacity:1;stroke:none;stroke-width:1;stroke-miterlimit:4;stroke-dasharray:none" /><text
       xml:space="preserve"
       id="text3"
       style="font-style:normal;font-variant:normal;font-weight:normal;font-stretch:normal;font-size:32px;line-height:1;font-family:'Linux Libertine';-inkscape-font-specification:'Linux Libertine, Normal';font-variant-ligatures:normal;font-variant-caps:normal;font-variant-numeric:normal;font-variant-east-asian:normal;text-align:center;word-spacing:0px;white-space:pre;shape-inside:url(#rect3);display:inline;opacity:1;fill:#eee8d5;stroke:none"
       transform="translate(-893.0752,-21.65348)"
       x="852.12109"
       y="0"><tspan
         x="1406.1064"
         y="1077.0208"
         id="tspan6">Copyright © 2024 Christian Prior-Mamulyan · License CC BY-SA 4.0</tspan></text><rect
       style="display:inline;fill:#cb4b16;stroke-width:8.00001;stroke-linecap:round;stroke-dasharray:24, 8.00001;paint-order:fill markers stroke;-moz-transition:500ms ease-in;-webkit-transition:500ms ease-in"
       id="rect1"
       width="1919.9999"
       height="138.79427"
       x="-3.6589911e-06"
       y="72.414398" /></g><g
     inkscape:groupmode="layer"
     id="layer4"
     inkscape:label="lowerthird-tec"
     style="display:none"><rect
       style="display:inline;fill:#859900;fill-opacity:1;stroke:none;stroke-width:0.873478"
       id="rect4155-7"
       width="1920"
       height="206"
       x="0"
       y="810" /></g><g
     inkscape:groupmode="layer"
     id="g1715"
     inkscape:label="tec"
     style="display:none"><path
       id="rect4399-1-5-2"
       style="display:inline;fill:#859900;fill-opacity:1;stroke:none;stroke-width:0.707107;stroke-miterlimit:4;stroke-dasharray:none"
       d="M 0,0 H 1920 V 12 L 0,52 Z"
       sodipodi:nodetypes="ccccc" /></g><g
     inkscape:groupmode="layer"
     id="g1545"
     inkscape:label="lowerthird-dat"
     style="display:none"><rect
       style="display:inline;fill:#dc322f;fill-opacity:1;stroke:none;stroke-width:0.873478"
       id="rect1543"
       width="1920"
       height="206"
       x="0"
       y="810" /></g><g
     inkscape:groupmode="layer"
     id="g1705"
     inkscape:label="dat"
     style="display:none"><path
       id="rect4399-1-5-7"
       style="display:inline;fill:#dc322f;fill-opacity:1;stroke:none;stroke-width:0.707107;stroke-miterlimit:4;stroke-dasharray:none"
       d="M 0,0 H 1920 V 12 L 0,52 Z"
       sodipodi:nodetypes="ccccc" /></g><g
     inkscape:groupmode="layer"
     id="g1541"
     inkscape:label="lowerthird-biz"
     style="display:none"><rect
       style="display:inline;fill:#268bd2;fill-opacity:1;stroke:none;stroke-width:0.873478"
       id="rect1539"
       width="1920"
       height="206"
       x="0"
       y="810" /></g><g
     inkscape:groupmode="layer"
     id="g1684"
     inkscape:label="biz"
     style="display:none"><path
       id="rect4399-1-5-0"
       style="display:inline;fill:#268bd2;fill-opacity:1;stroke:none;stroke-width:0.707107;stroke-miterlimit:4;stroke-dasharray:none"
       d="M 0,0 H 1920 V 12 L 0,52 Z"
       sodipodi:nodetypes="ccccc" /><rect
       style="opacity:1;fill:#eee8d5;fill-opacity:1;stroke:none;stroke-width:4;stroke-linecap:round;stop-color:#000000"
       id="rect1723"
       width="200.30829"
       height="151.7487"
       x="52.606216"
       y="-271.12433" /></g><g
     inkscape:groupmode="layer"
     id="g1537"
     inkscape:label="lowerthird-app"
     style="display:none"><rect
       style="display:inline;fill:#b58900;fill-opacity:1;stroke:none;stroke-width:0.873478"
       id="rect1535"
       width="1920"
       height="206"
       x="0"
       y="810" /></g><g
     inkscape:groupmode="layer"
     id="layer5"
     inkscape:label="app"
     style="display:none"><path
       id="rect4399-1-5"
       style="display:inline;fill:#b58900;fill-opacity:1;stroke:none;stroke-width:0.707107;stroke-miterlimit:4;stroke-dasharray:none"
       d="M 0,0 H 1920 V 12 L 0,52 Z"
       sodipodi:nodetypes="ccccc" /></g><g
     inkscape:groupmode="layer"
     id="layer2"
     inkscape:label="goldencut"
     style="display:none;opacity:0.303085"><path
       style="display:inline;fill:none;fill-rule:evenodd;stroke:#000000;stroke-width:1;stroke-linecap:butt;stroke-linejoin:miter;stroke-miterlimit:4;stroke-dasharray:none;stroke-opacity:1"
       d="M 0,269.5 H 1920"
       id="path4237-9"
       inkscape:connector-curvature="0" /><path
       style="display:inline;fill:none;fill-rule:evenodd;stroke:#000000;stroke-width:1;stroke-linecap:butt;stroke-linejoin:miter;stroke-miterlimit:4;stroke-dasharray:none;stroke-opacity:1"
       d="M 0,539.5 H 1920"
       id="path4237-9-9"
       inkscape:connector-curvature="0" /><path
       style="display:inline;fill:none;fill-rule:evenodd;stroke:#000000;stroke-width:1;stroke-linecap:butt;stroke-linejoin:miter;stroke-miterlimit:4;stroke-dasharray:none;stroke-opacity:1"
       d="M 0,809.5 H 1920"
       id="path4237-9-9-8"
       inkscape:connector-curvature="0" /><path
       style="display:inline;fill:none;fill-rule:evenodd;stroke:#000000;stroke-width:1;stroke-linecap:butt;stroke-linejoin:miter;stroke-miterlimit:4;stroke-dasharray:none;stroke-opacity:1"
       d="M 0,359.5 H 1920"
       id="path4237-9-9-5"
       inkscape:connector-curvature="0" /><path
       style="display:inline;fill:none;fill-rule:evenodd;stroke:#000000;stroke-width:1;stroke-linecap:butt;stroke-linejoin:miter;stroke-miterlimit:4;stroke-dasharray:none;stroke-opacity:1"
       d="M 0,719.5 H 1920"
       id="path4237-9-9-1"
       inkscape:connector-curvature="0" /><path
       style="display:inline;fill:none;stroke:#000000;stroke-width:1px;stroke-linecap:butt;stroke-linejoin:miter;stroke-opacity:1"
       d="M 20,996 1620,96"
       id="path5473"
       inkscape:path-effect="#path-effect5475;#path-effect5477"
       inkscape:original-d="M 20,996 1620,96" /><path
       style="display:inline;fill:none;stroke:#000000;stroke-width:1px;stroke-linecap:butt;stroke-linejoin:miter;stroke-opacity:1"
       d="M 20,96 1620,996"
       id="path5479"
       inkscape:path-effect="#path-effect5481;#path-effect5483"
       inkscape:original-d="M 20,96 1620,996" /><path
       style="display:inline;fill:none;stroke:#000000;stroke-width:1px;stroke-linecap:butt;stroke-linejoin:miter;stroke-opacity:1"
       d="M 0,0 1920,1080"
       id="path1161"
       inkscape:path-effect="#path-effect1165;#path-effect1169"
       inkscape:original-d="M 0,0 1920,1080" /><path
       style="display:inline;fill:none;stroke:#000000;stroke-width:1px;stroke-linecap:butt;stroke-linejoin:miter;stroke-opacity:1"
       d="M 0,1080 1920,0"
       id="path1398"
       inkscape:path-effect="#path-effect1402;#path-effect1406"
       inkscape:original-d="M 0,1080 1920,0" /><rect
       style="fill:#002b36;stroke:#002b36;stroke-width:24;stroke-linecap:round;stop-color:#000000"
       id="rect1553"
       width="334.72159"
       height="719.5"
       x="3197.592"
       y="-1143.972" /><g
       id="g6519"
       transform="translate(-3426.5425,81.90556)"><path
         id="path1430"
         style="opacity:0.392683;fill:none;stroke:#002b36;stroke-width:4;stroke-linecap:round;stop-color:#000000"
         d="m 4624.5425,243.75994 c 0,186.67225 -106.5562,378 -238,378 -131.4438,0 -238,-191.32775 -238,-378 0,-186.672238 106.5562,-297.999995 238,-297.999995 131.4438,0 238,111.327757 238,297.999995 z"
         sodipodi:nodetypes="sssss" /><path
         style="fill:none;stroke:#000000;stroke-width:1px;stroke-linecap:butt;stroke-linejoin:miter;stroke-opacity:1"
         d="m 4624.5425,281.75995 h -476"
         id="path6353" /></g><text
       xml:space="preserve"
       style="font-size:36px;line-height:1.25;font-family:'Linux Libertine';-inkscape-font-specification:'Linux Libertine, Normal';word-spacing:0px;display:inline;fill:#002b36"
       x="1321.7205"
       y="370.93591"
       id="text3338"><tspan
         sodipodi:role="line"
         id="tspan3336"
         x="1321.7205"
         y="370.93591"
         style="font-size:36px;text-align:end;text-anchor:end">eyeline</tspan></text><path
       style="display:inline;fill:none;stroke:#000000;stroke-width:0.999998px;stroke-linecap:butt;stroke-linejoin:miter;stroke-opacity:1"
       d="M 960.00001,1080 V 0"
       id="path6078" /><rect
       style="display:inline;fill:#657b83;stroke-width:5.99812;stroke-linecap:round;stroke-dasharray:23.9925, 5.99812;stop-color:#000000"
       id="rect1274"
       width="1280"
       height="720"
       x="320"
       y="270" /><rect
       style="display:inline;fill:#93a1a1;stroke-width:5.99811;stroke-linecap:round;stroke-dasharray:23.9925, 5.99811;stop-color:#000000"
       id="rect1036"
       width="1280"
       height="540"
       x="320"
       y="270" /></g><g
     inkscape:groupmode="layer"
     id="layer7"
     inkscape:label="PIP-layout"
     style="display:none"><rect
       style="display:inline;fill:#268bd2;stroke:none;stroke-width:22.5296;stop-color:#000000"
       id="rect1086"
       width="1600"
       height="900"
       x="20"
       y="96" /><rect
       style="display:inline;fill:#93a1a1;stroke:none;stroke-width:5.00658;stop-color:#000000"
       id="rect1186"
       width="355.55554"
       height="200"
       x="1562.4445"
       y="814" /><rect
       style="display:inline;fill:#93a1a1;stroke:none;stroke-width:5.00658;stop-color:#000000"
       id="rect1206"
       width="355.55554"
       height="200"
       x="1562.4445"
       y="116" /><rect
       style="display:inline;fill:#fdf6e3;stroke:none;stroke-width:15.9308;stop-color:#000000"
       id="rect5655"
       width="800"
       height="900"
       x="20"
       y="96" /></g><g
     inkscape:groupmode="layer"
     id="layer8"
     inkscape:label="bug"
     style="display:none"><text
       xml:space="preserve"
       style="font-size:48px;line-height:1.25;font-family:'Linux Libertine';-inkscape-font-specification:'Linux Libertine, Normal';text-align:end;word-spacing:0px;text-anchor:end;fill:#002b36"
       x="1898.2344"
       y="70.816055"
       id="text2227"><tspan
         sodipodi:role="line"
         id="tspan2225"
         x="1898.2344"
         y="70.816055">cprima.net</tspan></text></g><g
     inkscape:groupmode="layer"
     id="layer9"
     inkscape:label="toc-left"
     style="display:none"><g
       id="g4929"
       transform="matrix(1.0477454,0,0,1,-1.1933879,0)"><rect
         style="fill:#eee8d5;stroke:none;stroke-width:2.65121;stop-color:#000000"
         id="rect51911"
         width="754"
         height="90"
         x="24.994843"
         y="320.83292"
         rx="8"
         ry="8" /><rect
         style="fill:#eee8d5;stroke:none;stroke-width:2.37132;stop-color:#000000"
         id="rect51907"
         width="754"
         height="72"
         x="24.994843"
         y="210.52274"
         rx="8"
         ry="8" /><rect
         style="fill:#eee8d5;stroke:none;stroke-width:2.37132;stop-color:#000000"
         id="rect51909"
         width="754"
         height="72"
         x="24.994843"
         y="100.21255"
         rx="8"
         ry="8" /><rect
         style="fill:#eee8d5;stroke:none;stroke-width:2.37132;stop-color:#000000"
         id="rect51905"
         width="754"
         height="72"
         x="24.994843"
         y="651.76343"
         rx="8"
         ry="8" /><rect
         style="fill:#eee8d5;stroke:none;stroke-width:2.37132;stop-color:#000000"
         id="rect51903"
         width="754"
         height="72"
         x="24.994843"
         y="541.45325"
         rx="8"
         ry="8" /><rect
         style="fill:#eee8d5;stroke:none;stroke-width:2.37132;stop-color:#000000"
         id="rect51421"
         width="754"
         height="72"
         x="24.994843"
         y="431.1431"
         rx="8"
         ry="8" /></g><text
       xml:space="preserve"
       style="font-style:normal;font-variant:normal;font-weight:normal;font-stretch:normal;font-size:88px;line-height:1.25;font-family:'Linux Libertine';-inkscape-font-specification:'Linux Libertine, Normal';font-variant-ligatures:normal;font-variant-caps:normal;font-variant-numeric:normal;font-variant-east-asian:normal;display:inline;mix-blend-mode:normal;fill:#000000;fill-opacity:1;stroke:none"
       x="33.610424"
       y="167.60426"
       id="text1674-1"><tspan
         sodipodi:role="line"
         id="tspan1672-8"
         x="33.610424"
         y="167.60426"
         style="font-style:normal;font-variant:normal;font-weight:normal;font-stretch:normal;font-size:88px;font-family:'Linux Libertine';-inkscape-font-specification:'Linux Libertine, Normal';font-variant-ligatures:normal;font-variant-caps:normal;font-variant-numeric:normal;font-variant-east-asian:normal">Normal Search</tspan><tspan
         sodipodi:role="line"
         x="33.610424"
         y="277.60425"
         style="font-style:normal;font-variant:normal;font-weight:normal;font-stretch:normal;font-size:88px;font-family:'Linux Libertine';-inkscape-font-specification:'Linux Libertine, Normal';font-variant-ligatures:normal;font-variant-caps:normal;font-variant-numeric:normal;font-variant-east-asian:normal"
         id="tspan15921">Extended Search</tspan><tspan
         sodipodi:role="line"
         x="33.610424"
         y="387.60425"
         style="font-style:normal;font-variant:normal;font-weight:normal;font-stretch:normal;font-size:88px;font-family:'Linux Libertine';-inkscape-font-specification:'Linux Libertine, Normal';font-variant-ligatures:normal;font-variant-caps:normal;font-variant-numeric:normal;font-variant-east-asian:normal"
         id="tspan16121">Regular Expressions</tspan><tspan
         sodipodi:role="line"
         x="33.610424"
         y="497.60425"
         style="font-style:normal;font-variant:normal;font-weight:normal;font-stretch:normal;font-size:88px;font-family:'Linux Libertine';-inkscape-font-specification:'Linux Libertine, Normal';font-variant-ligatures:normal;font-variant-caps:normal;font-variant-numeric:normal;font-variant-east-asian:normal"
         id="tspan19951">Search Result</tspan><tspan
         sodipodi:role="line"
         x="33.610424"
         y="607.60425"
         style="font-style:normal;font-variant:normal;font-weight:normal;font-stretch:normal;font-size:88px;font-family:'Linux Libertine';-inkscape-font-specification:'Linux Libertine, Normal';font-variant-ligatures:normal;font-variant-caps:normal;font-variant-numeric:normal;font-variant-east-asian:normal"
         id="tspan20151">Subselect Results</tspan><tspan
         sodipodi:role="line"
         x="33.610424"
         y="717.60425"
         style="font-style:normal;font-variant:normal;font-weight:normal;font-stretch:normal;font-size:88px;font-family:'Linux Libertine';-inkscape-font-specification:'Linux Libertine, Normal';font-variant-ligatures:normal;font-variant-caps:normal;font-variant-numeric:normal;font-variant-east-asian:normal"
         id="tspan23603">Save Searches</tspan></text><rect
       style="fill:#002b36;stroke:none;stroke-width:0.5;stop-color:#000000"
       id="rect25069"
       width="40"
       height="810"
       x="-61.244816"
       y="0" /><text
       xml:space="preserve"
       style="font-size:32px;line-height:1.25;font-family:'Linux Libertine';-inkscape-font-specification:'Linux Libertine, Normal';word-spacing:0px;fill:#eee8d5"
       x="-598.19531"
       y="-33.877628"
       id="text26707"
       transform="rotate(-90)"><tspan
         sodipodi:role="line"
         id="tspan26705"
         x="-598.19531"
         y="-33.877628">align TOC centered vertically</tspan></text><rect
       style="opacity:1;fill:#2aa198;fill-opacity:0;stroke:none;stroke-width:4;stop-color:#000000"
       id="rect5507"
       width="800"
       height="900"
       x="20"
       y="96" /></g><g
     inkscape:groupmode="layer"
     id="layer10"
     inkscape:label="luminance_top-to-bottom"
     style="display:none"><rect
       style="fill:#ffffff;fill-opacity:0;stroke-width:4.06983;stop-color:#000000"
       id="rect1447"
       width="1920"
       height="1080"
       x="0"
       y="0"
       rx="2.0483451"
       ry="1.527025"
       inkscape:export-filename="S:\github.com\cprima\cprimanet\biz\marketing\broadcastdesign\luminance_top-to-bottom_FullHD.png"
       inkscape:export-xdpi="96"
       inkscape:export-ydpi="96" /><rect
       style="mix-blend-mode:overlay;fill:url(#linearGradient2688);fill-opacity:1;stroke-width:4.06983;stop-color:#000000"
       id="rect999"
       width="1920"
       height="1080"
       x="0"
       y="0"
       rx="2.0483451"
       ry="1.527025"
       inkscape:export-filename="S:\github.com\cprima\cprimanet\biz\marketing\broadcastdesign\luminance_top-to-bottom_FullHD.png"
       inkscape:export-xdpi="96"
       inkscape:export-ydpi="96" /><rect
       style="fill:#000000;fill-opacity:0;stroke-width:4.06983;stop-color:#000000"
       id="rect1979"
       width="1920"
       height="1080"
       x="0"
       y="0"
       rx="2.0483451"
       ry="1.527025"
       inkscape:export-filename="S:\github.com\cprima\cprimanet\biz\marketing\broadcastdesign\luminance_top-to-bottom_FullHD.png"
       inkscape:export-xdpi="96"
       inkscape:export-ydpi="96" /></g><g
     inkscape:groupmode="layer"
     id="layer12"
     inkscape:label="OBS"
     style="display:none"><rect
       style="opacity:1;fill:#073642;stroke-width:5.99811;stroke-linecap:round;stroke-dasharray:23.9924, 5.99811;stop-color:#000000"
       id="rect53668"
       width="940"
       height="540"
       x="15"
       y="270" /><rect
       style="opacity:1;fill:#073642;stroke-width:5.99811;stroke-linecap:round;stroke-dasharray:23.9924, 5.99811;stop-color:#000000"
       id="rect54031"
       width="940"
       height="540"
       x="965"
       y="270" /></g><g
     inkscape:groupmode="layer"
     id="layer6"
     inkscape:label="visualization"
     style="display:inline"><g
       id="g10"
       transform="translate(2416.0139,-431)"><g
         id="g9"
         transform="translate(-2131.125,914.5)"
         style="opacity:0.3"><path
           class="fa-secondary"
           d="m 32,272 v 96 c 0,26.5 21.5,48 48,48 H 96 V 224 H 80 c -26.5,0 -48,21.5 -48,48 z m 160,128 c 0,8.8 7.2,16 16,16 h 32 c 8.8,0 16,-7.2 16,-16 0,-8.8 -7.2,-16 -16,-16 h -32 c -8.8,0 -16,7.2 -16,16 z M 288,32 v 64 h 64 V 32 C 352,14.3 337.7,0 320,0 302.3,0 288,14.3 288,32 Z m 0,368 c 0,8.8 7.2,16 16,16 h 32 c 8.8,0 16,-7.2 16,-16 0,-8.8 -7.2,-16 -16,-16 h -32 c -8.8,0 -16,7.2 -16,16 z m 96,0 c 0,8.8 7.2,16 16,16 h 32 c 8.8,0 16,-7.2 16,-16 0,-8.8 -7.2,-16 -16,-16 h -32 c -8.8,0 -16,7.2 -16,16 z M 544,224 v 192 h 16 c 26.5,0 48,-21.5 48,-48 v -96 c 0,-26.5 -21.5,-48 -48,-48 z"
           id="path8"
           style="opacity:1;fill:#4365d9;fill-opacity:1" /><path
           class="fa-primary"
           d="m 168,96 c -39.8,0 -72,32.2 -72,72 v 272 c 0,39.8 32.2,72 72,72 h 304 c 39.8,0 72,-32.2 72,-72 V 168 c 0,-39.8 -32.2,-72 -72,-72 z m 40,288 h 32 c 8.8,0 16,7.2 16,16 0,8.8 -7.2,16 -16,16 h -32 c -8.8,0 -16,-7.2 -16,-16 0,-8.8 7.2,-16 16,-16 z m 96,0 h 32 c 8.8,0 16,7.2 16,16 0,8.8 -7.2,16 -16,16 h -32 c -8.8,0 -16,-7.2 -16,-16 0,-8.8 7.2,-16 16,-16 z m 96,0 h 32 c 8.8,0 16,7.2 16,16 0,8.8 -7.2,16 -16,16 h -32 c -8.8,0 -16,-7.2 -16,-16 0,-8.8 7.2,-16 16,-16 z M 184,256 a 40,40 0 1 1 80,0 40,40 0 1 1 -80,0 z m 232,-40 a 40,40 0 1 1 0,80 40,40 0 1 1 0,-80 z"
           id="path9"
           style="fill:#d6592a;fill-opacity:1" /></g><g
         id="g7"
         transform="translate(-2191.125,854.5)"
         style="opacity:0.6"><path
           class="fa-secondary"
           d="m 32,272 v 96 c 0,26.5 21.5,48 48,48 H 96 V 224 H 80 c -26.5,0 -48,21.5 -48,48 z m 160,128 c 0,8.8 7.2,16 16,16 h 32 c 8.8,0 16,-7.2 16,-16 0,-8.8 -7.2,-16 -16,-16 h -32 c -8.8,0 -16,7.2 -16,16 z M 288,32 v 64 h 64 V 32 C 352,14.3 337.7,0 320,0 302.3,0 288,14.3 288,32 Z m 0,368 c 0,8.8 7.2,16 16,16 h 32 c 8.8,0 16,-7.2 16,-16 0,-8.8 -7.2,-16 -16,-16 h -32 c -8.8,0 -16,7.2 -16,16 z m 96,0 c 0,8.8 7.2,16 16,16 h 32 c 8.8,0 16,-7.2 16,-16 0,-8.8 -7.2,-16 -16,-16 h -32 c -8.8,0 -16,7.2 -16,16 z M 544,224 v 192 h 16 c 26.5,0 48,-21.5 48,-48 v -96 c 0,-26.5 -21.5,-48 -48,-48 z"
           id="path6"
           style="opacity:1;fill:#4365d9;fill-opacity:1" /><path
           class="fa-primary"
           d="m 168,96 c -39.8,0 -72,32.2 -72,72 v 272 c 0,39.8 32.2,72 72,72 h 304 c 39.8,0 72,-32.2 72,-72 V 168 c 0,-39.8 -32.2,-72 -72,-72 z m 40,288 h 32 c 8.8,0 16,7.2 16,16 0,8.8 -7.2,16 -16,16 h -32 c -8.8,0 -16,-7.2 -16,-16 0,-8.8 7.2,-16 16,-16 z m 96,0 h 32 c 8.8,0 16,7.2 16,16 0,8.8 -7.2,16 -16,16 h -32 c -8.8,0 -16,-7.2 -16,-16 0,-8.8 7.2,-16 16,-16 z m 96,0 h 32 c 8.8,0 16,7.2 16,16 0,8.8 -7.2,16 -16,16 h -32 c -8.8,0 -16,-7.2 -16,-16 0,-8.8 7.2,-16 16,-16 z M 184,256 a 40,40 0 1 1 80,0 40,40 0 1 1 -80,0 z m 232,-40 a 40,40 0 1 1 0,80 40,40 0 1 1 0,-80 z"
           id="path7"
           style="fill:#d6592a;fill-opacity:1" /></g><rect
         style="opacity:1;fill:#fdf6e3;fill-opacity:1;stroke-width:30.2362;stroke-linecap:square;paint-order:fill markers stroke;-moz-transition:500ms ease-in;-webkit-transition:500ms ease-in"
         id="rect9"
         width="329.24658"
         height="146.94563"
         x="-2104.7476"
         y="967.85242" /><g
         id="g6"
         transform="translate(-2251.125,794.5)"><path
           class="fa-secondary"
           d="m 32,272 v 96 c 0,26.5 21.5,48 48,48 H 96 V 224 H 80 c -26.5,0 -48,21.5 -48,48 z m 160,128 c 0,8.8 7.2,16 16,16 h 32 c 8.8,0 16,-7.2 16,-16 0,-8.8 -7.2,-16 -16,-16 h -32 c -8.8,0 -16,7.2 -16,16 z M 288,32 v 64 h 64 V 32 C 352,14.3 337.7,0 320,0 302.3,0 288,14.3 288,32 Z m 0,368 c 0,8.8 7.2,16 16,16 h 32 c 8.8,0 16,-7.2 16,-16 0,-8.8 -7.2,-16 -16,-16 h -32 c -8.8,0 -16,7.2 -16,16 z m 96,0 c 0,8.8 7.2,16 16,16 h 32 c 8.8,0 16,-7.2 16,-16 0,-8.8 -7.2,-16 -16,-16 h -32 c -8.8,0 -16,7.2 -16,16 z M 544,224 v 192 h 16 c 26.5,0 48,-21.5 48,-48 v -96 c 0,-26.5 -21.5,-48 -48,-48 z"
           id="path1-2"
           style="opacity:1;fill:#4365d9;fill-opacity:1" /><path
           class="fa-primary"
           d="m 168,96 c -39.8,0 -72,32.2 -72,72 v 272 c 0,39.8 32.2,72 72,72 h 304 c 39.8,0 72,-32.2 72,-72 V 168 c 0,-39.8 -32.2,-72 -72,-72 z m 40,288 h 32 c 8.8,0 16,7.2 16,16 0,8.8 -7.2,16 -16,16 h -32 c -8.8,0 -16,-7.2 -16,-16 0,-8.8 7.2,-16 16,-16 z m 96,0 h 32 c 8.8,0 16,7.2 16,16 0,8.8 -7.2,16 -16,16 h -32 c -8.8,0 -16,-7.2 -16,-16 0,-8.8 7.2,-16 16,-16 z m 96,0 h 32 c 8.8,0 16,7.2 16,16 0,8.8 -7.2,16 -16,16 h -32 c -8.8,0 -16,-7.2 -16,-16 0,-8.8 7.2,-16 16,-16 z M 184,256 a 40,40 0 1 1 80,0 40,40 0 1 1 -80,0 z m 232,-40 a 40,40 0 1 1 0,80 40,40 0 1 1 0,-80 z"
           id="path2-7"
           style="fill:#d6592a;fill-opacity:1" /></g></g><g
       id="g11"
       transform="translate(2198.625,-342.79372)"><g
         id="g5"
         transform="translate(-1238.625,806.29372)"><path
           class="fa-secondary"
           d="m 256,48 v 80 h 112 c 26.5,0 48,21.5 48,48 v 32 c 0,20.9 -13.4,38.7 -32,45.3 V 496 c 0,5.6 -1,11 -2.7,16 H 592 c 26.5,0 48,-21.5 48,-48 V 48 C 640,21.5 618.5,0 592,0 H 304 c -26.5,0 -48,21.5 -48,48 z m 164.7,276.7 64,-64 c 6.2,-6.2 16.4,-6.2 22.6,0 l 64,64 c 6.2,6.2 6.2,16.4 0,22.6 -6.2,6.2 -16.4,6.2 -22.6,0 L 512,310.6 V 432 c 0,8.8 -7.2,16 -16,16 -8.8,0 -16,-7.2 -16,-16 V 310.6 l -36.7,36.7 c -6.2,6.2 -16.4,6.2 -22.6,0 -6.2,-6.2 -6.2,-16.4 0,-22.6 z"
           id="path1-7"
           style="opacity:1;fill:#4365d9;fill-opacity:1" /><path
           class="fa-primary"
           d="m 16,160 h 352 c 8.8,0 16,7.2 16,16 v 32 c 0,8.8 -7.2,16 -16,16 H 16 C 7.2,224 0,216.8 0,208 v -32 c 0,-8.8 7.2,-16 16,-16 z m 16,96 h 320 v 224 c 0,17.7 -14.3,32 -32,32 H 64 C 46.3,512 32,497.7 32,480 Z m 96,80 c 0,8.8 7.2,16 16,16 h 96 c 8.8,0 16,-7.2 16,-16 0,-8.8 -7.2,-16 -16,-16 h -96 c -8.8,0 -16,7.2 -16,16 z"
           id="path2-1"
           style="fill:#d6592a;fill-opacity:1" /></g><g
         id="g1"
         transform="translate(232,-612)"
         style="fill:#d6592a;fill-opacity:1"><path
           class="fa-primary"
           d="m -990.625,1850.2937 c -8.8,0 -16,7.2 -16,16 0,8.8 7.2,16 16,16 h 38.1 l -52.4,104.8 c -2.5,5 -2.2,10.9 0.7,15.6 2.9,4.7 8.1,7.6 13.6,7.6 h 64 c 8.8,0 16,-7.2 16,-16 0,-8.8 -7.2,-16 -16,-16 h -38.1 l 52.4,-104.8 c 2.5,-5 2.2,-10.9 -0.7,-15.6 -2.9,-4.7 -8.1,-7.6 -13.6,-7.6 z m 144,16 c 0,-8.8 -7.2,-16 -16,-16 -8.8,0 -16,7.2 -16,16 v 128 c 0,8.8 7.2,16 16,16 8.8,0 16,-7.2 16,-16 z m 32,0 v 80 48 c 0,8.8 7.2,16 16,16 8.8,0 16,-7.2 16,-16 v -32 h 8 c 30.9,0 56,-25.1 56,-56 0,-30.9 -25.1,-56 -56,-56 h -24 c -8.8,0 -16,7.2 -16,16 z m 32,64 v -48 h 8 c 13.3,0 24,10.7 24,24 0,13.3 -10.7,24 -24,24 z"
           id="path2"
           sodipodi:nodetypes="ssscsssssscsssssssssssscssscsssssccsssc"
           style="fill:#d6592a;fill-opacity:1" /></g></g></g><g
     inkscape:groupmode="layer"
     id="g1680"
     inkscape:label="title_text"
     style="display:inline"><text
       xml:space="preserve"
       style="font-style:normal;font-variant:normal;font-weight:normal;font-stretch:normal;font-size:85.3333px;line-height:1.25;font-family:'Linux Libertine';-inkscape-font-specification:'Linux Libertine, Normal';font-variant-ligatures:normal;font-variant-caps:normal;font-variant-numeric:normal;font-variant-east-asian:normal;text-align:center;text-anchor:middle;display:none;opacity:1;mix-blend-mode:normal;fill:#002b36;fill-opacity:1;stroke:none"
       x="959.49994"
       y="329.58331"
       id="text12"
       inkscape:label="From Projects to Solutions"><tspan
         sodipodi:role="line"
         id="tspan12"
         x="0"
         y="0"
         style="font-style:normal;font-variant:normal;font-weight:normal;font-stretch:normal;font-size:85.3333px;font-family:'Linux Libertine';-inkscape-font-specification:'Linux Libertine, Normal';font-variant-ligatures:normal;font-variant-caps:normal;font-variant-numeric:normal;font-variant-east-asian:normal;text-align:center;text-anchor:middle;fill:#002b36">Beyond Packaging: Governance and Lifecycle</tspan></text><text
       xml:space="preserve"
       style="font-style:normal;font-variant:normal;font-weight:normal;font-stretch:normal;font-size:85.3333px;line-height:1.25;font-family:'Linux Libertine';-inkscape-font-specification:'Linux Libertine, Normal';font-variant-ligatures:normal;font-variant-caps:normal;font-variant-numeric:normal;font-variant-east-asian:normal;text-align:center;text-anchor:middle;display:none;opacity:1;mix-blend-mode:normal;fill:#002b36;fill-opacity:1;stroke:none"
       x="959.49994"
       y="329.58331"
       id="text13"
       inkscape:label="From Projects to Solutions"><tspan
         sodipodi:role="line"
         id="tspan13"
         x="959.49994"
         y="329.58331"
         style="font-style:normal;font-variant:normal;font-weight:normal;font-stretch:normal;font-size:85.3333px;font-family:'Linux Libertine';-inkscape-font-specification:'Linux Libertine, Normal';font-variant-ligatures:normal;font-variant-caps:normal;font-variant-numeric:normal;font-variant-east-asian:normal;text-align:center;text-anchor:middle;fill:#002b36">Deploy once, configure anywhere</tspan></text><text
       xml:space="preserve"
       style="font-style:normal;font-variant:normal;font-weight:normal;font-stretch:normal;font-size:85.3333px;line-height:1.25;font-family:'Linux Libertine';-inkscape-font-specification:'Linux Libertine, Normal';font-variant-ligatures:normal;font-variant-caps:normal;font-variant-numeric:normal;font-variant-east-asian:normal;text-align:center;text-anchor:middle;display:none;opacity:1;mix-blend-mode:normal;fill:#002b36;fill-opacity:1;stroke:none"
       x="959.49994"
       y="329.58331"
       id="text14"
       inkscape:label="What’s inside a .uis file?"><tspan
         sodipodi:role="line"
         id="tspan14"
         x="959.49994"
         y="329.58331"
         style="font-style:normal;font-variant:normal;font-weight:normal;font-stretch:normal;font-size:85.3333px;font-family:'Linux Libertine';-inkscape-font-specification:'Linux Libertine, Normal';font-variant-ligatures:normal;font-variant-caps:normal;font-variant-numeric:normal;font-variant-east-asian:normal;text-align:center;text-anchor:middle;fill:#002b36">What’s inside a .uis file?</tspan></text><text
       xml:space="preserve"
       style="font-style:normal;font-variant:normal;font-weight:normal;font-stretch:normal;font-size:85.3333px;line-height:1.25;font-family:'Linux Libertine';-inkscape-font-specification:'Linux Libertine, Normal';font-variant-ligatures:normal;font-variant-caps:normal;font-variant-numeric:normal;font-variant-east-asian:normal;text-align:center;text-anchor:middle;display:none;opacity:1;mix-blend-mode:normal;fill:#002b36;fill-opacity:1;stroke:none"
       x="959.49994"
       y="329.58331"
       id="text11"
       inkscape:label="From Projects to Solutions"><tspan
         sodipodi:role="line"
         id="tspan11"
         x="959.49994"
         y="329.58331"
         style="font-style:normal;font-variant:normal;font-weight:normal;font-stretch:normal;font-size:85.3333px;font-family:'Linux Libertine';-inkscape-font-specification:'Linux Libertine, Normal';font-variant-ligatures:normal;font-variant-caps:normal;font-variant-numeric:normal;font-variant-east-asian:normal;text-align:center;text-anchor:middle;fill:#002b36">From Projects to Solutions</tspan></text><text
       xml:space="preserve"
       style="font-style:normal;font-variant:normal;font-weight:normal;font-stretch:normal;font-size:85.3333px;line-height:1.25;font-family:'Linux Libertine';-inkscape-font-specification:'Linux Libertine, Normal';font-variant-ligatures:normal;font-variant-caps:normal;font-variant-numeric:normal;font-variant-east-asian:normal;text-align:center;text-anchor:middle;display:inline;opacity:1;mix-blend-mode:normal;fill:#002b36;fill-opacity:1;stroke:none"
       x="959.49994"
       y="329.58331"
       id="text1674"
       inkscape:label="What are UiPath Solutions?"><tspan
         sodipodi:role="line"
         id="tspan1672"
         x="959.49994"
         y="329.58331"
         style="font-style:normal;font-variant:normal;font-weight:normal;font-stretch:normal;font-size:85.3333px;font-family:'Linux Libertine';-inkscape-font-specification:'Linux Libertine, Normal';font-variant-ligatures:normal;font-variant-caps:normal;font-variant-numeric:normal;font-variant-east-asian:normal;text-align:center;text-anchor:middle;fill:#002b36">What are UiPath Solutions?</tspan></text><text
       xml:space="preserve"
       style="font-style:normal;font-variant:normal;font-weight:normal;font-stretch:normal;font-size:85.3333px;line-height:1.25;font-family:'Linux Libertine';-inkscape-font-specification:'Linux Libertine, Normal';font-variant-ligatures:normal;font-variant-caps:normal;font-variant-numeric:normal;font-variant-east-asian:normal;display:none;opacity:1;mix-blend-mode:normal;fill:#002b36;fill-opacity:1;stroke:none"
       x="956.88849"
       y="397.89893"
       id="text1678"><tspan
         sodipodi:role="line"
         id="tspan1676"
         x="956.88849"
         y="397.89893"
         style="font-style:normal;font-variant:normal;font-weight:normal;font-stretch:normal;font-size:85.3333px;font-family:'Linux Libertine';-inkscape-font-specification:'Linux Libertine, Normal';font-variant-ligatures:normal;font-variant-caps:normal;font-variant-numeric:normal;font-variant-east-asian:normal;text-align:center;text-anchor:middle;fill:#002b36">What are UiPath Solutions?</tspan></text><text
       xml:space="preserve"
       style="font-style:normal;font-variant:normal;font-weight:normal;font-stretch:normal;font-size:85.3333px;line-height:1;font-family:'Linux Libertine';-inkscape-font-specification:'Linux Libertine, Normal';font-variant-ligatures:normal;font-variant-caps:normal;font-variant-numeric:normal;font-variant-east-asian:normal;text-align:center;text-anchor:middle;display:inline;mix-blend-mode:normal;fill:#002b36;fill-opacity:1;stroke:none"
       x="968.88831"
       y="167.89893"
       id="text1674-9"><tspan
         sodipodi:role="line"
         id="tspan1672-3"
         x="968.88831"
         y="167.89893"
         style="font-style:normal;font-variant:normal;font-weight:normal;font-stretch:normal;font-size:85.3333px;font-family:'Linux Libertine';-inkscape-font-specification:'Linux Libertine, Normal';font-variant-ligatures:normal;font-variant-caps:normal;font-variant-numeric:normal;font-variant-east-asian:normal;text-align:center;text-anchor:middle;fill:#002b36">Mini-Series: Inside UiPath Solutions</tspan></text></g></svg>
