<?xml version="1.0"?>
<svg xmlns="http://www.w3.org/2000/svg" xmlns:xlink="http://www.w3.org/1999/xlink" width="758.99999997" height="489.99999999999994" font-family="Consolas, Menlo, 'Bitstream Vera Sans Mono', monospace, 'Powerline Symbols'" font-size="14px">
<style>
<!-- solarized-light theme -->

.default-text-fill {fill: #657b83}
.default-bg-fill {fill: #fdf6e3}

.c-0 {fill: #073642}
.c-1 {fill: #dc322f}
.c-2 {fill: #859900}
.c-3 {fill: #b58900}
.c-4 {fill: #268bd2}
.c-5 {fill: #d33682}
.c-6 {fill: #2aa198}
.c-7 {fill: #eee8d5}
.c-8 {fill: #002b36}
.c-9 {fill: #cb4b16}
.c-10 {fill: #586e75}
.c-11 {fill: #657c83}
.c-12 {fill: #839496}
.c-13 {fill: #6c71c4}
.c-14 {fill: #93a1a1}
.c-15 {fill: #fdf6e3}
.c-8, .c-9, .c-10, .c-11, .c-12, .c-13, .c-14, .c-15 {font-weight: bold}

<!-- 256 colors -->

.c-16 {fill: #000000}
.c-17 {fill: #00005f}
.c-18 {fill: #000087}
.c-19 {fill: #0000af}
.c-20 {fill: #0000d7}
.c-21 {fill: #0000ff}
.c-22 {fill: #005f00}
.c-23 {fill: #005f5f}
.c-24 {fill: #005f87}
.c-25 {fill: #005faf}
.c-26 {fill: #005fd7}
.c-27 {fill: #005fff}
.c-28 {fill: #008700}
.c-29 {fill: #00875f}
.c-30 {fill: #008787}
.c-31 {fill: #0087af}
.c-32 {fill: #0087d7}
.c-33 {fill: #0087ff}
.c-34 {fill: #00af00}
.c-35 {fill: #00af5f}
.c-36 {fill: #00af87}
.c-37 {fill: #00afaf}
.c-38 {fill: #00afd7}
.c-39 {fill: #00afff}
.c-40 {fill: #00d700}
.c-41 {fill: #00d75f}
.c-42 {fill: #00d787}
.c-43 {fill: #00d7af}
.c-44 {fill: #00d7d7}
.c-45 {fill: #00d7ff}
.c-46 {fill: #00ff00}
.c-47 {fill: #00ff5f}
.c-48 {fill: #00ff87}
.c-49 {fill: #00ffaf}
.c-50 {fill: #00ffd7}
.c-51 {fill: #00ffff}
.c-52 {fill: #5f0000}
.c-53 {fill: #5f005f}
.c-54 {fill: #5f0087}
.c-55 {fill: #5f00af}
.c-56 {fill: #5f00d7}
.c-57 {fill: #5f00ff}
.c-58 {fill: #5f5f00}
.c-59 {fill: #5f5f5f}
.c-60 {fill: #5f5f87}
.c-61 {fill: #5f5faf}
.c-62 {fill: #5f5fd7}
.c-63 {fill: #5f5fff}
.c-64 {fill: #5f8700}
.c-65 {fill: #5f875f}
.c-66 {fill: #5f8787}
.c-67 {fill: #5f87af}
.c-68 {fill: #5f87d7}
.c-69 {fill: #5f87ff}
.c-70 {fill: #5faf00}
.c-71 {fill: #5faf5f}
.c-72 {fill: #5faf87}
.c-73 {fill: #5fafaf}
.c-74 {fill: #5fafd7}
.c-75 {fill: #5fafff}
.c-76 {fill: #5fd700}
.c-77 {fill: #5fd75f}
.c-78 {fill: #5fd787}
.c-79 {fill: #5fd7af}
.c-80 {fill: #5fd7d7}
.c-81 {fill: #5fd7ff}
.c-82 {fill: #5fff00}
.c-83 {fill: #5fff5f}
.c-84 {fill: #5fff87}
.c-85 {fill: #5fffaf}
.c-86 {fill: #5fffd7}
.c-87 {fill: #5fffff}
.c-88 {fill: #870000}
.c-89 {fill: #87005f}
.c-90 {fill: #870087}
.c-91 {fill: #8700af}
.c-92 {fill: #8700d7}
.c-93 {fill: #8700ff}
.c-94 {fill: #875f00}
.c-95 {fill: #875f5f}
.c-96 {fill: #875f87}
.c-97 {fill: #875faf}
.c-98 {fill: #875fd7}
.c-99 {fill: #875fff}
.c-100 {fill: #878700}
.c-101 {fill: #87875f}
.c-102 {fill: #878787}
.c-103 {fill: #8787af}
.c-104 {fill: #8787d7}
.c-105 {fill: #8787ff}
.c-106 {fill: #87af00}
.c-107 {fill: #87af5f}
.c-108 {fill: #87af87}
.c-109 {fill: #87afaf}
.c-110 {fill: #87afd7}
.c-111 {fill: #87afff}
.c-112 {fill: #87d700}
.c-113 {fill: #87d75f}
.c-114 {fill: #87d787}
.c-115 {fill: #87d7af}
.c-116 {fill: #87d7d7}
.c-117 {fill: #87d7ff}
.c-118 {fill: #87ff00}
.c-119 {fill: #87ff5f}
.c-120 {fill: #87ff87}
.c-121 {fill: #87ffaf}
.c-122 {fill: #87ffd7}
.c-123 {fill: #87ffff}
.c-124 {fill: #af0000}
.c-125 {fill: #af005f}
.c-126 {fill: #af0087}
.c-127 {fill: #af00af}
.c-128 {fill: #af00d7}
.c-129 {fill: #af00ff}
.c-130 {fill: #af5f00}
.c-131 {fill: #af5f5f}
.c-132 {fill: #af5f87}
.c-133 {fill: #af5faf}
.c-134 {fill: #af5fd7}
.c-135 {fill: #af5fff}
.c-136 {fill: #af8700}
.c-137 {fill: #af875f}
.c-138 {fill: #af8787}
.c-139 {fill: #af87af}
.c-140 {fill: #af87d7}
.c-141 {fill: #af87ff}
.c-142 {fill: #afaf00}
.c-143 {fill: #afaf5f}
.c-144 {fill: #afaf87}
.c-145 {fill: #afafaf}
.c-146 {fill: #afafd7}
.c-147 {fill: #afafff}
.c-148 {fill: #afd700}
.c-149 {fill: #afd75f}
.c-150 {fill: #afd787}
.c-151 {fill: #afd7af}
.c-152 {fill: #afd7d7}
.c-153 {fill: #afd7ff}
.c-154 {fill: #afff00}
.c-155 {fill: #afff5f}
.c-156 {fill: #afff87}
.c-157 {fill: #afffaf}
.c-158 {fill: #afffd7}
.c-159 {fill: #afffff}
.c-160 {fill: #d70000}
.c-161 {fill: #d7005f}
.c-162 {fill: #d70087}
.c-163 {fill: #d700af}
.c-164 {fill: #d700d7}
.c-165 {fill: #d700ff}
.c-166 {fill: #d75f00}
.c-167 {fill: #d75f5f}
.c-168 {fill: #d75f87}
.c-169 {fill: #d75faf}
.c-170 {fill: #d75fd7}
.c-171 {fill: #d75fff}
.c-172 {fill: #d78700}
.c-173 {fill: #d7875f}
.c-174 {fill: #d78787}
.c-175 {fill: #d787af}
.c-176 {fill: #d787d7}
.c-177 {fill: #d787ff}
.c-178 {fill: #d7af00}
.c-179 {fill: #d7af5f}
.c-180 {fill: #d7af87}
.c-181 {fill: #d7afaf}
.c-182 {fill: #d7afd7}
.c-183 {fill: #d7afff}
.c-184 {fill: #d7d700}
.c-185 {fill: #d7d75f}
.c-186 {fill: #d7d787}
.c-187 {fill: #d7d7af}
.c-188 {fill: #d7d7d7}
.c-189 {fill: #d7d7ff}
.c-190 {fill: #d7ff00}
.c-191 {fill: #d7ff5f}
.c-192 {fill: #d7ff87}
.c-193 {fill: #d7ffaf}
.c-194 {fill: #d7ffd7}
.c-195 {fill: #d7ffff}
.c-196 {fill: #ff0000}
.c-197 {fill: #ff005f}
.c-198 {fill: #ff0087}
.c-199 {fill: #ff00af}
.c-200 {fill: #ff00d7}
.c-201 {fill: #ff00ff}
.c-202 {fill: #ff5f00}
.c-203 {fill: #ff5f5f}
.c-204 {fill: #ff5f87}
.c-205 {fill: #ff5faf}
.c-206 {fill: #ff5fd7}
.c-207 {fill: #ff5fff}
.c-208 {fill: #ff8700}
.c-209 {fill: #ff875f}
.c-210 {fill: #ff8787}
.c-211 {fill: #ff87af}
.c-212 {fill: #ff87d7}
.c-213 {fill: #ff87ff}
.c-214 {fill: #ffaf00}
.c-215 {fill: #ffaf5f}
.c-216 {fill: #ffaf87}
.c-217 {fill: #ffafaf}
.c-218 {fill: #ffafd7}
.c-219 {fill: #ffafff}
.c-220 {fill: #ffd700}
.c-221 {fill: #ffd75f}
.c-222 {fill: #ffd787}
.c-223 {fill: #ffd7af}
.c-224 {fill: #ffd7d7}
.c-225 {fill: #ffd7ff}
.c-226 {fill: #ffff00}
.c-227 {fill: #ffff5f}
.c-228 {fill: #ffff87}
.c-229 {fill: #ffffaf}
.c-230 {fill: #ffffd7}
.c-231 {fill: #ffffff}
.c-232 {fill: #080808}
.c-233 {fill: #121212}
.c-234 {fill: #1c1c1c}
.c-235 {fill: #262626}
.c-236 {fill: #303030}
.c-237 {fill: #3a3a3a}
.c-238 {fill: #444444}
.c-239 {fill: #4e4e4e}
.c-240 {fill: #585858}
.c-241 {fill: #626262}
.c-242 {fill: #6c6c6c}
.c-243 {fill: #767676}
.c-244 {fill: #808080}
.c-245 {fill: #8a8a8a}
.c-246 {fill: #949494}
.c-247 {fill: #9e9e9e}
.c-248 {fill: #a8a8a8}
.c-249 {fill: #b2b2b2}
.c-250 {fill: #bcbcbc}
.c-251 {fill: #c6c6c6}
.c-252 {fill: #d0d0d0}
.c-253 {fill: #dadada}
.c-254 {fill: #e4e4e4}
.c-255 {fill: #eeeeee}

.br { font-weight: bold }
.fa { fill-opacity: 0.5 }
.it { font-style: italic }
.un { text-decoration: underline }
</style>

<rect width="100%" height="100%" class="default-bg-fill" rx="4" ry="4" />

<svg x="1.111%" y="2.000%" class="default-text-fill">
<g style="shape-rendering: optimizeSpeed">
<rect x="0.000%" y="88.000%" width="1.111%" height="19.7" class="c-7" />
</g>

<text class="default-text-fill">
<tspan y="0.000%">
<tspan dy="1em" x="0.000%">c</tspan><tspan x="1.111%">p</tspan><tspan x="2.222%">r</tspan><tspan x="3.333%">i</tspan><tspan x="4.444%">m</tspan><tspan x="5.556%">a</tspan><tspan x="6.667%">@</tspan><tspan x="7.778%">h</tspan><tspan x="8.889%">o</tspan><tspan x="10.000%">s</tspan><tspan x="11.111%">t</tspan><tspan x="12.222%">:</tspan><tspan x="13.333%">$</tspan><tspan x="15.556%">s</tspan><tspan x="16.667%">s</tspan><tspan x="17.778%">h</tspan><tspan x="20.000%">r</tspan><tspan x="21.111%">o</tspan><tspan x="22.222%">o</tspan><tspan x="23.333%">t</tspan><tspan x="24.444%">@</tspan><tspan x="25.556%">t</tspan><tspan x="26.667%">u</tspan><tspan x="27.778%">r</tspan><tspan x="28.889%">i</tspan><tspan x="30.000%">n</tspan><tspan x="31.111%">g</tspan><tspan x="32.222%">p</tspan><tspan x="33.333%">i</tspan><tspan x="34.444%">.</tspan><tspan x="35.556%">l</tspan><tspan x="36.667%">o</tspan><tspan x="37.778%">c</tspan><tspan x="38.889%">a</tspan><tspan x="40.000%">l</tspan>
</tspan>
<tspan y="4.000%">
<tspan dy="1em" x="0.000%">r</tspan><tspan x="1.111%">o</tspan><tspan x="2.222%">o</tspan><tspan x="3.333%">t</tspan><tspan x="4.444%">@</tspan><tspan x="5.556%">t</tspan><tspan x="6.667%">u</tspan><tspan x="7.778%">r</tspan><tspan x="8.889%">i</tspan><tspan x="10.000%">n</tspan><tspan x="11.111%">g</tspan><tspan x="12.222%">p</tspan><tspan x="13.333%">i</tspan><tspan x="14.444%">.</tspan><tspan x="15.556%">l</tspan><tspan x="16.667%">o</tspan><tspan x="17.778%">c</tspan><tspan x="18.889%">a</tspan><tspan x="20.000%">l</tspan><tspan x="21.111%">&#39;</tspan><tspan x="22.222%">s</tspan><tspan x="24.444%">p</tspan><tspan x="25.556%">a</tspan><tspan x="26.667%">s</tspan><tspan x="27.778%">s</tspan><tspan x="28.889%">w</tspan><tspan x="30.000%">o</tspan><tspan x="31.111%">r</tspan><tspan x="32.222%">d</tspan><tspan x="33.333%">:</tspan>
</tspan>
<tspan y="8.000%">
<tspan dy="1em" x="0.000%">#</tspan><tspan x="2.222%">t</tspan><tspan x="3.333%">p</tspan><tspan x="4.444%">i</tspan><tspan x="6.667%">-</tspan><tspan x="7.778%">n</tspan><tspan x="10.000%">1</tspan><tspan x="12.222%">-</tspan><tspan x="13.333%">l</tspan><tspan x="15.556%">-</tspan><tspan x="16.667%">f</tspan><tspan x="18.889%">/</tspan><tspan x="20.000%">m</tspan><tspan x="21.111%">n</tspan><tspan x="22.222%">t</tspan><tspan x="23.333%">/</tspan><tspan x="24.444%">s</tspan><tspan x="25.556%">d</tspan><tspan x="26.667%">c</tspan><tspan x="27.778%">a</tspan><tspan x="28.889%">r</tspan><tspan x="30.000%">d</tspan><tspan x="31.111%">/</tspan><tspan x="32.222%">i</tspan><tspan x="33.333%">m</tspan><tspan x="34.444%">a</tspan><tspan x="35.556%">g</tspan><tspan x="36.667%">e</tspan><tspan x="37.778%">s</tspan><tspan x="38.889%">/</tspan><tspan x="40.000%">2</tspan><tspan x="41.111%">0</tspan><tspan x="42.222%">2</tspan><tspan x="43.333%">3</tspan><tspan x="44.444%">-</tspan><tspan x="45.556%">0</tspan><tspan x="46.667%">5</tspan><tspan x="47.778%">-</tspan><tspan x="48.889%">0</tspan><tspan x="50.000%">3</tspan><tspan x="51.111%">-</tspan><tspan x="52.222%">r</tspan><tspan x="53.333%">a</tspan><tspan x="54.444%">s</tspan><tspan x="55.556%">p</tspan><tspan x="56.667%">i</tspan><tspan x="57.778%">o</tspan><tspan x="58.889%">s</tspan><tspan x="60.000%">-</tspan><tspan x="61.111%">b</tspan><tspan x="62.222%">u</tspan><tspan x="63.333%">l</tspan><tspan x="64.444%">l</tspan><tspan x="65.556%">s</tspan><tspan x="66.667%">e</tspan><tspan x="67.778%">y</tspan><tspan x="68.889%">e</tspan><tspan x="70.000%">-</tspan><tspan x="71.111%">a</tspan><tspan x="72.222%">r</tspan><tspan x="73.333%">m</tspan><tspan x="74.444%">h</tspan><tspan x="75.556%">f</tspan><tspan x="76.667%">-</tspan><tspan x="77.778%">l</tspan><tspan x="78.889%">i</tspan><tspan x="80.000%">t</tspan><tspan x="81.111%">e</tspan><tspan x="82.222%">.</tspan><tspan x="83.333%">i</tspan><tspan x="84.444%">m</tspan><tspan x="85.556%">g</tspan>
</tspan>
<tspan y="12.000%">
<tspan dy="1em" x="2.222%">%</tspan><tspan x="4.444%">T</tspan><tspan x="5.556%">o</tspan><tspan x="6.667%">t</tspan><tspan x="7.778%">a</tspan><tspan x="8.889%">l</tspan><tspan x="14.444%">%</tspan><tspan x="16.667%">R</tspan><tspan x="17.778%">e</tspan><tspan x="18.889%">c</tspan><tspan x="20.000%">e</tspan><tspan x="21.111%">i</tspan><tspan x="22.222%">v</tspan><tspan x="23.333%">e</tspan><tspan x="24.444%">d</tspan><tspan x="26.667%">%</tspan><tspan x="28.889%">X</tspan><tspan x="30.000%">f</tspan><tspan x="31.111%">e</tspan><tspan x="32.222%">r</tspan><tspan x="33.333%">d</tspan><tspan x="36.667%">A</tspan><tspan x="37.778%">v</tspan><tspan x="38.889%">e</tspan><tspan x="40.000%">r</tspan><tspan x="41.111%">a</tspan><tspan x="42.222%">g</tspan><tspan x="43.333%">e</tspan><tspan x="45.556%">S</tspan><tspan x="46.667%">p</tspan><tspan x="47.778%">e</tspan><tspan x="48.889%">e</tspan><tspan x="50.000%">d</tspan><tspan x="54.444%">T</tspan><tspan x="55.556%">i</tspan><tspan x="56.667%">m</tspan><tspan x="57.778%">e</tspan><tspan x="63.333%">T</tspan><tspan x="64.444%">i</tspan><tspan x="65.556%">m</tspan><tspan x="66.667%">e</tspan><tspan x="73.333%">T</tspan><tspan x="74.444%">i</tspan><tspan x="75.556%">m</tspan><tspan x="76.667%">e</tspan><tspan x="80.000%">C</tspan><tspan x="81.111%">u</tspan><tspan x="82.222%">r</tspan><tspan x="83.333%">r</tspan><tspan x="84.444%">e</tspan><tspan x="85.556%">n</tspan><tspan x="86.667%">t</tspan>
</tspan>
<tspan y="16.000%">
<tspan dy="1em" x="36.667%">D</tspan><tspan x="37.778%">l</tspan><tspan x="38.889%">o</tspan><tspan x="40.000%">a</tspan><tspan x="41.111%">d</tspan><tspan x="44.444%">U</tspan><tspan x="45.556%">p</tspan><tspan x="46.667%">l</tspan><tspan x="47.778%">o</tspan><tspan x="48.889%">a</tspan><tspan x="50.000%">d</tspan><tspan x="54.444%">T</tspan><tspan x="55.556%">o</tspan><tspan x="56.667%">t</tspan><tspan x="57.778%">a</tspan><tspan x="58.889%">l</tspan><tspan x="63.333%">S</tspan><tspan x="64.444%">p</tspan><tspan x="65.556%">e</tspan><tspan x="66.667%">n</tspan><tspan x="67.778%">t</tspan><tspan x="73.333%">L</tspan><tspan x="74.444%">e</tspan><tspan x="75.556%">f</tspan><tspan x="76.667%">t</tspan><tspan x="80.000%">S</tspan><tspan x="81.111%">p</tspan><tspan x="82.222%">e</tspan><tspan x="83.333%">e</tspan><tspan x="84.444%">d</tspan>
</tspan>
<tspan y="20.000%">
<tspan dy="1em" x="0.000%">1</tspan><tspan x="1.111%">0</tspan><tspan x="2.222%">0</tspan><tspan x="7.778%">5</tspan><tspan x="8.889%">6</tspan><tspan x="14.444%">0</tspan><tspan x="20.000%">5</tspan><tspan x="21.111%">6</tspan><tspan x="26.667%">0</tspan><tspan x="33.333%">0</tspan><tspan x="41.111%">0</tspan><tspan x="48.889%">0</tspan><tspan x="51.111%">-</tspan><tspan x="52.222%">-</tspan><tspan x="53.333%">:</tspan><tspan x="54.444%">-</tspan><tspan x="55.556%">-</tspan><tspan x="56.667%">:</tspan><tspan x="57.778%">-</tspan><tspan x="58.889%">-</tspan><tspan x="62.222%">0</tspan><tspan x="63.333%">:</tspan><tspan x="64.444%">1</tspan><tspan x="65.556%">0</tspan><tspan x="66.667%">:</tspan><tspan x="67.778%">1</tspan><tspan x="68.889%">6</tspan><tspan x="71.111%">-</tspan><tspan x="72.222%">-</tspan><tspan x="73.333%">:</tspan><tspan x="74.444%">-</tspan><tspan x="75.556%">-</tspan><tspan x="76.667%">:</tspan><tspan x="77.778%">-</tspan><tspan x="78.889%">-</tspan><tspan x="84.444%">1</tspan><tspan x="85.556%">4</tspan>
</tspan>
<tspan y="24.000%">
<tspan dy="1em" x="0.000%">#</tspan><tspan x="2.222%">t</tspan><tspan x="3.333%">p</tspan><tspan x="4.444%">i</tspan><tspan x="6.667%">-</tspan><tspan x="7.778%">n</tspan><tspan x="10.000%">1</tspan><tspan x="12.222%">-</tspan><tspan x="13.333%">m</tspan>
</tspan>
<tspan y="28.000%">
<tspan dy="1em" x="0.000%">b</tspan><tspan x="1.111%">o</tspan><tspan x="2.222%">o</tspan><tspan x="3.333%">t</tspan><tspan x="4.444%">i</tspan><tspan x="5.556%">n</tspan><tspan x="6.667%">g</tspan><tspan x="8.889%">n</tspan><tspan x="10.000%">o</tspan><tspan x="11.111%">d</tspan><tspan x="12.222%">e</tspan><tspan x="14.444%">0</tspan><tspan x="16.667%">i</tspan><tspan x="17.778%">n</tspan><tspan x="18.889%">t</tspan><tspan x="20.000%">o</tspan><tspan x="22.222%">m</tspan><tspan x="23.333%">s</tspan><tspan x="24.444%">d</tspan><tspan x="26.667%">m</tspan><tspan x="27.778%">o</tspan><tspan x="28.889%">d</tspan><tspan x="30.000%">e</tspan><tspan x="31.111%">.</tspan><tspan x="33.333%">p</tspan><tspan x="34.444%">l</tspan><tspan x="35.556%">e</tspan><tspan x="36.667%">a</tspan><tspan x="37.778%">s</tspan><tspan x="38.889%">e</tspan><tspan x="41.111%">w</tspan><tspan x="42.222%">a</tspan><tspan x="43.333%">i</tspan><tspan x="44.444%">t</tspan><tspan x="46.667%">a</tspan><tspan x="48.889%">m</tspan><tspan x="50.000%">o</tspan><tspan x="51.111%">m</tspan><tspan x="52.222%">e</tspan><tspan x="53.333%">n</tspan><tspan x="54.444%">t</tspan><tspan x="55.556%">.</tspan><tspan x="56.667%">.</tspan>
</tspan>
<tspan y="32.000%">
<tspan dy="1em" x="0.000%">{</tspan><tspan x="1.111%">&quot;</tspan><tspan x="2.222%">r</tspan><tspan x="3.333%">e</tspan><tspan x="4.444%">s</tspan><tspan x="5.556%">p</tspan><tspan x="6.667%">o</tspan><tspan x="7.778%">n</tspan><tspan x="8.889%">s</tspan><tspan x="10.000%">e</tspan><tspan x="11.111%">&quot;</tspan><tspan x="12.222%">:</tspan><tspan x="13.333%">[</tspan><tspan x="14.444%">{</tspan><tspan x="15.556%">&quot;</tspan><tspan x="16.667%">r</tspan><tspan x="17.778%">e</tspan><tspan x="18.889%">s</tspan><tspan x="20.000%">u</tspan><tspan x="21.111%">l</tspan><tspan x="22.222%">t</tspan><tspan x="23.333%">&quot;</tspan><tspan x="24.444%">:</tspan><tspan x="25.556%">&quot;</tspan><tspan x="26.667%">o</tspan><tspan x="27.778%">k</tspan><tspan x="28.889%">&quot;</tspan><tspan x="30.000%">}</tspan><tspan x="31.111%">]</tspan><tspan x="32.222%">}</tspan><tspan x="33.333%">{</tspan><tspan x="34.444%">&quot;</tspan><tspan x="35.556%">r</tspan><tspan x="36.667%">e</tspan><tspan x="37.778%">s</tspan><tspan x="38.889%">p</tspan><tspan x="40.000%">o</tspan><tspan x="41.111%">n</tspan><tspan x="42.222%">s</tspan><tspan x="43.333%">e</tspan><tspan x="44.444%">&quot;</tspan><tspan x="45.556%">:</tspan><tspan x="46.667%">[</tspan><tspan x="47.778%">{</tspan><tspan x="48.889%">&quot;</tspan><tspan x="50.000%">r</tspan><tspan x="51.111%">e</tspan><tspan x="52.222%">s</tspan><tspan x="53.333%">u</tspan><tspan x="54.444%">l</tspan><tspan x="55.556%">t</tspan><tspan x="56.667%">&quot;</tspan><tspan x="57.778%">:</tspan><tspan x="58.889%">&quot;</tspan><tspan x="60.000%">o</tspan><tspan x="61.111%">k</tspan><tspan x="62.222%">&quot;</tspan><tspan x="63.333%">}</tspan><tspan x="64.444%">]</tspan><tspan x="65.556%">}</tspan><tspan x="66.667%">#</tspan><tspan x="68.889%">m</tspan><tspan x="70.000%">o</tspan><tspan x="71.111%">u</tspan><tspan x="72.222%">n</tspan><tspan x="73.333%">t</tspan><tspan x="75.556%">/</tspan><tspan x="76.667%">d</tspan><tspan x="77.778%">e</tspan><tspan x="78.889%">v</tspan><tspan x="80.000%">/</tspan><tspan x="81.111%">s</tspan><tspan x="82.222%">d</tspan><tspan x="83.333%">a</tspan><tspan x="84.444%">1</tspan><tspan x="86.667%">/</tspan><tspan x="87.778%">m</tspan><tspan x="88.889%">n</tspan><tspan x="90.000%">t</tspan><tspan x="91.111%">/</tspan><tspan x="92.222%">b</tspan><tspan x="93.333%">o</tspan><tspan x="94.444%">o</tspan><tspan x="95.556%">t</tspan><tspan x="96.667%">f</tspan>
</tspan>
<tspan y="36.000%">
<tspan dy="1em" x="0.000%">s</tspan>
</tspan>
<tspan y="40.000%">
<tspan dy="1em" x="0.000%">#</tspan><tspan x="2.222%">v</tspan><tspan x="3.333%">i</tspan><tspan x="5.556%">/</tspan><tspan x="6.667%">m</tspan><tspan x="7.778%">n</tspan><tspan x="8.889%">t</tspan><tspan x="10.000%">/</tspan><tspan x="11.111%">b</tspan><tspan x="12.222%">o</tspan><tspan x="13.333%">o</tspan><tspan x="14.444%">t</tspan><tspan x="15.556%">f</tspan><tspan x="16.667%">s</tspan><tspan x="17.778%">/</tspan><tspan x="18.889%">c</tspan><tspan x="20.000%">o</tspan><tspan x="21.111%">n</tspan><tspan x="22.222%">f</tspan><tspan x="23.333%">i</tspan><tspan x="24.444%">g</tspan><tspan x="25.556%">.</tspan><tspan x="26.667%">t</tspan><tspan x="27.778%">x</tspan><tspan x="28.889%">t</tspan>
</tspan>
<tspan y="44.000%">
<tspan dy="1em" x="0.000%">#</tspan><tspan x="2.222%">t</tspan><tspan x="3.333%">o</tspan><tspan x="4.444%">u</tspan><tspan x="5.556%">c</tspan><tspan x="6.667%">h</tspan><tspan x="8.889%">/</tspan><tspan x="10.000%">m</tspan><tspan x="11.111%">n</tspan><tspan x="12.222%">t</tspan><tspan x="13.333%">/</tspan><tspan x="14.444%">b</tspan><tspan x="15.556%">o</tspan><tspan x="16.667%">o</tspan><tspan x="17.778%">t</tspan><tspan x="18.889%">f</tspan><tspan x="20.000%">s</tspan><tspan x="21.111%">/</tspan><tspan x="22.222%">s</tspan><tspan x="23.333%">s</tspan><tspan x="24.444%">h</tspan>
</tspan>
<tspan y="48.000%">
<tspan dy="1em" x="0.000%">#</tspan><tspan x="2.222%">e</tspan><tspan x="3.333%">c</tspan><tspan x="4.444%">h</tspan><tspan x="5.556%">o</tspan><tspan x="7.778%">&#39;</tspan><tspan x="8.889%">p</tspan><tspan x="10.000%">i</tspan><tspan x="11.111%">:</tspan><tspan x="12.222%">$</tspan><tspan x="13.333%">6</tspan><tspan x="14.444%">$</tspan><tspan x="15.556%">c</tspan><tspan x="16.667%">7</tspan><tspan x="17.778%">0</tspan><tspan x="18.889%">V</tspan><tspan x="20.000%">p</tspan><tspan x="21.111%">v</tspan><tspan x="22.222%">P</tspan><tspan x="23.333%">s</tspan><tspan x="24.444%">V</tspan><tspan x="25.556%">N</tspan><tspan x="26.667%">C</tspan><tspan x="27.778%">G</tspan><tspan x="28.889%">0</tspan><tspan x="30.000%">Y</tspan><tspan x="31.111%">R</tspan><tspan x="32.222%">5</tspan><tspan x="33.333%">$</tspan><tspan x="34.444%">l</tspan><tspan x="35.556%">5</tspan><tspan x="36.667%">v</tspan><tspan x="37.778%">W</tspan><tspan x="38.889%">W</tspan><tspan x="40.000%">L</tspan><tspan x="41.111%">s</tspan><tspan x="42.222%">L</tspan><tspan x="43.333%">k</tspan><tspan x="44.444%">o</tspan><tspan x="45.556%">9</tspan><tspan x="46.667%">K</tspan><tspan x="47.778%">j</tspan><tspan x="48.889%">6</tspan><tspan x="50.000%">5</tspan><tspan x="51.111%">g</tspan><tspan x="52.222%">c</tspan><tspan x="53.333%">Q</tspan><tspan x="54.444%">8</tspan><tspan x="55.556%">q</tspan><tspan x="56.667%">v</tspan><tspan x="57.778%">M</tspan><tspan x="58.889%">k</tspan><tspan x="60.000%">u</tspan><tspan x="61.111%">O</tspan><tspan x="62.222%">o</tspan><tspan x="63.333%">R</tspan><tspan x="64.444%">k</tspan><tspan x="65.556%">E</tspan><tspan x="66.667%">a</tspan><tspan x="67.778%">g</tspan><tspan x="68.889%">I</tspan><tspan x="70.000%">9</tspan><tspan x="71.111%">0</tspan><tspan x="72.222%">q</tspan><tspan x="73.333%">i</tspan><tspan x="74.444%">3</tspan><tspan x="75.556%">F</tspan><tspan x="76.667%">/</tspan><tspan x="77.778%">Y</tspan><tspan x="78.889%">7</tspan><tspan x="80.000%">r</tspan><tspan x="81.111%">m</tspan><tspan x="82.222%">8</tspan><tspan x="83.333%">e</tspan><tspan x="84.444%">N</tspan><tspan x="85.556%">Y</tspan><tspan x="86.667%">Z</tspan><tspan x="87.778%">H</tspan><tspan x="88.889%">W</tspan><tspan x="90.000%">8</tspan><tspan x="91.111%">C</tspan><tspan x="92.222%">Y</tspan><tspan x="93.333%">6</tspan><tspan x="94.444%">B</tspan><tspan x="95.556%">O</tspan><tspan x="96.667%">I</tspan>
</tspan>
<tspan y="52.000%">
<tspan dy="1em" x="0.000%">K</tspan><tspan x="1.111%">w</tspan><tspan x="2.222%">M</tspan><tspan x="3.333%">H</tspan><tspan x="4.444%">7</tspan><tspan x="5.556%">a</tspan><tspan x="6.667%">3</tspan><tspan x="7.778%">Y</tspan><tspan x="8.889%">Y</tspan><tspan x="10.000%">z</tspan><tspan x="11.111%">Z</tspan><tspan x="12.222%">Y</tspan><tspan x="13.333%">L</tspan><tspan x="14.444%">9</tspan><tspan x="15.556%">0</tspan><tspan x="16.667%">z</tspan><tspan x="17.778%">f</tspan><tspan x="18.889%">3</tspan><tspan x="20.000%">0</tspan><tspan x="21.111%">4</tspan><tspan x="22.222%">c</tspan><tspan x="23.333%">A</tspan><tspan x="24.444%">H</tspan><tspan x="25.556%">L</tspan><tspan x="26.667%">F</tspan><tspan x="27.778%">a</tspan><tspan x="28.889%">Z</tspan><tspan x="30.000%">E</tspan><tspan x="31.111%">0</tspan><tspan x="32.222%">&#39;</tspan><tspan x="34.444%">&gt;</tspan><tspan x="36.667%">/</tspan><tspan x="37.778%">m</tspan><tspan x="38.889%">n</tspan>
</tspan>
<tspan y="56.000%">
<tspan dy="1em" x="0.000%">t</tspan><tspan x="1.111%">/</tspan><tspan x="2.222%">b</tspan><tspan x="3.333%">o</tspan><tspan x="4.444%">o</tspan><tspan x="5.556%">t</tspan><tspan x="6.667%">f</tspan><tspan x="7.778%">s</tspan><tspan x="8.889%">/</tspan><tspan x="10.000%">u</tspan><tspan x="11.111%">s</tspan><tspan x="12.222%">e</tspan><tspan x="13.333%">r</tspan><tspan x="14.444%">c</tspan><tspan x="15.556%">o</tspan><tspan x="16.667%">n</tspan><tspan x="17.778%">f</tspan>
</tspan>
<tspan y="60.000%">
<tspan dy="1em" x="0.000%">#</tspan><tspan x="2.222%">u</tspan><tspan x="3.333%">m</tspan><tspan x="4.444%">o</tspan><tspan x="5.556%">u</tspan><tspan x="6.667%">n</tspan><tspan x="7.778%">t</tspan><tspan x="10.000%">/</tspan><tspan x="11.111%">m</tspan><tspan x="12.222%">n</tspan><tspan x="13.333%">t</tspan><tspan x="14.444%">/</tspan><tspan x="15.556%">b</tspan><tspan x="16.667%">o</tspan><tspan x="17.778%">o</tspan><tspan x="18.889%">t</tspan><tspan x="20.000%">f</tspan><tspan x="21.111%">s</tspan>
</tspan>
<tspan y="64.000%">
<tspan dy="1em" x="0.000%">#</tspan><tspan x="2.222%">t</tspan><tspan x="3.333%">p</tspan><tspan x="4.444%">i</tspan><tspan x="6.667%">-</tspan><tspan x="7.778%">n</tspan><tspan x="10.000%">1</tspan><tspan x="12.222%">-</tspan><tspan x="13.333%">x</tspan>
</tspan>
<tspan y="68.000%">
<tspan dy="1em" x="0.000%">{</tspan><tspan x="1.111%">&quot;</tspan><tspan x="2.222%">r</tspan><tspan x="3.333%">e</tspan><tspan x="4.444%">s</tspan><tspan x="5.556%">p</tspan><tspan x="6.667%">o</tspan><tspan x="7.778%">n</tspan><tspan x="8.889%">s</tspan><tspan x="10.000%">e</tspan><tspan x="11.111%">&quot;</tspan><tspan x="12.222%">:</tspan><tspan x="13.333%">[</tspan><tspan x="14.444%">{</tspan><tspan x="15.556%">&quot;</tspan><tspan x="16.667%">r</tspan><tspan x="17.778%">e</tspan><tspan x="18.889%">s</tspan><tspan x="20.000%">u</tspan><tspan x="21.111%">l</tspan><tspan x="22.222%">t</tspan><tspan x="23.333%">&quot;</tspan><tspan x="24.444%">:</tspan><tspan x="25.556%">&quot;</tspan><tspan x="26.667%">o</tspan><tspan x="27.778%">k</tspan><tspan x="28.889%">&quot;</tspan><tspan x="30.000%">}</tspan><tspan x="31.111%">]</tspan><tspan x="32.222%">}</tspan><tspan x="33.333%">{</tspan><tspan x="34.444%">&quot;</tspan><tspan x="35.556%">r</tspan><tspan x="36.667%">e</tspan><tspan x="37.778%">s</tspan><tspan x="38.889%">p</tspan><tspan x="40.000%">o</tspan><tspan x="41.111%">n</tspan><tspan x="42.222%">s</tspan><tspan x="43.333%">e</tspan><tspan x="44.444%">&quot;</tspan><tspan x="45.556%">:</tspan><tspan x="46.667%">[</tspan><tspan x="47.778%">{</tspan><tspan x="48.889%">&quot;</tspan><tspan x="50.000%">r</tspan><tspan x="51.111%">e</tspan><tspan x="52.222%">s</tspan><tspan x="53.333%">u</tspan><tspan x="54.444%">l</tspan><tspan x="55.556%">t</tspan><tspan x="56.667%">&quot;</tspan><tspan x="57.778%">:</tspan><tspan x="58.889%">&quot;</tspan><tspan x="60.000%">o</tspan><tspan x="61.111%">k</tspan><tspan x="62.222%">&quot;</tspan><tspan x="63.333%">}</tspan><tspan x="64.444%">]</tspan><tspan x="65.556%">}</tspan><tspan x="66.667%">{</tspan><tspan x="67.778%">&quot;</tspan><tspan x="68.889%">r</tspan><tspan x="70.000%">e</tspan><tspan x="71.111%">s</tspan><tspan x="72.222%">p</tspan><tspan x="73.333%">o</tspan><tspan x="74.444%">n</tspan><tspan x="75.556%">s</tspan><tspan x="76.667%">e</tspan><tspan x="77.778%">&quot;</tspan><tspan x="78.889%">:</tspan><tspan x="80.000%">[</tspan><tspan x="81.111%">{</tspan><tspan x="82.222%">&quot;</tspan><tspan x="83.333%">r</tspan><tspan x="84.444%">e</tspan><tspan x="85.556%">s</tspan><tspan x="86.667%">u</tspan><tspan x="87.778%">l</tspan><tspan x="88.889%">t</tspan><tspan x="90.000%">&quot;</tspan><tspan x="91.111%">:</tspan><tspan x="92.222%">&quot;</tspan><tspan x="93.333%">o</tspan><tspan x="94.444%">k</tspan><tspan x="95.556%">&quot;</tspan><tspan x="96.667%">}</tspan>
</tspan>
<tspan y="72.000%">
<tspan dy="1em" x="0.000%">]</tspan><tspan x="1.111%">}</tspan><tspan x="2.222%">#</tspan><tspan x="4.444%">t</tspan><tspan x="5.556%">p</tspan><tspan x="6.667%">i</tspan><tspan x="8.889%">-</tspan><tspan x="10.000%">u</tspan><tspan x="12.222%">h</tspan><tspan x="13.333%">o</tspan><tspan x="14.444%">s</tspan><tspan x="15.556%">t</tspan><tspan x="17.778%">-</tspan><tspan x="18.889%">n</tspan><tspan x="21.111%">1</tspan>
</tspan>
<tspan y="76.000%">
<tspan dy="1em" x="0.000%">{</tspan><tspan x="1.111%">&quot;</tspan><tspan x="2.222%">r</tspan><tspan x="3.333%">e</tspan><tspan x="4.444%">s</tspan><tspan x="5.556%">p</tspan><tspan x="6.667%">o</tspan><tspan x="7.778%">n</tspan><tspan x="8.889%">s</tspan><tspan x="10.000%">e</tspan><tspan x="11.111%">&quot;</tspan><tspan x="12.222%">:</tspan><tspan x="13.333%">[</tspan><tspan x="14.444%">{</tspan><tspan x="15.556%">&quot;</tspan><tspan x="16.667%">r</tspan><tspan x="17.778%">e</tspan><tspan x="18.889%">s</tspan><tspan x="20.000%">u</tspan><tspan x="21.111%">l</tspan><tspan x="22.222%">t</tspan><tspan x="23.333%">&quot;</tspan><tspan x="24.444%">:</tspan><tspan x="25.556%">&quot;</tspan><tspan x="26.667%">o</tspan><tspan x="27.778%">k</tspan><tspan x="28.889%">&quot;</tspan><tspan x="30.000%">}</tspan><tspan x="31.111%">]</tspan><tspan x="32.222%">}</tspan><tspan x="33.333%">#</tspan><tspan x="35.556%">t</tspan><tspan x="36.667%">p</tspan><tspan x="37.778%">i</tspan><tspan x="40.000%">-</tspan><tspan x="41.111%">p</tspan><tspan x="43.333%">o</tspan><tspan x="44.444%">f</tspan><tspan x="45.556%">f</tspan><tspan x="47.778%">-</tspan><tspan x="48.889%">n</tspan><tspan x="51.111%">1</tspan><tspan x="53.333%">&amp;</tspan><tspan x="54.444%">&amp;</tspan><tspan x="56.667%">t</tspan><tspan x="57.778%">p</tspan><tspan x="58.889%">i</tspan><tspan x="61.111%">-</tspan><tspan x="62.222%">p</tspan><tspan x="64.444%">o</tspan><tspan x="65.556%">n</tspan><tspan x="67.778%">-</tspan><tspan x="68.889%">n</tspan><tspan x="71.111%">1</tspan>
</tspan>
<tspan y="80.000%">
<tspan dy="1em" x="0.000%">{</tspan><tspan x="1.111%">&quot;</tspan><tspan x="2.222%">r</tspan><tspan x="3.333%">e</tspan><tspan x="4.444%">s</tspan><tspan x="5.556%">p</tspan><tspan x="6.667%">o</tspan><tspan x="7.778%">n</tspan><tspan x="8.889%">s</tspan><tspan x="10.000%">e</tspan><tspan x="11.111%">&quot;</tspan><tspan x="12.222%">:</tspan><tspan x="13.333%">[</tspan><tspan x="14.444%">{</tspan><tspan x="15.556%">&quot;</tspan><tspan x="16.667%">r</tspan><tspan x="17.778%">e</tspan><tspan x="18.889%">s</tspan><tspan x="20.000%">u</tspan><tspan x="21.111%">l</tspan><tspan x="22.222%">t</tspan><tspan x="23.333%">&quot;</tspan><tspan x="24.444%">:</tspan><tspan x="25.556%">&quot;</tspan><tspan x="26.667%">o</tspan><tspan x="27.778%">k</tspan><tspan x="28.889%">&quot;</tspan><tspan x="30.000%">}</tspan><tspan x="31.111%">]</tspan><tspan x="32.222%">}</tspan><tspan x="33.333%">{</tspan><tspan x="34.444%">&quot;</tspan><tspan x="35.556%">r</tspan><tspan x="36.667%">e</tspan><tspan x="37.778%">s</tspan><tspan x="38.889%">p</tspan><tspan x="40.000%">o</tspan><tspan x="41.111%">n</tspan><tspan x="42.222%">s</tspan><tspan x="43.333%">e</tspan><tspan x="44.444%">&quot;</tspan><tspan x="45.556%">:</tspan><tspan x="46.667%">[</tspan><tspan x="47.778%">{</tspan><tspan x="48.889%">&quot;</tspan><tspan x="50.000%">r</tspan><tspan x="51.111%">e</tspan><tspan x="52.222%">s</tspan><tspan x="53.333%">u</tspan><tspan x="54.444%">l</tspan><tspan x="55.556%">t</tspan><tspan x="56.667%">&quot;</tspan><tspan x="57.778%">:</tspan><tspan x="58.889%">&quot;</tspan><tspan x="60.000%">o</tspan><tspan x="61.111%">k</tspan><tspan x="62.222%">&quot;</tspan><tspan x="63.333%">}</tspan><tspan x="64.444%">]</tspan><tspan x="65.556%">}</tspan><tspan x="66.667%">#</tspan><tspan x="68.889%">w</tspan><tspan x="70.000%">a</tspan><tspan x="71.111%">t</tspan><tspan x="72.222%">c</tspan><tspan x="73.333%">h</tspan><tspan x="75.556%">-</tspan><tspan x="76.667%">n</tspan><tspan x="78.889%">5</tspan><tspan x="81.111%">t</tspan><tspan x="82.222%">p</tspan><tspan x="83.333%">i</tspan><tspan x="85.556%">-</tspan><tspan x="86.667%">-</tspan><tspan x="87.778%">u</tspan><tspan x="88.889%">a</tspan><tspan x="90.000%">r</tspan><tspan x="91.111%">t</tspan><tspan x="92.222%">=</tspan><tspan x="93.333%">g</tspan><tspan x="94.444%">e</tspan><tspan x="95.556%">t</tspan>
</tspan>
<tspan y="84.000%">
<tspan dy="1em" x="0.000%">-</tspan><tspan x="1.111%">n</tspan><tspan x="3.333%">1</tspan>
</tspan>
<tspan y="88.000%">

</tspan>
<tspan y="92.000%">

</tspan>

</text>

<g transform="translate(-50 -50)">
<svg x="50%" y="50%" width="100" height="100">
<svg version="1.1" xmlns="http://www.w3.org/2000/svg" viewBox="0 0 866.0254037844387 866.0254037844387">
  <defs>
    <mask id="small-triangle-mask">
      <rect width="100%" height="100%" fill="white"/>
      <polygon points="508.01270189221935 433.01270189221935, 208.0127018922194 259.8076211353316, 208.01270189221927 606.217782649107" fill="black"></polygon>
    </mask>
  </defs>
  <polygon points="808.0127018922194 433.01270189221935, 58.01270189221947 -1.1368683772161603e-13, 58.01270189221913 866.0254037844386" mask="url(#small-triangle-mask)" fill="white"></polygon>
  <polyline points="481.2177826491071 333.0127018922194, 134.80762113533166 533.0127018922194" stroke="white" stroke-width="90"></polyline>
</svg>

</svg>
</g>
</svg>
</svg>
