<?xml version="1.0" encoding="UTF-8" standalone="no"?>
<svg
   width="1920"
   height="1080"
   viewBox="0 0 1920 1080"
   version="1.1"
   id="svg888"
   inkscape:version="1.3.2 (091e20e, 2023-11-25, custom)"
   sodipodi:docname="crawl-walk-run.svg"
   inkscape:export-filename="S:\github.com\cprima\cprimanet\biz\marketing\visualidentity\template_svg_1080p.png"
   inkscape:export-xdpi="96"
   inkscape:export-ydpi="96"
   xml:space="preserve"
   xmlns:inkscape="http://www.inkscape.org/namespaces/inkscape"
   xmlns:sodipodi="http://sodipodi.sourceforge.net/DTD/sodipodi-0.dtd"
   xmlns:xlink="http://www.w3.org/1999/xlink"
   xmlns="http://www.w3.org/2000/svg"
   xmlns:svg="http://www.w3.org/2000/svg"
   xmlns:rdf="http://www.w3.org/1999/02/22-rdf-syntax-ns#"
   xmlns:cc="http://creativecommons.org/ns#"
   xmlns:dc="http://purl.org/dc/elements/1.1/"><defs
     id="defs882"><rect
       x="115.05466"
       y="1051.9283"
       width="3476.2287"
       height="79.790828"
       id="rect9862" /><inkscape:path-effect
       effect="spiro"
       id="path-effect5961"
       is_visible="true"
       lpeversion="1" /><inkscape:path-effect
       effect="simplify"
       id="path-effect5957"
       is_visible="true"
       lpeversion="1"
       steps="1"
       threshold="0.00457143"
       smooth_angles="360"
       helper_size="0"
       simplify_individual_paths="false"
       simplify_just_coalesce="false" /><inkscape:path-effect
       effect="spiro"
       id="path-effect1406"
       is_visible="true"
       lpeversion="1" /><inkscape:path-effect
       effect="simplify"
       id="path-effect1402"
       is_visible="true"
       lpeversion="1"
       steps="1"
       threshold="0.00457143"
       smooth_angles="360"
       helper_size="0"
       simplify_individual_paths="false"
       simplify_just_coalesce="false" /><inkscape:path-effect
       effect="spiro"
       id="path-effect1179"
       is_visible="true"
       lpeversion="1" /><inkscape:path-effect
       effect="simplify"
       id="path-effect1175"
       is_visible="true"
       lpeversion="1"
       steps="1"
       threshold="0.00457143"
       smooth_angles="360"
       helper_size="0"
       simplify_individual_paths="false"
       simplify_just_coalesce="false" /><inkscape:path-effect
       effect="spiro"
       id="path-effect1169"
       is_visible="true"
       lpeversion="1" /><inkscape:path-effect
       effect="simplify"
       id="path-effect1165"
       is_visible="true"
       lpeversion="1"
       steps="1"
       threshold="0.00457143"
       smooth_angles="360"
       helper_size="0"
       simplify_individual_paths="false"
       simplify_just_coalesce="false" /><inkscape:path-effect
       effect="spiro"
       id="path-effect5483"
       is_visible="true"
       lpeversion="1" /><inkscape:path-effect
       effect="simplify"
       id="path-effect5481"
       is_visible="true"
       lpeversion="1"
       steps="1"
       threshold="0.00457143"
       smooth_angles="360"
       helper_size="0"
       simplify_individual_paths="false"
       simplify_just_coalesce="false" /><inkscape:path-effect
       effect="spiro"
       id="path-effect5477"
       is_visible="true"
       lpeversion="1" /><inkscape:path-effect
       effect="simplify"
       id="path-effect5475"
       is_visible="true"
       lpeversion="1"
       steps="1"
       threshold="0.00457143"
       smooth_angles="360"
       helper_size="0"
       simplify_individual_paths="false"
       simplify_just_coalesce="false" /><linearGradient
       inkscape:collect="always"
       id="linearGradient1085"><stop
         style="stop-color:#000000;stop-opacity:1"
         offset="0"
         id="stop1081" /><stop
         style="stop-color:#0c0c0c;stop-opacity:0.94901961;"
         offset="0.09260008"
         id="stop4251" /><stop
         style="stop-color:#848484;stop-opacity:0.47843137;"
         offset="0.92600071"
         id="stop3750" /><stop
         style="stop-color:#ffffff;stop-opacity:0"
         offset="1"
         id="stop1083" /></linearGradient><rect
       x="0"
       y="359.5"
       width="1920"
       height="360"
       id="rect1613" /><rect
       x="0"
       y="359.5"
       width="1920"
       height="180"
       id="rect1607" /><linearGradient
       inkscape:collect="always"
       xlink:href="#linearGradient1085"
       id="linearGradient2688"
       gradientUnits="userSpaceOnUse"
       gradientTransform="translate(-2.0507812e-5)"
       x1="313.80145"
       y1="991.67053"
       x2="313.80145"
       y2="39.515759" /><rect
       x="115.05466"
       y="1051.9283"
       width="3476.2288"
       height="79.790825"
       id="rect9862-0" /><linearGradient
       inkscape:collect="always"
       xlink:href="#linearGradient1085"
       id="linearGradient1218"
       gradientUnits="userSpaceOnUse"
       gradientTransform="matrix(0.56249998,0,0,1.7777778,-1080,0)"
       x1="313.80145"
       y1="991.67053"
       x2="313.80145"
       y2="39.515759" /></defs><sodipodi:namedview
     id="base"
     pagecolor="#ffffff"
     bordercolor="#666666"
     borderopacity="1.0"
     inkscape:pageopacity="0.0"
     inkscape:pageshadow="2"
     inkscape:zoom="0.1657129"
     inkscape:cx="386.21014"
     inkscape:cy="-51.293534"
     inkscape:document-units="px"
     inkscape:current-layer="layer1"
     inkscape:document-rotation="0"
     showgrid="false"
     units="px"
     inkscape:window-width="1350"
     inkscape:window-height="1041"
     inkscape:window-x="414"
     inkscape:window-y="7"
     inkscape:window-maximized="0"
     inkscape:pagecheckerboard="0"
     showguides="true"
     inkscape:guide-bbox="true"
     inkscape:showpageshadow="2"
     inkscape:deskcolor="#d1d1d1"><sodipodi:guide
       position="0,1080"
       orientation="0,1920"
       id="guide374"
       inkscape:locked="false" /><sodipodi:guide
       position="1920,1080"
       orientation="1080,0"
       id="guide376"
       inkscape:locked="false" /><sodipodi:guide
       position="1920,0"
       orientation="0,-1920"
       id="guide378"
       inkscape:locked="false" /><sodipodi:guide
       position="0,0"
       orientation="-1080,0"
       id="guide380"
       inkscape:locked="false" /><inkscape:page
       x="0"
       y="0"
       width="1920"
       height="1080"
       id="page577"
       margin="0"
       bleed="0" /><inkscape:page
       x="1930"
       y="0"
       width="1920"
       height="1080"
       id="page579" /><inkscape:page
       x="5790"
       y="0"
       width="1920"
       height="1080"
       id="page637" /></sodipodi:namedview><metadata
     id="metadata885"><rdf:RDF><cc:Work
         rdf:about=""><dc:format>image/svg+xml</dc:format><dc:type
           rdf:resource="http://purl.org/dc/dcmitype/StillImage" /></cc:Work></rdf:RDF></metadata><g
     inkscape:label="backgrounds"
     inkscape:groupmode="layer"
     id="layer1"
     style="display:inline"><g
       id="path14"
       style="opacity:0.855823" /><rect
       style="opacity:1;mix-blend-mode:normal;fill:#fdf6e3;fill-opacity:1;stroke-width:6.94023;stroke-linecap:round;stop-color:#000000"
       id="rect1460"
       width="5780"
       height="1080"
       x="0"
       y="0"
       inkscape:label="base3" /><rect
       style="display:none;opacity:1;mix-blend-mode:normal;fill:#eee8d5;fill-opacity:1;stroke-width:6.94023;stroke-linecap:round;stop-color:#000000"
       id="rect1451"
       width="5780"
       height="1080"
       x="0"
       y="0"
       inkscape:label="base2" /><path
       id="path8"
       style="color:#000000;display:inline;opacity:1;fill:#002b36;stroke-width:0.999998;stroke-linecap:round;-inkscape-stroke:none;paint-order:fill markers stroke;-moz-transition:500ms ease-in;-webkit-transition:500ms ease-in"
       d="m 532.50887,500.50879 c -20.53334,6.3179 -31.47853,27.3598 -32.73339,47.637 -2.69578,19.8101 -5.39158,39.6202 -8.08737,59.4303 -23.5469,8.4142 -47.53503,15.7702 -70.79602,24.8704 -15.77652,8.2916 -13.47197,34.2613 3.5232,39.6374 12.47328,4.2423 24.18666,-4.0379 35.99339,-7.0762 23.7738,-8.1925 47.54757,-16.3849 71.32138,-24.5774 2.39887,-17.628 4.79772,-35.2563 7.19658,-52.8843 7.65551,7.3054 15.31101,14.6108 22.9665,21.9163 -11.42117,17.3625 -23.80535,34.1583 -34.5888,51.8964 -7.63983,16.1011 9.79092,35.4875 26.61007,29.585 12.52244,-4.0945 16.92011,-17.7482 24.53908,-27.2655 10.63773,-16.1082 22.03292,-31.7664 32.20769,-48.1501 5.20452,-10.5051 -0.19566,-22.78 -9.17083,-29.2546 -5.87726,-5.608 -11.75452,-11.2158 -17.63178,-16.8238 20.62505,-4.6391 40.80194,-12.0861 62.0775,-13.0481 -3.58572,34.1138 -8.12948,68.1749 -11.10008,102.3223 0.40991,17.8182 24.69489,27.3042 37.06839,14.473 9.6685,-9.5252 6.85017,-24.076 9.08264,-36.3169 1.09299,-11.0364 2.18599,-22.0726 3.27897,-33.109 6.67321,11.8801 12.64728,24.2048 19.76121,35.8049 10.61676,14.3734 36.01081,8.0581 38.65647,-9.6147 2.49959,-13.5687 -8.76184,-23.6826 -14.39535,-34.8819 -12.01901,-19.7136 -24.03803,-39.4271 -36.05704,-59.1406 -2.07186,-15.0318 -3.49743,-31.1367 -14.25009,-42.9244 -7.92667,-16.3695 -25.67058,-18.6574 -41.66395,-15.6694 -35.3276,3.7174 -69.8813,12.9206 -103.80837,23.1639 z m 200.87915,-45.7493 c -20.08486,0 -36.83899,16.7542 -36.83899,36.8389 0,20.0849 16.75413,36.839 36.83899,36.839 20.08487,0 36.84138,-16.7541 36.84138,-36.839 0,-20.0847 -16.75651,-36.8389 -36.84138,-36.8389 z"
       sodipodi:nodetypes="cccccccccccccccccccccccccccsssss" /><path
       d="m 1763.2659,399.57969 -137.0246,-51.393 c -11.7409,-4.3589 -24.7474,-3.7261 -35.9259,1.8983 l -32.27,16.0998 c -7.8039,3.9371 -8.3663,14.8344 -1.0546,19.5448 l 103.2782,66.4383 -69.2505,35.3635 -40.9176,-18.209 c -6.1165,-2.7419 -13.2173,-2.6013 -19.1933,0.4218 l -22.6382,11.3191 c -6.5384,3.3043 -8.296,11.8113 -3.5152,17.3654 l 51.393,59.9702 c 4.2886,4.9916 10.5457,7.8741 17.0841,7.8741 h 96.8101 c 3.5152,0 6.9602,-0.8436 10.0536,-2.3903 l 191.8625,-95.8961 c 32.6919,-16.3811 58.0017,-44.5031 70.8676,-78.7417 6.6789,-17.7169 -6.4681,-36.6993 -25.4505,-36.6993 h -40.3551 c -14.2016,0 -28.2626,3.3747 -40.9175,9.8427 z m -267.8623,256.6838 c 0,12.444 10.0536,22.4977 22.4976,22.4977 h 404.9572 c 12.444,0 22.4976,-10.0537 22.4976,-22.4977 0,-12.444 -10.0536,-22.4976 -22.4976,-22.4976 h -404.9572 c -12.444,0 -22.4976,10.0536 -22.4976,22.4976 z"
       id="path1-6"
       style="fill:#002b36;stroke-width:0.999998" /><path
       d="m 161.00974,692.02749 a 179.98099,179.98099 0 1 0 0,-359.9619 179.98099,179.98099 0 1 0 0,359.9619 z m 35.6447,-131.4002 -101.450201,39.0193 c -13.6392,5.2729 -27.0675,-8.1553 -21.7946,-21.7945 l 39.019301,-101.4502 c 2.3201,-5.976 6.9602,-10.6161 12.9361,-12.9362 l 101.4502,-39.0193 c 13.63922,-5.2729 27.06749,8.1554 21.79461,21.7946 l -39.01931,101.4502 c -2.2498,5.9759 -6.9602,10.6161 -12.9361,12.9361 z m -13.1471,-48.5808 a 22.497622,22.497622 0 1 0 -44.9952,0 22.497622,22.497622 0 1 0 44.9952,0 z"
       id="path1-3"
       style="fill:#002b36;stroke-width:0.999998" /><path
       d="m 1358.7052,365.79289 a 33.746433,33.746433 0 1 0 -67.4929,0 33.746433,33.746433 0 1 0 67.4929,0 z m -136.6028,89.639 c 6.9602,-6.9602 16.4514,-10.8973 26.3644,-10.8973 1.3358,0 2.6716,0.07 3.9371,0.2109 l -21.9352,65.8759 c -6.5383,19.6854 1.1952,41.3394 18.8418,52.3773 l 60.603,37.8944 -17.8575,62.4309 c -3.445,11.9518 3.5152,24.3958 15.4671,27.8408 11.9518,3.4449 24.3958,-3.5153 27.8408,-15.4671 l 20.1775,-70.5863 c 4.148,-14.4829 -1.8279,-29.95 -14.5531,-37.8944 l -39.9333,-24.9583 21.7243,-57.9314 3.5855,8.6475 c 10.5458,25.1692 35.0823,41.5503 62.3606,41.5503 h 14.975 c 12.444,0 22.4976,-10.0536 22.4976,-22.4976 0,-12.444 -10.0536,-22.4976 -22.4976,-22.4976 h -14.975 c -9.0693,0 -17.295,-5.4838 -20.74,-13.8501 l -4.4292,-10.5458 c -10.2645,-24.6771 -31.0045,-43.5188 -56.5956,-51.393 l -34.2385,-10.5458 c -7.8039,-2.3903 -15.9593,-3.6558 -24.185,-3.6558 -21.7945,0 -42.7455,8.6475 -58.1423,24.1146 l -16.3107,16.2405 c -8.7882,8.7881 -8.7882,23.06 0,31.8482 8.7881,8.7881 23.06,8.7881 31.8482,0 l 16.2404,-16.2405 z m -24.2552,124.0884 h -41.6206 c -12.444,0 -22.4977,10.0537 -22.4977,22.4977 0,12.444 10.0537,22.4976 22.4977,22.4976 h 48.9323 c 13.358,0 25.4504,-7.8742 30.8639,-20.037 l 8.0851,-18.209 -6.679,-4.2183 c -12.3034,-7.6632 -21.443,-18.8417 -26.6456,-31.5669 z"
       id="path1-8"
       style="fill:#002b36;stroke-width:0.999998" /><path
       d="m 951.97579,365.82079 a 33.746433,33.746433 0 1 1 67.49281,0 33.746433,33.746433 0 1 1 -67.49281,0 z m -23.5522,106.3715 c -0.70305,0.2813 -1.3358,0.5625 -2.03885,0.8437 l -5.62441,2.4607 c -11.53003,5.1323 -20.38847,14.9047 -24.39585,26.8565 l -1.82794,5.4838 c -3.93708,11.8113 -16.6623,18.1387 -28.47355,14.2016 -11.81125,-3.937 -18.13871,-16.6623 -14.20162,-28.4735 l 1.82793,-5.4838 c 8.01478,-23.974 25.73166,-43.5188 48.79172,-53.7834 l 5.6244,-2.4607 c 14.62346,-6.468 30.4421,-9.8427 46.47165,-9.8427 31.35606,0 59.61873,18.8418 71.64083,47.7372 l 10.827,25.9425 15.0453,7.5227 c 11.1082,5.5541 15.6077,19.0527 10.0536,30.1609 -5.5541,11.1082 -19.0527,15.6077 -30.1609,10.0536 l -18.8417,-9.3506 c -7.2414,-3.6559 -12.9361,-9.7021 -16.02956,-17.2247 l -6.74929,-16.1702 -13.56887,46.0498 34.80102,37.9648 c 3.7965,4.148 6.468,9.1396 7.8741,14.6234 l 16.1702,64.751 c 3.0231,12.0221 -4.2886,24.2552 -16.3811,27.2783 -12.0924,3.0232 -24.25521,-4.2886 -27.27833,-16.381 l -15.46712,-61.9388 -49.70568,-54.2052 c -10.40515,-11.3191 -14.27193,-27.1378 -10.33484,-41.9721 l 11.88155,-44.6438 z m -40.63633,139.6962 17.57626,-43.8703 c 1.47641,2.1091 3.16373,4.0776 4.92136,6.0462 l 28.61416,31.2154 -10.19423,25.4505 c -1.68732,4.2183 -4.21831,8.0851 -7.45234,11.3191 l -43.37823,43.3782 c -8.78813,8.7882 -23.06006,8.7882 -31.84819,0 -8.78814,-8.7881 -8.78814,-23.06 0,-31.8482 z"
       id="path1-41"
       style="fill:#002b36;stroke-width:0.999998" /></g><g
     inkscape:groupmode="layer"
     id="layer14"
     inkscape:label="broadcastdesign"
     style="display:none"><g
       inkscape:groupmode="layer"
       id="layer3"
       inkscape:label="ticker"
       style="display:none"
       sodipodi:insensitive="true"><rect
         y="1016"
         x="0"
         height="64"
         width="1920"
         id="rect4399"
         style="display:inline;fill:#002b36;fill-opacity:1;stroke:none;stroke-width:1;stroke-miterlimit:4;stroke-dasharray:none" /><text
         xml:space="preserve"
         id="text9860"
         style="font-size:32px;line-height:1;font-family:'Linux Libertine';-inkscape-font-specification:'Linux Libertine, Normal';text-align:center;word-spacing:0px;white-space:pre;shape-inside:url(#rect9862-0);display:inline"
         transform="translate(-892.45801,-14.676943)"
         x="852.12109"
         y="0"><tspan
           x="147.8252"
           y="1077.0207"
           id="tspan2"><tspan
             style="fill:#fdf6e3"
             id="tspan1">Please give feedback via the link in the description. 4 + 2 questions, no personal data collected.  Don't forget to subscribe to Anders' YouTube channel! Connect with my on LinkedIn, I will try to answer any questions and share my response with the participants.</tspan></tspan></text></g><g
       inkscape:groupmode="layer"
       id="layer8"
       inkscape:label="bug"
       style="display:none"><text
         xml:space="preserve"
         style="font-size:48px;line-height:1.25;font-family:'Linux Libertine';-inkscape-font-specification:'Linux Libertine, Normal';text-align:end;word-spacing:0px;text-anchor:end;fill:#002b36"
         x="1898.2344"
         y="70.816055"
         id="text2227"><tspan
           sodipodi:role="line"
           id="tspan2225"
           x="1898.2344"
           y="70.816055">cprima.net</tspan></text></g><g
       inkscape:groupmode="layer"
       id="layer7"
       inkscape:label="PIP-layout"
       style="display:none"><rect
         style="display:inline;fill:#268bd2;stroke:none;stroke-width:22.5296;stop-color:#000000"
         id="rect1086"
         width="1600"
         height="900"
         x="20"
         y="96" /><rect
         style="display:inline;fill:#93a1a1;stroke:none;stroke-width:5.00658;stop-color:#000000"
         id="rect1186"
         width="355.55554"
         height="200"
         x="1562.4445"
         y="814" /><rect
         style="display:inline;fill:#93a1a1;stroke:none;stroke-width:5.00658;stop-color:#000000"
         id="rect1206"
         width="355.55554"
         height="200"
         x="1562.4445"
         y="116" /><rect
         style="display:inline;fill:#fdf6e3;stroke:none;stroke-width:15.9308;stop-color:#000000"
         id="rect5655"
         width="800"
         height="900"
         x="20"
         y="96" /></g><g
       inkscape:groupmode="layer"
       id="layer9"
       inkscape:label="toc-left"
       style="display:none"><g
         id="g4929"
         transform="matrix(1.0477454,0,0,1,-1.1933879,0)"
         inkscape:label="toc-bgs"><rect
           style="display:inline;fill:#eee8d5;stroke:none;stroke-width:2.37132;stop-color:#000000"
           id="rect925"
           width="754"
           height="72"
           x="24.994843"
           y="871.76343"
           rx="8"
           ry="8" /><rect
           style="display:inline;fill:#eee8d5;stroke:none;stroke-width:2.37132;stop-color:#000000"
           id="rect51905"
           width="754"
           height="72"
           x="24.994843"
           y="761.76343"
           rx="8"
           ry="8"
           inkscape:label="toc-bg-7" /><rect
           style="display:inline;fill:#eee8d5;stroke:none;stroke-width:2.37132;stop-color:#000000"
           id="rect921"
           width="754"
           height="72"
           x="24.994843"
           y="651.76343"
           rx="8"
           ry="8"
           inkscape:label="toc-bg-6" /><rect
           style="fill:#eee8d5;stroke:none;stroke-width:2.37132;stop-color:#000000"
           id="rect51903"
           width="754"
           height="72"
           x="24.994843"
           y="541.45325"
           rx="8"
           ry="8"
           inkscape:label="toc-bg-5" /><rect
           style="fill:#eee8d5;stroke:none;stroke-width:2.37132;stop-color:#000000"
           id="rect51421"
           width="754"
           height="72"
           x="24.994843"
           y="431.1431"
           rx="8"
           ry="8"
           inkscape:label="toc-bg-4" /><rect
           style="display:inline;fill:#eee8d5;stroke:none;stroke-width:2.65121;stop-color:#000000"
           id="rect51911"
           width="754"
           height="90"
           x="24.994843"
           y="320.83292"
           rx="8"
           ry="8"
           inkscape:label="toc-bg-3" /><rect
           style="display:inline;fill:#eee8d5;stroke:none;stroke-width:2.37132;stop-color:#000000"
           id="rect51907"
           width="754"
           height="72"
           x="24.994843"
           y="210.52274"
           rx="8"
           ry="8"
           inkscape:label="toc-bg-2" /><rect
           style="display:inline;fill:#eee8d5;stroke:none;stroke-width:2.37132;stop-color:#000000"
           id="rect51909"
           width="754"
           height="72"
           x="24.994843"
           y="100.21255"
           rx="8"
           ry="8"
           inkscape:label="toc-bg-1" /></g><text
         xml:space="preserve"
         style="font-style:normal;font-variant:normal;font-weight:normal;font-stretch:normal;font-size:88px;line-height:1.25;font-family:'Linux Libertine';-inkscape-font-specification:'Linux Libertine, Normal';font-variant-ligatures:normal;font-variant-caps:normal;font-variant-numeric:normal;font-variant-east-asian:normal;display:inline;mix-blend-mode:normal;fill:#000000;fill-opacity:1;stroke:none"
         x="33.610424"
         y="167.60426"
         id="text1674-1"
         inkscape:label="toc-text"><tspan
           sodipodi:role="line"
           x="33.610424"
           y="167.60426"
           style="font-style:normal;font-variant:normal;font-weight:normal;font-stretch:normal;font-size:88px;font-family:'Linux Libertine';-inkscape-font-specification:'Linux Libertine, Normal';font-variant-ligatures:normal;font-variant-caps:normal;font-variant-numeric:normal;font-variant-east-asian:normal"
           id="tspan919">Bar</tspan><tspan
           sodipodi:role="line"
           x="33.610424"
           y="277.60425"
           style="font-style:normal;font-variant:normal;font-weight:normal;font-stretch:normal;font-size:88px;line-height:1.25;font-family:'Linux Libertine';-inkscape-font-specification:'Linux Libertine, Normal';font-variant-ligatures:normal;font-variant-caps:normal;font-variant-numeric:normal;font-variant-east-asian:normal;display:inline;mix-blend-mode:normal;fill:#000000;fill-opacity:1;stroke:none"
           id="tspan917">Foo</tspan><tspan
           sodipodi:role="line"
           x="33.610424"
           y="387.60425"
           style="font-style:normal;font-variant:normal;font-weight:normal;font-stretch:normal;font-size:88px;line-height:1.25;font-family:'Linux Libertine';-inkscape-font-specification:'Linux Libertine, Normal';font-variant-ligatures:normal;font-variant-caps:normal;font-variant-numeric:normal;font-variant-east-asian:normal;display:inline;mix-blend-mode:normal;fill:#000000;fill-opacity:1;stroke:none"
           id="tspan23603">Save Searches</tspan><tspan
           sodipodi:role="line"
           x="33.610424"
           y="497.60425"
           style="font-style:normal;font-variant:normal;font-weight:normal;font-stretch:normal;font-size:88px;line-height:1.25;font-family:'Linux Libertine';-inkscape-font-specification:'Linux Libertine, Normal';font-variant-ligatures:normal;font-variant-caps:normal;font-variant-numeric:normal;font-variant-east-asian:normal;display:inline;mix-blend-mode:normal;fill:#000000;fill-opacity:1;stroke:none"
           id="tspan20151">Subselect Results</tspan><tspan
           sodipodi:role="line"
           x="33.610424"
           y="607.60425"
           style="font-style:normal;font-variant:normal;font-weight:normal;font-stretch:normal;font-size:88px;line-height:1.25;font-family:'Linux Libertine';-inkscape-font-specification:'Linux Libertine, Normal';font-variant-ligatures:normal;font-variant-caps:normal;font-variant-numeric:normal;font-variant-east-asian:normal;display:inline;mix-blend-mode:normal;fill:#000000;fill-opacity:1;stroke:none"
           id="tspan19951">Search Result</tspan><tspan
           sodipodi:role="line"
           x="33.610424"
           y="717.60425"
           style="font-style:normal;font-variant:normal;font-weight:normal;font-stretch:normal;font-size:88px;line-height:1.25;font-family:'Linux Libertine';-inkscape-font-specification:'Linux Libertine, Normal';font-variant-ligatures:normal;font-variant-caps:normal;font-variant-numeric:normal;font-variant-east-asian:normal;display:inline;mix-blend-mode:normal;fill:#000000;fill-opacity:1;stroke:none"
           id="tspan16121">Regular Expressions</tspan><tspan
           sodipodi:role="line"
           x="33.610424"
           y="827.60425"
           style="font-style:normal;font-variant:normal;font-weight:normal;font-stretch:normal;font-size:88px;line-height:1.25;font-family:'Linux Libertine';-inkscape-font-specification:'Linux Libertine, Normal';font-variant-ligatures:normal;font-variant-caps:normal;font-variant-numeric:normal;font-variant-east-asian:normal;display:inline;mix-blend-mode:normal;fill:#000000;fill-opacity:1;stroke:none"
           id="tspan15921">Extended Search</tspan><tspan
           sodipodi:role="line"
           id="tspan1672-8"
           x="33.610424"
           y="937.60425"
           style="font-style:normal;font-variant:normal;font-weight:normal;font-stretch:normal;font-size:88px;line-height:1.25;font-family:'Linux Libertine';-inkscape-font-specification:'Linux Libertine, Normal';font-variant-ligatures:normal;font-variant-caps:normal;font-variant-numeric:normal;font-variant-east-asian:normal;display:inline;mix-blend-mode:normal;fill:#000000;fill-opacity:1;stroke:none">Normal Search</tspan></text></g></g><g
     inkscape:groupmode="layer"
     id="layer13"
     inkscape:label="togaf"
     sodipodi:insensitive="true"><g
       inkscape:groupmode="layer"
       id="layer5"
       inkscape:label="app"
       style="display:none"><path
         id="rect4399-1-5"
         style="display:inline;fill:#b58900;fill-opacity:1;stroke:none;stroke-width:0.707107;stroke-miterlimit:4;stroke-dasharray:none"
         d="M 0,0 H 1920 V 12 L 0,52 Z"
         sodipodi:nodetypes="ccccc" /></g><g
       inkscape:groupmode="layer"
       id="g1684"
       inkscape:label="biz"
       style="display:none"><path
         id="rect4399-1-5-0"
         style="display:inline;fill:#268bd2;fill-opacity:1;stroke:none;stroke-width:0.707107;stroke-miterlimit:4;stroke-dasharray:none"
         d="M 0,0 H 1920 V 12 L 0,52 Z"
         sodipodi:nodetypes="ccccc" /><rect
         style="opacity:1;fill:#eee8d5;fill-opacity:1;stroke:none;stroke-width:4;stroke-linecap:round;stop-color:#000000"
         id="rect1723"
         width="200.30829"
         height="151.7487"
         x="52.606216"
         y="-271.12433" /></g><g
       inkscape:groupmode="layer"
       id="g1705"
       inkscape:label="dat"
       style="display:none"><path
         id="rect4399-1-5-7"
         style="display:inline;fill:#dc322f;fill-opacity:1;stroke:none;stroke-width:0.707107;stroke-miterlimit:4;stroke-dasharray:none"
         d="M 0,0 H 1920 V 12 L 0,52 Z"
         sodipodi:nodetypes="ccccc" /></g><g
       inkscape:groupmode="layer"
       id="g1715"
       inkscape:label="tec"
       style="display:none"><path
         id="rect4399-1-5-2"
         style="display:inline;fill:#859900;fill-opacity:1;stroke:none;stroke-width:0.707107;stroke-miterlimit:4;stroke-dasharray:none"
         d="M 0,0 H 1920 V 12 L 0,52 Z"
         sodipodi:nodetypes="ccccc" /></g><g
       inkscape:groupmode="layer"
       id="g1537"
       inkscape:label="lowerthird-app"
       style="display:none"><rect
         style="display:inline;fill:#b58900;fill-opacity:1;stroke:none;stroke-width:0.873478"
         id="rect1535"
         width="1920"
         height="206"
         x="0"
         y="810" /></g><g
       inkscape:groupmode="layer"
       id="g1541"
       inkscape:label="lowerthird-biz"
       style="display:none"><rect
         style="display:inline;fill:#268bd2;fill-opacity:1;stroke:none;stroke-width:0.873478"
         id="rect1539"
         width="1920"
         height="206"
         x="0"
         y="810" /></g><g
       inkscape:groupmode="layer"
       id="g1545"
       inkscape:label="lowerthird-dat"
       style="display:none"><rect
         style="display:inline;fill:#dc322f;fill-opacity:1;stroke:none;stroke-width:0.873478"
         id="rect1543"
         width="1920"
         height="206"
         x="0"
         y="810" /></g><g
       inkscape:groupmode="layer"
       id="layer4"
       inkscape:label="lowerthird-tec"
       style="display:none"><rect
         style="display:inline;fill:#859900;fill-opacity:1;stroke:none;stroke-width:0.873478"
         id="rect4155-7"
         width="1920"
         height="206"
         x="0"
         y="810" /></g></g><g
     inkscape:groupmode="layer"
     id="layer10"
     inkscape:label="luminance"
     style="display:none"
     sodipodi:insensitive="true"><rect
       style="display:none;mix-blend-mode:overlay;fill:url(#linearGradient2688);fill-opacity:1;stroke-width:4.06983;stop-color:#000000"
       id="rect999"
       width="1920"
       height="1080"
       x="0"
       y="0"
       rx="2.0483451"
       ry="1.527025"
       inkscape:export-filename="S:\github.com\cprima\cprimanet\biz\marketing\broadcastdesign\luminance_top-to-bottom_FullHD.png"
       inkscape:export-xdpi="96"
       inkscape:export-ydpi="96"
       inkscape:label="top-to-bottom" /><rect
       style="mix-blend-mode:overlay;fill:url(#linearGradient1218);fill-opacity:1;stroke-width:4.06983;stop-color:#000000"
       id="rect1214"
       width="1080"
       height="1920"
       x="-1080"
       y="0"
       rx="1.152194"
       ry="2.714711"
       inkscape:export-filename="S:\github.com\cprima\cprimanet\biz\marketing\broadcastdesign\luminance_top-to-bottom_FullHD.png"
       inkscape:export-xdpi="96"
       inkscape:export-ydpi="96"
       inkscape:label="left-to-right"
       transform="rotate(-90)" /></g><g
     inkscape:groupmode="layer"
     id="layer2"
     inkscape:label="goldencut"
     style="display:inline;opacity:0.303085"
     sodipodi:insensitive="true"><path
       style="display:inline;fill:none;fill-rule:evenodd;stroke:#000000;stroke-width:1;stroke-linecap:butt;stroke-linejoin:miter;stroke-miterlimit:4;stroke-dasharray:none;stroke-opacity:1"
       d="M 0,269.5 H 1920"
       id="path4237-9"
       inkscape:connector-curvature="0" /><path
       style="display:inline;fill:none;fill-rule:evenodd;stroke:#000000;stroke-width:1;stroke-linecap:butt;stroke-linejoin:miter;stroke-miterlimit:4;stroke-dasharray:none;stroke-opacity:1"
       d="M 0,539.5 H 1920"
       id="path4237-9-9"
       inkscape:connector-curvature="0" /><path
       style="display:inline;fill:none;fill-rule:evenodd;stroke:#000000;stroke-width:1;stroke-linecap:butt;stroke-linejoin:miter;stroke-miterlimit:4;stroke-dasharray:none;stroke-opacity:1"
       d="M 0,809.5 H 1920"
       id="path4237-9-9-8"
       inkscape:connector-curvature="0" /><path
       style="display:inline;fill:none;fill-rule:evenodd;stroke:#000000;stroke-width:1;stroke-linecap:butt;stroke-linejoin:miter;stroke-miterlimit:4;stroke-dasharray:none;stroke-opacity:1"
       d="M 0,359.5 H 1920"
       id="path4237-9-9-5"
       inkscape:connector-curvature="0" /><path
       style="display:inline;fill:none;fill-rule:evenodd;stroke:#000000;stroke-width:1;stroke-linecap:butt;stroke-linejoin:miter;stroke-miterlimit:4;stroke-dasharray:none;stroke-opacity:1"
       d="M 0,719.5 H 1920"
       id="path4237-9-9-1"
       inkscape:connector-curvature="0" /><path
       style="display:inline;fill:none;stroke:#000000;stroke-width:1px;stroke-linecap:butt;stroke-linejoin:miter;stroke-opacity:1"
       d="M 20,996 1620,96"
       id="path5473"
       inkscape:path-effect="#path-effect5475;#path-effect5477"
       inkscape:original-d="M 20,996 1620,96" /><path
       style="display:inline;fill:none;stroke:#000000;stroke-width:1px;stroke-linecap:butt;stroke-linejoin:miter;stroke-opacity:1"
       d="M 20,96 1620,996"
       id="path5479"
       inkscape:path-effect="#path-effect5481;#path-effect5483"
       inkscape:original-d="M 20,96 1620,996" /><path
       style="display:inline;fill:none;stroke:#000000;stroke-width:1px;stroke-linecap:butt;stroke-linejoin:miter;stroke-opacity:1"
       d="M 0,0 1920,1080"
       id="path1161"
       inkscape:path-effect="#path-effect1165;#path-effect1169"
       inkscape:original-d="M 0,0 1920,1080" /><path
       style="display:inline;fill:none;stroke:#000000;stroke-width:1px;stroke-linecap:butt;stroke-linejoin:miter;stroke-opacity:1"
       d="M 0,1080 1920,0"
       id="path1398"
       inkscape:path-effect="#path-effect1402;#path-effect1406"
       inkscape:original-d="M 0,1080 1920,0" /><g
       id="g6519"
       transform="translate(-3426.5425,81.90556)"><path
         id="path1430"
         style="opacity:0.392683;fill:none;stroke:#002b36;stroke-width:4;stroke-linecap:round;stop-color:#000000"
         d="m 4624.5425,243.75994 c 0,186.67225 -106.5562,378 -238,378 -131.4438,0 -238,-191.32775 -238,-378 0,-186.672238 106.5562,-297.999995 238,-297.999995 131.4438,0 238,111.327757 238,297.999995 z"
         sodipodi:nodetypes="sssss" /><path
         style="fill:none;stroke:#000000;stroke-width:1px;stroke-linecap:butt;stroke-linejoin:miter;stroke-opacity:1"
         d="m 4624.5425,281.75995 h -476"
         id="path6353" /></g><text
       xml:space="preserve"
       style="font-size:36px;line-height:1.25;font-family:'Linux Libertine';-inkscape-font-specification:'Linux Libertine, Normal';word-spacing:0px;display:inline;fill:#002b36"
       x="1321.7205"
       y="370.93591"
       id="text3338"><tspan
         sodipodi:role="line"
         id="tspan3336"
         x="1321.7205"
         y="370.93591"
         style="font-size:36px;text-align:end;text-anchor:end">eyeline</tspan></text><path
       style="display:inline;fill:none;stroke:#000000;stroke-width:0.999998px;stroke-linecap:butt;stroke-linejoin:miter;stroke-opacity:1"
       d="M 960.00001,1080 V 0"
       id="path6078" /><rect
       style="display:inline;fill:#657b83;stroke-width:5.99812;stroke-linecap:round;stroke-dasharray:23.9925, 5.99812;stop-color:#000000"
       id="rect1274"
       width="1280"
       height="720"
       x="320"
       y="270" /><rect
       style="display:inline;fill:#93a1a1;stroke-width:5.99811;stroke-linecap:round;stroke-dasharray:23.9925, 5.99811;stop-color:#000000"
       id="rect1036"
       width="1280"
       height="540"
       x="320"
       y="270" /></g><g
     inkscape:groupmode="layer"
     id="layer6"
     inkscape:label="visualization"
     style="display:inline" /><g
     inkscape:groupmode="layer"
     id="g1680"
     inkscape:label="title_text"
     style="display:inline"><text
       xml:space="preserve"
       style="font-style:normal;font-variant:normal;font-weight:normal;font-stretch:normal;font-size:85.3333px;line-height:1.25;font-family:'Linux Libertine';-inkscape-font-specification:'Linux Libertine, Normal';font-variant-ligatures:normal;font-variant-caps:normal;font-variant-numeric:normal;font-variant-east-asian:normal;opacity:1;mix-blend-mode:normal;fill:#002b36;fill-opacity:1;stroke:none"
       x="345.20108"
       y="511.89893"
       id="text1674"
       inkscape:label="middle2"><tspan
         sodipodi:role="line"
         id="tspan1672"
         x="345.20108"
         y="511.89893"
         style="font-style:normal;font-variant:normal;font-weight:normal;font-stretch:normal;font-size:85.3333px;font-family:'Linux Libertine';-inkscape-font-specification:'Linux Libertine, Normal';font-variant-ligatures:normal;font-variant-caps:normal;font-variant-numeric:normal;font-variant-east-asian:normal;fill:#002b36">Title A Lorem ipsum dolor sit amet</tspan></text><text
       xml:space="preserve"
       style="font-style:normal;font-variant:normal;font-weight:normal;font-stretch:normal;font-size:85.3333px;line-height:1.25;font-family:'Linux Libertine';-inkscape-font-specification:'Linux Libertine, Normal';font-variant-ligatures:normal;font-variant-caps:normal;font-variant-numeric:normal;font-variant-east-asian:normal;opacity:1;mix-blend-mode:normal;fill:#002b36;fill-opacity:1;stroke:none"
       x="622.26361"
       y="597.89893"
       id="text1678"
       inkscape:label="middle1"><tspan
         sodipodi:role="line"
         id="tspan1676"
         x="622.26361"
         y="597.89893"
         style="font-style:normal;font-variant:normal;font-weight:normal;font-stretch:normal;font-size:85.3333px;font-family:'Linux Libertine';-inkscape-font-specification:'Linux Libertine, Normal';font-variant-ligatures:normal;font-variant-caps:normal;font-variant-numeric:normal;font-variant-east-asian:normal;fill:#002b36">Title B Foo Bar Baz</tspan></text><text
       xml:space="preserve"
       style="font-style:normal;font-variant:normal;font-weight:normal;font-stretch:normal;font-size:85.3333px;line-height:1;font-family:'Linux Libertine';-inkscape-font-specification:'Linux Libertine, Normal';font-variant-ligatures:normal;font-variant-caps:normal;font-variant-numeric:normal;font-variant-east-asian:normal;text-align:center;text-anchor:middle;display:inline;mix-blend-mode:normal;fill:#002b36;fill-opacity:1;stroke:none"
       x="968.88831"
       y="167.89893"
       id="text1674-9"
       inkscape:label="top"><tspan
         sodipodi:role="line"
         id="tspan1672-3"
         x="968.88831"
         y="167.89893"
         style="font-style:normal;font-variant:normal;font-weight:normal;font-stretch:normal;font-size:85.3333px;font-family:'Linux Libertine';-inkscape-font-specification:'Linux Libertine, Normal';font-variant-ligatures:normal;font-variant-caps:normal;font-variant-numeric:normal;font-variant-east-asian:normal;text-align:center;text-anchor:middle;fill:#002b36">Frequency Spectrum</tspan></text></g></svg>
