<svg xmlns="http://www.w3.org/2000/svg" xmlns:xlink="http://www.w3.org/1999/xlink" xmlns:lucid="lucid" width="875.43" height="568.63"><g transform="translate(100 -956.3655787037037)" lucid:page-tab-id="PzP8ghi5phTO"><path d="M-500 500h1500v1500H-500z" fill="#fdf6e3"/><path d="M-80 1046c0-3.3 2.7-6 6-6h188c3.3 0 6 2.7 6 6v139c0 3.3-2.7 6-6 6H-74c-3.3 0-6-2.7-6-6z" fill="#f6edc5"/><path d="M-80 1046c0-3.3 2.7-6 6-6h188c3.3 0 6 2.7 6 6v139c0 3.3-2.7 6-6 6H-74c-3.3 0-6-2.7-6-6zM-80 1080h200" stroke="#5e5e5e" stroke-width="3" fill="none"/><use xlink:href="#a" transform="matrix(1,0,0,1,-70,1040) translate(66.57407407407408 24.444444444444443)"/><use xlink:href="#b" transform="matrix(1,0,0,1,-75,1082.5) translate(0 20.444444444444443)"/><use xlink:href="#c" transform="matrix(1,0,0,1,-75,1119.5) translate(0 20.444444444444443)"/><use xlink:href="#d" transform="matrix(1,0,0,1,-75,1156.5) translate(0 20.444444444444443)"/><use xlink:href="#e" transform="matrix(1,0,0,1,-75,1156.5) translate(131.9135802469136 20.444444444444443)"/><path d="M-80 1237c0-3.3 2.7-6 6-6h188c3.3 0 6 2.7 6 6v250c0 3.3-2.7 6-6 6H-74c-3.3 0-6-2.7-6-6z" fill="#f6edc5"/><path d="M-80 1237c0-3.3 2.7-6 6-6h188c3.3 0 6 2.7 6 6v250c0 3.3-2.7 6-6 6H-74c-3.3 0-6-2.7-6-6zM-80 1271h200" stroke="#5e5e5e" stroke-width="3" fill="none"/><use xlink:href="#f" transform="matrix(1,0,0,1,-70,1231) translate(45.06172839506173 24.444444444444443)"/><use xlink:href="#g" transform="matrix(1,0,0,1,-75,1273.5) translate(0 20.444444444444443)"/><use xlink:href="#h" transform="matrix(1,0,0,1,-75,1310.5) translate(0 20.444444444444443)"/><use xlink:href="#i" transform="matrix(1,0,0,1,-75,1347.5) translate(0 20.488888888888887)"/><use xlink:href="#j" transform="matrix(1,0,0,1,-75,1384.5) translate(0 20.444444444444443)"/><use xlink:href="#k" transform="matrix(1,0,0,1,-75,1421.5) translate(0 20.488888888888887)"/><use xlink:href="#l" transform="matrix(1,0,0,1,-75,1458.5) translate(0 20.488888888888887)"/><use xlink:href="#m" transform="matrix(1,0,0,1,-75,1458.5) translate(48.62962962962962 20.488888888888887)"/><path d="M240 1126c0-3.3 2.7-6 6-6h188c3.3 0 6 2.7 6 6v213c0 3.3-2.7 6-6 6H246c-3.3 0-6-2.7-6-6z" fill="#f6edc5"/><path d="M240 1126c0-3.3 2.7-6 6-6h188c3.3 0 6 2.7 6 6v213c0 3.3-2.7 6-6 6H246c-3.3 0-6-2.7-6-6zM240 1160h200" stroke="#5e5e5e" stroke-width="3" fill="none"/><use xlink:href="#n" transform="matrix(1,0,0,1,249.99999999999994,1120) translate(16.01851851851852 24.444444444444443)"/><use xlink:href="#o" transform="matrix(1,0,0,1,244.99999999999994,1162.5) translate(0 20.444444444444443)"/><use xlink:href="#p" transform="matrix(1,0,0,1,244.99999999999994,1162.5) translate(120.74074074074073 20.444444444444443)"/><use xlink:href="#q" transform="matrix(1,0,0,1,244.99999999999994,1199.5) translate(0 20.444444444444443)"/><use xlink:href="#r" transform="matrix(1,0,0,1,244.99999999999994,1236.5) translate(0 20.444444444444443)"/><use xlink:href="#s" transform="matrix(1,0,0,1,244.99999999999994,1273.5) translate(0 20.488888888888887)"/><use xlink:href="#t" transform="matrix(1,0,0,1,244.99999999999994,1310.5) translate(0 20.488888888888887)"/><path d="M555.43 1046c0-3.3 2.7-6 6-6h188c3.32 0 6 2.7 6 6v139c0 3.3-2.68 6-6 6h-188c-3.3 0-6-2.7-6-6z" fill="#f6edc5"/><path d="M555.43 1046c0-3.3 2.7-6 6-6h188c3.32 0 6 2.7 6 6v139c0 3.3-2.68 6-6 6h-188c-3.3 0-6-2.7-6-6zM555.43 1080h200" stroke="#5e5e5e" stroke-width="3" fill="none"/><use xlink:href="#u" transform="matrix(1,0,0,1,565.4330708661416,1040) translate(0 24.444444444444443)"/><use xlink:href="#v" transform="matrix(1,0,0,1,565.4330708661416,1040) translate(72.65432098765432 24.444444444444443)"/><use xlink:href="#w" transform="matrix(1,0,0,1,560.4330708661416,1082.5) translate(0 20.444444444444443)"/><use xlink:href="#x" transform="matrix(1,0,0,1,560.4330708661416,1082.5) translate(61.666666666666664 20.444444444444443)"/><use xlink:href="#y" transform="matrix(1,0,0,1,560.4330708661416,1082.5) translate(80.80246913580247 20.444444444444443)"/><use xlink:href="#z" transform="matrix(1,0,0,1,560.4330708661416,1119.5) translate(0 20.444444444444443)"/><use xlink:href="#A" transform="matrix(1,0,0,1,560.4330708661416,1119.5) translate(141.72839506172838 20.444444444444443)"/><use xlink:href="#c" transform="matrix(1,0,0,1,560.4330708661416,1156.5) translate(0 20.444444444444443)"/><path d="M218.5 1252.5H186c-3.3 0-6-2.7-6-6v-105c0-3.3-2.7-6-6-6h-33.68" stroke="#5e5e5e" stroke-width="2" fill="none"/><path d="M218.5 1242.5v20M238.5 1252.5h-20" stroke="#5e5e5e" stroke-width="2" fill="#fff"/><path d="M121.95 1125.5l20 10-20 10" stroke="#5e5e5e" stroke-width="2" fill="#fff" fill-opacity="0"/><path d="M121.95 1135.5h20" stroke="#5e5e5e" stroke-width="2" fill="#fff"/><path d="M461.5 1326.5h30.22c3.3 0 6-2.7 6-6v-216c0-3.3 2.68-6 6-6h30.2" stroke="#5e5e5e" stroke-width="2" fill="none"/><path d="M461.5 1336.5v-20M441.5 1326.5h20M533.93 1088.5v20M553.93 1098.5h-20" stroke="#5e5e5e" stroke-width="2" fill="#fff"/><path d="M598.17 1283c0-3.3 2.7-6 6-6h108c3.32 0 6 2.7 6 6v102c0 3.3-2.68 6-6 6h-108c-3.3 0-6-2.7-6-6z" fill="#f6edc5"/><path d="M598.17 1283c0-3.3 2.7-6 6-6h108c3.32 0 6 2.7 6 6v102c0 3.3-2.68 6-6 6h-108c-3.3 0-6-2.7-6-6zM598.17 1317h120" stroke="#5e5e5e" stroke-width="3" fill="none"/><use xlink:href="#B" transform="matrix(1,0,0,1,608.1732283464567,1277) translate(26.01851851851852 24.444444444444443)"/><use xlink:href="#C" transform="matrix(1,0,0,1,603.1732283464567,1319.5) translate(0 20.444444444444443)"/><use xlink:href="#D" transform="matrix(1,0,0,1,603.1732283464567,1356.5) translate(0 20.444444444444443)"/><path d="M655.43 1212.5v44.18" stroke="#5e5e5e" stroke-width="2" fill="none"/><path d="M645.43 1212.5h20M655.43 1192.5v20" stroke="#5e5e5e" stroke-width="2" fill="#fff"/><path d="M645.43 1275.05l10-20 10 20" stroke="#5e5e5e" stroke-width="2" fill="#fff" fill-opacity="0"/><path d="M655.43 1275.05v-20" stroke="#5e5e5e" stroke-width="2" fill="#fff"/><path d="M218.5 1289.5h-78.18" stroke="#5e5e5e" stroke-width="2" fill="none"/><path d="M218.5 1279.5v20M238.5 1289.5h-20" stroke="#5e5e5e" stroke-width="2" fill="#fff"/><path d="M121.95 1279.5l20 10-20 10" stroke="#5e5e5e" stroke-width="2" fill="#fff" fill-opacity="0"/><path d="M121.95 1289.5h20" stroke="#5e5e5e" stroke-width="2" fill="#fff"/><path d="M420 1429.42h323.72l11.7 11.7V1488H420z" stroke="#5e5e5e" stroke-width="3" fill="#f6edc5"/><path d="M743.72 1430.85v10.28H754" stroke="#5e5e5e" stroke-width="3" fill="#f6edc5"/><use xlink:href="#E" transform="matrix(1,0,0,1,425,1434.4173228346453) translate(64.8420138888889 27.777006172839506)"/><use xlink:href="#F" transform="matrix(1,0,0,1,425,1434.4173228346453) translate(99.46564214677642 27.777006172839506)"/><use xlink:href="#G" transform="matrix(1,0,0,1,425,1434.4173228346453) translate(125.43336334019205 27.777006172839506)"/><use xlink:href="#H" transform="matrix(1,0,0,1,425,1434.4173228346453) translate(182.43251135973935 27.777006172839506)"/><use xlink:href="#I" transform="matrix(1,0,0,1,425,1434.4173228346453) translate(251.67976787551441 27.777006172839506)"/><path d="M417.5 1458.7h-2.76m-3.68 0h-5.52m-3.7 0h-5.5m-3.7 0h-5.5m-3.7 0h-5.5m-3.7 0h-5.52m-3.68 0h-2.76l-2.7-.72m-2.57-2.57l-.72-2.7v-2.86m0-3.83v-5.73m0-3.82v-5.74m0-3.82v-5.73m0-3.83v-5.74m0-3.82v-5.74m0-3.83v-5.75m0-3.82v-5.74m0-3.84v-5.74m0-3.82v-5.74m0-3.83v-5.73m0-3.83v-2.87" stroke="#5e5e5e" stroke-width="2" fill="none"/><path d="M418.5 1459.7h-1.03v-2h1.03M357.28 1347.53h-2v-1.03h2" fill="#5e5e5e"/><path d="M744.3 1048.88c0 1.58-1.28 2.87-2.87 2.87-1.58 0-2.87-1.3-2.87-2.88 0-1.58 1.3-2.87 2.87-2.87 1.6 0 2.88 1.3 2.88 2.88z" stroke="#a5a5a5" stroke-width="2" fill="#f6edc5"/><path d="M741.43 1051.75v8.05l10 9.2m-10-9.2l-10 9.2m0-14.38h20" stroke="#a5a5a5" stroke-width="2" fill="none"/><path d="M731.43 1046h20v45h-20z" fill="none"/><path d="M180 976.37h297.27L490 989.1v50.9H180z" stroke="#5e5e5e" stroke-width="3" fill="#f6edc5"/><path d="M477.27 977.8v11.3h11.3" stroke="#5e5e5e" stroke-width="3" fill="#f6edc5"/><g><use xlink:href="#J" transform="matrix(1,0,0,1,180,976.3655787037037) translate(45.96360811042524 28.71327160493827)"/><use xlink:href="#K" transform="matrix(1,0,0,1,180,976.3655787037037) translate(115.64454732510288 28.71327160493827)"/><use xlink:href="#L" transform="matrix(1,0,0,1,180,976.3655787037037) translate(144.3246195558985 28.71327160493827)"/><use xlink:href="#M" transform="matrix(1,0,0,1,180,976.3655787037037) translate(68.17262142061043 49.41220679012345)"/><use xlink:href="#N" transform="matrix(1,0,0,1,180,976.3655787037037) translate(96.85269365140604 49.41220679012345)"/><use xlink:href="#O" transform="matrix(1,0,0,1,180,976.3655787037037) translate(139.29098668981482 49.41220679012345)"/><use xlink:href="#P" transform="matrix(1,0,0,1,180,976.3655787037037) translate(191.24367123199588 49.41220679012345)"/></g><path d="M180 1470.2h114.67l-57.34-96.4z" stroke="#a5a5a5" stroke-width="2" fill="#f6edc5"/><g><use xlink:href="#Q" transform="matrix(1,0,0,1,185,1378.8) translate(52.5 14.69999999999999)"/><use xlink:href="#R" transform="matrix(1,0,0,1,185,1378.8) translate(29.025 36.29999999999999)"/><use xlink:href="#S" transform="matrix(1,0,0,1,185,1378.8) translate(65.975 36.29999999999999)"/><use xlink:href="#T" transform="matrix(1,0,0,1,185,1378.8) translate(22.5 57.89999999999999)"/><use xlink:href="#U" transform="matrix(1,0,0,1,185,1378.8) translate(52.5 57.89999999999999)"/><use xlink:href="#V" transform="matrix(1,0,0,1,185,1378.8) translate(72.5 57.89999999999999)"/><use xlink:href="#W" transform="matrix(1,0,0,1,185,1378.8) translate(9.549999999999997 79.5)"/><use xlink:href="#X" transform="matrix(1,0,0,1,185,1378.8) translate(33.55 79.5)"/></g><path d="M207.33 1345h60v60h-60z" stroke="#000" stroke-opacity="0" stroke-width="2" fill="#fff" fill-opacity="0"/><g><use xlink:href="#Y" transform="matrix(1,0,0,1,212.33333333333331,1350) translate(-1.9250000000000043 28.6)"/></g><path d="M140 1445h80v60h-80z" stroke="#000" stroke-opacity="0" stroke-width="2" fill="#fff" fill-opacity="0"/><g><use xlink:href="#Z" transform="matrix(1,0,0,1,145,1450) translate(3.0999999999999943 30.025)"/></g><path d="M267.33 1445h60v60h-60z" stroke="#000" stroke-opacity="0" stroke-width="2" fill="#fff" fill-opacity="0"/><g><use xlink:href="#aa" transform="matrix(1,0,0,1,272.3333333333333,1450) translate(10.525 30.025)"/></g><defs><path fill="#5e5e5e" d="M59-47c-2 24 18 29 38 22v24C64 9 27 4 27-40v-127H5v-23h24l9-43h21v43h35v23H59v120" id="ab"/><path fill="#5e5e5e" d="M100-194c62-1 85 37 85 99 1 63-27 99-86 99S16-35 15-95c0-66 28-99 85-99zM99-20c44 1 53-31 53-75 0-43-8-75-51-75s-53 32-53 75 10 74 51 75" id="ac"/><path fill="#5e5e5e" d="M24 0v-261h32V0H24" id="ad"/><path fill="#5e5e5e" d="M135-143c-3-34-86-38-87 0 15 53 115 12 119 90S17 21 10-45l28-5c4 36 97 45 98 0-10-56-113-15-118-90-4-57 82-63 122-42 12 7 21 19 24 35" id="ae"/><g id="a"><use transform="matrix(0.06172839506172839,0,0,0.06172839506172839,0,0)" xlink:href="#ab"/><use transform="matrix(0.06172839506172839,0,0,0.06172839506172839,6.172839506172839,0)" xlink:href="#ac"/><use transform="matrix(0.06172839506172839,0,0,0.06172839506172839,18.51851851851852,0)" xlink:href="#ac"/><use transform="matrix(0.06172839506172839,0,0,0.06172839506172839,30.864197530864196,0)" xlink:href="#ad"/><use transform="matrix(0.06172839506172839,0,0,0.06172839506172839,35.74074074074074,0)" xlink:href="#ae"/></g><path fill="#5e5e5e" d="M117-194c89-4 53 116 60 194h-32v-121c0-31-8-49-39-48C34-167 62-67 57 0H25l-1-190h30c1 10-1 24 2 32 11-22 29-35 61-36" id="af"/><path fill="#5e5e5e" d="M141-36C126-15 110 5 73 4 37 3 15-17 15-53c-1-64 63-63 125-63 3-35-9-54-41-54-24 1-41 7-42 31l-33-3c5-37 33-52 76-52 45 0 72 20 72 64v82c-1 20 7 32 28 27v20c-31 9-61-2-59-35zM48-53c0 20 12 33 32 33 41-3 63-29 60-74-43 2-92-5-92 41" id="ag"/><path fill="#5e5e5e" d="M210-169c-67 3-38 105-44 169h-31v-121c0-29-5-50-35-48C34-165 62-65 56 0H25l-1-190h30c1 10-1 24 2 32 10-44 99-50 107 0 11-21 27-35 58-36 85-2 47 119 55 194h-31v-121c0-29-5-49-35-48" id="ah"/><path fill="#5e5e5e" d="M100-194c63 0 86 42 84 106H49c0 40 14 67 53 68 26 1 43-12 49-29l28 8c-11 28-37 45-77 45C44 4 14-33 15-96c1-61 26-98 85-98zm52 81c6-60-76-77-97-28-3 7-6 17-6 28h103" id="ai"/><g id="b"><use transform="matrix(0.06172839506172839,0,0,0.06172839506172839,0,0)" xlink:href="#af"/><use transform="matrix(0.06172839506172839,0,0,0.06172839506172839,12.345679012345679,0)" xlink:href="#ag"/><use transform="matrix(0.06172839506172839,0,0,0.06172839506172839,24.691358024691358,0)" xlink:href="#ah"/><use transform="matrix(0.06172839506172839,0,0,0.06172839506172839,43.148148148148145,0)" xlink:href="#ai"/></g><path fill="#5e5e5e" d="M96-169c-40 0-48 33-48 73s9 75 48 75c24 0 41-14 43-38l32 2c-6 37-31 61-74 61-59 0-76-41-82-99-10-93 101-131 147-64 4 7 5 14 7 22l-32 3c-4-21-16-35-41-35" id="aj"/><path fill="#5e5e5e" d="M24-231v-30h32v30H24zM24 0v-190h32V0H24" id="ak"/><g id="c"><use transform="matrix(0.06172839506172839,0,0,0.06172839506172839,0,0)" xlink:href="#ad"/><use transform="matrix(0.06172839506172839,0,0,0.06172839506172839,4.876543209876543,0)" xlink:href="#ac"/><use transform="matrix(0.06172839506172839,0,0,0.06172839506172839,17.22222222222222,0)" xlink:href="#aj"/><use transform="matrix(0.06172839506172839,0,0,0.06172839506172839,28.333333333333332,0)" xlink:href="#ag"/><use transform="matrix(0.06172839506172839,0,0,0.06172839506172839,40.67901234567901,0)" xlink:href="#ab"/><use transform="matrix(0.06172839506172839,0,0,0.06172839506172839,46.851851851851855,0)" xlink:href="#ak"/><use transform="matrix(0.06172839506172839,0,0,0.06172839506172839,51.7283950617284,0)" xlink:href="#ac"/><use transform="matrix(0.06172839506172839,0,0,0.06172839506172839,64.07407407407408,0)" xlink:href="#af"/></g><path fill="#5e5e5e" d="M206 0h-36l-40-164L89 0H53L-1-190h32L70-26l43-164h34l41 164 42-164h31" id="al"/><path fill="#5e5e5e" d="M-5 72V49h209v23H-5" id="am"/><path fill="#5e5e5e" d="M16-82v-28h88v28H16" id="an"/><path fill="#5e5e5e" d="M84 4C-5 8 30-112 23-190h32v120c0 31 7 50 39 49 72-2 45-101 50-169h31l1 190h-30c-1-10 1-25-2-33-11 22-28 36-60 37" id="ao"/><g id="d"><use transform="matrix(0.06172839506172839,0,0,0.06172839506172839,0,0)" xlink:href="#al"/><use transform="matrix(0.06172839506172839,0,0,0.06172839506172839,15.987654320987653,0)" xlink:href="#ag"/><use transform="matrix(0.06172839506172839,0,0,0.06172839506172839,28.333333333333332,0)" xlink:href="#ae"/><use transform="matrix(0.06172839506172839,0,0,0.06172839506172839,39.44444444444444,0)" xlink:href="#am"/><use transform="matrix(0.06172839506172839,0,0,0.06172839506172839,51.79012345679012,0)" xlink:href="#ad"/><use transform="matrix(0.06172839506172839,0,0,0.06172839506172839,56.666666666666664,0)" xlink:href="#ai"/><use transform="matrix(0.06172839506172839,0,0,0.06172839506172839,69.01234567901234,0)" xlink:href="#af"/><use transform="matrix(0.06172839506172839,0,0,0.06172839506172839,81.35802469135803,0)" xlink:href="#ab"/><use transform="matrix(0.06172839506172839,0,0,0.06172839506172839,87.53086419753086,0)" xlink:href="#an"/><use transform="matrix(0.06172839506172839,0,0,0.06172839506172839,94.87654320987654,0)" xlink:href="#ac"/><use transform="matrix(0.06172839506172839,0,0,0.06172839506172839,107.22222222222223,0)" xlink:href="#ao"/><use transform="matrix(0.06172839506172839,0,0,0.06172839506172839,119.56790123456791,0)" xlink:href="#ab"/></g><path fill="#5e5e5e" d="M87 75C49 33 22-17 22-94c0-76 28-126 65-167h31c-38 41-64 92-64 168S80 34 118 75H87" id="ap"/><path fill="#5e5e5e" d="M0 4l72-265h28L28 4H0" id="aq"/><path fill="#5e5e5e" d="M190 0L58-211 59 0H30v-248h39L202-35l-2-213h31V0h-41" id="ar"/><path fill="#5e5e5e" d="M33-261c38 41 65 92 65 168S71 34 33 75H2C39 34 66-17 66-93S39-220 2-261h31" id="as"/><g id="e"><use transform="matrix(0.06172839506172839,0,0,0.06172839506172839,0,0)" xlink:href="#ap"/><use transform="matrix(0.06172839506172839,0,0,0.06172839506172839,7.345679012345679,0)" xlink:href="#af"/><use transform="matrix(0.06172839506172839,0,0,0.06172839506172839,19.691358024691358,0)" xlink:href="#aq"/><use transform="matrix(0.06172839506172839,0,0,0.06172839506172839,25.864197530864196,0)" xlink:href="#ar"/><use transform="matrix(0.06172839506172839,0,0,0.06172839506172839,41.85185185185185,0)" xlink:href="#as"/></g><path fill="#5e5e5e" d="M114-163C36-179 61-72 57 0H25l-1-190h30c1 12-1 29 2 39 6-27 23-49 58-41v29" id="at"/><g id="f"><use transform="matrix(0.061728395061728385,0,0,0.061728395061728385,0,0)" xlink:href="#ah"/><use transform="matrix(0.061728395061728385,0,0,0.061728395061728385,18.456790123456788,0)" xlink:href="#ag"/><use transform="matrix(0.061728395061728385,0,0,0.061728395061728385,30.802469135802465,0)" xlink:href="#ab"/><use transform="matrix(0.061728395061728385,0,0,0.061728395061728385,36.9753086419753,0)" xlink:href="#ai"/><use transform="matrix(0.061728395061728385,0,0,0.061728395061728385,49.32098765432098,0)" xlink:href="#at"/><use transform="matrix(0.061728395061728385,0,0,0.061728395061728385,56.66666666666666,0)" xlink:href="#ak"/><use transform="matrix(0.061728395061728385,0,0,0.061728395061728385,61.5432098765432,0)" xlink:href="#ag"/><use transform="matrix(0.061728395061728385,0,0,0.061728395061728385,73.88888888888889,0)" xlink:href="#ad"/><use transform="matrix(0.061728395061728385,0,0,0.061728395061728385,78.76543209876543,0)" xlink:href="#ae"/></g><g id="g"><use transform="matrix(0.061728395061728385,0,0,0.061728395061728385,0,0)" xlink:href="#af"/><use transform="matrix(0.061728395061728385,0,0,0.061728395061728385,12.345679012345677,0)" xlink:href="#ag"/><use transform="matrix(0.061728395061728385,0,0,0.061728395061728385,24.691358024691354,0)" xlink:href="#ah"/><use transform="matrix(0.061728395061728385,0,0,0.061728395061728385,43.14814814814814,0)" xlink:href="#ai"/></g><path fill="#5e5e5e" d="M115-194c55 1 70 41 70 98S169 2 115 4C84 4 66-9 55-30l1 105H24l-1-265h31l2 30c10-21 28-34 59-34zm-8 174c40 0 45-34 45-75s-6-73-45-74c-42 0-51 32-51 76 0 43 10 73 51 73" id="au"/><g id="h"><use transform="matrix(0.061728395061728385,0,0,0.061728395061728385,0,0)" xlink:href="#ae"/><use transform="matrix(0.061728395061728385,0,0,0.061728395061728385,11.111111111111109,0)" xlink:href="#ao"/><use transform="matrix(0.061728395061728385,0,0,0.061728395061728385,23.456790123456784,0)" xlink:href="#au"/><use transform="matrix(0.061728395061728385,0,0,0.061728395061728385,35.80246913580246,0)" xlink:href="#au"/><use transform="matrix(0.061728395061728385,0,0,0.061728395061728385,48.14814814814814,0)" xlink:href="#ad"/><use transform="matrix(0.061728395061728385,0,0,0.061728395061728385,53.02469135802468,0)" xlink:href="#ak"/><use transform="matrix(0.061728395061728385,0,0,0.061728395061728385,57.90123456790123,0)" xlink:href="#ai"/><use transform="matrix(0.061728395061728385,0,0,0.061728395061728385,70.24691358024691,0)" xlink:href="#at"/></g><g id="i"><use transform="matrix(0.06234567901234567,0,0,0.06234567901234567,0,0)" xlink:href="#ad"/><use transform="matrix(0.06234567901234567,0,0,0.06234567901234567,4.925308641975308,0)" xlink:href="#ac"/><use transform="matrix(0.06234567901234567,0,0,0.06234567901234567,17.39444444444444,0)" xlink:href="#aj"/><use transform="matrix(0.06234567901234567,0,0,0.06234567901234567,28.61666666666666,0)" xlink:href="#ag"/><use transform="matrix(0.06234567901234567,0,0,0.06234567901234567,41.08580246913579,0)" xlink:href="#ab"/><use transform="matrix(0.06234567901234567,0,0,0.06234567901234567,47.320370370370355,0)" xlink:href="#ak"/><use transform="matrix(0.06234567901234567,0,0,0.06234567901234567,52.24567901234566,0)" xlink:href="#ac"/><use transform="matrix(0.06234567901234567,0,0,0.06234567901234567,64.71481481481479,0)" xlink:href="#af"/></g><path fill="#5e5e5e" d="M108 0H70L1-190h34L89-25l56-165h34" id="av"/><path fill="#5e5e5e" d="M115-194c53 0 69 39 70 98 0 66-23 100-70 100C84 3 66-7 56-30L54 0H23l1-261h32v101c10-23 28-34 59-34zm-8 174c40 0 45-34 45-75 0-40-5-75-45-74-42 0-51 32-51 76 0 43 10 73 51 73" id="aw"/><path fill="#5e5e5e" d="M145-31C134-9 116 4 85 4 32 4 16-35 15-94c0-59 17-99 70-100 32-1 48 14 60 33 0-11-1-24 2-32h30l-1 268h-32zM93-21c41 0 51-33 51-76s-8-73-50-73c-40 0-46 35-46 75s5 74 45 74" id="ax"/><path fill="#5e5e5e" d="M179-190L93 31C79 59 56 82 12 73V49c39 6 53-20 64-50L1-190h34L92-34l54-156h33" id="ay"/><g id="j"><use transform="matrix(0.061728395061728385,0,0,0.061728395061728385,0,0)" xlink:href="#ag"/><use transform="matrix(0.061728395061728385,0,0,0.061728395061728385,12.345679012345677,0)" xlink:href="#av"/><use transform="matrix(0.061728395061728385,0,0,0.061728395061728385,23.456790123456784,0)" xlink:href="#ag"/><use transform="matrix(0.061728395061728385,0,0,0.061728395061728385,35.80246913580246,0)" xlink:href="#ak"/><use transform="matrix(0.061728395061728385,0,0,0.061728395061728385,40.679012345679006,0)" xlink:href="#ad"/><use transform="matrix(0.061728395061728385,0,0,0.061728395061728385,45.55555555555555,0)" xlink:href="#ag"/><use transform="matrix(0.061728395061728385,0,0,0.061728395061728385,57.90123456790123,0)" xlink:href="#aw"/><use transform="matrix(0.061728395061728385,0,0,0.061728395061728385,70.24691358024691,0)" xlink:href="#ad"/><use transform="matrix(0.061728395061728385,0,0,0.061728395061728385,75.12345679012346,0)" xlink:href="#ai"/><use transform="matrix(0.061728395061728385,0,0,0.061728395061728385,87.46913580246914,0)" xlink:href="#am"/><use transform="matrix(0.061728395061728385,0,0,0.061728395061728385,99.81481481481481,0)" xlink:href="#ax"/><use transform="matrix(0.061728395061728385,0,0,0.061728395061728385,112.16049382716048,0)" xlink:href="#ab"/><use transform="matrix(0.061728395061728385,0,0,0.061728395061728385,118.33333333333331,0)" xlink:href="#ay"/></g><g id="k"><use transform="matrix(0.06234567901234567,0,0,0.06234567901234567,0,0)" xlink:href="#at"/><use transform="matrix(0.06234567901234567,0,0,0.06234567901234567,7.4191358024691345,0)" xlink:href="#ai"/><use transform="matrix(0.06234567901234567,0,0,0.06234567901234567,19.888271604938268,0)" xlink:href="#ag"/><use transform="matrix(0.06234567901234567,0,0,0.06234567901234567,32.3574074074074,0)" xlink:href="#ad"/><use transform="matrix(0.06234567901234567,0,0,0.06234567901234567,37.28271604938271,0)" xlink:href="#ad"/><use transform="matrix(0.06234567901234567,0,0,0.06234567901234567,42.20802469135801,0)" xlink:href="#ay"/><use transform="matrix(0.06234567901234567,0,0,0.06234567901234567,53.430246913580234,0)" xlink:href="#an"/><use transform="matrix(0.06234567901234567,0,0,0.06234567901234567,60.84938271604937,0)" xlink:href="#ag"/><use transform="matrix(0.06234567901234567,0,0,0.06234567901234567,73.3185185185185,0)" xlink:href="#av"/><use transform="matrix(0.06234567901234567,0,0,0.06234567901234567,84.54074074074072,0)" xlink:href="#ag"/><use transform="matrix(0.06234567901234567,0,0,0.06234567901234567,97.00987654320986,0)" xlink:href="#ak"/><use transform="matrix(0.06234567901234567,0,0,0.06234567901234567,101.93518518518516,0)" xlink:href="#ad"/><use transform="matrix(0.06234567901234567,0,0,0.06234567901234567,106.86049382716047,0)" xlink:href="#ag"/><use transform="matrix(0.06234567901234567,0,0,0.06234567901234567,119.32962962962961,0)" xlink:href="#aw"/><use transform="matrix(0.06234567901234567,0,0,0.06234567901234567,131.79876543209875,0)" xlink:href="#ad"/><use transform="matrix(0.06234567901234567,0,0,0.06234567901234567,136.72407407407405,0)" xlink:href="#ai"/><use transform="matrix(0.06234567901234567,0,0,0.06234567901234567,149.1932098765432,0)" xlink:href="#am"/><use transform="matrix(0.06234567901234567,0,0,0.06234567901234567,161.66234567901233,0)" xlink:href="#ax"/><use transform="matrix(0.06234567901234567,0,0,0.06234567901234567,174.13148148148147,0)" xlink:href="#ab"/><use transform="matrix(0.06234567901234567,0,0,0.06234567901234567,180.36604938271603,0)" xlink:href="#ay"/></g><g id="l"><use transform="matrix(0.06234567901234567,0,0,0.06234567901234567,0,0)" xlink:href="#ab"/><use transform="matrix(0.06234567901234567,0,0,0.06234567901234567,6.234567901234566,0)" xlink:href="#ay"/><use transform="matrix(0.06234567901234567,0,0,0.06234567901234567,17.456790123456784,0)" xlink:href="#au"/><use transform="matrix(0.06234567901234567,0,0,0.06234567901234567,29.925925925925917,0)" xlink:href="#ai"/></g><path fill="#5e5e5e" d="M205 0l-28-72H64L36 0H1l101-248h38L239 0h-34zm-38-99l-47-123c-12 45-31 82-46 123h93" id="az"/><path fill="#5e5e5e" d="M160-131c35 5 61 23 61 61C221 17 115-2 30 0v-248c76 3 177-17 177 60 0 33-19 50-47 57zm-97-11c50-1 110 9 110-42 0-47-63-36-110-37v79zm0 115c55-2 124 14 124-45 0-56-70-42-124-44v89" id="aA"/><path fill="#5e5e5e" d="M177-190C167-65 218 103 67 71c-23-6-38-20-44-43l32-5c15 47 100 32 89-28v-30C133-14 115 1 83 1 29 1 15-40 15-95c0-56 16-97 71-98 29-1 48 16 59 35 1-10 0-23 2-32h30zM94-22c36 0 50-32 50-73 0-42-14-75-50-75-39 0-46 34-46 75s6 73 46 73" id="aB"/><g id="m"><use transform="matrix(0.06234567901234567,0,0,0.06234567901234567,0,0)" xlink:href="#ap"/><use transform="matrix(0.06234567901234567,0,0,0.06234567901234567,7.4191358024691345,0)" xlink:href="#az"/><use transform="matrix(0.06234567901234567,0,0,0.06234567901234567,22.382098765432094,0)" xlink:href="#aq"/><use transform="matrix(0.06234567901234567,0,0,0.06234567901234567,28.61666666666666,0)" xlink:href="#aA"/><use transform="matrix(0.06234567901234567,0,0,0.06234567901234567,43.57962962962962,0)" xlink:href="#aq"/><use transform="matrix(0.06234567901234567,0,0,0.06234567901234567,49.81419753086419,0)" xlink:href="#ah"/><use transform="matrix(0.06234567901234567,0,0,0.06234567901234567,68.45555555555555,0)" xlink:href="#ak"/><use transform="matrix(0.06234567901234567,0,0,0.06234567901234567,73.38086419753085,0)" xlink:href="#ae"/><use transform="matrix(0.06234567901234567,0,0,0.06234567901234567,84.60308641975307,0)" xlink:href="#ae"/><use transform="matrix(0.06234567901234567,0,0,0.06234567901234567,95.82530864197528,0)" xlink:href="#ak"/><use transform="matrix(0.06234567901234567,0,0,0.06234567901234567,100.75061728395059,0)" xlink:href="#af"/><use transform="matrix(0.06234567901234567,0,0,0.06234567901234567,113.21975308641973,0)" xlink:href="#aB"/><use transform="matrix(0.06234567901234567,0,0,0.06234567901234567,125.68888888888887,0)" xlink:href="#as"/></g><path fill="#5e5e5e" d="M85-194c31 0 48 13 60 33l-1-100h32l1 261h-30c-2-10 0-23-3-31C134-8 116 4 85 4 32 4 16-35 15-94c0-66 23-100 70-100zm9 24c-40 0-46 34-46 75 0 40 6 74 45 74 42 0 51-32 51-76 0-42-9-74-50-73" id="aC"/><g id="n"><use transform="matrix(0.06172839506172839,0,0,0.06172839506172839,0,0)" xlink:href="#au"/><use transform="matrix(0.06172839506172839,0,0,0.06172839506172839,12.345679012345679,0)" xlink:href="#at"/><use transform="matrix(0.06172839506172839,0,0,0.06172839506172839,19.691358024691358,0)" xlink:href="#ac"/><use transform="matrix(0.06172839506172839,0,0,0.06172839506172839,32.03703703703704,0)" xlink:href="#aC"/><use transform="matrix(0.06172839506172839,0,0,0.06172839506172839,44.382716049382715,0)" xlink:href="#ao"/><use transform="matrix(0.06172839506172839,0,0,0.06172839506172839,56.72839506172839,0)" xlink:href="#aj"/><use transform="matrix(0.06172839506172839,0,0,0.06172839506172839,67.8395061728395,0)" xlink:href="#ab"/><use transform="matrix(0.06172839506172839,0,0,0.06172839506172839,74.01234567901234,0)" xlink:href="#ak"/><use transform="matrix(0.06172839506172839,0,0,0.06172839506172839,78.88888888888889,0)" xlink:href="#ac"/><use transform="matrix(0.06172839506172839,0,0,0.06172839506172839,91.23456790123457,0)" xlink:href="#af"/><use transform="matrix(0.06172839506172839,0,0,0.06172839506172839,103.58024691358025,0)" xlink:href="#am"/><use transform="matrix(0.06172839506172839,0,0,0.06172839506172839,115.92592592592594,0)" xlink:href="#at"/><use transform="matrix(0.06172839506172839,0,0,0.06172839506172839,123.27160493827162,0)" xlink:href="#ao"/><use transform="matrix(0.06172839506172839,0,0,0.06172839506172839,135.6172839506173,0)" xlink:href="#af"/></g><g id="o"><use transform="matrix(0.06172839506172839,0,0,0.06172839506172839,0,0)" xlink:href="#ak"/><use transform="matrix(0.06172839506172839,0,0,0.06172839506172839,4.876543209876543,0)" xlink:href="#ae"/><use transform="matrix(0.06172839506172839,0,0,0.06172839506172839,15.987654320987653,0)" xlink:href="#am"/><use transform="matrix(0.06172839506172839,0,0,0.06172839506172839,28.333333333333332,0)" xlink:href="#ac"/><use transform="matrix(0.06172839506172839,0,0,0.06172839506172839,40.67901234567901,0)" xlink:href="#af"/><use transform="matrix(0.06172839506172839,0,0,0.06172839506172839,53.02469135802469,0)" xlink:href="#ai"/><use transform="matrix(0.06172839506172839,0,0,0.06172839506172839,65.37037037037037,0)" xlink:href="#an"/><use transform="matrix(0.06172839506172839,0,0,0.06172839506172839,72.71604938271605,0)" xlink:href="#ab"/><use transform="matrix(0.06172839506172839,0,0,0.06172839506172839,78.88888888888889,0)" xlink:href="#ak"/><use transform="matrix(0.06172839506172839,0,0,0.06172839506172839,83.76543209876543,0)" xlink:href="#ah"/><use transform="matrix(0.06172839506172839,0,0,0.06172839506172839,102.22222222222221,0)" xlink:href="#ai"/></g><path fill="#5e5e5e" d="M137-103V0h-34v-103L8-248h37l75 118 75-118h37" id="aD"/><g id="p"><use transform="matrix(0.06172839506172839,0,0,0.06172839506172839,0,0)" xlink:href="#ap"/><use transform="matrix(0.06172839506172839,0,0,0.06172839506172839,7.345679012345679,0)" xlink:href="#aD"/><use transform="matrix(0.06172839506172839,0,0,0.06172839506172839,22.160493827160494,0)" xlink:href="#aq"/><use transform="matrix(0.06172839506172839,0,0,0.06172839506172839,28.333333333333332,0)" xlink:href="#af"/><use transform="matrix(0.06172839506172839,0,0,0.06172839506172839,40.67901234567901,0)" xlink:href="#as"/></g><g id="q"><use transform="matrix(0.06172839506172839,0,0,0.06172839506172839,0,0)" xlink:href="#ae"/><use transform="matrix(0.06172839506172839,0,0,0.06172839506172839,11.11111111111111,0)" xlink:href="#ab"/><use transform="matrix(0.06172839506172839,0,0,0.06172839506172839,17.28395061728395,0)" xlink:href="#ag"/><use transform="matrix(0.06172839506172839,0,0,0.06172839506172839,29.629629629629626,0)" xlink:href="#at"/><use transform="matrix(0.06172839506172839,0,0,0.06172839506172839,36.9753086419753,0)" xlink:href="#ab"/><use transform="matrix(0.06172839506172839,0,0,0.06172839506172839,43.148148148148145,0)" xlink:href="#am"/><use transform="matrix(0.06172839506172839,0,0,0.06172839506172839,55.49382716049382,0)" xlink:href="#aC"/><use transform="matrix(0.06172839506172839,0,0,0.06172839506172839,67.8395061728395,0)" xlink:href="#ag"/><use transform="matrix(0.06172839506172839,0,0,0.06172839506172839,80.18518518518519,0)" xlink:href="#ab"/><use transform="matrix(0.06172839506172839,0,0,0.06172839506172839,86.35802469135803,0)" xlink:href="#ai"/></g><path fill="#5e5e5e" d="M141 0L90-78 38 0H4l68-98-65-92h35l48 74 47-74h35l-64 92 68 98h-35" id="aE"/><g id="r"><use transform="matrix(0.06172839506172839,0,0,0.06172839506172839,0,0)" xlink:href="#ab"/><use transform="matrix(0.06172839506172839,0,0,0.06172839506172839,6.172839506172839,0)" xlink:href="#ac"/><use transform="matrix(0.06172839506172839,0,0,0.06172839506172839,18.51851851851852,0)" xlink:href="#ac"/><use transform="matrix(0.06172839506172839,0,0,0.06172839506172839,30.864197530864196,0)" xlink:href="#ad"/><use transform="matrix(0.06172839506172839,0,0,0.06172839506172839,35.74074074074074,0)" xlink:href="#aw"/><use transform="matrix(0.06172839506172839,0,0,0.06172839506172839,48.08641975308642,0)" xlink:href="#ac"/><use transform="matrix(0.06172839506172839,0,0,0.06172839506172839,60.432098765432094,0)" xlink:href="#aE"/></g><g id="s"><use transform="matrix(0.06234567901234567,0,0,0.06234567901234567,0,0)" xlink:href="#ah"/><use transform="matrix(0.06234567901234567,0,0,0.06234567901234567,18.641358024691353,0)" xlink:href="#ag"/><use transform="matrix(0.06234567901234567,0,0,0.06234567901234567,31.110493827160486,0)" xlink:href="#ab"/><use transform="matrix(0.06234567901234567,0,0,0.06234567901234567,37.34506172839505,0)" xlink:href="#ai"/><use transform="matrix(0.06234567901234567,0,0,0.06234567901234567,49.814197530864185,0)" xlink:href="#at"/><use transform="matrix(0.06234567901234567,0,0,0.06234567901234567,57.23333333333332,0)" xlink:href="#ak"/><use transform="matrix(0.06234567901234567,0,0,0.06234567901234567,62.158641975308626,0)" xlink:href="#ag"/><use transform="matrix(0.06234567901234567,0,0,0.06234567901234567,74.62777777777777,0)" xlink:href="#ad"/><use transform="matrix(0.06234567901234567,0,0,0.06234567901234567,79.55308641975307,0)" xlink:href="#ae"/></g><path fill="#5e5e5e" d="M143 0L79-87 56-68V0H24v-261h32v163l83-92h37l-77 82L181 0h-38" id="aF"/><g id="t"><use transform="matrix(0.06234567901234567,0,0,0.06234567901234567,0,0)" xlink:href="#ae"/><use transform="matrix(0.06234567901234567,0,0,0.06234567901234567,11.22222222222222,0)" xlink:href="#aF"/><use transform="matrix(0.06234567901234567,0,0,0.06234567901234567,22.44444444444444,0)" xlink:href="#ak"/><use transform="matrix(0.06234567901234567,0,0,0.06234567901234567,27.36975308641975,0)" xlink:href="#ad"/><use transform="matrix(0.06234567901234567,0,0,0.06234567901234567,32.295061728395055,0)" xlink:href="#ad"/><use transform="matrix(0.06234567901234567,0,0,0.06234567901234567,37.22037037037036,0)" xlink:href="#ai"/><use transform="matrix(0.06234567901234567,0,0,0.06234567901234567,49.689506172839494,0)" xlink:href="#aC"/><use transform="matrix(0.06234567901234567,0,0,0.06234567901234567,62.158641975308626,0)" xlink:href="#am"/><use transform="matrix(0.06234567901234567,0,0,0.06234567901234567,74.62777777777777,0)" xlink:href="#al"/><use transform="matrix(0.06234567901234567,0,0,0.06234567901234567,90.7753086419753,0)" xlink:href="#ac"/><use transform="matrix(0.06234567901234567,0,0,0.06234567901234567,103.24444444444444,0)" xlink:href="#at"/><use transform="matrix(0.06234567901234567,0,0,0.06234567901234567,110.66358024691357,0)" xlink:href="#aF"/><use transform="matrix(0.06234567901234567,0,0,0.06234567901234567,121.88580246913578,0)" xlink:href="#ai"/><use transform="matrix(0.06234567901234567,0,0,0.06234567901234567,134.3549382716049,0)" xlink:href="#at"/></g><g id="u"><use transform="matrix(0.06172839506172839,0,0,0.06172839506172839,0,0)" xlink:href="#al"/><use transform="matrix(0.06172839506172839,0,0,0.06172839506172839,15.987654320987653,0)" xlink:href="#ac"/><use transform="matrix(0.06172839506172839,0,0,0.06172839506172839,28.333333333333332,0)" xlink:href="#at"/><use transform="matrix(0.06172839506172839,0,0,0.06172839506172839,35.67901234567901,0)" xlink:href="#aF"/><use transform="matrix(0.06172839506172839,0,0,0.06172839506172839,46.79012345679013,0)" xlink:href="#ai"/><use transform="matrix(0.06172839506172839,0,0,0.06172839506172839,59.135802469135804,0)" xlink:href="#at"/></g><g id="v"><use transform="matrix(0.06172839506172839,0,0,0.06172839506172839,0,0)" xlink:href="#ap"/><use transform="matrix(0.06172839506172839,0,0,0.06172839506172839,7.345679012345679,0)" xlink:href="#ae"/><use transform="matrix(0.06172839506172839,0,0,0.06172839506172839,18.45679012345679,0)" xlink:href="#ak"/><use transform="matrix(0.06172839506172839,0,0,0.06172839506172839,23.333333333333336,0)" xlink:href="#af"/><use transform="matrix(0.06172839506172839,0,0,0.06172839506172839,35.67901234567901,0)" xlink:href="#aB"/><use transform="matrix(0.06172839506172839,0,0,0.06172839506172839,48.02469135802469,0)" xlink:href="#ao"/><use transform="matrix(0.06172839506172839,0,0,0.06172839506172839,60.37037037037037,0)" xlink:href="#ad"/><use transform="matrix(0.06172839506172839,0,0,0.06172839506172839,65.24691358024691,0)" xlink:href="#ag"/><use transform="matrix(0.06172839506172839,0,0,0.06172839506172839,77.5925925925926,0)" xlink:href="#at"/><use transform="matrix(0.06172839506172839,0,0,0.06172839506172839,84.93827160493828,0)" xlink:href="#as"/></g><g id="w"><use transform="matrix(0.06172839506172839,0,0,0.06172839506172839,0,0)" xlink:href="#af"/><use transform="matrix(0.06172839506172839,0,0,0.06172839506172839,12.345679012345679,0)" xlink:href="#ag"/><use transform="matrix(0.06172839506172839,0,0,0.06172839506172839,24.691358024691358,0)" xlink:href="#ah"/><use transform="matrix(0.06172839506172839,0,0,0.06172839506172839,43.148148148148145,0)" xlink:href="#ai"/></g><path fill="#5e5e5e" d="M18-150v-26h174v26H18zm0 90v-26h174v26H18" id="aG"/><use transform="matrix(0.06172839506172839,0,0,0.06172839506172839,0,0)" xlink:href="#aG" id="x"/><path fill="#5e5e5e" d="M212-179c-10-28-35-45-73-45-59 0-87 40-87 99 0 60 29 101 89 101 43 0 62-24 78-52l27 14C228-24 195 4 139 4 59 4 22-46 18-125c-6-104 99-153 187-111 19 9 31 26 39 46" id="aH"/><path fill="#5e5e5e" d="M30-248c87 1 191-15 191 75 0 78-77 80-158 76V0H30v-248zm33 125c57 0 124 11 124-50 0-59-68-47-124-48v98" id="aI"/><path fill="#5e5e5e" d="M240 0l2-218c-23 76-54 145-80 218h-23L58-218 59 0H30v-248h44l77 211c21-75 51-140 76-211h43V0h-30" id="aJ"/><g id="y"><use transform="matrix(0.06172839506172839,0,0,0.06172839506172839,0,0)" xlink:href="#aH"/><use transform="matrix(0.06172839506172839,0,0,0.06172839506172839,15.987654320987653,0)" xlink:href="#aI"/><use transform="matrix(0.06172839506172839,0,0,0.06172839506172839,30.80246913580247,0)" xlink:href="#aJ"/></g><path fill="#5e5e5e" d="M106-169C34-169 62-67 57 0H25v-261h32l-1 103c12-21 28-36 61-36 89 0 53 116 60 194h-32v-121c2-32-8-49-39-48" id="aK"/><path fill="#5e5e5e" d="M101-234c-31-9-42 10-38 44h38v23H63V0H32v-167H5v-23h27c-7-52 17-82 69-68v24" id="aL"/><g id="z"><use transform="matrix(0.06172839506172839,0,0,0.06172839506172839,0,0)" xlink:href="#aK"/><use transform="matrix(0.06172839506172839,0,0,0.06172839506172839,12.345679012345679,0)" xlink:href="#ag"/><use transform="matrix(0.06172839506172839,0,0,0.06172839506172839,24.691358024691358,0)" xlink:href="#ae"/><use transform="matrix(0.06172839506172839,0,0,0.06172839506172839,35.80246913580247,0)" xlink:href="#am"/><use transform="matrix(0.06172839506172839,0,0,0.06172839506172839,48.148148148148145,0)" xlink:href="#aL"/><use transform="matrix(0.06172839506172839,0,0,0.06172839506172839,54.32098765432099,0)" xlink:href="#at"/><use transform="matrix(0.06172839506172839,0,0,0.06172839506172839,61.666666666666664,0)" xlink:href="#ai"/><use transform="matrix(0.06172839506172839,0,0,0.06172839506172839,74.01234567901234,0)" xlink:href="#ai"/><use transform="matrix(0.06172839506172839,0,0,0.06172839506172839,86.35802469135803,0)" xlink:href="#an"/><use transform="matrix(0.06172839506172839,0,0,0.06172839506172839,93.70370370370371,0)" xlink:href="#ab"/><use transform="matrix(0.06172839506172839,0,0,0.06172839506172839,99.87654320987654,0)" xlink:href="#ak"/><use transform="matrix(0.06172839506172839,0,0,0.06172839506172839,104.75308641975309,0)" xlink:href="#ah"/><use transform="matrix(0.06172839506172839,0,0,0.06172839506172839,123.20987654320987,0)" xlink:href="#ai"/></g><g id="A"><use transform="matrix(0.06172839506172839,0,0,0.06172839506172839,0,0)" xlink:href="#ap"/><use transform="matrix(0.06172839506172839,0,0,0.06172839506172839,7.345679012345679,0)" xlink:href="#ay"/><use transform="matrix(0.06172839506172839,0,0,0.06172839506172839,18.45679012345679,0)" xlink:href="#aq"/><use transform="matrix(0.06172839506172839,0,0,0.06172839506172839,24.62962962962963,0)" xlink:href="#ar"/><use transform="matrix(0.06172839506172839,0,0,0.06172839506172839,40.617283950617285,0)" xlink:href="#as"/></g><g id="B"><use transform="matrix(0.06172839506172839,0,0,0.06172839506172839,0,0)" xlink:href="#ae"/><use transform="matrix(0.06172839506172839,0,0,0.06172839506172839,11.11111111111111,0)" xlink:href="#aF"/><use transform="matrix(0.06172839506172839,0,0,0.06172839506172839,22.22222222222222,0)" xlink:href="#ak"/><use transform="matrix(0.06172839506172839,0,0,0.06172839506172839,27.098765432098766,0)" xlink:href="#ad"/><use transform="matrix(0.06172839506172839,0,0,0.06172839506172839,31.975308641975307,0)" xlink:href="#ad"/><use transform="matrix(0.06172839506172839,0,0,0.06172839506172839,36.851851851851855,0)" xlink:href="#ae"/></g><g id="C"><use transform="matrix(0.06172839506172839,0,0,0.06172839506172839,0,0)" xlink:href="#aC"/><use transform="matrix(0.06172839506172839,0,0,0.06172839506172839,12.345679012345679,0)" xlink:href="#ai"/><use transform="matrix(0.06172839506172839,0,0,0.06172839506172839,24.691358024691358,0)" xlink:href="#ae"/><use transform="matrix(0.06172839506172839,0,0,0.06172839506172839,35.80246913580247,0)" xlink:href="#aj"/><use transform="matrix(0.06172839506172839,0,0,0.06172839506172839,46.91358024691358,0)" xlink:href="#at"/><use transform="matrix(0.06172839506172839,0,0,0.06172839506172839,54.25925925925926,0)" xlink:href="#ak"/><use transform="matrix(0.06172839506172839,0,0,0.06172839506172839,59.135802469135804,0)" xlink:href="#au"/><use transform="matrix(0.06172839506172839,0,0,0.06172839506172839,71.48148148148148,0)" xlink:href="#ab"/><use transform="matrix(0.06172839506172839,0,0,0.06172839506172839,77.65432098765432,0)" xlink:href="#ak"/><use transform="matrix(0.06172839506172839,0,0,0.06172839506172839,82.53086419753086,0)" xlink:href="#ac"/><use transform="matrix(0.06172839506172839,0,0,0.06172839506172839,94.87654320987654,0)" xlink:href="#af"/></g><g id="D"><use transform="matrix(0.06172839506172839,0,0,0.06172839506172839,0,0)" xlink:href="#ab"/><use transform="matrix(0.06172839506172839,0,0,0.06172839506172839,6.172839506172839,0)" xlink:href="#ac"/><use transform="matrix(0.06172839506172839,0,0,0.06172839506172839,18.51851851851852,0)" xlink:href="#ac"/><use transform="matrix(0.06172839506172839,0,0,0.06172839506172839,30.864197530864196,0)" xlink:href="#ad"/><use transform="matrix(0.06172839506172839,0,0,0.06172839506172839,35.74074074074074,0)" xlink:href="#am"/><use transform="matrix(0.06172839506172839,0,0,0.06172839506172839,48.08641975308642,0)" xlink:href="#af"/><use transform="matrix(0.06172839506172839,0,0,0.06172839506172839,60.432098765432094,0)" xlink:href="#ag"/><use transform="matrix(0.06172839506172839,0,0,0.06172839506172839,72.77777777777777,0)" xlink:href="#ah"/><use transform="matrix(0.06172839506172839,0,0,0.06172839506172839,91.23456790123456,0)" xlink:href="#ai"/></g><g id="E"><use transform="matrix(0.04327953532235939,0,0,0.04327953532235939,0,0)" xlink:href="#af"/><use transform="matrix(0.04327953532235939,0,0,0.04327953532235939,8.655907064471878,0)" xlink:href="#ac"/><use transform="matrix(0.04327953532235939,0,0,0.04327953532235939,17.311814128943755,0)" xlink:href="#ab"/><use transform="matrix(0.04327953532235939,0,0,0.04327953532235939,21.639767661179693,0)" xlink:href="#ai"/></g><g id="F"><use transform="matrix(0.04327953532235939,0,0,0.04327953532235939,0,0)" xlink:href="#ab"/><use transform="matrix(0.04327953532235939,0,0,0.04327953532235939,4.327953532235939,0)" xlink:href="#aK"/><use transform="matrix(0.04327953532235939,0,0,0.04327953532235939,12.983860596707817,0)" xlink:href="#ai"/></g><g id="G"><use transform="matrix(0.04327953532235939,0,0,0.04327953532235939,0,0)" xlink:href="#ah"/><use transform="matrix(0.04327953532235939,0,0,0.04327953532235939,12.940581061385458,0)" xlink:href="#ak"/><use transform="matrix(0.04327953532235939,0,0,0.04327953532235939,16.35966435185185,0)" xlink:href="#ae"/><use transform="matrix(0.04327953532235939,0,0,0.04327953532235939,24.14998070987654,0)" xlink:href="#ae"/><use transform="matrix(0.04327953532235939,0,0,0.04327953532235939,31.94029706790123,0)" xlink:href="#ak"/><use transform="matrix(0.04327953532235939,0,0,0.04327953532235939,35.35938035836762,0)" xlink:href="#af"/><use transform="matrix(0.04327953532235939,0,0,0.04327953532235939,44.0152874228395,0)" xlink:href="#aB"/></g><g id="H"><use transform="matrix(0.04327953532235939,0,0,0.04327953532235939,0,0)" xlink:href="#ai"/><use transform="matrix(0.04327953532235939,0,0,0.04327953532235939,8.655907064471878,0)" xlink:href="#af"/><use transform="matrix(0.04327953532235939,0,0,0.04327953532235939,17.311814128943755,0)" xlink:href="#aC"/><use transform="matrix(0.04327953532235939,0,0,0.04327953532235939,25.967721193415635,0)" xlink:href="#am"/><use transform="matrix(0.04327953532235939,0,0,0.04327953532235939,34.62362825788751,0)" xlink:href="#aC"/><use transform="matrix(0.04327953532235939,0,0,0.04327953532235939,43.279535322359386,0)" xlink:href="#ag"/><use transform="matrix(0.04327953532235939,0,0,0.04327953532235939,51.935442386831255,0)" xlink:href="#ab"/><use transform="matrix(0.04327953532235939,0,0,0.04327953532235939,56.2633959190672,0)" xlink:href="#ai"/></g><path fill="#5e5e5e" d="M68-36c1 33-1 63-14 82H32c9-13 17-26 17-46H33v-36h35zM33-154v-36h35v36H33" id="aM"/><g id="I"><use transform="matrix(0.04327953532235939,0,0,0.04327953532235939,0,0)" xlink:href="#aM"/><use transform="matrix(0.04327953532235939,0,0,0.04327953532235939,4.327953532235939,0)" xlink:href="#as"/></g><path fill="#6c7878" d="M230 0l2-204L168 0h-37L68-204 70 0H24v-248h70l56 185 57-185h69V0h-46" id="aN"/><path fill="#6c7878" d="M133-34C117-15 103 5 69 4 32 3 11-16 11-54c-1-60 55-63 116-61 1-26-3-47-28-47-18 1-26 9-28 27l-52-2c7-38 36-58 82-57s74 22 75 68l1 82c-1 14 12 18 25 15v27c-30 8-71 5-69-32zm-48 3c29 0 43-24 42-57-32 0-66-3-65 30 0 17 8 27 23 27" id="aO"/><path fill="#6c7878" d="M88-194c31-1 46 15 58 34l-1-101h50l1 261h-48c-2-10 0-23-3-31C134-8 116 4 84 4 32 4 16-41 15-95c0-56 19-97 73-99zm17 164c33 0 40-30 41-66 1-37-9-64-41-64s-38 30-39 65c0 43 13 65 39 65" id="aP"/><path fill="#6c7878" d="M185-48c-13 30-37 53-82 52C43 2 14-33 14-96s30-98 90-98c62 0 83 45 84 108H66c0 31 8 55 39 56 18 0 30-7 34-22zm-45-69c5-46-57-63-70-21-2 6-4 13-4 21h74" id="aQ"/><g id="J"><use transform="matrix(0.068448859739369,0,0,0.068448859739369,0,0)" xlink:href="#aN"/><use transform="matrix(0.068448859739369,0,0,0.068448859739369,20.46620906207133,0)" xlink:href="#aO"/><use transform="matrix(0.068448859739369,0,0,0.068448859739369,34.15598100994513,0)" xlink:href="#aP"/><use transform="matrix(0.068448859739369,0,0,0.068448859739369,49.14628129286694,0)" xlink:href="#aQ"/></g><path fill="#6c7878" d="M25-224v-37h50v37H25zM25 0v-190h50V0H25" id="aR"/><path fill="#6c7878" d="M135-194c87-1 58 113 63 194h-50c-7-57 23-157-34-157-59 0-34 97-39 157H25l-1-190h47c2 12-1 28 3 38 12-26 28-41 61-42" id="aS"/><g id="K"><use transform="matrix(0.068448859739369,0,0,0.068448859739369,0,0)" xlink:href="#aR"/><use transform="matrix(0.068448859739369,0,0,0.068448859739369,6.8448859739369,0)" xlink:href="#aS"/></g><path fill="#6c7878" d="M67-125c0 54 23 88 75 88 28 0 53-7 68-21v-34h-60v-39h108v91C232-14 192 4 140 4 58 4 20-42 15-125 8-236 126-280 215-234c19 10 29 26 37 47l-47 15c-11-23-29-39-63-39-53 1-75 33-75 86" id="aT"/><path fill="#6c7878" d="M135-150c-39-12-60 13-60 57V0H25l-1-190h47c2 13-1 29 3 40 6-28 27-53 61-41v41" id="aU"/><path fill="#6c7878" d="M220-157c-53 9-28 100-34 157h-49v-107c1-27-5-49-29-50C55-147 81-57 75 0H25l-1-190h47c2 12-1 28 3 38 10-53 101-56 108 0 13-22 24-43 59-42 82 1 51 116 57 194h-49v-107c-1-25-5-48-29-50" id="aV"/><path fill="#6c7878" d="M123 10C108 53 80 86 19 72V37c35 8 53-11 59-39L3-190h52l48 148c12-52 28-100 44-148h51" id="aW"/><g id="L"><use transform="matrix(0.068448859739369,0,0,0.068448859739369,0,0)" xlink:href="#aT"/><use transform="matrix(0.068448859739369,0,0,0.068448859739369,19.165680727023318,0)" xlink:href="#aQ"/><use transform="matrix(0.068448859739369,0,0,0.068448859739369,32.855452674897116,0)" xlink:href="#aU"/><use transform="matrix(0.068448859739369,0,0,0.068448859739369,42.43829303840877,0)" xlink:href="#aV"/><use transform="matrix(0.068448859739369,0,0,0.068448859739369,64.34192815500685,0)" xlink:href="#aO"/><use transform="matrix(0.068448859739369,0,0,0.068448859739369,78.03170010288063,0)" xlink:href="#aS"/><use transform="matrix(0.068448859739369,0,0,0.068448859739369,93.02200038580246,0)" xlink:href="#aW"/></g><g id="M"><use transform="matrix(0.068448859739369,0,0,0.068448859739369,0,0)" xlink:href="#aR"/><use transform="matrix(0.068448859739369,0,0,0.068448859739369,6.8448859739369,0)" xlink:href="#aS"/></g><g id="N"><use transform="matrix(0.068448859739369,0,0,0.068448859739369,0,0)" xlink:href="#aV"/><use transform="matrix(0.068448859739369,0,0,0.068448859739369,21.90363511659808,0)" xlink:href="#aW"/></g><path fill="#6c7878" d="M121-226c-27-7-43 5-38 36h38v33H83V0H34v-157H6v-33h28c-9-59 32-81 87-68v32" id="aX"/><g id="O"><use transform="matrix(0.068448859739369,0,0,0.068448859739369,0,0)" xlink:href="#aX"/><use transform="matrix(0.068448859739369,0,0,0.068448859739369,8.145414308984911,0)" xlink:href="#aU"/><use transform="matrix(0.068448859739369,0,0,0.068448859739369,17.728254672496572,0)" xlink:href="#aQ"/><use transform="matrix(0.068448859739369,0,0,0.068448859739369,31.41802662037037,0)" xlink:href="#aQ"/></g><path fill="#6c7878" d="M115-3C79 11 28 4 28-45v-112H4v-33h27l15-45h31v45h36v33H77v99c-1 23 16 31 38 25v30" id="aY"/><g id="P"><use transform="matrix(0.068448859739369,0,0,0.068448859739369,0,0)" xlink:href="#aY"/><use transform="matrix(0.068448859739369,0,0,0.068448859739369,8.145414308984911,0)" xlink:href="#aR"/><use transform="matrix(0.068448859739369,0,0,0.068448859739369,14.990300282921812,0)" xlink:href="#aV"/><use transform="matrix(0.068448859739369,0,0,0.068448859739369,36.89393539951989,0)" xlink:href="#aQ"/></g><path fill="#6c7878" d="M115-194c55 1 70 41 70 98S169 2 115 4C84 4 66-9 55-30l1 105H24l-1-265h31l2 30c10-21 28-34 59-34zm-8 174c40 0 45-34 45-75s-6-73-45-74c-42 0-51 32-51 76 0 43 10 73 51 73" id="aZ"/><path fill="#6c7878" d="M24-231v-30h32v30H24zM24 0v-190h32V0H24" id="ba"/><path fill="#6c7878" d="M96-169c-40 0-48 33-48 73s9 75 48 75c24 0 41-14 43-38l32 2c-6 37-31 61-74 61-59 0-76-41-82-99-10-93 101-131 147-64 4 7 5 14 7 22l-32 3c-4-21-16-35-41-35" id="bb"/><path fill="#6c7878" d="M143 0L79-87 56-68V0H24v-261h32v163l83-92h37l-77 82L181 0h-38" id="bc"/><g id="R"><use transform="matrix(0.05,0,0,0.05,0,0)" xlink:href="#aZ"/><use transform="matrix(0.05,0,0,0.05,10,0)" xlink:href="#ba"/><use transform="matrix(0.05,0,0,0.05,13.949999999999998,0)" xlink:href="#bb"/><use transform="matrix(0.05,0,0,0.05,22.95,0)" xlink:href="#bc"/></g><path fill="#6c7878" d="M101-251c82-7 93 87 43 132L82-64C71-53 59-42 53-27h129V0H18c2-99 128-94 128-182 0-28-16-43-45-43s-46 15-49 41l-32-3c6-41 34-60 81-64" id="bd"/><use transform="matrix(0.05,0,0,0.05,0,0)" xlink:href="#bd" id="S"/><path fill="#6c7878" d="M100-194c62-1 85 37 85 99 1 63-27 99-86 99S16-35 15-95c0-66 28-99 85-99zM99-20c44 1 53-31 53-75 0-43-8-75-51-75s-53 32-53 75 10 74 51 75" id="be"/><path fill="#6c7878" d="M84 4C-5 8 30-112 23-190h32v120c0 31 7 50 39 49 72-2 45-101 50-169h31l1 190h-30c-1-10 1-25-2-33-11 22-28 36-60 37" id="bf"/><path fill="#6c7878" d="M59-47c-2 24 18 29 38 22v24C64 9 27 4 27-40v-127H5v-23h24l9-43h21v43h35v23H59v120" id="bg"/><g id="T"><use transform="matrix(0.05,0,0,0.05,0,0)" xlink:href="#be"/><use transform="matrix(0.05,0,0,0.05,10,0)" xlink:href="#bf"/><use transform="matrix(0.05,0,0,0.05,20,0)" xlink:href="#bg"/></g><path fill="#6c7878" d="M101-234c-31-9-42 10-38 44h38v23H63V0H32v-167H5v-23h27c-7-52 17-82 69-68v24" id="bh"/><g id="U"><use transform="matrix(0.05,0,0,0.05,0,0)" xlink:href="#be"/><use transform="matrix(0.05,0,0,0.05,10,0)" xlink:href="#bh"/></g><path fill="#6c7878" d="M126-127c33 6 58 20 58 59 0 88-139 92-164 29-3-8-5-16-6-25l32-3c6 27 21 44 54 44 32 0 52-15 52-46 0-38-36-46-79-43v-28c39 1 72-4 72-42 0-27-17-43-46-43-28 0-47 15-49 41l-32-3c6-42 35-63 81-64 48-1 79 21 79 65 0 36-21 52-52 59" id="bi"/><use transform="matrix(0.05,0,0,0.05,0,0)" xlink:href="#bi" id="V"/><path fill="#6c7878" d="M115-194c53 0 69 39 70 98 0 66-23 100-70 100C84 3 66-7 56-30L54 0H23l1-261h32v101c10-23 28-34 59-34zm-8 174c40 0 45-34 45-75 0-40-5-75-45-74-42 0-51 32-51 76 0 43 10 73 51 73" id="bj"/><path fill="#6c7878" d="M179-190L93 31C79 59 56 82 12 73V49c39 6 53-20 64-50L1-190h34L92-34l54-156h33" id="bk"/><g id="W"><use transform="matrix(0.05,0,0,0.05,0,0)" xlink:href="#bj"/><use transform="matrix(0.05,0,0,0.05,10,0)" xlink:href="#bk"/></g><path fill="#6c7878" d="M24 0v-261h32V0H24" id="bl"/><path fill="#6c7878" d="M141-36C126-15 110 5 73 4 37 3 15-17 15-53c-1-64 63-63 125-63 3-35-9-54-41-54-24 1-41 7-42 31l-33-3c5-37 33-52 76-52 45 0 72 20 72 64v82c-1 20 7 32 28 27v20c-31 9-61-2-59-35zM48-53c0 20 12 33 32 33 41-3 63-29 60-74-43 2-92-5-92 41" id="bm"/><path fill="#6c7878" d="M117-194c89-4 53 116 60 194h-32v-121c0-31-8-49-39-48C34-167 62-67 57 0H25l-1-190h30c1 10-1 24 2 32 11-22 29-35 61-36" id="bn"/><g id="X"><use transform="matrix(0.05,0,0,0.05,0,0)" xlink:href="#bl"/><use transform="matrix(0.05,0,0,0.05,3.95,0)" xlink:href="#be"/><use transform="matrix(0.05,0,0,0.05,13.949999999999998,0)" xlink:href="#bb"/><use transform="matrix(0.05,0,0,0.05,22.95,0)" xlink:href="#bm"/><use transform="matrix(0.05,0,0,0.05,32.95,0)" xlink:href="#bg"/><use transform="matrix(0.05,0,0,0.05,37.95,0)" xlink:href="#ba"/><use transform="matrix(0.05,0,0,0.05,41.900000000000006,0)" xlink:href="#be"/><use transform="matrix(0.05,0,0,0.05,51.900000000000006,0)" xlink:href="#bn"/></g><path fill="#6c7878" d="M206 0h-36l-40-164L89 0H53L-1-190h32L70-26l43-164h34l41 164 42-164h31" id="bo"/><path fill="#6c7878" d="M114-163C36-179 61-72 57 0H25l-1-190h30c1 12-1 29 2 39 6-27 23-49 58-41v29" id="bp"/><path fill="#6c7878" d="M100-194c63 0 86 42 84 106H49c0 40 14 67 53 68 26 1 43-12 49-29l28 8c-11 28-37 45-77 45C44 4 14-33 15-96c1-61 26-98 85-98zm52 81c6-60-76-77-97-28-3 7-6 17-6 28h103" id="bq"/><g id="Y"><use transform="matrix(0.05,0,0,0.05,0,0)" xlink:href="#bo"/><use transform="matrix(0.05,0,0,0.05,12.950000000000001,0)" xlink:href="#be"/><use transform="matrix(0.05,0,0,0.05,22.950000000000003,0)" xlink:href="#bp"/><use transform="matrix(0.05,0,0,0.05,28.900000000000002,0)" xlink:href="#bc"/><use transform="matrix(0.05,0,0,0.05,37.900000000000006,0)" xlink:href="#bq"/><use transform="matrix(0.05,0,0,0.05,47.900000000000006,0)" xlink:href="#bp"/></g><path fill="#6c7878" d="M210-169c-67 3-38 105-44 169h-31v-121c0-29-5-50-35-48C34-165 62-65 56 0H25l-1-190h30c1 10-1 24 2 32 10-44 99-50 107 0 11-21 27-35 58-36 85-2 47 119 55 194h-31v-121c0-29-5-49-35-48" id="br"/><g id="Z"><use transform="matrix(0.05,0,0,0.05,0,0)" xlink:href="#br"/><use transform="matrix(0.05,0,0,0.05,14.950000000000001,0)" xlink:href="#bm"/><use transform="matrix(0.05,0,0,0.05,24.950000000000003,0)" xlink:href="#bg"/><use transform="matrix(0.05,0,0,0.05,29.950000000000003,0)" xlink:href="#bq"/><use transform="matrix(0.05,0,0,0.05,39.95,0)" xlink:href="#bp"/><use transform="matrix(0.05,0,0,0.05,45.900000000000006,0)" xlink:href="#ba"/><use transform="matrix(0.05,0,0,0.05,49.85000000000001,0)" xlink:href="#bm"/><use transform="matrix(0.05,0,0,0.05,59.85,0)" xlink:href="#bl"/></g><g id="aa"><use transform="matrix(0.05,0,0,0.05,0,0)" xlink:href="#bg"/><use transform="matrix(0.05,0,0,0.05,5,0)" xlink:href="#be"/><use transform="matrix(0.05,0,0,0.05,15,0)" xlink:href="#be"/><use transform="matrix(0.05,0,0,0.05,25,0)" xlink:href="#bl"/></g></defs></g></svg>