<?xml version="1.0" encoding="UTF-8" standalone="no"?>
<!DOCTYPE svg PUBLIC "-//W3C//DTD SVG 1.1//EN"
 "http://www.w3.org/Graphics/SVG/1.1/DTD/svg11.dtd">
<!-- Generated by graphviz version 2.40.1 (20161225.0304)
 -->
<!-- Title: android_architecture Pages: 1 -->
<svg width="449pt" height="708pt"
 viewBox="0.00 0.00 448.94 708.03" xmlns="http://www.w3.org/2000/svg" xmlns:xlink="http://www.w3.org/1999/xlink">
<g id="graph0" class="graph" transform="scale(1 1) rotate(0) translate(4 704.0252)">
<title>android_architecture</title>
<polygon fill="#ffffff" stroke="transparent" points="-4,4 -4,-704.0252 444.9384,-704.0252 444.9384,4 -4,4"/>
<!-- kernel -->
<g id="node1" class="node">
<title>kernel</title>
<polygon fill="none" stroke="#000000" points="183.7319,-657.2126 34.8215,-657.2126 34.8215,-565.2126 183.7319,-565.2126 183.7319,-657.2126"/>
<text text-anchor="middle" x="109.2767" y="-640.6126" font-family="Times,serif" font-size="14.00" fill="#000000">Linux Kernel</text>
<text text-anchor="middle" x="109.2767" y="-623.8126" font-family="Times,serif" font-size="14.00" fill="#000000">&#45; Foundation</text>
<text text-anchor="middle" x="109.2767" y="-607.0126" font-family="Times,serif" font-size="14.00" fill="#000000">&#45; Drivers</text>
<text text-anchor="middle" x="109.2767" y="-590.2126" font-family="Times,serif" font-size="14.00" fill="#000000">&#45; Memory Management</text>
<text text-anchor="middle" x="109.2767" y="-573.4126" font-family="Times,serif" font-size="14.00" fill="#000000">&#45; Process Management</text>
</g>
<!-- hal -->
<g id="node2" class="node">
<title>hal</title>
<polygon fill="none" stroke="#000000" points="217.9973,-486.6014 .5561,-486.6014 .5561,-427.7986 217.9973,-427.7986 217.9973,-486.6014"/>
<text text-anchor="middle" x="109.2767" y="-469.8" font-family="Times,serif" font-size="14.00" fill="#000000">Hardware Abstraction Layer (HAL)</text>
<text text-anchor="middle" x="109.2767" y="-453" font-family="Times,serif" font-size="14.00" fill="#000000">&#45; Bridge between OS and Hardware</text>
<text text-anchor="middle" x="109.2767" y="-436.2" font-family="Times,serif" font-size="14.00" fill="#000000">&#45; Device&#45;specific Implementations</text>
</g>
<!-- kernel&#45;&gt;hal -->
<g id="edge1" class="edge">
<title>kernel&#45;&gt;hal</title>
<path fill="none" stroke="#000000" d="M109.2767,-565.0037C109.2767,-543.3255 109.2767,-517.7486 109.2767,-496.9493"/>
<polygon fill="#000000" stroke="#000000" points="112.7768,-496.8581 109.2767,-486.8581 105.7768,-496.8582 112.7768,-496.8581"/>
</g>
<!-- runtime -->
<g id="node3" class="node">
<title>runtime</title>
<polygon fill="none" stroke="#000000" points="166.6581,-392.2014 51.8953,-392.2014 51.8953,-333.3986 166.6581,-333.3986 166.6581,-392.2014"/>
<text text-anchor="middle" x="109.2767" y="-375.4" font-family="Times,serif" font-size="14.00" fill="#000000">Android Runtime</text>
<text text-anchor="middle" x="109.2767" y="-358.6" font-family="Times,serif" font-size="14.00" fill="#000000">&#45; Dalvik/ART</text>
<text text-anchor="middle" x="109.2767" y="-341.8" font-family="Times,serif" font-size="14.00" fill="#000000">&#45; Core Libraries</text>
</g>
<!-- hal&#45;&gt;runtime -->
<g id="edge2" class="edge">
<title>hal&#45;&gt;runtime</title>
<path fill="none" stroke="#000000" d="M109.2767,-427.8487C109.2767,-419.7682 109.2767,-410.8692 109.2767,-402.3162"/>
<polygon fill="#000000" stroke="#000000" points="112.7768,-402.1331 109.2767,-392.1331 105.7768,-402.1332 112.7768,-402.1331"/>
</g>
<!-- native_libs -->
<g id="node4" class="node">
<title>native_libs</title>
<polygon fill="none" stroke="#000000" points="185.3553,-297.6 33.1981,-297.6 33.1981,-205.6 185.3553,-205.6 185.3553,-297.6"/>
<text text-anchor="middle" x="109.2767" y="-281" font-family="Times,serif" font-size="14.00" fill="#000000">Native C/C++ Libraries</text>
<text text-anchor="middle" x="109.2767" y="-264.2" font-family="Times,serif" font-size="14.00" fill="#000000">&#45; libc</text>
<text text-anchor="middle" x="109.2767" y="-247.4" font-family="Times,serif" font-size="14.00" fill="#000000">&#45; SQLite</text>
<text text-anchor="middle" x="109.2767" y="-230.6" font-family="Times,serif" font-size="14.00" fill="#000000">&#45; OpenGL ES &amp; Vulkan</text>
<text text-anchor="middle" x="109.2767" y="-213.8" font-family="Times,serif" font-size="14.00" fill="#000000">&#45; Media Framework</text>
</g>
<!-- runtime&#45;&gt;native_libs -->
<g id="edge3" class="edge">
<title>runtime&#45;&gt;native_libs</title>
<path fill="none" stroke="#000000" d="M109.2767,-333.5835C109.2767,-325.6354 109.2767,-316.7509 109.2767,-307.8444"/>
<polygon fill="#000000" stroke="#000000" points="112.7768,-307.8279 109.2767,-297.8279 105.7768,-307.828 112.7768,-307.8279"/>
</g>
<!-- app_framework -->
<g id="node5" class="node">
<title>app_framework</title>
<polygon fill="none" stroke="#000000" points="218.3306,-169.7003 .2228,-169.7003 .2228,-94.2997 218.3306,-94.2997 218.3306,-169.7003"/>
<text text-anchor="middle" x="109.2767" y="-153" font-family="Times,serif" font-size="14.00" fill="#000000">Application Framework</text>
<text text-anchor="middle" x="109.2767" y="-136.2" font-family="Times,serif" font-size="14.00" fill="#000000">&#45; Activity Manager</text>
<text text-anchor="middle" x="109.2767" y="-119.4" font-family="Times,serif" font-size="14.00" fill="#000000">&#45; Content Providers</text>
<text text-anchor="middle" x="109.2767" y="-102.6" font-family="Times,serif" font-size="14.00" fill="#000000">&#45; Window Manager &amp; View System</text>
</g>
<!-- native_libs&#45;&gt;app_framework -->
<g id="edge4" class="edge">
<title>native_libs&#45;&gt;app_framework</title>
<path fill="none" stroke="#000000" d="M109.2767,-205.3595C109.2767,-196.9477 109.2767,-188.1581 109.2767,-179.7049"/>
<polygon fill="#000000" stroke="#000000" points="112.7768,-179.6088 109.2767,-169.6088 105.7768,-179.6089 112.7768,-179.6088"/>
</g>
<!-- apps -->
<g id="node6" class="node">
<title>apps</title>
<polygon fill="none" stroke="#000000" points="177.012,-58.6014 41.5414,-58.6014 41.5414,.2014 177.012,.2014 177.012,-58.6014"/>
<text text-anchor="middle" x="109.2767" y="-41.8" font-family="Times,serif" font-size="14.00" fill="#000000">Applications Layer</text>
<text text-anchor="middle" x="109.2767" y="-25" font-family="Times,serif" font-size="14.00" fill="#000000">&#45; System Apps</text>
<text text-anchor="middle" x="109.2767" y="-8.2" font-family="Times,serif" font-size="14.00" fill="#000000">&#45; User&#45;installed Apps</text>
</g>
<!-- app_framework&#45;&gt;apps -->
<g id="edge5" class="edge">
<title>app_framework&#45;&gt;apps</title>
<path fill="none" stroke="#000000" d="M109.2767,-94.3048C109.2767,-85.9126 109.2767,-76.9946 109.2767,-68.5382"/>
<polygon fill="#000000" stroke="#000000" points="112.7768,-68.5186 109.2767,-58.5186 105.7768,-68.5187 112.7768,-68.5186"/>
</g>
<!-- custom -->
<g id="node7" class="node">
<title>custom</title>
<ellipse fill="none" stroke="#ff0000" cx="321.2767" cy="-611.2126" rx="119.8236" ry="88.6256"/>
<text text-anchor="middle" x="321.2767" y="-657.4126" font-family="Times,serif" font-size="14.00" fill="#000000">Custom ROM Components</text>
<text text-anchor="middle" x="321.2767" y="-640.6126" font-family="Times,serif" font-size="14.00" fill="#000000">&#45; Modified System UI</text>
<text text-anchor="middle" x="321.2767" y="-623.8126" font-family="Times,serif" font-size="14.00" fill="#000000">&#45; Custom Boot Animations</text>
<text text-anchor="middle" x="321.2767" y="-607.0126" font-family="Times,serif" font-size="14.00" fill="#000000">&#45; Pre&#45;configured Settings</text>
<text text-anchor="middle" x="321.2767" y="-590.2126" font-family="Times,serif" font-size="14.00" fill="#000000">&#45; Additional Apps</text>
<text text-anchor="middle" x="321.2767" y="-573.4126" font-family="Times,serif" font-size="14.00" fill="#000000">&#45; Performance Tweaks</text>
<text text-anchor="middle" x="321.2767" y="-556.6126" font-family="Times,serif" font-size="14.00" fill="#000000">&#45; Security Enhancements</text>
</g>
</g>
</svg>
