<?xml version="1.0" encoding="UTF-8" standalone="no"?>
<!DOCTYPE svg PUBLIC "-//W3C//DTD SVG 1.1//EN"
 "http://www.w3.org/Graphics/SVG/1.1/DTD/svg11.dtd">
<!-- Generated by graphviz version 2.40.1 (20161225.0304)
 -->
<!-- Title: android_architecture_magisk Pages: 1 -->
<svg width="843pt" height="1306pt"
 viewBox="0.00 0.00 843.03 1305.59" xmlns="http://www.w3.org/2000/svg" xmlns:xlink="http://www.w3.org/1999/xlink">
<g id="graph0" class="graph" transform="scale(1 1) rotate(0) translate(4 1301.5901)">
<title>android_architecture_magisk</title>
<polygon fill="#ffffff" stroke="transparent" points="-4,4 -4,-1301.5901 839.0317,-1301.5901 839.0317,4 -4,4"/>
<g id="clust1" class="cluster">
<title>cluster_os</title>
<polygon fill="none" stroke="#000000" points="8,-87.4 8,-937.4 331,-937.4 331,-87.4 8,-87.4"/>
<text text-anchor="middle" x="169.5" y="-920.8" font-family="Times,serif" font-size="14.00" fill="#000000">Android OS</text>
</g>
<!-- hardware -->
<g id="node1" class="node">
<title>hardware</title>
<polygon fill="none" stroke="#000000" points="331.6784,-1297.5901 260.3216,-1297.5901 260.3216,-1261.5901 331.6784,-1261.5901 331.6784,-1297.5901"/>
<text text-anchor="middle" x="296" y="-1275.3901" font-family="Times,serif" font-size="14.00" fill="#000000">Hardware</text>
</g>
<!-- bootloader -->
<g id="node2" class="node">
<title>bootloader</title>
<polygon fill="none" stroke="#000000" points="335.2079,-1224.5901 256.7921,-1224.5901 256.7921,-1188.5901 335.2079,-1188.5901 335.2079,-1224.5901"/>
<text text-anchor="middle" x="296" y="-1202.3901" font-family="Times,serif" font-size="14.00" fill="#000000">Bootloader</text>
</g>
<!-- hardware&#45;&gt;bootloader -->
<g id="edge1" class="edge">
<title>hardware&#45;&gt;bootloader</title>
<path fill="none" stroke="#000000" d="M296,-1261.5451C296,-1253.4729 296,-1243.7664 296,-1234.7718"/>
<polygon fill="#000000" stroke="#000000" points="299.5001,-1234.6804 296,-1224.6804 292.5001,-1234.6805 299.5001,-1234.6804"/>
</g>
<!-- bootimg -->
<g id="node3" class="node">
<title>bootimg</title>
<g id="a_node3"><a xlink:title="Contains the kernel and ramdisk">
<polygon fill="none" stroke="#000000" points="329.172,-1151.5901 262.828,-1151.5901 262.828,-1115.5901 329.172,-1115.5901 329.172,-1151.5901"/>
<text text-anchor="middle" x="296" y="-1129.3901" font-family="Times,serif" font-size="14.00" fill="#000000">boot.img</text>
</a>
</g>
</g>
<!-- bootloader&#45;&gt;bootimg -->
<g id="edge2" class="edge">
<title>bootloader&#45;&gt;bootimg</title>
<path fill="none" stroke="#000000" d="M296,-1188.5451C296,-1180.4729 296,-1170.7664 296,-1161.7718"/>
<polygon fill="#000000" stroke="#000000" points="299.5001,-1161.6804 296,-1151.6804 292.5001,-1161.6805 299.5001,-1161.6804"/>
</g>
<!-- kernel -->
<g id="node4" class="node">
<title>kernel</title>
<polygon fill="none" stroke="#000000" points="323.4552,-904.6 174.5448,-904.6 174.5448,-812.6 323.4552,-812.6 323.4552,-904.6"/>
<text text-anchor="middle" x="249" y="-888" font-family="Times,serif" font-size="14.00" fill="#000000">Linux Kernel</text>
<text text-anchor="middle" x="249" y="-871.2" font-family="Times,serif" font-size="14.00" fill="#000000">&#45; Foundation</text>
<text text-anchor="middle" x="249" y="-854.4" font-family="Times,serif" font-size="14.00" fill="#000000">&#45; Drivers</text>
<text text-anchor="middle" x="249" y="-837.6" font-family="Times,serif" font-size="14.00" fill="#000000">&#45; Memory Management</text>
<text text-anchor="middle" x="249" y="-820.8" font-family="Times,serif" font-size="14.00" fill="#000000">&#45; Process Management</text>
</g>
<!-- bootimg&#45;&gt;kernel -->
<g id="edge3" class="edge">
<title>bootimg&#45;&gt;kernel</title>
<path fill="none" stroke="#000000" d="M292.9162,-1115.5472C286.0679,-1075.479 269.3521,-977.6774 258.6318,-914.9542"/>
<polygon fill="#000000" stroke="#000000" points="262.0346,-914.0883 256.8999,-904.8209 255.1347,-915.2677 262.0346,-914.0883"/>
<text text-anchor="middle" x="306.3275" y="-1017.295" font-family="Times,serif" font-size="14.00" fill="#000000">contains</text>
</g>
<!-- magisk -->
<g id="node14" class="node">
<title>magisk</title>
<ellipse fill="none" stroke="#00ff00" cx="465" cy="-1021.495" rx="90.4797" ry="41.0911"/>
<text text-anchor="middle" x="465" y="-1034.095" font-family="Times,serif" font-size="14.00" fill="#000000">Magisk</text>
<text text-anchor="middle" x="465" y="-1017.295" font-family="Times,serif" font-size="14.00" fill="#000000">&#45; Root Management</text>
<text text-anchor="middle" x="465" y="-1000.495" font-family="Times,serif" font-size="14.00" fill="#000000">&#45; Magisk Modules</text>
</g>
<!-- bootimg&#45;&gt;magisk -->
<g id="edge13" class="edge">
<title>bootimg&#45;&gt;magisk</title>
<path fill="none" stroke="#000000" d="M323.1528,-1115.5801C345.1379,-1100.9977 376.9293,-1079.9109 404.845,-1061.3949"/>
<polygon fill="#000000" stroke="#000000" points="406.9701,-1064.1853 413.3689,-1055.7411 403.1008,-1058.3519 406.9701,-1064.1853"/>
<text text-anchor="middle" x="399.4958" y="-1084.9901" font-family="Times,serif" font-size="14.00" fill="#000000">modifies</text>
</g>
<!-- hal -->
<g id="node5" class="node">
<title>hal</title>
<polygon fill="none" stroke="#000000" points="255.7206,-671.2014 38.2794,-671.2014 38.2794,-612.3986 255.7206,-612.3986 255.7206,-671.2014"/>
<text text-anchor="middle" x="147" y="-654.4" font-family="Times,serif" font-size="14.00" fill="#000000">Hardware Abstraction Layer (HAL)</text>
<text text-anchor="middle" x="147" y="-637.6" font-family="Times,serif" font-size="14.00" fill="#000000">&#45; Bridge between OS and Hardware</text>
<text text-anchor="middle" x="147" y="-620.8" font-family="Times,serif" font-size="14.00" fill="#000000">&#45; Device&#45;specific Implementations</text>
</g>
<!-- kernel&#45;&gt;hal -->
<g id="edge6" class="edge">
<title>kernel&#45;&gt;hal</title>
<path fill="none" stroke="#000000" d="M227.2436,-812.3569C208.7677,-773.0867 182.5581,-717.3784 165.1826,-680.4469"/>
<polygon fill="#000000" stroke="#000000" points="168.1721,-678.5796 160.7479,-671.021 161.8381,-681.5596 168.1721,-678.5796"/>
</g>
<!-- ramdisk -->
<g id="node11" class="node">
<title>ramdisk</title>
<g id="a_node11"><a xlink:title="A temporary filesystem used during the boot process">
<ellipse fill="none" stroke="#000000" cx="384" cy="-741.8" rx="45.2439" ry="18"/>
<text text-anchor="middle" x="384" y="-737.6" font-family="Times,serif" font-size="14.00" fill="#000000">Ramdisk</text>
</a>
</g>
</g>
<!-- kernel&#45;&gt;ramdisk -->
<g id="edge4" class="edge">
<title>kernel&#45;&gt;ramdisk</title>
<path fill="none" stroke="#000000" d="M302.3556,-812.4375C321.1838,-796.1476 341.5494,-778.5276 357.2306,-764.9605"/>
<polygon fill="#000000" stroke="#000000" points="359.6985,-767.4535 364.9709,-758.2637 355.1184,-762.1598 359.6985,-767.4535"/>
<text text-anchor="middle" x="360.6129" y="-782" font-family="Times,serif" font-size="14.00" fill="#000000">mounts</text>
</g>
<!-- runtime -->
<g id="node6" class="node">
<title>runtime</title>
<polygon fill="none" stroke="#000000" points="204.3814,-487.0014 89.6186,-487.0014 89.6186,-428.1986 204.3814,-428.1986 204.3814,-487.0014"/>
<text text-anchor="middle" x="147" y="-470.2" font-family="Times,serif" font-size="14.00" fill="#000000">Android Runtime</text>
<text text-anchor="middle" x="147" y="-453.4" font-family="Times,serif" font-size="14.00" fill="#000000">&#45; Dalvik/ART</text>
<text text-anchor="middle" x="147" y="-436.6" font-family="Times,serif" font-size="14.00" fill="#000000">&#45; Core Libraries</text>
</g>
<!-- hal&#45;&gt;runtime -->
<g id="edge7" class="edge">
<title>hal&#45;&gt;runtime</title>
<path fill="none" stroke="#000000" d="M147,-612.2051C147,-580.9617 147,-531.5481 147,-497.0188"/>
<polygon fill="#000000" stroke="#000000" points="150.5001,-496.8172 147,-486.8172 143.5001,-496.8173 150.5001,-496.8172"/>
</g>
<!-- native_libs -->
<g id="node7" class="node">
<title>native_libs</title>
<polygon fill="none" stroke="#000000" points="223.0786,-337.6 70.9214,-337.6 70.9214,-245.6 223.0786,-245.6 223.0786,-337.6"/>
<text text-anchor="middle" x="147" y="-321" font-family="Times,serif" font-size="14.00" fill="#000000">Native C/C++ Libraries</text>
<text text-anchor="middle" x="147" y="-304.2" font-family="Times,serif" font-size="14.00" fill="#000000">&#45; libc</text>
<text text-anchor="middle" x="147" y="-287.4" font-family="Times,serif" font-size="14.00" fill="#000000">&#45; SQLite</text>
<text text-anchor="middle" x="147" y="-270.6" font-family="Times,serif" font-size="14.00" fill="#000000">&#45; OpenGL ES &amp; Vulkan</text>
<text text-anchor="middle" x="147" y="-253.8" font-family="Times,serif" font-size="14.00" fill="#000000">&#45; Media Framework</text>
</g>
<!-- runtime&#45;&gt;native_libs -->
<g id="edge8" class="edge">
<title>runtime&#45;&gt;native_libs</title>
<path fill="none" stroke="#000000" d="M147,-428.3046C147,-406.1033 147,-374.9178 147,-347.9378"/>
<polygon fill="#000000" stroke="#000000" points="150.5001,-347.8307 147,-337.8308 143.5001,-347.8308 150.5001,-347.8307"/>
</g>
<!-- app_framework -->
<g id="node8" class="node">
<title>app_framework</title>
<polygon fill="none" stroke="#000000" points="256.0539,-170.7003 37.9461,-170.7003 37.9461,-95.2997 256.0539,-95.2997 256.0539,-170.7003"/>
<text text-anchor="middle" x="147" y="-154" font-family="Times,serif" font-size="14.00" fill="#000000">Application Framework</text>
<text text-anchor="middle" x="147" y="-137.2" font-family="Times,serif" font-size="14.00" fill="#000000">&#45; Activity Manager</text>
<text text-anchor="middle" x="147" y="-120.4" font-family="Times,serif" font-size="14.00" fill="#000000">&#45; Content Providers</text>
<text text-anchor="middle" x="147" y="-103.6" font-family="Times,serif" font-size="14.00" fill="#000000">&#45; Window Manager &amp; View System</text>
</g>
<!-- native_libs&#45;&gt;app_framework -->
<g id="edge9" class="edge">
<title>native_libs&#45;&gt;app_framework</title>
<path fill="none" stroke="#000000" d="M147,-245.3C147,-225.0418 147,-201.2865 147,-180.8547"/>
<polygon fill="#000000" stroke="#000000" points="150.5001,-180.8162 147,-170.8163 143.5001,-180.8163 150.5001,-180.8162"/>
</g>
<!-- apps -->
<g id="node9" class="node">
<title>apps</title>
<polygon fill="none" stroke="#000000" points="282.7353,-58.6014 147.2647,-58.6014 147.2647,.2014 282.7353,.2014 282.7353,-58.6014"/>
<text text-anchor="middle" x="215" y="-41.8" font-family="Times,serif" font-size="14.00" fill="#000000">Applications Layer</text>
<text text-anchor="middle" x="215" y="-25" font-family="Times,serif" font-size="14.00" fill="#000000">&#45; System Apps</text>
<text text-anchor="middle" x="215" y="-8.2" font-family="Times,serif" font-size="14.00" fill="#000000">&#45; User&#45;installed Apps</text>
</g>
<!-- app_framework&#45;&gt;apps -->
<g id="edge10" class="edge">
<title>app_framework&#45;&gt;apps</title>
<path fill="none" stroke="#000000" d="M171.7419,-95.2322C177.7276,-86.0952 184.1277,-76.3256 190.1198,-67.1789"/>
<polygon fill="#000000" stroke="#000000" points="193.1606,-68.9241 195.7128,-58.6413 187.3052,-65.0882 193.1606,-68.9241"/>
</g>
<!-- zygote -->
<g id="node10" class="node">
<title>zygote</title>
<g id="a_node10"><a xlink:title="Starts app processes in Android by forking">
<ellipse fill="none" stroke="#0000ff" cx="86" cy="-858.6" rx="70.1048" ry="18"/>
<text text-anchor="middle" x="86" y="-854.4" font-family="Times,serif" font-size="14.00" fill="#000000">Zygote Process</text>
</a>
</g>
</g>
<!-- zygote&#45;&gt;apps -->
<g id="edge11" class="edge">
<title>zygote&#45;&gt;apps</title>
<path fill="none" stroke="#000000" d="M114.7909,-842.0363C169.7057,-810.3876 284,-744.2258 284,-741.8 284,-741.8 284,-741.8 284,-133 284,-108.0068 269.9546,-84.437 254.5376,-66.0936"/>
<polygon fill="#000000" stroke="#000000" points="257.1278,-63.7392 247.8833,-58.5633 251.8824,-68.3744 257.1278,-63.7392"/>
<text text-anchor="middle" x="308.2935" y="-397.8" font-family="Times,serif" font-size="14.00" fill="#000000">forks for</text>
</g>
<!-- filesystem -->
<g id="node12" class="node">
<title>filesystem</title>
<g id="a_node12"><a xlink:title="The main filesystem where all system and user data resides">
<polygon fill="none" stroke="#000000" points="427.1641,-659.8 350.8359,-659.8 350.8359,-623.8 427.1641,-623.8 427.1641,-659.8"/>
<text text-anchor="middle" x="389" y="-637.6" font-family="Times,serif" font-size="14.00" fill="#000000">Filesystem</text>
</a>
</g>
</g>
<!-- ramdisk&#45;&gt;filesystem -->
<g id="edge5" class="edge">
<title>ramdisk&#45;&gt;filesystem</title>
<path fill="none" stroke="#000000" d="M384.9171,-723.4585C385.6642,-708.5164 386.7317,-687.1665 387.5878,-670.0446"/>
<polygon fill="#000000" stroke="#000000" points="391.0849,-670.1876 388.0887,-660.0253 384.0936,-669.838 391.0849,-670.1876"/>
<text text-anchor="middle" x="404.4632" y="-693.2" font-family="Times,serif" font-size="14.00" fill="#000000">part of</text>
</g>
<!-- subinary -->
<g id="node13" class="node">
<title>subinary</title>
<g id="a_node13"><a xlink:title="Provides root access when invoked">
<ellipse fill="none" stroke="#ff0000" cx="392" cy="-541.8" rx="46.9117" ry="18"/>
<text text-anchor="middle" x="392" y="-537.6" font-family="Times,serif" font-size="14.00" fill="#000000">su binary</text>
</a>
</g>
</g>
<!-- filesystem&#45;&gt;subinary -->
<g id="edge12" class="edge">
<title>filesystem&#45;&gt;subinary</title>
<path fill="none" stroke="#000000" d="M389.5502,-623.4585C389.9985,-608.5164 390.639,-587.1665 391.1527,-570.0446"/>
<polygon fill="#000000" stroke="#000000" points="394.6517,-570.1258 391.4532,-560.0253 387.6549,-569.9158 394.6517,-570.1258"/>
<text text-anchor="middle" x="416.6301" y="-582" font-family="Times,serif" font-size="14.00" fill="#000000">resides in</text>
</g>
<!-- magisk&#45;&gt;kernel -->
<g id="edge14" class="edge">
<title>magisk&#45;&gt;kernel</title>
<path fill="none" stroke="#000000" d="M418.1312,-986.1492C388.9635,-964.1526 350.9257,-935.4666 318.3118,-910.871"/>
<polygon fill="#000000" stroke="#000000" points="320.2372,-907.9394 310.1457,-904.7126 316.0224,-913.5282 320.2372,-907.9394"/>
<text text-anchor="middle" x="409.2104" y="-949.6" font-family="Times,serif" font-size="14.00" fill="#000000">integrates</text>
</g>
<!-- magisk&#45;&gt;subinary -->
<g id="edge15" class="edge">
<title>magisk&#45;&gt;subinary</title>
<path fill="none" stroke="#000000" d="M465,-979.9845C465,-947.0657 465,-899.8894 465,-858.6 465,-858.6 465,-858.6 465,-641.8 465,-612.252 464.4725,-601.6285 447,-577.8 442.4997,-571.6626 436.6118,-566.2799 430.3646,-561.675"/>
<polygon fill="#000000" stroke="#000000" points="431.9749,-558.5409 421.7196,-555.8801 428.0773,-564.3554 431.9749,-558.5409"/>
<text text-anchor="middle" x="489.1052" y="-737.6" font-family="Times,serif" font-size="14.00" fill="#000000">provides</text>
</g>
<!-- magiskhide -->
<g id="node15" class="node">
<title>magiskhide</title>
<ellipse fill="none" stroke="#00ff00" cx="553" cy="-858.6" rx="60.5008" ry="29.3315"/>
<text text-anchor="middle" x="553" y="-862.8" font-family="Times,serif" font-size="14.00" fill="#000000">MagiskHide</text>
<text text-anchor="middle" x="553" y="-846" font-family="Times,serif" font-size="14.00" fill="#000000">&#45; Hides root</text>
</g>
<!-- magisk&#45;&gt;magiskhide -->
<g id="edge16" class="edge">
<title>magisk&#45;&gt;magiskhide</title>
<path fill="none" stroke="#000000" d="M486.7528,-981.2288C500.8052,-955.2168 518.9659,-921.5998 532.718,-896.1436"/>
<polygon fill="#000000" stroke="#000000" points="535.8956,-897.6253 537.5693,-887.1635 529.7368,-894.2981 535.8956,-897.6253"/>
</g>
<!-- magiskmanager -->
<g id="node16" class="node">
<title>magiskmanager</title>
<ellipse fill="none" stroke="#00ff00" cx="733" cy="-858.6" rx="102.0634" ry="41.0911"/>
<text text-anchor="middle" x="733" y="-871.2" font-family="Times,serif" font-size="14.00" fill="#000000">Magisk Manager</text>
<text text-anchor="middle" x="733" y="-854.4" font-family="Times,serif" font-size="14.00" fill="#000000">&#45; User Interface</text>
<text text-anchor="middle" x="733" y="-837.6" font-family="Times,serif" font-size="14.00" fill="#000000">&#45; Module Management</text>
</g>
<!-- magisk&#45;&gt;magiskmanager -->
<g id="edge17" class="edge">
<title>magisk&#45;&gt;magiskmanager</title>
<path fill="none" stroke="#000000" d="M526.3924,-990.8889C555.8074,-975.6521 591.2442,-956.4495 622,-937.4 640.043,-926.2245 659.0868,-913.1926 676.2088,-900.982"/>
<polygon fill="#000000" stroke="#000000" points="678.3663,-903.7416 684.4469,-895.0654 674.2829,-898.056 678.3663,-903.7416"/>
</g>
</g>
</svg>
