<?xml version="1.0" encoding="UTF-8" standalone="no"?>
<!DOCTYPE svg PUBLIC "-//W3C//DTD SVG 1.1//EN"
 "http://www.w3.org/Graphics/SVG/1.1/DTD/svg11.dtd">
<!-- Generated by graphviz version 2.40.1 (20161225.0304)
 -->
<!-- Title: android_architecture_magisk Pages: 1 -->
<svg width="554pt" height="626pt"
 viewBox="0.00 0.00 554.41 626.26" xmlns="http://www.w3.org/2000/svg" xmlns:xlink="http://www.w3.org/1999/xlink">
<g id="graph0" class="graph" transform="scale(1 1) rotate(0) translate(4 622.2626)">
<title>android_architecture_magisk</title>
<polygon fill="#ffffff" stroke="transparent" points="-4,4 -4,-622.2626 550.4075,-622.2626 550.4075,4 -4,4"/>
<text text-anchor="middle" x="273.2038" y="-596.2626" font-family="Times,serif" font-size="20.00" fill="#000000">Android Architecture with Magisk &amp; Overlay Filesystem</text>
<!-- hardware -->
<g id="node1" class="node">
<title>hardware</title>
<polygon fill="none" stroke="#000000" points="443.2308,-586.2626 371.8739,-586.2626 371.8739,-550.2626 443.2308,-550.2626 443.2308,-586.2626"/>
<text text-anchor="middle" x="407.5523" y="-564.0626" font-family="Times,serif" font-size="14.00" fill="#000000">Hardware</text>
</g>
<!-- bootloader -->
<g id="node2" class="node">
<title>bootloader</title>
<polygon fill="none" stroke="#000000" points="446.7602,-513.2626 368.3445,-513.2626 368.3445,-477.2626 446.7602,-477.2626 446.7602,-513.2626"/>
<text text-anchor="middle" x="407.5523" y="-491.0626" font-family="Times,serif" font-size="14.00" fill="#000000">Bootloader</text>
</g>
<!-- hardware&#45;&gt;bootloader -->
<g id="edge1" class="edge">
<title>hardware&#45;&gt;bootloader</title>
<path fill="none" stroke="#000000" d="M407.5523,-550.2176C407.5523,-542.1454 407.5523,-532.4389 407.5523,-523.4443"/>
<polygon fill="#000000" stroke="#000000" points="411.0524,-523.3529 407.5523,-513.3529 404.0524,-523.353 411.0524,-523.3529"/>
</g>
<!-- bootimg -->
<g id="node3" class="node">
<title>bootimg</title>
<g id="a_node3"><a xlink:title="Contains kernel and ramdisk">
<polygon fill="none" stroke="#000000" points="440.7244,-440.2626 374.3803,-440.2626 374.3803,-404.2626 440.7244,-404.2626 440.7244,-440.2626"/>
<text text-anchor="middle" x="407.5523" y="-418.0626" font-family="Times,serif" font-size="14.00" fill="#000000">boot.img</text>
</a>
</g>
</g>
<!-- bootloader&#45;&gt;bootimg -->
<g id="edge2" class="edge">
<title>bootloader&#45;&gt;bootimg</title>
<path fill="none" stroke="#000000" d="M407.5523,-477.2176C407.5523,-469.1454 407.5523,-459.4389 407.5523,-450.4443"/>
<polygon fill="#000000" stroke="#000000" points="411.0524,-450.3529 407.5523,-440.3529 404.0524,-450.353 411.0524,-450.3529"/>
</g>
<!-- kernel -->
<g id="node4" class="node">
<title>kernel</title>
<polygon fill="none" stroke="#000000" points="353.6394,-367.2626 299.4653,-367.2626 299.4653,-331.2626 353.6394,-331.2626 353.6394,-367.2626"/>
<text text-anchor="middle" x="326.5523" y="-345.0626" font-family="Times,serif" font-size="14.00" fill="#000000">Kernel</text>
</g>
<!-- bootimg&#45;&gt;kernel -->
<g id="edge3" class="edge">
<title>bootimg&#45;&gt;kernel</title>
<path fill="none" stroke="#000000" d="M387.5299,-404.2176C377.5021,-395.1802 365.2014,-384.0945 354.2809,-374.2525"/>
<polygon fill="#000000" stroke="#000000" points="356.3968,-371.4477 346.6252,-367.3529 351.7104,-376.6476 356.3968,-371.4477"/>
</g>
<!-- magisk -->
<g id="node9" class="node">
<title>magisk</title>
<g id="a_node9"><a xlink:title="Root management and modules">
<polygon fill="none" stroke="#00ff00" points="435.5467,-159.0469 377.5579,-159.0469 377.5579,-123.0469 435.5467,-123.0469 435.5467,-159.0469"/>
<text text-anchor="middle" x="406.5523" y="-136.8469" font-family="Times,serif" font-size="14.00" fill="#000000">Magisk</text>
</a>
</g>
</g>
<!-- bootimg&#45;&gt;magisk -->
<g id="edge8" class="edge">
<title>bootimg&#45;&gt;magisk</title>
<path fill="none" stroke="#000000" d="M411.2181,-404.2491C418.6681,-364.8648 433.8693,-268.2333 421.5523,-188.4626 420.5494,-181.9669 418.8165,-175.1417 416.8766,-168.7573"/>
<polygon fill="#000000" stroke="#000000" points="420.1818,-167.6041 413.7327,-159.1981 413.5322,-169.7911 420.1818,-167.6041"/>
<text text-anchor="middle" x="449.0481" y="-300.6626" font-family="Times,serif" font-size="14.00" fill="#000000">modifies</text>
</g>
<!-- os_components -->
<g id="node5" class="node">
<title>os_components</title>
<g id="a_node5"><a xlink:title="Includes HAL, Runtime, Libraries, and Framework">
<ellipse fill="none" stroke="#000000" cx="168.5523" cy="-141.0469" rx="168.6047" ry="29.3315"/>
<text text-anchor="middle" x="168.5523" y="-145.2469" font-family="Times,serif" font-size="14.00" fill="#000000">OS Components</text>
<text text-anchor="middle" x="168.5523" y="-128.4469" font-family="Times,serif" font-size="14.00" fill="#000000">(HAL, Runtime, Libraries, Framework)</text>
</a>
</g>
</g>
<!-- kernel&#45;&gt;os_components -->
<g id="edge4" class="edge">
<title>kernel&#45;&gt;os_components</title>
<path fill="none" stroke="#000000" d="M299.2659,-340.839C270.4667,-330.5884 225.6998,-310.5592 199.5523,-278.4626 177.1681,-250.9854 170.1924,-210.5834 168.3534,-180.6939"/>
<polygon fill="#000000" stroke="#000000" points="171.8453,-180.4315 167.9003,-170.5985 164.8523,-180.7454 171.8453,-180.4315"/>
</g>
<!-- filesystem -->
<g id="node7" class="node">
<title>filesystem</title>
<polygon fill="none" stroke="#000000" points="420.7165,-224.4626 344.3882,-224.4626 344.3882,-188.4626 420.7165,-188.4626 420.7165,-224.4626"/>
<text text-anchor="middle" x="382.5523" y="-202.2626" font-family="Times,serif" font-size="14.00" fill="#000000">Filesystem</text>
</g>
<!-- kernel&#45;&gt;filesystem -->
<g id="edge6" class="edge">
<title>kernel&#45;&gt;filesystem</title>
<path fill="none" stroke="#000000" d="M342.915,-331.1713C347.1942,-325.7162 351.467,-319.51 354.5523,-313.2626 366.9525,-288.1539 374.3185,-256.9212 378.3577,-234.7314"/>
<polygon fill="#000000" stroke="#000000" points="381.8492,-235.0773 380.0809,-224.6311 374.9489,-233.9001 381.8492,-235.0773"/>
</g>
<!-- overlayfs -->
<g id="node11" class="node">
<title>overlayfs</title>
<g id="a_node11"><a xlink:title="Allows Magisk to overlay modifications without altering the original system">
<polygon fill="none" stroke="#000000" points="334.303,-278.4626 208.8017,-278.4626 208.8017,-242.4626 334.303,-242.4626 334.303,-278.4626"/>
<text text-anchor="middle" x="271.5523" y="-256.2626" font-family="Times,serif" font-size="14.00" fill="#000000">Overlay Filesystem</text>
</a>
</g>
</g>
<!-- kernel&#45;&gt;overlayfs -->
<g id="edge9" class="edge">
<title>kernel&#45;&gt;overlayfs</title>
<path fill="none" stroke="#000000" d="M315.1563,-330.8632C307.3615,-318.278 296.9014,-301.3897 288.1801,-287.3089"/>
<polygon fill="#000000" stroke="#000000" points="290.9867,-285.1931 282.7456,-278.5346 285.0357,-288.879 290.9867,-285.1931"/>
<text text-anchor="middle" x="327.2627" y="-300.6626" font-family="Times,serif" font-size="14.00" fill="#000000">interacts</text>
</g>
<!-- apps_zygote -->
<g id="node6" class="node">
<title>apps_zygote</title>
<g id="a_node6"><a xlink:title="Apps are forked from Zygote">
<ellipse fill="none" stroke="#0000ff" cx="157.5523" cy="-29.4156" rx="71.2326" ry="18"/>
<text text-anchor="middle" x="157.5523" y="-25.2156" font-family="Times,serif" font-size="14.00" fill="#000000">Apps &amp; Zygote</text>
</a>
</g>
</g>
<!-- os_components&#45;&gt;apps_zygote -->
<g id="edge5" class="edge">
<title>os_components&#45;&gt;apps_zygote</title>
<path fill="none" stroke="#000000" d="M165.6334,-111.4249C163.994,-94.7873 161.9588,-74.134 160.341,-57.7163"/>
<polygon fill="#000000" stroke="#000000" points="163.8104,-57.2325 159.3466,-47.6239 156.8442,-57.919 163.8104,-57.2325"/>
</g>
<!-- subinary -->
<g id="node8" class="node">
<title>subinary</title>
<g id="a_node8"><a xlink:title="Provides root access">
<polygon fill="none" stroke="#ff0000" points="546.2634,-47.4156 478.8413,-47.4156 478.8413,-11.4156 546.2634,-11.4156 546.2634,-47.4156"/>
<text text-anchor="middle" x="512.5523" y="-25.2156" font-family="Times,serif" font-size="14.00" fill="#000000">su binary</text>
</a>
</g>
</g>
<!-- filesystem&#45;&gt;subinary -->
<g id="edge7" class="edge">
<title>filesystem&#45;&gt;subinary</title>
<path fill="none" stroke="#000000" d="M420.8504,-188.9302C429.3596,-183.821 437.8353,-177.6437 444.5523,-170.4626 475.418,-137.4644 494.8687,-87.8582 504.7158,-57.1198"/>
<polygon fill="#000000" stroke="#000000" points="508.0892,-58.0574 507.6897,-47.4701 501.3997,-55.9957 508.0892,-58.0574"/>
</g>
<!-- magisk&#45;&gt;subinary -->
<g id="edge12" class="edge">
<title>magisk&#45;&gt;subinary</title>
<path fill="none" stroke="#000000" d="M410.8155,-122.8328C414.877,-108.8354 422.2096,-89.7681 434.3419,-76.8313 446.3646,-64.0114 454.4442,-67.8111 469.5523,-58.8313 472.5191,-57.0679 475.5567,-55.1768 478.5781,-53.2351"/>
<polygon fill="#000000" stroke="#000000" points="480.5586,-56.1216 486.9783,-47.6932 476.7037,-50.2786 480.5586,-56.1216"/>
<text text-anchor="middle" x="457.6575" y="-81.0313" font-family="Times,serif" font-size="14.00" fill="#000000">provides</text>
</g>
<!-- magisk_tools -->
<g id="node10" class="node">
<title>magisk_tools</title>
<g id="a_node10"><a xlink:title="MagiskHide and Magisk Manager">
<ellipse fill="none" stroke="#00ff00" cx="353.5523" cy="-29.4156" rx="106.9371" ry="29.3315"/>
<text text-anchor="middle" x="353.5523" y="-33.6156" font-family="Times,serif" font-size="14.00" fill="#000000">Magisk Tools</text>
<text text-anchor="middle" x="353.5523" y="-16.8156" font-family="Times,serif" font-size="14.00" fill="#000000">(MagiskHide, Manager)</text>
</a>
</g>
</g>
<!-- magisk&#45;&gt;magisk_tools -->
<g id="edge13" class="edge">
<title>magisk&#45;&gt;magisk_tools</title>
<path fill="none" stroke="#000000" d="M397.8005,-122.6133C390.7579,-107.7799 380.6203,-86.4276 371.825,-67.9025"/>
<polygon fill="#000000" stroke="#000000" points="374.9542,-66.3326 367.5034,-58.8002 368.6307,-69.3349 374.9542,-66.3326"/>
</g>
<!-- overlayfs&#45;&gt;os_components -->
<g id="edge10" class="edge">
<title>overlayfs&#45;&gt;os_components</title>
<path fill="none" stroke="#000000" stroke-dasharray="5,2" d="M225.3416,-242.4116C216.8366,-237.5434 208.6098,-231.5971 202.1273,-224.4626 190.8462,-212.0465 183.1199,-195.3558 177.9518,-180.1671"/>
<polygon fill="#000000" stroke="#000000" points="181.2415,-178.9601 174.9134,-170.4628 174.5613,-181.0517 181.2415,-178.9601"/>
<text text-anchor="middle" x="226.2648" y="-202.2626" font-family="Times,serif" font-size="14.00" fill="#000000">overlays</text>
</g>
<!-- overlayfs&#45;&gt;magisk -->
<g id="edge11" class="edge">
<title>overlayfs&#45;&gt;magisk</title>
<path fill="none" stroke="#000000" stroke-dasharray="5,2" d="M264.4145,-242.4582C259.3958,-226.5275 255.4934,-203.5336 267.5179,-188.4626 289.9863,-160.3017 312.5873,-182.4726 346.5523,-170.4626 353.6959,-167.9366 361.0998,-164.7849 368.1663,-161.4911"/>
<polygon fill="#000000" stroke="#000000" points="370.0599,-164.4631 377.537,-156.9569 367.011,-158.1619 370.0599,-164.4631"/>
<text text-anchor="middle" x="300.5695" y="-202.2626" font-family="Times,serif" font-size="14.00" fill="#000000">managed by</text>
</g>
</g>
</svg>
