<?xml version="1.0" encoding="UTF-8" standalone="no"?>
<!DOCTYPE svg PUBLIC "-//W3C//DTD SVG 1.1//EN"
 "http://www.w3.org/Graphics/SVG/1.1/DTD/svg11.dtd">
<!-- Generated by graphviz version 2.40.1 (20161225.0304)
 -->
<!-- Title: biological_zygote Pages: 1 -->
<svg width="191pt" height="335pt"
 viewBox="0.00 0.00 191.11 335.20" xmlns="http://www.w3.org/2000/svg" xmlns:xlink="http://www.w3.org/1999/xlink">
<g id="graph0" class="graph" transform="scale(1 1) rotate(0) translate(4 331.2)">
<title>biological_zygote</title>
<polygon fill="#ffffff" stroke="transparent" points="-4,4 -4,-331.2 187.1095,-331.2 187.1095,4 -4,4"/>
<text text-anchor="middle" x="91.5548" y="-310.6" font-family="Times,serif" font-size="14.00" fill="#000000">Zygote Formation</text>
<!-- sperm -->
<g id="node1" class="node">
<title>sperm</title>
<g id="a_node1"><a xlink:title="Male reproductive cell">
<ellipse fill="none" stroke="#000000" cx="36.2469" cy="-284.4" rx="36.4955" ry="18"/>
<text text-anchor="middle" x="36.2469" y="-280.2" font-family="Times,serif" font-size="14.00" fill="#000000">Sperm</text>
</a>
</g>
</g>
<!-- zygote -->
<g id="node3" class="node">
<title>zygote</title>
<g id="a_node3"><a xlink:title="Initial cell formed when two gamete cells fuse">
<polygon fill="none" stroke="#0000ff" points="103.9058,-213.6 48.5881,-213.6 48.5881,-177.6 103.9058,-177.6 103.9058,-213.6"/>
<text text-anchor="middle" x="76.2469" y="-191.4" font-family="Times,serif" font-size="14.00" fill="#000000">Zygote</text>
</a>
</g>
</g>
<!-- sperm&#45;&gt;zygote -->
<g id="edge1" class="edge">
<title>sperm&#45;&gt;zygote</title>
<path fill="none" stroke="#000000" d="M37.4377,-266.1004C38.6703,-255.6005 41.1773,-242.4005 46.2749,-231.6 47.8608,-228.2399 49.8353,-224.9325 52.0091,-221.766"/>
<polygon fill="#000000" stroke="#000000" points="54.822,-223.8493 58.099,-213.774 49.2542,-219.6067 54.822,-223.8493"/>
<text text-anchor="middle" x="70.7329" y="-235.8" font-family="Times,serif" font-size="14.00" fill="#000000">fertilizes</text>
</g>
<!-- egg -->
<g id="node2" class="node">
<title>egg</title>
<g id="a_node2"><a xlink:title="Female reproductive cell">
<ellipse fill="none" stroke="#000000" cx="117.2469" cy="-284.4" rx="27" ry="18"/>
<text text-anchor="middle" x="117.2469" y="-280.2" font-family="Times,serif" font-size="14.00" fill="#000000">Egg</text>
</a>
</g>
</g>
<!-- egg&#45;&gt;zygote -->
<g id="edge2" class="edge">
<title>egg&#45;&gt;zygote</title>
<path fill="none" stroke="#000000" d="M110.3093,-266.6245C106.1635,-256.2993 100.6635,-243.0993 95.2469,-231.6 93.9049,-228.751 92.4544,-225.803 90.9739,-222.8768"/>
<polygon fill="#000000" stroke="#000000" points="93.9511,-221.0153 86.238,-213.7518 87.738,-224.2399 93.9511,-221.0153"/>
<text text-anchor="middle" x="142.6782" y="-235.8" font-family="Times,serif" font-size="14.00" fill="#000000">is fertilized by</text>
</g>
<!-- division -->
<g id="node4" class="node">
<title>division</title>
<g id="a_node4"><a xlink:title="Rapid cell divisions post fertilization">
<polygon fill="none" stroke="#00ff00" points="121.8023,-124.8 30.6915,-124.8 30.6915,-88.8 121.8023,-88.8 121.8023,-124.8"/>
<text text-anchor="middle" x="76.2469" y="-102.6" font-family="Times,serif" font-size="14.00" fill="#000000">Cell Division</text>
</a>
</g>
</g>
<!-- zygote&#45;&gt;division -->
<g id="edge3" class="edge">
<title>zygote&#45;&gt;division</title>
<path fill="none" stroke="#000000" d="M76.2469,-177.2006C76.2469,-165.0949 76.2469,-149.0076 76.2469,-135.2674"/>
<polygon fill="#000000" stroke="#000000" points="79.747,-134.872 76.2469,-124.872 72.747,-134.8721 79.747,-134.872"/>
<text text-anchor="middle" x="105.0141" y="-147" font-family="Times,serif" font-size="14.00" fill="#000000">undergoes</text>
</g>
<!-- embryo -->
<g id="node5" class="node">
<title>embryo</title>
<g id="a_node5"><a xlink:title="Early stage of development post division">
<polygon fill="none" stroke="#add8e6" points="106.8508,-36 45.643,-36 45.643,0 106.8508,0 106.8508,-36"/>
<text text-anchor="middle" x="76.2469" y="-13.8" font-family="Times,serif" font-size="14.00" fill="#000000">Embryo</text>
</a>
</g>
</g>
<!-- division&#45;&gt;embryo -->
<g id="edge4" class="edge">
<title>division&#45;&gt;embryo</title>
<path fill="none" stroke="#000000" d="M76.2469,-88.4006C76.2469,-76.2949 76.2469,-60.2076 76.2469,-46.4674"/>
<polygon fill="#000000" stroke="#000000" points="79.747,-46.072 76.2469,-36.072 72.747,-46.0721 79.747,-46.072"/>
<text text-anchor="middle" x="92.5751" y="-58.2" font-family="Times,serif" font-size="14.00" fill="#000000">forms</text>
</g>
</g>
</svg>
