<?xml version="1.0" encoding="UTF-8" standalone="no"?>
<!DOCTYPE svg PUBLIC "-//W3C//DTD SVG 1.1//EN"
 "http://www.w3.org/Graphics/SVG/1.1/DTD/svg11.dtd">
<!-- Generated by graphviz version 2.40.1 (20161225.0304)
 -->
<!-- Title: contrast_PID1_Zygote Pages: 1 -->
<svg width="994pt" height="213pt"
 viewBox="0.00 0.00 994.00 213.20" xmlns="http://www.w3.org/2000/svg" xmlns:xlink="http://www.w3.org/1999/xlink">
<g id="graph0" class="graph" transform="scale(1 1) rotate(0) translate(4 209.2)">
<title>contrast_PID1_Zygote</title>
<polygon fill="#ffffff" stroke="transparent" points="-4,4 -4,-209.2 990,-209.2 990,4 -4,4"/>
<g id="clust1" class="cluster">
<title>cluster_0</title>
<polygon fill="none" stroke="#0000ff" points="103,-119.6 103,-197.2 897,-197.2 897,-119.6 103,-119.6"/>
<text text-anchor="middle" x="500" y="-180.6" font-family="Times,serif" font-size="14.00" fill="#000000">Linux PID 1</text>
</g>
<g id="clust2" class="cluster">
<title>cluster_1</title>
<polygon fill="none" stroke="#00ff00" points="8,-8 8,-84.8 978,-84.8 978,-8 8,-8"/>
<text text-anchor="middle" x="493" y="-68.2" font-family="Times,serif" font-size="14.00" fill="#000000">Android Zygote</text>
</g>
<!-- PID1_init -->
<g id="node1" class="node">
<title>PID1_init</title>
<polygon fill="#d3d3d3" stroke="#d3d3d3" points="517.808,-164 400.192,-164 400.192,-128 517.808,-128 517.808,-164"/>
<text text-anchor="middle" x="459" y="-142.4" font-family="Times,serif" font-size="12.00" fill="#000000">Initializes the system</text>
</g>
<!-- zygote_preload -->
<g id="node6" class="node">
<title>zygote_preload</title>
<polygon fill="#d3d3d3" stroke="#d3d3d3" points="473.072,-52 238.928,-52 238.928,-16 473.072,-16 473.072,-52"/>
<text text-anchor="middle" x="356" y="-30.4" font-family="Times,serif" font-size="12.00" fill="#000000">Preloads classes and resources for app launch</text>
</g>
<!-- PID1_init&#45;&gt;zygote_preload -->
<g id="edge1" class="edge">
<title>PID1_init&#45;&gt;zygote_preload</title>
<path fill="none" stroke="#ff0000" d="M452.4615,-127.5349C448.0441,-116.6933 441.4717,-103.1359 433,-92.8 419.8851,-76.7993 401.5974,-62.6003 386.1351,-52.1654"/>
<text text-anchor="middle" x="493.7402" y="-97" font-family="Times,serif" font-size="14.00" fill="#000000">Initialization Role</text>
</g>
<!-- PID1_services -->
<g id="node2" class="node">
<title>PID1_services</title>
<polygon fill="#d3d3d3" stroke="#d3d3d3" points="211.4576,-164 110.5424,-164 110.5424,-128 211.4576,-128 211.4576,-164"/>
<text text-anchor="middle" x="161" y="-142.4" font-family="Times,serif" font-size="12.00" fill="#000000">Manages services</text>
</g>
<!-- zygote_fork -->
<g id="node7" class="node">
<title>zygote_fork</title>
<polygon fill="#d3d3d3" stroke="#d3d3d3" points="220.0972,-52 15.9028,-52 15.9028,-16 220.0972,-16 220.0972,-52"/>
<text text-anchor="middle" x="118" y="-30.4" font-family="Times,serif" font-size="12.00" fill="#000000">Forks pre&#45;initialized processes for apps</text>
</g>
<!-- PID1_services&#45;&gt;zygote_fork -->
<g id="edge2" class="edge">
<title>PID1_services&#45;&gt;zygote_fork</title>
<path fill="none" stroke="#ff0000" d="M153.8994,-127.5055C145.8845,-106.6294 132.9286,-72.8837 124.9685,-52.1504"/>
<text text-anchor="middle" x="205.6729" y="-97" font-family="Times,serif" font-size="14.00" fill="#000000">Process Management</text>
</g>
<!-- PID1_orphan -->
<g id="node3" class="node">
<title>PID1_orphan</title>
<polygon fill="#d3d3d3" stroke="#d3d3d3" points="682.7887,-164 535.2113,-164 535.2113,-128 682.7887,-128 682.7887,-164"/>
<text text-anchor="middle" x="609" y="-142.4" font-family="Times,serif" font-size="12.00" fill="#000000">Adopts orphaned processes</text>
</g>
<!-- zygote_app_mgmt -->
<g id="node9" class="node">
<title>zygote_app_mgmt</title>
<polygon fill="#d3d3d3" stroke="#d3d3d3" points="726.1151,-52 491.8849,-52 491.8849,-16 726.1151,-16 726.1151,-52"/>
<text text-anchor="middle" x="609" y="-30.4" font-family="Times,serif" font-size="12.00" fill="#000000">Focused on Android application management</text>
</g>
<!-- PID1_orphan&#45;&gt;zygote_app_mgmt -->
<g id="edge3" class="edge">
<title>PID1_orphan&#45;&gt;zygote_app_mgmt</title>
<path fill="none" stroke="#ff0000" d="M609,-127.5055C609,-106.6294 609,-72.8837 609,-52.1504"/>
<text text-anchor="middle" x="682.2781" y="-97" font-family="Times,serif" font-size="14.00" fill="#000000">Role in Process Hierarchy</text>
</g>
<!-- PID1_lifespan -->
<g id="node4" class="node">
<title>PID1_lifespan</title>
<polygon fill="#d3d3d3" stroke="#d3d3d3" points="889.4812,-164 700.5188,-164 700.5188,-128 889.4812,-128 889.4812,-164"/>
<text text-anchor="middle" x="795" y="-142.4" font-family="Times,serif" font-size="12.00" fill="#000000">Runs from system start to shutdown</text>
</g>
<!-- zygote_lifespan -->
<g id="node8" class="node">
<title>zygote_lifespan</title>
<polygon fill="#d3d3d3" stroke="#d3d3d3" points="969.6211,-52 744.3789,-52 744.3789,-16 969.6211,-16 969.6211,-52"/>
<text text-anchor="middle" x="857" y="-30.4" font-family="Times,serif" font-size="12.00" fill="#000000">Starts early in boot process, but not the first</text>
</g>
<!-- PID1_lifespan&#45;&gt;zygote_lifespan -->
<g id="edge4" class="edge">
<title>PID1_lifespan&#45;&gt;zygote_lifespan</title>
<path fill="none" stroke="#ff0000" d="M805.238,-127.5055C816.7944,-106.6294 835.4751,-72.8837 846.9525,-52.1504"/>
<text text-anchor="middle" x="848.4888" y="-97" font-family="Times,serif" font-size="14.00" fill="#000000">Lifespan</text>
</g>
<!-- PID1_tools -->
<g id="node5" class="node">
<title>PID1_tools</title>
<polygon fill="#d3d3d3" stroke="#d3d3d3" points="382.48,-164.3005 229.52,-164.3005 229.52,-127.6995 382.48,-127.6995 382.48,-164.3005"/>
<text text-anchor="middle" x="306" y="-149.6" font-family="Times,serif" font-size="12.00" fill="#000000">Associated with init systems</text>
<text text-anchor="middle" x="306" y="-135.2" font-family="Times,serif" font-size="12.00" fill="#000000">(e.g. systemd, SysV init)</text>
</g>
<!-- PID1_tools&#45;&gt;zygote_preload -->
<g id="edge5" class="edge">
<title>PID1_tools&#45;&gt;zygote_preload</title>
<path fill="none" stroke="#ff0000" d="M307.9683,-127.2576C309.5068,-116.8216 312.1787,-103.7627 316.7356,-92.8 322.8606,-78.0647 332.8902,-63.132 341.2792,-52.0022"/>
<text text-anchor="middle" x="374.1322" y="-97" font-family="Times,serif" font-size="14.00" fill="#000000">System Associations</text>
</g>
</g>
</svg>
