<?xml version="1.0" encoding="UTF-8" standalone="no"?>
<!DOCTYPE svg PUBLIC "-//W3C//DTD SVG 1.1//EN"
 "http://www.w3.org/Graphics/SVG/1.1/DTD/svg11.dtd">
<!-- Generated by graphviz version 2.40.1 (20161225.0304)
 -->
<!-- Title: zygisk_architecture Pages: 1 -->
<svg width="521pt" height="431pt"
 viewBox="0.00 0.00 520.58 431.15" xmlns="http://www.w3.org/2000/svg" xmlns:xlink="http://www.w3.org/1999/xlink">
<g id="graph0" class="graph" transform="scale(1 1) rotate(0) translate(4 427.1489)">
<title>zygisk_architecture</title>
<polygon fill="#ffffff" stroke="transparent" points="-4,4 -4,-427.1489 516.5807,-427.1489 516.5807,4 -4,4"/>
<!-- zygote -->
<g id="node1" class="node">
<title>zygote</title>
<polygon fill="none" stroke="#000000" points="505.8189,-328.9502 339.1075,-328.9502 339.1075,-270.1475 505.8189,-270.1475 505.8189,-328.9502"/>
<text text-anchor="middle" x="422.4632" y="-312.1489" font-family="Times,serif" font-size="14.00" fill="#000000">Zygote Process</text>
<text text-anchor="middle" x="422.4632" y="-295.3489" font-family="Times,serif" font-size="14.00" fill="#000000">&#45; First Android OS process</text>
<text text-anchor="middle" x="422.4632" y="-278.5489" font-family="Times,serif" font-size="14.00" fill="#000000">&#45; Manages app processes</text>
</g>
<!-- zygisk -->
<g id="node3" class="node">
<title>zygisk</title>
<polygon fill="none" stroke="#000000" points="320.466,-217.7502 100.4604,-217.7502 100.4604,-158.9475 320.466,-158.9475 320.466,-217.7502"/>
<text text-anchor="middle" x="210.4632" y="-200.9489" font-family="Times,serif" font-size="14.00" fill="#000000">Zygisk</text>
<text text-anchor="middle" x="210.4632" y="-184.1489" font-family="Times,serif" font-size="14.00" fill="#000000">&#45; Magisk in Zygote</text>
<text text-anchor="middle" x="210.4632" y="-167.3489" font-family="Times,serif" font-size="14.00" fill="#000000">&#45; New way to run root apps/modules</text>
</g>
<!-- zygote&#45;&gt;zygisk -->
<g id="edge2" class="edge">
<title>zygote&#45;&gt;zygisk</title>
<path fill="none" stroke="#000000" d="M366.7627,-270.3324C338.6346,-255.5784 304.3548,-237.5977 275.0738,-222.2389"/>
<polygon fill="#000000" stroke="#000000" points="276.6409,-219.1087 266.1594,-217.5631 273.3893,-225.3077 276.6409,-219.1087"/>
<text text-anchor="middle" x="356.6715" y="-239.7489" font-family="Times,serif" font-size="14.00" fill="#000000">facilitates</text>
</g>
<!-- apps -->
<g id="node4" class="node">
<title>apps</title>
<polygon fill="none" stroke="#000000" points="512.6984,-208.9508 338.228,-208.9508 338.228,-167.747 512.6984,-167.747 512.6984,-208.9508"/>
<text text-anchor="middle" x="425.4632" y="-192.5489" font-family="Times,serif" font-size="14.00" fill="#000000">Regular Apps</text>
<text text-anchor="middle" x="425.4632" y="-175.7489" font-family="Times,serif" font-size="14.00" fill="#000000">&#45; Netflix, Banking apps, etc.</text>
</g>
<!-- zygote&#45;&gt;apps -->
<g id="edge3" class="edge">
<title>zygote&#45;&gt;apps</title>
<path fill="none" stroke="#000000" d="M423.2514,-270.3324C423.6718,-254.7519 424.1892,-235.5731 424.6178,-219.6836"/>
<polygon fill="#000000" stroke="#000000" points="428.1271,-219.3841 424.8982,-209.2933 421.1296,-219.1952 428.1271,-219.3841"/>
<text text-anchor="middle" x="447.9527" y="-239.7489" font-family="Times,serif" font-size="14.00" fill="#000000">launches</text>
</g>
<!-- magisk -->
<g id="node2" class="node">
<title>magisk</title>
<polygon fill="none" stroke="#000000" points="491.9163,-422.9508 353.0101,-422.9508 353.0101,-381.747 491.9163,-381.747 491.9163,-422.9508"/>
<text text-anchor="middle" x="422.4632" y="-406.5489" font-family="Times,serif" font-size="14.00" fill="#000000">Magisk</text>
<text text-anchor="middle" x="422.4632" y="-389.7489" font-family="Times,serif" font-size="14.00" fill="#000000">&#45; Provides root access</text>
</g>
<!-- magisk&#45;&gt;zygote -->
<g id="edge1" class="edge">
<title>magisk&#45;&gt;zygote</title>
<path fill="none" stroke="#000000" d="M422.4632,-381.5457C422.4632,-369.3655 422.4632,-353.5813 422.4632,-339.1184"/>
<polygon fill="#000000" stroke="#000000" points="425.9633,-338.8911 422.4632,-328.8911 418.9633,-338.8912 425.9633,-338.8911"/>
<text text-anchor="middle" x="451.8261" y="-350.9489" font-family="Times,serif" font-size="14.00" fill="#000000">hooks into</text>
</g>
<!-- root_apps -->
<g id="node5" class="node">
<title>root_apps</title>
<polygon fill="none" stroke="#000000" points="192.8896,-73.7763 .0368,-73.7763 .0368,-32.5725 192.8896,-32.5725 192.8896,-73.7763"/>
<text text-anchor="middle" x="96.4632" y="-57.3744" font-family="Times,serif" font-size="14.00" fill="#000000">Root Apps &amp; Modules</text>
<text text-anchor="middle" x="96.4632" y="-40.5744" font-family="Times,serif" font-size="14.00" fill="#000000">&#45; Run within Zygote via Zygisk</text>
</g>
<!-- zygisk&#45;&gt;root_apps -->
<g id="edge4" class="edge">
<title>zygisk&#45;&gt;root_apps</title>
<path fill="none" stroke="#000000" d="M185.7269,-159.018C166.4804,-136.1967 139.9164,-104.6987 120.7779,-82.0054"/>
<polygon fill="#000000" stroke="#000000" points="123.2127,-79.4634 114.0902,-74.0754 117.8616,-83.9763 123.2127,-79.4634"/>
<text text-anchor="middle" x="182.5158" y="-128.5489" font-family="Times,serif" font-size="14.00" fill="#000000">runs</text>
</g>
<!-- advantages -->
<g id="node7" class="node">
<title>advantages</title>
<ellipse fill="none" stroke="#0000ff" cx="324.4632" cy="-53.1744" rx="113.0937" ry="53.3494"/>
<text text-anchor="middle" x="324.4632" y="-74.1744" font-family="Times,serif" font-size="14.00" fill="#000000">Zygisk Advantages</text>
<text text-anchor="middle" x="324.4632" y="-57.3744" font-family="Times,serif" font-size="14.00" fill="#000000">&#45; Improved Compatibility</text>
<text text-anchor="middle" x="324.4632" y="-40.5744" font-family="Times,serif" font-size="14.00" fill="#000000">&#45; Enhanced Security</text>
<text text-anchor="middle" x="324.4632" y="-23.7744" font-family="Times,serif" font-size="14.00" fill="#000000">&#45; Better Performance</text>
</g>
<!-- zygisk&#45;&gt;advantages -->
<g id="edge6" class="edge">
<title>zygisk&#45;&gt;advantages</title>
<path fill="none" stroke="#000000" d="M235.1995,-159.018C247.13,-144.8715 261.8724,-127.3909 275.9149,-110.7401"/>
<polygon fill="#000000" stroke="#000000" points="278.9654,-112.5519 282.7369,-102.651 273.6143,-108.039 278.9654,-112.5519"/>
</g>
<!-- optimization -->
<g id="node6" class="node">
<title>optimization</title>
<polygon fill="none" stroke="#000000" points="317.0888,-320.1508 103.8376,-320.1508 103.8376,-278.947 317.0888,-278.947 317.0888,-320.1508"/>
<text text-anchor="middle" x="210.4632" y="-303.7489" font-family="Times,serif" font-size="14.00" fill="#000000">Android App Launch Optimization</text>
<text text-anchor="middle" x="210.4632" y="-286.9489" font-family="Times,serif" font-size="14.00" fill="#000000">&#45; Improves performance</text>
</g>
<!-- optimization&#45;&gt;zygisk -->
<g id="edge5" class="edge">
<title>optimization&#45;&gt;zygisk</title>
<path fill="none" stroke="#000000" d="M210.4632,-278.8936C210.4632,-264.6418 210.4632,-245.2387 210.4632,-228.0493"/>
<polygon fill="#000000" stroke="#000000" points="213.9633,-227.6983 210.4632,-217.6983 206.9633,-227.6983 213.9633,-227.6983"/>
<text text-anchor="middle" x="232.621" y="-239.7489" font-family="Times,serif" font-size="14.00" fill="#000000">benefits</text>
</g>
</g>
</svg>
