<?xml version="1.0" encoding="UTF-8" standalone="no"?>
<svg
   width="1313"
   height="512"
   version="1.1"
   id="svg1612"
   xmlns:xlink="http://www.w3.org/1999/xlink"
   xmlns="http://www.w3.org/2000/svg"
   xmlns:svg="http://www.w3.org/2000/svg"
   xmlns:lucid="lucid">
  <defs
     id="defs1616" />
  <g
     lucid:page-tab-id="pNhnGMpu1V~w"
     id="g1610"
     transform="translate(-14,-11.5)">
    <path
       d="m 80,77.5 c 0,16.57 -13.43,30 -30,30 -16.57,0 -30,-13.43 -30,-30 0,-16.57 13.43,-30 30,-30 16.57,0 30,13.43 30,30 z"
       stroke="#a5a5a5"
       stroke-width="2"
       fill="#f6edc5"
       id="path1070" />
    <use
       xlink:href="#a"
       transform="translate(31.025,123.9)"
       id="use1072" />
    <path
       d="m 82,77.5 h 58.5"
       stroke="#6c7777"
       stroke-width="2"
       fill="none"
       id="path1074" />
    <path
       d="m 82.03,78.5 h -1.1 L 81,77.52 80.97,76.5 h 1.06 z"
       stroke="#6c7777"
       stroke-width="0.05"
       fill="#6c7777"
       id="path1076" />
    <path
       d="M 155.76,77.5 141.5,82.14 V 72.86 Z"
       stroke="#6c7777"
       stroke-width="2"
       fill="#6c7777"
       id="path1078" />
    <path
       d="m 160,17.5 h 160 v 120 H 160 Z"
       stroke="#a5a5a5"
       stroke-width="2"
       fill="#f6edc5"
       id="path1080" />
    <use
       xlink:href="#b"
       transform="translate(185.58,80.65)"
       id="use1082" />
    <use
       xlink:href="#c"
       transform="translate(230.58,80.65)"
       id="use1084" />
    <path
       d="m 322,77.5 h 58.5"
       stroke="#6c7777"
       stroke-width="2"
       fill="none"
       id="path1086" />
    <path
       d="M 322.03,78.5 H 321 v -2 h 1.03 z"
       stroke="#6c7777"
       stroke-width="0.05"
       fill="#6c7777"
       id="path1088" />
    <path
       d="M 395.76,77.5 381.5,82.14 V 72.86 Z"
       stroke="#6c7777"
       stroke-width="2"
       fill="#6c7777"
       id="path1090" />
    <path
       d="m 400,17.5 h 160 v 120 H 400 Z"
       stroke="#a5a5a5"
       stroke-width="2"
       fill="#f6edc5"
       id="path1092" />
    <use
       xlink:href="#d"
       transform="translate(415.58,80.65)"
       id="use1094" />
    <use
       xlink:href="#e"
       transform="translate(488.53,80.65)"
       id="use1096" />
    <use
       xlink:href="#f"
       transform="translate(508.53,80.65)"
       id="use1098" />
    <path
       d="m 562,77.5 h 58.5"
       stroke="#6c7777"
       stroke-width="2"
       fill="none"
       id="path1100" />
    <path
       d="M 562.03,78.5 H 561 v -2 h 1.03 z"
       stroke="#6c7777"
       stroke-width="0.05"
       fill="#6c7777"
       id="path1102" />
    <path
       d="M 635.76,77.5 621.5,82.14 V 72.86 Z"
       stroke="#6c7777"
       stroke-width="2"
       fill="#6c7777"
       id="path1104" />
    <path
       d="m 640,17.5 h 160 v 120 H 640 Z"
       stroke="#a5a5a5"
       stroke-width="2"
       fill="#f6edc5"
       id="path1106" />
    <use
       xlink:href="#g"
       transform="translate(647.13,80.65)"
       id="use1108" />
    <use
       xlink:href="#h"
       transform="translate(729.03,80.65)"
       id="use1110" />
    <use
       xlink:href="#i"
       transform="translate(769.98,80.65)"
       id="use1112" />
    <path
       d="m 802,77.5 h 58.5"
       stroke="#6c7777"
       stroke-width="2"
       fill="none"
       id="path1114" />
    <path
       d="M 802.03,78.5 H 801 v -2 h 1.03 z"
       stroke="#6c7777"
       stroke-width="0.05"
       fill="#6c7777"
       id="path1116" />
    <path
       d="M 875.76,77.5 861.5,82.14 V 72.86 Z"
       stroke="#6c7777"
       stroke-width="2"
       fill="#6c7777"
       id="path1118" />
    <path
       d="m 880,17.5 h 160 v 120 H 880 Z"
       stroke="#a5a5a5"
       stroke-width="2"
       fill="#f6edc5"
       id="path1120" />
    <use
       xlink:href="#b"
       transform="translate(905.58,80.65)"
       id="use1122" />
    <use
       xlink:href="#h"
       transform="translate(950.58,80.65)"
       id="use1124" />
    <use
       xlink:href="#i"
       transform="translate(991.53,80.65)"
       id="use1126" />
    <path
       d="m 160,217.5 h 160 v 120 H 160 Z"
       stroke="#a5a5a5"
       stroke-width="2"
       fill="#f6edc5"
       id="path1128" />
    <use
       xlink:href="#j"
       transform="translate(180.555,269.4)"
       id="use1130" />
    <use
       xlink:href="#k"
       transform="translate(223.555,269.4)"
       id="use1132" />
    <use
       xlink:href="#l"
       transform="translate(263.555,269.4)"
       id="use1134" />
    <use
       xlink:href="#m"
       transform="translate(205.08,291)"
       id="use1136" />
    <use
       xlink:href="#n"
       transform="translate(246.03,291)"
       id="use1138" />
    <path
       d="m 322,277.5 h 58.5"
       stroke="#6c7777"
       stroke-width="2"
       fill="none"
       id="path1140" />
    <path
       d="M 322.03,278.5 H 321 v -2 h 1.03 z"
       stroke="#6c7777"
       stroke-width="0.05"
       fill="#6c7777"
       id="path1142" />
    <path
       d="m 395.76,277.5 -14.26,4.63 v -9.26 z"
       stroke="#6c7777"
       stroke-width="2"
       fill="#6c7777"
       id="path1144" />
    <path
       d="m 400,217.5 h 160 v 120 H 400 Z"
       stroke="#a5a5a5"
       stroke-width="2"
       fill="#f6edc5"
       id="path1146" />
    <use
       xlink:href="#o"
       transform="translate(422.555,269.4)"
       id="use1148" />
    <use
       xlink:href="#k"
       transform="translate(468.505,269.4)"
       id="use1150" />
    <use
       xlink:href="#p"
       transform="translate(508.505,269.4)"
       id="use1152" />
    <use
       xlink:href="#q"
       transform="translate(443.53,291)"
       id="use1154" />
    <path
       d="m 1042,77.5 h 58.5"
       stroke="#6c7777"
       stroke-width="2"
       fill="none"
       id="path1156" />
    <path
       d="M 1042.03,78.5 H 1041 v -2 h 1.03 z"
       stroke="#6c7777"
       stroke-width="0.05"
       fill="#6c7777"
       id="path1158" />
    <path
       d="m 1115.76,77.5 -14.26,4.64 v -9.28 z"
       stroke="#6c7777"
       stroke-width="2"
       fill="#6c7777"
       id="path1160" />
    <path
       d="m 1120,17.5 h 160 v 120 h -160 z"
       stroke="#a5a5a5"
       stroke-width="2"
       fill="#f6edc5"
       id="path1162" />
    <use
       xlink:href="#r"
       transform="translate(1135.08,80.65)"
       id="use1164" />
    <use
       xlink:href="#s"
       transform="translate(1174.98,80.65)"
       id="use1166" />
    <use
       xlink:href="#t"
       transform="translate(1214.93,80.65)"
       id="use1168" />
    <path
       d="m 562,277.5 h 58.5"
       stroke="#6c7777"
       stroke-width="2"
       fill="none"
       id="path1170" />
    <path
       d="M 562.03,278.5 H 561 v -2 h 1.03 z"
       stroke="#6c7777"
       stroke-width="0.05"
       fill="#6c7777"
       id="path1172" />
    <path
       d="m 635.76,277.5 -14.26,4.63 v -9.26 z"
       stroke="#6c7777"
       stroke-width="2"
       fill="#6c7777"
       id="path1174" />
    <path
       d="m 640,217.5 h 160 v 120 H 640 Z"
       stroke="#a5a5a5"
       stroke-width="2"
       fill="#f6edc5"
       id="path1176" />
    <use
       xlink:href="#r"
       transform="translate(673.605,280.65)"
       id="use1178" />
    <use
       xlink:href="#u"
       transform="translate(713.505,280.65)"
       id="use1180" />
    <path
       d="m 802,277.5 h 58.08"
       stroke="#6c7777"
       stroke-width="2"
       fill="none"
       id="path1182" />
    <path
       d="M 802.03,278.5 H 801 v -2 h 1.03 z"
       stroke="#6c7777"
       stroke-width="0.05"
       fill="#6c7777"
       id="path1184" />
    <path
       d="m 875.35,277.5 -14.27,4.63 v -9.26 z"
       stroke="#6c7777"
       stroke-width="2"
       fill="#6c7777"
       id="path1186" />
    <path
       d="M 880,277.5 917.5,240 955,277.5 917.5,315 Z"
       stroke="#a5a5a5"
       stroke-width="2"
       fill="#f6edc5"
       id="path1188" />
    <path
       d="m 902.5,262.5 30,30 m -30,0 30,-30"
       stroke="#a5a5a5"
       stroke-width="2"
       fill="none"
       id="path1190" />
    <use
       xlink:href="#v"
       transform="translate(897.05,329.4)"
       id="use1192" />
    <use
       xlink:href="#w"
       transform="translate(895,351)"
       id="use1194" />
    <path
       d="M 620.04,357.25 H 120 v 99.25 h 20.5 v 2 H 118 V 355.25 h 502.04 z m 377.37,0 H 640.05 v -2 H 995.4 V 278.5 h -38 v -2 h 40 z"
       stroke="#6c7777"
       stroke-width="0.05"
       fill="#6c7777"
       id="path1196" />
    <path
       d="m 957.44,278.5 h -2.03 l 1,-1 -1,-1 h 2.04 z"
       fill="#6c7777"
       id="path1198" />
    <path
       d="m 957.47,278.52 h -2.12 l 1.03,-1.02 -1.03,-1.02 h 2.12 z m -2,-2 0.98,0.98 -0.98,0.98 h 1.94 v -1.96 z"
       stroke="#6c7777"
       stroke-width="0.05"
       fill="#6c7777"
       id="path1200" />
    <path
       d="m 155.76,457.5 -14.26,4.63 v -9.26 z"
       fill="#6c7777"
       id="path1202" />
    <path
       d="m 159,457.5 -18.5,6 v -12 z m -16.5,3.26 10.03,-3.26 -10.03,-3.26 z"
       stroke="#6c7777"
       stroke-width="0.05"
       fill="#6c7777"
       id="path1204" />
    <use
       xlink:href="#x"
       transform="translate(620.04546,359.85)"
       id="use1206" />
    <path
       d="m 160,397.5 h 160 v 120 H 160 Z"
       stroke="#a5a5a5"
       stroke-width="2"
       fill="#f6edc5"
       id="path1208" />
    <use
       xlink:href="#y"
       transform="translate(197.58,460.65)"
       id="use1210" />
    <use
       xlink:href="#z"
       transform="translate(238.53,460.65)"
       id="use1212" />
    <path
       d="M 1322,158.5 H 120 v 118 h 20.5 v 2 H 118 v -122 h 1202 v -78 h -38 v -2 h 40 z"
       stroke="#6c7777"
       stroke-width="0.05"
       fill="#6c7777"
       id="path1214" />
    <path
       d="M 1282.03,78.5 H 1281 v -2 h 1.03 z"
       fill="#6c7777"
       id="path1216" />
    <path
       d="m 1282.05,78.53 h -1.08 v -2.06 h 1.08 z m -1.02,-2 v 1.94 h 0.97 v -1.94 z"
       stroke="#6c7777"
       stroke-width="0.05"
       fill="#6c7777"
       id="path1218" />
    <path
       d="m 155.76,277.5 -14.26,4.63 v -9.26 z"
       fill="#6c7777"
       id="path1220" />
    <path
       d="m 159,277.5 -18.5,6 v -12 z m -16.5,3.26 10.03,-3.26 -10.03,-3.26 z m 776,-43.16 h -2 v -60.1 h -27.96 v -2 H 918.5 Z M 860.54,177.5 H 241 V 198 h -2 v -22.5 h 621.54 z"
       stroke="#6c7777"
       stroke-width="0.05"
       fill="#6c7777"
       id="path1222" />
    <path
       d="m 918.5,239.6 -1,-1 -1,1 v -2.04 h 2 z"
       fill="#6c7777"
       id="path1224" />
    <path
       d="m 918.52,239.65 -1.02,-1.03 -1.02,1.03 v -2.12 h 2.04 z m -2,-2.06 v 1.93 l 0.98,-0.98 0.98,0.97 v -1.94 z"
       stroke="#6c7777"
       stroke-width="0.05"
       fill="#6c7777"
       id="path1226" />
    <path
       d="M 240,213.26 235.37,199 h 9.26 z"
       fill="#6c7777"
       id="path1228" />
    <path
       d="M 240,216.5 234,198 h 12 z M 236.74,200 240,210.03 243.26,200 Z"
       stroke="#6c7777"
       stroke-width="0.05"
       fill="#6c7777"
       id="path1230" />
    <g
       id="g1234">
      <use
         xlink:href="#A"
         transform="translate(860.53865,180.1)"
         id="use1232" />
    </g>
    <path
       d="m 322,457.5 h 58.5"
       stroke="#6c7777"
       stroke-width="2"
       fill="none"
       id="path1236" />
    <path
       d="M 322.03,458.5 H 321 v -2 h 1.03 z"
       stroke="#6c7777"
       stroke-width="0.05"
       fill="#6c7777"
       id="path1238" />
    <path
       d="m 395.76,457.5 -14.26,4.63 v -9.26 z"
       stroke="#6c7777"
       stroke-width="2"
       fill="#6c7777"
       id="path1240" />
    <path
       d="m 400,397.5 h 160 v 120 H 400 Z"
       stroke="#a5a5a5"
       stroke-width="2"
       fill="#f6edc5"
       id="path1242" />
    <g
       id="g1248">
      <use
         xlink:href="#B"
         transform="translate(418.605,460.65)"
         id="use1244" />
      <use
         xlink:href="#C"
         transform="translate(465.555,460.65)"
         id="use1246" />
    </g>
    <path
       d="M 562,457.5 H 671.5"
       stroke="#6c7777"
       stroke-width="2"
       fill="none"
       id="path1250" />
    <path
       d="M 562.03,458.5 H 561 v -2 h 1.03 z"
       stroke="#6c7777"
       stroke-width="0.05"
       fill="#6c7777"
       id="path1252" />
    <path
       d="m 686.76,457.5 -14.26,4.63 v -9.26 z"
       stroke="#6c7777"
       stroke-width="2"
       fill="#6c7777"
       id="path1254" />
    <path
       d="m 750,457.5 c 0,16.57 -13.43,30 -30,30 -16.57,0 -30,-13.43 -30,-30 0,-16.57 13.43,-30 30,-30 16.57,0 30,13.43 30,30 z"
       stroke="#a5a5a5"
       stroke-width="6"
       fill="#f6edc5"
       id="path1256" />
    <g
       id="g1260">
      <use
         xlink:href="#D"
         transform="translate(705,503.9)"
         id="use1258" />
    </g>
    <defs
       id="defs1608">
      <path
         fill="#6c7878"
         d="m 185,-189 c -5,-48 -123,-54 -124,2 14,75 158,14 163,119 C 227,10 103,19 49,-13 32,-23 21,-39 16,-59 l 33,-7 c 5,56 141,63 141,-1 0,-78 -155,-14 -162,-118 -5,-82 145,-84 179,-34 5,7 8,16 11,25"
         id="E" />
      <path
         fill="#6c7878"
         d="m 59,-47 c -2,24 18,29 38,22 V -1 C 64,9 27,4 27,-40 V -167 H 5 v -23 h 24 l 9,-43 h 21 v 43 h 35 v 23 H 59 v 120"
         id="F" />
      <path
         fill="#6c7878"
         d="M 141,-36 C 126,-15 110,5 73,4 37,3 15,-17 15,-53 c -1,-64 63,-63 125,-63 3,-35 -9,-54 -41,-54 -24,1 -41,7 -42,31 l -33,-3 c 5,-37 33,-52 76,-52 45,0 72,20 72,64 v 82 c -1,20 7,32 28,27 V -1 C 169,8 139,-3 141,-36 Z M 48,-53 c 0,20 12,33 32,33 41,-3 63,-29 60,-74 -43,2 -92,-5 -92,41"
         id="G" />
      <path
         fill="#6c7878"
         d="M 114,-163 C 36,-179 61,-72 57,0 H 25 l -1,-190 h 30 c 1,12 -1,29 2,39 6,-27 23,-49 58,-41 v 29"
         id="H" />
      <g
         id="a">
        <use
           transform="scale(0.05)"
           xlink:href="#E"
           id="use1266" />
        <use
           transform="matrix(0.05,0,0,0.05,12,0)"
           xlink:href="#F"
           id="use1268" />
        <use
           transform="matrix(0.05,0,0,0.05,17,0)"
           xlink:href="#G"
           id="use1270" />
        <use
           transform="matrix(0.05,0,0,0.05,27,0)"
           xlink:href="#H"
           id="use1272" />
        <use
           transform="matrix(0.05,0,0,0.05,32.95,0)"
           xlink:href="#F"
           id="use1274" />
      </g>
      <path
         fill="#6c7878"
         d="m 100,-194 c 62,-1 85,37 85,99 1,63 -27,99 -86,99 -59,0 -83,-39 -84,-99 0,-66 28,-99 85,-99 z m -1,174 c 44,1 53,-31 53,-75 0,-43 -8,-75 -51,-75 -43,0 -53,32 -53,75 0,43 10,74 51,75"
         id="I" />
      <path
         fill="#6c7878"
         d="m 115,-194 c 55,1 70,41 70,98 C 185,-39 169,2 115,4 84,4 66,-9 55,-30 L 56,75 H 24 l -1,-265 h 31 l 2,30 c 10,-21 28,-34 59,-34 z m -8,174 c 40,0 45,-34 45,-75 0,-41 -6,-73 -45,-74 -42,0 -51,32 -51,76 0,43 10,73 51,73"
         id="J" />
      <path
         fill="#6c7878"
         d="m 100,-194 c 63,0 86,42 84,106 H 49 c 0,40 14,67 53,68 26,1 43,-12 49,-29 l 28,8 C 168,-13 142,4 102,4 44,4 14,-33 15,-96 c 1,-61 26,-98 85,-98 z m 52,81 c 6,-60 -76,-77 -97,-28 -3,7 -6,17 -6,28 h 103"
         id="K" />
      <path
         fill="#6c7878"
         d="m 117,-194 c 89,-4 53,116 60,194 h -32 v -121 c 0,-31 -8,-49 -39,-48 C 34,-167 62,-67 57,0 H 25 l -1,-190 h 30 c 1,10 -1,24 2,32 11,-22 29,-35 61,-36"
         id="L" />
      <g
         id="b">
        <use
           transform="scale(0.05)"
           xlink:href="#I"
           id="use1281" />
        <use
           transform="matrix(0.05,0,0,0.05,10,0)"
           xlink:href="#J"
           id="use1283" />
        <use
           transform="matrix(0.05,0,0,0.05,20,0)"
           xlink:href="#K"
           id="use1285" />
        <use
           transform="matrix(0.05,0,0,0.05,30,0)"
           xlink:href="#L"
           id="use1287" />
      </g>
      <path
         fill="#6c7878"
         d="m 115,-194 c 53,0 69,39 70,98 C 185,-30 162,4 115,4 84,3 66,-7 56,-30 L 54,0 H 23 l 1,-261 h 32 v 101 c 10,-23 28,-34 59,-34 z m -8,174 c 40,0 45,-34 45,-75 0,-40 -5,-75 -45,-74 -42,0 -51,32 -51,76 0,43 10,73 51,73"
         id="M" />
      <path
         fill="#6c7878"
         d="M 206,0 H 170 L 130,-164 89,0 H 53 L -1,-190 h 32 l 39,164 43,-164 h 34 l 41,164 42,-164 h 31"
         id="N" />
      <path
         fill="#6c7878"
         d="m 135,-143 c -3,-34 -86,-38 -87,0 15,53 115,12 119,90 4,78 -150,74 -157,8 l 28,-5 c 4,36 97,45 98,0 -10,-56 -113,-15 -118,-90 -4,-57 82,-63 122,-42 12,7 21,19 24,35"
         id="O" />
      <g
         id="c">
        <use
           transform="scale(0.05)"
           xlink:href="#M"
           id="use1293" />
        <use
           transform="matrix(0.05,0,0,0.05,10,0)"
           xlink:href="#H"
           id="use1295" />
        <use
           transform="matrix(0.05,0,0,0.05,15.95,0)"
           xlink:href="#I"
           id="use1297" />
        <use
           transform="matrix(0.05,0,0,0.05,25.95,0)"
           xlink:href="#N"
           id="use1299" />
        <use
           transform="matrix(0.05,0,0,0.05,38.9,0)"
           xlink:href="#O"
           id="use1301" />
        <use
           transform="matrix(0.05,0,0,0.05,47.9,0)"
           xlink:href="#K"
           id="use1303" />
        <use
           transform="matrix(0.05,0,0,0.05,57.9,0)"
           xlink:href="#H"
           id="use1305" />
      </g>
      <path
         fill="#6c7878"
         d="M 108,0 H 70 L 1,-190 h 34 l 54,165 56,-165 h 34"
         id="P" />
      <path
         fill="#6c7878"
         d="m 24,-231 v -30 h 32 v 30 z M 24,0 V -190 H 56 V 0 H 24"
         id="Q" />
      <path
         fill="#6c7878"
         d="M 177,-190 C 167,-65 218,103 67,71 44,65 29,51 23,28 L 55,23 C 70,70 155,55 144,-5 V -35 C 133,-14 115,1 83,1 29,1 15,-40 15,-95 c 0,-56 16,-97 71,-98 29,-1 48,16 59,35 1,-10 0,-23 2,-32 z M 94,-22 c 36,0 50,-32 50,-73 0,-42 -14,-75 -50,-75 -39,0 -46,34 -46,75 0,41 6,73 46,73"
         id="R" />
      <g
         id="d">
        <use
           transform="scale(0.05)"
           xlink:href="#L"
           id="use1311" />
        <use
           transform="matrix(0.05,0,0,0.05,10,0)"
           xlink:href="#G"
           id="use1313" />
        <use
           transform="matrix(0.05,0,0,0.05,20,0)"
           xlink:href="#P"
           id="use1315" />
        <use
           transform="matrix(0.05,0,0,0.05,29,0)"
           xlink:href="#Q"
           id="use1317" />
        <use
           transform="matrix(0.05,0,0,0.05,32.95,0)"
           xlink:href="#R"
           id="use1319" />
        <use
           transform="matrix(0.05,0,0,0.05,42.95,0)"
           xlink:href="#G"
           id="use1321" />
        <use
           transform="matrix(0.05,0,0,0.05,52.95,0)"
           xlink:href="#F"
           id="use1323" />
        <use
           transform="matrix(0.05,0,0,0.05,57.95,0)"
           xlink:href="#K"
           id="use1325" />
      </g>
      <g
         id="e">
        <use
           transform="scale(0.05)"
           xlink:href="#F"
           id="use1328" />
        <use
           transform="matrix(0.05,0,0,0.05,5,0)"
           xlink:href="#I"
           id="use1330" />
      </g>
      <path
         fill="#6c7878"
         d="M 232,-93 C 231,-28 192,4 128,4 67,4 28,-28 28,-90 v -158 h 33 c 8,89 -33,224 67,224 102,0 64,-133 71,-224 h 33 v 155"
         id="S" />
      <path
         fill="#6c7878"
         d="m 233,-177 c -1,41 -23,64 -60,70 L 243,0 H 205 L 140,-103 H 63 V 0 H 30 v -248 c 88,3 205,-21 203,71 z m -170,48 c 60,-2 137,13 137,-47 0,-61 -80,-42 -137,-45 v 92"
         id="T" />
      <path
         fill="#6c7878"
         d="M 30,0 V -248 H 63 V -27 H 188 V 0 H 30"
         id="U" />
      <g
         id="f">
        <use
           transform="scale(0.05)"
           xlink:href="#S"
           id="use1336" />
        <use
           transform="matrix(0.05,0,0,0.05,12.95,0)"
           xlink:href="#T"
           id="use1338" />
        <use
           transform="matrix(0.05,0,0,0.05,25.9,0)"
           xlink:href="#U"
           id="use1340" />
      </g>
      <path
         fill="#6c7878"
         d="m 85,-194 c 31,0 48,13 60,33 l -1,-100 h 32 l 1,261 h -30 c -2,-10 0,-23 -3,-31 C 134,-8 116,4 85,4 32,4 16,-35 15,-94 c 0,-66 23,-100 70,-100 z m 9,24 c -40,0 -46,34 -46,75 0,40 6,74 45,74 42,0 51,-32 51,-76 0,-42 -9,-74 -50,-73"
         id="V" />
      <path
         fill="#6c7878"
         d="M 24,0 V -261 H 56 V 0 H 24"
         id="W" />
      <g
         id="g">
        <use
           transform="scale(0.05)"
           xlink:href="#V"
           id="use1345" />
        <use
           transform="matrix(0.05,0,0,0.05,10,0)"
           xlink:href="#I"
           id="use1347" />
        <use
           transform="matrix(0.05,0,0,0.05,20,0)"
           xlink:href="#N"
           id="use1349" />
        <use
           transform="matrix(0.05,0,0,0.05,32.95,0)"
           xlink:href="#L"
           id="use1351" />
        <use
           transform="matrix(0.05,0,0,0.05,42.95,0)"
           xlink:href="#W"
           id="use1353" />
        <use
           transform="matrix(0.05,0,0,0.05,46.9,0)"
           xlink:href="#I"
           id="use1355" />
        <use
           transform="matrix(0.05,0,0,0.05,56.9,0)"
           xlink:href="#G"
           id="use1357" />
        <use
           transform="matrix(0.05,0,0,0.05,66.9,0)"
           xlink:href="#V"
           id="use1359" />
      </g>
      <path
         fill="#6c7878"
         d="M 33,0 V -38 H 67 V 0 H 33"
         id="X" />
      <path
         fill="#6c7878"
         d="M 141,0 90,-78 38,0 H 4 L 72,-98 7,-190 h 35 l 48,74 47,-74 h 35 l -64,92 68,98 h -35"
         id="Y" />
      <g
         id="h">
        <use
           transform="scale(0.05)"
           xlink:href="#X"
           id="use1364" />
        <use
           transform="matrix(0.05,0,0,0.05,5,0)"
           xlink:href="#Y"
           id="use1366" />
        <use
           transform="matrix(0.05,0,0,0.05,14,0)"
           xlink:href="#W"
           id="use1368" />
        <use
           transform="matrix(0.05,0,0,0.05,17.95,0)"
           xlink:href="#O"
           id="use1370" />
        <use
           transform="matrix(0.05,0,0,0.05,26.95,0)"
           xlink:href="#Y"
           id="use1372" />
      </g>
      <path
         fill="#6c7878"
         d="m 101,-234 c -31,-9 -42,10 -38,44 h 38 v 23 H 63 V 0 H 32 V -167 H 5 v -23 h 27 c -7,-52 17,-82 69,-68 v 24"
         id="Z" />
      <g
         id="i">
        <use
           transform="scale(0.05)"
           xlink:href="#Z"
           id="use1376" />
        <use
           transform="matrix(0.05,0,0,0.05,5,0)"
           xlink:href="#Q"
           id="use1378" />
        <use
           transform="matrix(0.05,0,0,0.05,8.95,0)"
           xlink:href="#W"
           id="use1380" />
        <use
           transform="matrix(0.05,0,0,0.05,12.9,0)"
           xlink:href="#K"
           id="use1382" />
      </g>
      <path
         fill="#6c7878"
         d="m 96,-169 c -40,0 -48,33 -48,73 0,40 9,75 48,75 24,0 41,-14 43,-38 l 32,2 C 165,-20 140,4 97,4 38,4 21,-37 15,-95 c -10,-93 101,-131 147,-64 4,7 5,14 7,22 l -32,3 c -4,-21 -16,-35 -41,-35"
         id="aa" />
      <path
         fill="#6c7878"
         d="M 179,-190 93,31 C 79,59 56,82 12,73 V 49 C 51,55 65,29 76,-1 L 1,-190 h 34 l 57,156 54,-156 h 33"
         id="ab" />
      <g
         id="j">
        <use
           transform="scale(0.05)"
           xlink:href="#aa"
           id="use1387" />
        <use
           transform="matrix(0.05,0,0,0.05,9,0)"
           xlink:href="#I"
           id="use1389" />
        <use
           transform="matrix(0.05,0,0,0.05,19,0)"
           xlink:href="#J"
           id="use1391" />
        <use
           transform="matrix(0.05,0,0,0.05,29,0)"
           xlink:href="#ab"
           id="use1393" />
      </g>
      <g
         id="k">
        <use
           transform="scale(0.05)"
           xlink:href="#V"
           id="use1396" />
        <use
           transform="matrix(0.05,0,0,0.05,10,0)"
           xlink:href="#G"
           id="use1398" />
        <use
           transform="matrix(0.05,0,0,0.05,20,0)"
           xlink:href="#F"
           id="use1400" />
        <use
           transform="matrix(0.05,0,0,0.05,25,0)"
           xlink:href="#G"
           id="use1402" />
      </g>
      <path
         fill="#6c7878"
         d="m 210,-169 c -67,3 -38,105 -44,169 h -31 v -121 c 0,-29 -5,-50 -35,-48 C 34,-165 62,-65 56,0 H 25 l -1,-190 h 30 c 1,10 -1,24 2,32 10,-44 99,-50 107,0 11,-21 27,-35 58,-36 85,-2 47,119 55,194 h -31 v -121 c 0,-29 -5,-49 -35,-48"
         id="ac" />
      <g
         id="l">
        <use
           transform="scale(0.05)"
           xlink:href="#Z"
           id="use1406" />
        <use
           transform="matrix(0.05,0,0,0.05,5,0)"
           xlink:href="#H"
           id="use1408" />
        <use
           transform="matrix(0.05,0,0,0.05,10.95,0)"
           xlink:href="#I"
           id="use1410" />
        <use
           transform="matrix(0.05,0,0,0.05,20.95,0)"
           xlink:href="#ac"
           id="use1412" />
      </g>
      <g
         id="m">
        <use
           transform="scale(0.05)"
           xlink:href="#X"
           id="use1415" />
        <use
           transform="matrix(0.05,0,0,0.05,5,0)"
           xlink:href="#Y"
           id="use1417" />
        <use
           transform="matrix(0.05,0,0,0.05,14,0)"
           xlink:href="#O"
           id="use1419" />
        <use
           transform="matrix(0.05,0,0,0.05,23,0)"
           xlink:href="#W"
           id="use1421" />
        <use
           transform="matrix(0.05,0,0,0.05,26.95,0)"
           xlink:href="#Y"
           id="use1423" />
      </g>
      <g
         id="n">
        <use
           transform="scale(0.05)"
           xlink:href="#H"
           id="use1426" />
        <use
           transform="matrix(0.05,0,0,0.05,5.95,0)"
           xlink:href="#I"
           id="use1428" />
        <use
           transform="matrix(0.05,0,0,0.05,15.95,0)"
           xlink:href="#N"
           id="use1430" />
      </g>
      <g
         id="o">
        <use
           transform="scale(0.05)"
           xlink:href="#K"
           id="use1433" />
        <use
           transform="matrix(0.05,0,0,0.05,10,0)"
           xlink:href="#L"
           id="use1435" />
        <use
           transform="matrix(0.05,0,0,0.05,20,0)"
           xlink:href="#F"
           id="use1437" />
        <use
           transform="matrix(0.05,0,0,0.05,25,0)"
           xlink:href="#K"
           id="use1439" />
        <use
           transform="matrix(0.05,0,0,0.05,35,0)"
           xlink:href="#H"
           id="use1441" />
      </g>
      <g
         id="p">
        <use
           transform="scale(0.05)"
           xlink:href="#Q"
           id="use1444" />
        <use
           transform="matrix(0.05,0,0,0.05,3.95,0)"
           xlink:href="#L"
           id="use1446" />
        <use
           transform="matrix(0.05,0,0,0.05,13.95,0)"
           xlink:href="#F"
           id="use1448" />
        <use
           transform="matrix(0.05,0,0,0.05,18.95,0)"
           xlink:href="#I"
           id="use1450" />
      </g>
      <g
         id="q">
        <use
           transform="scale(0.05)"
           xlink:href="#N"
           id="use1453" />
        <use
           transform="matrix(0.05,0,0,0.05,12.95,0)"
           xlink:href="#K"
           id="use1455" />
        <use
           transform="matrix(0.05,0,0,0.05,22.95,0)"
           xlink:href="#M"
           id="use1457" />
        <use
           transform="matrix(0.05,0,0,0.05,32.95,0)"
           xlink:href="#J"
           id="use1459" />
        <use
           transform="matrix(0.05,0,0,0.05,42.95,0)"
           xlink:href="#G"
           id="use1461" />
        <use
           transform="matrix(0.05,0,0,0.05,52.95,0)"
           xlink:href="#R"
           id="use1463" />
        <use
           transform="matrix(0.05,0,0,0.05,62.95,0)"
           xlink:href="#K"
           id="use1465" />
      </g>
      <path
         fill="#6c7878"
         d="M 143,0 79,-87 56,-68 V 0 H 24 v -261 h 32 v 163 l 83,-92 h 37 l -77,82 82,108 h -38"
         id="ad" />
      <g
         id="r">
        <use
           transform="scale(0.05)"
           xlink:href="#aa"
           id="use1469" />
        <use
           transform="matrix(0.05,0,0,0.05,9,0)"
           xlink:href="#W"
           id="use1471" />
        <use
           transform="matrix(0.05,0,0,0.05,12.95,0)"
           xlink:href="#Q"
           id="use1473" />
        <use
           transform="matrix(0.05,0,0,0.05,16.9,0)"
           xlink:href="#aa"
           id="use1475" />
        <use
           transform="matrix(0.05,0,0,0.05,25.9,0)"
           xlink:href="#ad"
           id="use1477" />
      </g>
      <g
         id="s">
        <use
           transform="scale(0.05)"
           xlink:href="#O"
           id="use1480" />
        <use
           transform="matrix(0.05,0,0,0.05,9,0)"
           xlink:href="#F"
           id="use1482" />
        <use
           transform="matrix(0.05,0,0,0.05,14,0)"
           xlink:href="#G"
           id="use1484" />
        <use
           transform="matrix(0.05,0,0,0.05,24,0)"
           xlink:href="#H"
           id="use1486" />
        <use
           transform="matrix(0.05,0,0,0.05,29.95,0)"
           xlink:href="#F"
           id="use1488" />
      </g>
      <path
         fill="#6c7878"
         d="M 84,4 C -5,8 30,-112 23,-190 h 32 v 120 c 0,31 7,50 39,49 72,-2 45,-101 50,-169 h 31 l 1,190 h -30 c -1,-10 1,-25 -2,-33 -11,22 -28,36 -60,37"
         id="ae" />
      <g
         id="t">
        <use
           transform="scale(0.05)"
           xlink:href="#M"
           id="use1492" />
        <use
           transform="matrix(0.05,0,0,0.05,10,0)"
           xlink:href="#ae"
           id="use1494" />
        <use
           transform="matrix(0.05,0,0,0.05,20,0)"
           xlink:href="#F"
           id="use1496" />
        <use
           transform="matrix(0.05,0,0,0.05,25,0)"
           xlink:href="#F"
           id="use1498" />
        <use
           transform="matrix(0.05,0,0,0.05,30,0)"
           xlink:href="#I"
           id="use1500" />
        <use
           transform="matrix(0.05,0,0,0.05,40,0)"
           xlink:href="#L"
           id="use1502" />
      </g>
      <g
         id="u">
        <use
           transform="scale(0.05)"
           xlink:href="#O"
           id="use1505" />
        <use
           transform="matrix(0.05,0,0,0.05,9,0)"
           xlink:href="#ae"
           id="use1507" />
        <use
           transform="matrix(0.05,0,0,0.05,19,0)"
           xlink:href="#M"
           id="use1509" />
        <use
           transform="matrix(0.05,0,0,0.05,29,0)"
           xlink:href="#ac"
           id="use1511" />
        <use
           transform="matrix(0.05,0,0,0.05,43.95,0)"
           xlink:href="#Q"
           id="use1513" />
        <use
           transform="matrix(0.05,0,0,0.05,47.9,0)"
           xlink:href="#F"
           id="use1515" />
      </g>
      <g
         id="v">
        <use
           transform="scale(0.05)"
           xlink:href="#ac"
           id="use1518" />
        <use
           transform="matrix(0.05,0,0,0.05,14.95,0)"
           xlink:href="#I"
           id="use1520" />
        <use
           transform="matrix(0.05,0,0,0.05,24.95,0)"
           xlink:href="#H"
           id="use1522" />
        <use
           transform="matrix(0.05,0,0,0.05,30.9,0)"
           xlink:href="#K"
           id="use1524" />
      </g>
      <path
         fill="#6c7878"
         d="m 103,-251 c 84,0 111,97 45,133 -19,10 -37,24 -39,52 H 78 c 0,-63 77,-55 77,-114 0,-30 -21,-42 -52,-43 -32,0 -53,17 -56,46 l -32,-2 c 7,-45 34,-72 88,-72 z M 77,0 v -35 h 34 V 0 H 77"
         id="af" />
      <g
         id="w">
        <use
           transform="scale(0.05)"
           xlink:href="#V"
           id="use1528" />
        <use
           transform="matrix(0.05,0,0,0.05,10,0)"
           xlink:href="#G"
           id="use1530" />
        <use
           transform="matrix(0.05,0,0,0.05,20,0)"
           xlink:href="#F"
           id="use1532" />
        <use
           transform="matrix(0.05,0,0,0.05,25,0)"
           xlink:href="#G"
           id="use1534" />
        <use
           transform="matrix(0.05,0,0,0.05,35,0)"
           xlink:href="#af"
           id="use1536" />
      </g>
      <g
         id="x">
        <use
           transform="scale(0.05)"
           xlink:href="#L"
           id="use1539" />
        <use
           transform="matrix(0.05,0,0,0.05,10,0)"
           xlink:href="#I"
           id="use1541" />
      </g>
      <g
         id="y">
        <use
           transform="scale(0.05)"
           xlink:href="#H"
           id="use1544" />
        <use
           transform="matrix(0.05,0,0,0.05,5.95,0)"
           xlink:href="#K"
           id="use1546" />
        <use
           transform="matrix(0.05,0,0,0.05,15.95,0)"
           xlink:href="#G"
           id="use1548" />
        <use
           transform="matrix(0.05,0,0,0.05,25.95,0)"
           xlink:href="#V"
           id="use1550" />
      </g>
      <g
         id="z">
        <use
           transform="scale(0.05)"
           xlink:href="#H"
           id="use1553" />
        <use
           transform="matrix(0.05,0,0,0.05,5.95,0)"
           xlink:href="#K"
           id="use1555" />
        <use
           transform="matrix(0.05,0,0,0.05,15.95,0)"
           xlink:href="#O"
           id="use1557" />
        <use
           transform="matrix(0.05,0,0,0.05,24.95,0)"
           xlink:href="#ae"
           id="use1559" />
        <use
           transform="matrix(0.05,0,0,0.05,34.95,0)"
           xlink:href="#W"
           id="use1561" />
        <use
           transform="matrix(0.05,0,0,0.05,38.9,0)"
           xlink:href="#F"
           id="use1563" />
      </g>
      <g
         id="A">
        <use
           transform="scale(0.05)"
           xlink:href="#ab"
           id="use1566" />
        <use
           transform="matrix(0.05,0,0,0.05,9,0)"
           xlink:href="#K"
           id="use1568" />
        <use
           transform="matrix(0.05,0,0,0.05,19,0)"
           xlink:href="#O"
           id="use1570" />
      </g>
      <g
         id="B">
        <use
           transform="scale(0.05)"
           xlink:href="#aa"
           id="use1573" />
        <use
           transform="matrix(0.05,0,0,0.05,9,0)"
           xlink:href="#W"
           id="use1575" />
        <use
           transform="matrix(0.05,0,0,0.05,12.95,0)"
           xlink:href="#I"
           id="use1577" />
        <use
           transform="matrix(0.05,0,0,0.05,22.95,0)"
           xlink:href="#O"
           id="use1579" />
        <use
           transform="matrix(0.05,0,0,0.05,31.95,0)"
           xlink:href="#K"
           id="use1581" />
      </g>
      <g
         id="C">
        <use
           transform="scale(0.05)"
           xlink:href="#J"
           id="use1584" />
        <use
           transform="matrix(0.05,0,0,0.05,10,0)"
           xlink:href="#H"
           id="use1586" />
        <use
           transform="matrix(0.05,0,0,0.05,15.95,0)"
           xlink:href="#I"
           id="use1588" />
        <use
           transform="matrix(0.05,0,0,0.05,25.95,0)"
           xlink:href="#R"
           id="use1590" />
        <use
           transform="matrix(0.05,0,0,0.05,35.95,0)"
           xlink:href="#H"
           id="use1592" />
        <use
           transform="matrix(0.05,0,0,0.05,41.9,0)"
           xlink:href="#G"
           id="use1594" />
        <use
           transform="matrix(0.05,0,0,0.05,51.9,0)"
           xlink:href="#ac"
           id="use1596" />
        <use
           transform="matrix(0.05,0,0,0.05,66.85,0)"
           xlink:href="#O"
           id="use1598" />
      </g>
      <g
         id="D">
        <use
           transform="scale(0.05)"
           xlink:href="#K"
           id="use1601" />
        <use
           transform="matrix(0.05,0,0,0.05,10,0)"
           xlink:href="#L"
           id="use1603" />
        <use
           transform="matrix(0.05,0,0,0.05,20,0)"
           xlink:href="#V"
           id="use1605" />
      </g>
    </defs>
  </g>
</svg>
