<?xml version="1.0" encoding="UTF-8" standalone="no"?>
<svg
   width="934"
   height="132"
   version="1.1"
   id="svg422"
   xmlns:xlink="http://www.w3.org/1999/xlink"
   xmlns="http://www.w3.org/2000/svg"
   xmlns:svg="http://www.w3.org/2000/svg">
  <defs
     id="defs426">
    <defs
       id="defs418">
      <path
         fill="#6c7878"
         d="m 135,-143 c -3,-34 -86,-38 -87,0 15,53 115,12 119,90 4,78 -150,74 -157,8 l 28,-5 c 4,36 97,45 98,0 -10,-56 -113,-15 -118,-90 -4,-57 82,-63 122,-42 12,7 21,19 24,35"
         id="k" />
      <path
         fill="#6c7878"
         d="m 59,-47 c -2,24 18,29 38,22 V -1 C 64,9 27,4 27,-40 V -167 H 5 v -23 h 24 l 9,-43 h 21 v 43 h 35 v 23 H 59 v 120"
         id="l" />
      <path
         fill="#6c7878"
         d="M 141,-36 C 126,-15 110,5 73,4 37,3 15,-17 15,-53 c -1,-64 63,-63 125,-63 3,-35 -9,-54 -41,-54 -24,1 -41,7 -42,31 l -33,-3 c 5,-37 33,-52 76,-52 45,0 72,20 72,64 v 82 c -1,20 7,32 28,27 V -1 C 169,8 139,-3 141,-36 Z M 48,-53 c 0,20 12,33 32,33 41,-3 63,-29 60,-74 -43,2 -92,-5 -92,41"
         id="m" />
      <path
         fill="#6c7878"
         d="M 114,-163 C 36,-179 61,-72 57,0 H 25 l -1,-190 h 30 c 1,12 -1,29 2,39 6,-27 23,-49 58,-41 v 29"
         id="n" />
      <g
         id="a">
        <use
           transform="scale(0.05)"
           xlink:href="#k"
           id="use302" />
        <use
           transform="matrix(0.05,0,0,0.05,9,0)"
           xlink:href="#l"
           id="use304" />
        <use
           transform="matrix(0.05,0,0,0.05,14,0)"
           xlink:href="#m"
           id="use306" />
        <use
           transform="matrix(0.05,0,0,0.05,24,0)"
           xlink:href="#n"
           id="use308" />
        <use
           transform="matrix(0.05,0,0,0.05,29.95,0)"
           xlink:href="#l"
           id="use310" />
      </g>
      <path
         fill="#6c7878"
         d="m 100,-194 c 62,-1 85,37 85,99 1,63 -27,99 -86,99 -59,0 -83,-39 -84,-99 0,-66 28,-99 85,-99 z m -1,174 c 44,1 53,-31 53,-75 0,-43 -8,-75 -51,-75 -43,0 -53,32 -53,75 0,43 10,74 51,75"
         id="o" />
      <path
         fill="#6c7878"
         d="m 115,-194 c 55,1 70,41 70,98 C 185,-39 169,2 115,4 84,4 66,-9 55,-30 L 56,75 H 24 l -1,-265 h 31 l 2,30 c 10,-21 28,-34 59,-34 z m -8,174 c 40,0 45,-34 45,-75 0,-41 -6,-73 -45,-74 -42,0 -51,32 -51,76 0,43 10,73 51,73"
         id="p" />
      <path
         fill="#6c7878"
         d="m 100,-194 c 63,0 86,42 84,106 H 49 c 0,40 14,67 53,68 26,1 43,-12 49,-29 l 28,8 C 168,-13 142,4 102,4 44,4 14,-33 15,-96 c 1,-61 26,-98 85,-98 z m 52,81 c 6,-60 -76,-77 -97,-28 -3,7 -6,17 -6,28 h 103"
         id="q" />
      <path
         fill="#6c7878"
         d="m 117,-194 c 89,-4 53,116 60,194 h -32 v -121 c 0,-31 -8,-49 -39,-48 C 34,-167 62,-67 57,0 H 25 l -1,-190 h 30 c 1,10 -1,24 2,32 11,-22 29,-35 61,-36"
         id="r" />
      <g
         id="b">
        <use
           transform="scale(0.05)"
           xlink:href="#o"
           id="use317" />
        <use
           transform="matrix(0.05,0,0,0.05,10,0)"
           xlink:href="#p"
           id="use319" />
        <use
           transform="matrix(0.05,0,0,0.05,20,0)"
           xlink:href="#q"
           id="use321" />
        <use
           transform="matrix(0.05,0,0,0.05,30,0)"
           xlink:href="#r"
           id="use323" />
      </g>
      <path
         fill="#6c7878"
         d="M 33,0 V -38 H 67 V 0 H 33"
         id="s" />
      <path
         fill="#6c7878"
         d="M 141,0 90,-78 38,0 H 4 L 72,-98 7,-190 h 35 l 48,74 47,-74 h 35 l -64,92 68,98 h -35"
         id="t" />
      <path
         fill="#6c7878"
         d="M 24,0 V -261 H 56 V 0 H 24"
         id="u" />
      <g
         id="c">
        <use
           transform="scale(0.05)"
           xlink:href="#s"
           id="use329" />
        <use
           transform="matrix(0.05,0,0,0.05,5,0)"
           xlink:href="#t"
           id="use331" />
        <use
           transform="matrix(0.05,0,0,0.05,14,0)"
           xlink:href="#u"
           id="use333" />
        <use
           transform="matrix(0.05,0,0,0.05,17.95,0)"
           xlink:href="#k"
           id="use335" />
        <use
           transform="matrix(0.05,0,0,0.05,26.95,0)"
           xlink:href="#t"
           id="use337" />
      </g>
      <path
         fill="#6c7878"
         d="m 101,-234 c -31,-9 -42,10 -38,44 h 38 v 23 H 63 V 0 H 32 V -167 H 5 v -23 h 27 c -7,-52 17,-82 69,-68 v 24"
         id="v" />
      <path
         fill="#6c7878"
         d="m 24,-231 v -30 h 32 v 30 z M 24,0 V -190 H 56 V 0 H 24"
         id="w" />
      <g
         id="d">
        <use
           transform="scale(0.05)"
           xlink:href="#v"
           id="use342" />
        <use
           transform="matrix(0.05,0,0,0.05,5,0)"
           xlink:href="#w"
           id="use344" />
        <use
           transform="matrix(0.05,0,0,0.05,8.95,0)"
           xlink:href="#u"
           id="use346" />
        <use
           transform="matrix(0.05,0,0,0.05,12.9,0)"
           xlink:href="#q"
           id="use348" />
      </g>
      <path
         fill="#6c7878"
         d="m 96,-169 c -40,0 -48,33 -48,73 0,40 9,75 48,75 24,0 41,-14 43,-38 l 32,2 C 165,-20 140,4 97,4 38,4 21,-37 15,-95 c -10,-93 101,-131 147,-64 4,7 5,14 7,22 l -32,3 c -4,-21 -16,-35 -41,-35"
         id="x" />
      <path
         fill="#6c7878"
         d="M 143,0 79,-87 56,-68 V 0 H 24 v -261 h 32 v 163 l 83,-92 h 37 l -77,82 82,108 h -38"
         id="y" />
      <g
         id="e">
        <use
           transform="scale(0.05)"
           xlink:href="#x"
           id="use353" />
        <use
           transform="matrix(0.05,0,0,0.05,9,0)"
           xlink:href="#u"
           id="use355" />
        <use
           transform="matrix(0.05,0,0,0.05,12.95,0)"
           xlink:href="#w"
           id="use357" />
        <use
           transform="matrix(0.05,0,0,0.05,16.9,0)"
           xlink:href="#x"
           id="use359" />
        <use
           transform="matrix(0.05,0,0,0.05,25.9,0)"
           xlink:href="#y"
           id="use361" />
      </g>
      <g
         id="f">
        <use
           transform="scale(0.05)"
           xlink:href="#k"
           id="use364" />
        <use
           transform="matrix(0.05,0,0,0.05,9,0)"
           xlink:href="#l"
           id="use366" />
        <use
           transform="matrix(0.05,0,0,0.05,14,0)"
           xlink:href="#m"
           id="use368" />
        <use
           transform="matrix(0.05,0,0,0.05,24,0)"
           xlink:href="#n"
           id="use370" />
        <use
           transform="matrix(0.05,0,0,0.05,29.95,0)"
           xlink:href="#l"
           id="use372" />
      </g>
      <path
         fill="#6c7878"
         d="m 115,-194 c 53,0 69,39 70,98 C 185,-30 162,4 115,4 84,3 66,-7 56,-30 L 54,0 H 23 l 1,-261 h 32 v 101 c 10,-23 28,-34 59,-34 z m -8,174 c 40,0 45,-34 45,-75 0,-40 -5,-75 -45,-74 -42,0 -51,32 -51,76 0,43 10,73 51,73"
         id="z" />
      <path
         fill="#6c7878"
         d="M 84,4 C -5,8 30,-112 23,-190 h 32 v 120 c 0,31 7,50 39,49 72,-2 45,-101 50,-169 h 31 l 1,190 h -30 c -1,-10 1,-25 -2,-33 -11,22 -28,36 -60,37"
         id="A" />
      <g
         id="g">
        <use
           transform="scale(0.05)"
           xlink:href="#z"
           id="use377" />
        <use
           transform="matrix(0.05,0,0,0.05,10,0)"
           xlink:href="#A"
           id="use379" />
        <use
           transform="matrix(0.05,0,0,0.05,20,0)"
           xlink:href="#l"
           id="use381" />
        <use
           transform="matrix(0.05,0,0,0.05,25,0)"
           xlink:href="#l"
           id="use383" />
        <use
           transform="matrix(0.05,0,0,0.05,30,0)"
           xlink:href="#o"
           id="use385" />
        <use
           transform="matrix(0.05,0,0,0.05,40,0)"
           xlink:href="#r"
           id="use387" />
      </g>
      <g
         id="h">
        <use
           transform="scale(0.05)"
           xlink:href="#q"
           id="use390" />
        <use
           transform="matrix(0.05,0,0,0.05,10,0)"
           xlink:href="#r"
           id="use392" />
        <use
           transform="matrix(0.05,0,0,0.05,20,0)"
           xlink:href="#l"
           id="use394" />
        <use
           transform="matrix(0.05,0,0,0.05,25,0)"
           xlink:href="#q"
           id="use396" />
        <use
           transform="matrix(0.05,0,0,0.05,35,0)"
           xlink:href="#n"
           id="use398" />
      </g>
      <path
         fill="#6c7878"
         d="m 85,-194 c 31,0 48,13 60,33 l -1,-100 h 32 l 1,261 h -30 c -2,-10 0,-23 -3,-31 C 134,-8 116,4 85,4 32,4 16,-35 15,-94 c 0,-66 23,-100 70,-100 z m 9,24 c -40,0 -46,34 -46,75 0,40 6,74 45,74 42,0 51,-32 51,-76 0,-42 -9,-74 -50,-73"
         id="B" />
      <g
         id="i">
        <use
           transform="scale(0.05)"
           xlink:href="#B"
           id="use402" />
        <use
           transform="matrix(0.05,0,0,0.05,10,0)"
           xlink:href="#m"
           id="use404" />
        <use
           transform="matrix(0.05,0,0,0.05,20,0)"
           xlink:href="#l"
           id="use406" />
        <use
           transform="matrix(0.05,0,0,0.05,25,0)"
           xlink:href="#m"
           id="use408" />
      </g>
      <g
         id="j">
        <use
           transform="scale(0.05)"
           xlink:href="#q"
           id="use411" />
        <use
           transform="matrix(0.05,0,0,0.05,10,0)"
           xlink:href="#r"
           id="use413" />
        <use
           transform="matrix(0.05,0,0,0.05,20,0)"
           xlink:href="#B"
           id="use415" />
      </g>
    </defs>
  </defs>
  <path
     d="M 66,66 C 66,82.57 52.57,96 36,96 19.43,96 6,82.57 6,66 6,49.43 19.43,36 36,36 52.57,36 66,49.43 66,66 Z"
     stroke="#a5a5a5"
     stroke-width="2"
     fill="#f6edc5"
     id="start" />
  <use
     xlink:href="#a"
     transform="translate(18.525,112.4)"
     id="use244" />
  <path
     d="m 68,66 h 58.5"
     stroke="#6c7777"
     stroke-width="2"
     fill="none"
     id="path246" />
  <path
     d="m 68.03,67 h -1.1 L 67,66.02 66.97,65 h 1.06 z"
     stroke="#6c7777"
     stroke-width="0.05"
     fill="#6c7777"
     id="path248" />
  <path
     d="M 141.76,66 127.5,70.64 V 61.36 Z"
     stroke="#6c7777"
     stroke-width="2"
     fill="#6c7777"
     id="path250" />
  <path
     d="M 146,6 H 306 V 126 H 146 Z"
     stroke="#a5a5a5"
     stroke-width="2"
     fill="#f6edc5"
     id="open file" />
  <use
     xlink:href="#b"
     transform="translate(171.58,69.15)"
     id="use254" />
  <use
     xlink:href="#c"
     transform="translate(216.58,69.15)"
     id="use256" />
  <use
     xlink:href="#d"
     transform="translate(257.53,69.15)"
     id="use258" />
  <path
     d="m 308,66 h 58.5"
     stroke="#6c7777"
     stroke-width="2"
     fill="none"
     id="path260" />
  <path
     d="M 308.03,67 H 307 v -2 h 1.03 z"
     stroke="#6c7777"
     stroke-width="0.05"
     fill="#6c7777"
     id="path262" />
  <path
     d="M 381.76,66 367.5,70.64 V 61.36 Z"
     stroke="#6c7777"
     stroke-width="2"
     fill="#6c7777"
     id="path264" />
  <path
     d="M 386,6 H 546 V 126 H 386 Z"
     stroke="#a5a5a5"
     stroke-width="2"
     fill="#f6edc5"
     id="click start" />
  <use
     xlink:href="#e"
     transform="translate(401.08,69.15)"
     id="use268" />
  <use
     xlink:href="#f"
     transform="translate(440.98,69.15)"
     id="use270" />
  <use
     xlink:href="#g"
     transform="translate(480.93,69.15)"
     id="use272" />
  <path
     d="m 548,66 h 58.5"
     stroke="#6c7777"
     stroke-width="2"
     fill="none"
     id="path274" />
  <path
     d="M 548.03,67 H 547 v -2 h 1.03 z"
     stroke="#6c7777"
     stroke-width="0.05"
     fill="#6c7777"
     id="path276" />
  <path
     d="M 621.76,66 607.5,70.64 V 61.36 Z"
     stroke="#6c7777"
     stroke-width="2"
     fill="#6c7777"
     id="path278" />
  <path
     d="M 626,6 H 786 V 126 H 626 Z"
     stroke="#a5a5a5"
     stroke-width="2"
     fill="#f6edc5"
     id="enter data" />
  <use
     xlink:href="#h"
     transform="translate(665.53,69.15)"
     id="use282" />
  <use
     xlink:href="#i"
     transform="translate(711.48,69.15)"
     id="use284" />
  <path
     d="m 788,66 h 59.5"
     stroke="#6c7777"
     stroke-width="2"
     fill="none"
     id="path286" />
  <path
     d="M 788.03,67 H 787 v -2 h 1.03 z"
     stroke="#6c7777"
     stroke-width="0.05"
     fill="#6c7777"
     id="path288" />
  <path
     d="M 862.76,66 848.5,70.64 V 61.36 Z"
     stroke="#6c7777"
     stroke-width="2"
     fill="#6c7777"
     id="path290" />
  <path
     d="m 926,66 c 0,16.57 -13.43,30 -30,30 -16.57,0 -30,-13.43 -30,-30 0,-16.57 13.43,-30 30,-30 16.57,0 30,13.43 30,30 z"
     stroke="#a5a5a5"
     stroke-width="6"
     fill="#f6edc5"
     id="end" />
  <g
     id="g296"
     transform="translate(-14,-14)">
    <use
       xlink:href="#j"
       transform="translate(895,126.4)"
       id="use294" />
  </g>
</svg>
