<svg xmlns="http://www.w3.org/2000/svg" xmlns:xlink="http://www.w3.org/1999/xlink" xmlns:lucid="lucid" width="1912.78" height="1434.58"><g transform="translate(0 0)" lucid:page-tab-id="9UAn47M2U_L5"><path d="M120 20h1420v440H120z" fill-opacity="0"/><path d="M139.9 20h1.98m9.94 0h19.9m9.93 0h2m9.94 0h19.87m9.95 0h2m9.93 0h19.9m9.93 0h2m9.94 0H297m9.95 0h2m9.93 0h19.9m9.93 0h2m9.94 0h19.9m9.94 0h1.98m9.95 0h19.9m9.94 0h2m9.93 0h19.9m9.94 0h2m9.94 0h19.9m9.93 0h2m9.93 0h19.9m9.93 0h2m9.94 0h19.9m9.93 0h2m9.93 0h19.9m9.93 0h2m9.94 0h19.88m9.95 0h2m9.93 0h19.9m9.93 0h1.98m9.95 0h19.88m9.96 0h2m9.93 0h19.88m9.94 0h2m9.94 0h19.88m9.95 0h1.98m9.94 0h19.9m9.93 0h2m9.94 0h19.87m9.95 0h2m9.93 0h19.9m9.93 0h2m9.94 0H1007m9.95 0h2m9.93 0h19.9m9.93 0h2m9.94 0h19.9m9.94 0h1.98m9.95 0h19.9m9.94 0h2m9.93 0h19.9m9.94 0h2m9.94 0h19.9m9.93 0h2m9.93 0h19.9m9.94 0h1.98m9.95 0h19.9m9.93 0h2m9.93 0h19.9m9.93 0h2m9.94 0h19.88m9.95 0h2m9.93 0h19.9m9.93 0h1.98m9.95 0h19.88m9.96 0h2m9.93 0h19.88m9.94 0h2m9.94 0h9.94v10.48m0 10.47v2.1m0 10.47v20.96m0 10.47v2.1m0 10.47v20.96m0 10.47v2.1m0 10.47v20.96m0 10.47v2.1m0 10.47v20.96m0 10.47v2.1m0 10.47v20.96m0 10.47v2.1m0 10.47v20.96m0 10.47v2.1m0 10.47v20.96m0 10.47v2.1m0 10.47v20.96m0 10.47v2.1m0 10.47v20.96m0 10.47v2.1m0 10.47V460h-9.94m-9.95 0h-1.98m-9.94 0h-19.9m-9.93 0h-2m-9.93 0h-19.9m-9.94 0h-2m-9.93 0h-19.9m-9.93 0h-2m-9.93 0h-19.9m-9.95 0h-2m-9.93 0h-19.9m-9.93 0h-2m-9.94 0h-19.9m-9.94 0h-1.98m-9.95 0h-19.9m-9.94 0h-2m-9.93 0h-19.9m-9.94 0h-2m-9.94 0h-19.9m-9.93 0h-2m-9.93 0h-19.9m-9.94 0h-1.98m-9.95 0h-19.9m-9.93 0h-2m-9.93 0h-19.9m-9.93 0h-2m-9.94 0h-19.88m-9.95 0h-2m-9.93 0h-19.9m-9.93 0h-1.98m-9.95 0H903.6m-9.96 0h-2m-9.93 0h-19.88m-9.94 0h-2m-9.94 0h-19.88m-9.95 0h-1.98m-9.94 0h-19.9m-9.93 0h-2m-9.94 0h-19.87m-9.95 0h-2m-9.93 0h-19.9m-9.93 0h-2m-9.94 0H653m-9.95 0h-2m-9.93 0h-19.9m-9.93 0h-2m-9.94 0h-19.9m-9.94 0h-2m-9.93 0h-19.9m-9.94 0h-2m-9.93 0h-19.9m-9.94 0h-2m-9.94 0h-19.9m-9.93 0h-2m-9.93 0h-19.9m-9.94 0h-1.98m-9.95 0h-19.9m-9.93 0h-2m-9.93 0h-19.9m-9.93 0h-2m-9.94 0h-19.88m-9.95 0h-2m-9.93 0h-19.9m-9.93 0h-1.98m-9.95 0H193.6m-9.96 0h-2m-9.93 0h-19.88m-9.94 0h-2m-9.94 0H120v-10.48m0-10.47v-2.1m0-10.47v-20.96m0-10.47v-2.1m0-10.47v-20.96m0-10.47v-2.1m0-10.47v-20.96m0-10.47v-2.1m0-10.47v-20.96m0-10.47v-2.1m0-10.47v-20.96m0-10.47v-2.1m0-10.47v-20.96m0-10.47v-2.1m0-10.47v-20.96m0-10.47v-2.1m0-10.47V97.52m0-10.47v-2.1m0-10.47V53.52m0-10.47v-2.1m0-10.47V20h9.94" stroke="#a5a5a5" stroke-width="2" fill="none"/><use xlink:href="#a" transform="matrix(1,0,0,1,140.0000000000001,40) translate(658.125 14.4)"/><path d="M120 570h1460v270H120z" fill-opacity="0"/><path d="M139.86 570h2m9.92 0h19.87m9.93 0h1.98m9.94 0h19.86m9.93 0h1.98m9.93 0h19.88m9.93 0h2m9.93 0h19.86m9.92 0h2m9.92 0h19.86m9.94 0h1.98m9.93 0h19.87m9.93 0h2m9.92 0h19.86m9.93 0h2m9.92 0h19.87m9.93 0h2m9.92 0h19.86m9.93 0h1.98m9.93 0h19.88m9.93 0h2m9.92 0h19.87m9.92 0h2m9.92 0h19.86m9.93 0h2m9.92 0h19.87m9.93 0h2m9.92 0h19.86m9.93 0h2m9.92 0h19.87m9.93 0h2m9.92 0h19.86m9.93 0h1.98m9.93 0h19.88m9.93 0h2m9.92 0h19.87m9.92 0h2m9.92 0h19.86m9.93 0h2m9.92 0h19.87m9.93 0h2m9.92 0h19.86m9.93 0h2m9.92 0h19.87m9.93 0h2m9.92 0h19.86m9.93 0h1.98m9.93 0h19.88m9.93 0h2m9.92 0h19.87m9.92 0h2m9.92 0h19.86m9.93 0h2m9.92 0h19.87m9.93 0h2m9.92 0h19.86m9.93 0h2m9.92 0h19.87m9.93 0h2m9.92 0h19.86m9.93 0h1.98m9.93 0h19.88m9.93 0h2m9.92 0h19.87m9.92 0h2m9.92 0h19.86m9.93 0h2m9.92 0h19.87m9.93 0h2m9.92 0h9.93v10.7m0 10.73v2.14m0 10.72v21.4m0 10.73v2.14m0 10.72v21.4m0 10.73v2.14m0 10.72v21.4m0 10.73v2.14m0 10.72v21.4m0 10.73v2.14m0 10.72v21.4m0 10.73v2.14m0 10.72V840h-9.93m-9.93 0h-2m-9.92 0h-19.87m-9.93 0h-2m-9.92 0h-19.86m-9.93 0h-1.98m-9.93 0h-19.88m-9.93 0h-2m-9.92 0h-19.87m-9.92 0h-2m-9.92 0h-19.86m-9.93 0h-2m-9.92 0h-19.87m-9.93 0h-2m-9.92 0h-19.86m-9.93 0h-2m-9.92 0h-19.87m-9.93 0h-2m-9.92 0h-19.86m-9.93 0h-1.98m-9.93 0h-19.88m-9.93 0h-2m-9.92 0h-19.87m-9.92 0h-2m-9.92 0h-19.86m-9.93 0h-2m-9.92 0h-19.87m-9.93 0h-2m-9.92 0h-19.86m-9.93 0h-2m-9.92 0h-19.87m-9.93 0h-2m-9.92 0h-19.86m-9.93 0h-1.98m-9.93 0H860.9m-9.93 0h-2m-9.92 0H819.2m-9.92 0h-2m-9.92 0H777.5m-9.93 0h-2m-9.92 0h-19.87m-9.93 0h-2m-9.92 0h-19.86m-9.93 0h-2m-9.92 0h-19.87m-9.93 0h-2m-9.92 0h-19.86m-9.93 0h-1.98m-9.93 0H568.9m-9.93 0h-2m-9.92 0H527.2m-9.92 0h-2m-9.92 0H485.5m-9.94 0h-1.98m-9.93 0h-19.87m-9.93 0h-2m-9.92 0h-19.86m-9.93 0h-2m-9.92 0h-19.87m-9.93 0h-2m-9.92 0h-19.86m-9.93 0h-1.98m-9.93 0H276.9m-9.93 0h-2m-9.93 0H235.2m-9.92 0h-2m-9.92 0H193.5m-9.94 0h-1.98m-9.93 0h-19.87m-9.93 0h-2m-9.92 0H120v-10.7m0-10.73v-2.14m0-10.72v-21.4m0-10.73v-2.14m0-10.72v-21.4m0-10.73v-2.14m0-10.72v-21.4m0-10.73v-2.14m0-10.72v-21.4m0-10.73v-2.14m0-10.72v-21.4m0-10.73v-2.14m0-10.72V570h9.93" stroke="#a5a5a5" stroke-width="2" fill="none"/><use xlink:href="#b" transform="matrix(1,0,0,1,140.0000000000001,590) translate(690.55 14.4)"/><path d="M120 940h1460v220H120z" fill-opacity="0"/><path d="M139.86 940h2m9.92 0h19.87m9.93 0h1.98m9.94 0h19.86m9.93 0h1.98m9.93 0h19.88m9.93 0h2m9.93 0h19.86m9.92 0h2m9.92 0h19.86m9.94 0h1.98m9.93 0h19.87m9.93 0h2m9.92 0h19.86m9.93 0h2m9.92 0h19.87m9.93 0h2m9.92 0h19.86m9.93 0h1.98m9.93 0h19.88m9.93 0h2m9.92 0h19.87m9.92 0h2m9.92 0h19.86m9.93 0h2m9.92 0h19.87m9.93 0h2m9.92 0h19.86m9.93 0h2m9.92 0h19.87m9.93 0h2m9.92 0h19.86m9.93 0h1.98m9.93 0h19.88m9.93 0h2m9.92 0h19.87m9.92 0h2m9.92 0h19.86m9.93 0h2m9.92 0h19.87m9.93 0h2m9.92 0h19.86m9.93 0h2m9.92 0h19.87m9.93 0h2m9.92 0h19.86m9.93 0h1.98m9.93 0h19.88m9.93 0h2m9.92 0h19.87m9.92 0h2m9.92 0h19.86m9.93 0h2m9.92 0h19.87m9.93 0h2m9.92 0h19.86m9.93 0h2m9.92 0h19.87m9.93 0h2m9.92 0h19.86m9.93 0h1.98m9.93 0h19.88m9.93 0h2m9.92 0h19.87m9.92 0h2m9.92 0h19.86m9.93 0h2m9.92 0h19.87m9.93 0h2m9.92 0h9.93v10.48m0 10.47v2.1m0 10.47v20.96m0 10.47v2.1m0 10.47v20.96m0 10.47v2.1m0 10.47v20.96m0 10.47v2.1m0 10.47v20.96m0 10.47v2.1m0 10.47V1160h-9.93m-9.93 0h-2m-9.92 0h-19.87m-9.93 0h-2m-9.92 0h-19.86m-9.93 0h-1.98m-9.93 0h-19.88m-9.93 0h-2m-9.92 0h-19.87m-9.92 0h-2m-9.92 0h-19.86m-9.93 0h-2m-9.92 0h-19.87m-9.93 0h-2m-9.92 0h-19.86m-9.93 0h-2m-9.92 0h-19.87m-9.93 0h-2m-9.92 0h-19.86m-9.93 0h-1.98m-9.93 0h-19.88m-9.93 0h-2m-9.92 0h-19.87m-9.92 0h-2m-9.92 0h-19.86m-9.93 0h-2m-9.92 0h-19.87m-9.93 0h-2m-9.92 0h-19.86m-9.93 0h-2m-9.92 0h-19.87m-9.93 0h-2m-9.92 0h-19.86m-9.93 0h-1.98m-9.93 0H860.9m-9.93 0h-2m-9.92 0H819.2m-9.92 0h-2m-9.92 0H777.5m-9.93 0h-2m-9.92 0h-19.87m-9.93 0h-2m-9.92 0h-19.86m-9.93 0h-2m-9.92 0h-19.87m-9.93 0h-2m-9.92 0h-19.86m-9.93 0h-1.98m-9.93 0H568.9m-9.93 0h-2m-9.92 0H527.2m-9.92 0h-2m-9.92 0H485.5m-9.94 0h-1.98m-9.93 0h-19.87m-9.93 0h-2m-9.92 0h-19.86m-9.93 0h-2m-9.92 0h-19.87m-9.93 0h-2m-9.92 0h-19.86m-9.93 0h-1.98m-9.93 0H276.9m-9.93 0h-2m-9.93 0H235.2m-9.92 0h-2m-9.92 0H193.5m-9.94 0h-1.98m-9.93 0h-19.87m-9.93 0h-2m-9.92 0H120v-10.48m0-10.47v-2.1m0-10.47v-20.96m0-10.47v-2.1m0-10.47v-20.96m0-10.47v-2.1m0-10.47v-20.96m0-10.47v-2.1m0-10.47v-20.96m0-10.47v-2.1m0-10.47V940h9.93" stroke="#a5a5a5" stroke-width="2" fill="none"/><use xlink:href="#c" transform="matrix(1,0,0,1,140.0000000000001,960) translate(673.05 14.4)"/><path d="M80 130c0 16.57-13.43 30-30 30s-30-13.43-30-30 13.43-30 30-30 30 13.43 30 30z" stroke="#a5a5a5" stroke-width="2" fill="#f6edc5"/><use xlink:href="#d" transform="matrix(1,0,0,1,20,162) translate(12.524999999999999 14.4)"/><path d="M82 130h58.5" stroke="#6c7777" stroke-width="2" fill="none"/><path d="M82.03 131h-1.1l.07-.98-.03-1.02h1.06z" stroke="#6c7777" stroke-width=".05" fill="#6c7777"/><path d="M155.76 130l-14.26 4.63v-9.27z" stroke="#6c7777" stroke-width="2" fill="#6c7777"/><path d="M160 70h160v120H160z" stroke="#a5a5a5" stroke-width="2" fill="#f6edc5"/><use xlink:href="#e" transform="matrix(1,0,0,1,160.0000000000001,70) translate(35.529999999999994 63.15)"/><use xlink:href="#f" transform="matrix(1,0,0,1,160.0000000000001,70) translate(80.53 63.15)"/><path d="M322 130h58.5" stroke="#6c7777" stroke-width="2" fill="none"/><path d="M322.03 131H321v-2h1.03z" stroke="#6c7777" stroke-width=".05" fill="#6c7777"/><path d="M395.76 130l-14.26 4.63v-9.27z" stroke="#6c7777" stroke-width="2" fill="#6c7777"/><path d="M400 70h160v120H400z" stroke="#a5a5a5" stroke-width="2" fill="#f6edc5"/><use xlink:href="#e" transform="matrix(1,0,0,1,400.0000000000001,70) translate(25.58 63.15)"/><use xlink:href="#g" transform="matrix(1,0,0,1,400.0000000000001,70) translate(70.58 63.15)"/><path d="M562 130h58.5" stroke="#6c7777" stroke-width="2" fill="none"/><path d="M562.03 131H561v-2h1.03z" stroke="#6c7777" stroke-width=".05" fill="#6c7777"/><path d="M635.76 130l-14.26 4.63v-9.27z" stroke="#6c7777" stroke-width="2" fill="#6c7777"/><path d="M640 70h160v120H640z" stroke="#a5a5a5" stroke-width="2" fill="#f6edc5"/><use xlink:href="#h" transform="matrix(1,0,0,1,640.0000000000001,70) translate(15.579999999999993 63.15)"/><use xlink:href="#i" transform="matrix(1,0,0,1,640.0000000000001,70) translate(88.53 63.15)"/><use xlink:href="#j" transform="matrix(1,0,0,1,640.0000000000001,70) translate(108.53 63.15)"/><path d="M802 130h58.5" stroke="#6c7777" stroke-width="2" fill="none"/><path d="M802.03 131H801v-2h1.03z" stroke="#6c7777" stroke-width=".05" fill="#6c7777"/><path d="M875.76 130l-14.26 4.63v-9.27z" stroke="#6c7777" stroke-width="2" fill="#6c7777"/><path d="M880 70h160v120H880z" stroke="#a5a5a5" stroke-width="2" fill="#f6edc5"/><use xlink:href="#k" transform="matrix(1,0,0,1,880.0000000000001,70) translate(7.12999999999999 63.15)"/><use xlink:href="#l" transform="matrix(1,0,0,1,880.0000000000001,70) translate(89.03 63.15)"/><use xlink:href="#m" transform="matrix(1,0,0,1,880.0000000000001,70) translate(129.98000000000002 63.15)"/><path d="M1042 130h58.5" stroke="#6c7777" stroke-width="2" fill="none"/><path d="M1042.03 131H1041v-2h1.03z" stroke="#6c7777" stroke-width=".05" fill="#6c7777"/><path d="M1115.76 130l-14.26 4.63v-9.27z" stroke="#6c7777" stroke-width="2" fill="#6c7777"/><path d="M1120 70h160v120h-160z" stroke="#a5a5a5" stroke-width="2" fill="#f6edc5"/><use xlink:href="#n" transform="matrix(1,0,0,1,1120,70) translate(29.054999999999993 63.15)"/><use xlink:href="#o" transform="matrix(1,0,0,1,1120,70) translate(95.95500000000001 63.15)"/><path d="M1260 190c0 16.57-13.43 30-30 30s-30-13.43-30-30 13.43-30 30-30 30 13.43 30 30z" stroke="#a5a5a5" stroke-width="2" fill="#f6edc5"/><path d="M1257 190c0 14.9-12.1 27-27 27s-27-12.1-27-27 12.1-27 27-27 27 12.1 27 27z" stroke="#a5a5a5" stroke-width="2" fill="#f6edc5"/><path d="M1219.8 176.2L1230 187l10.2-10.8 3.6 3.6L1233 190l10.8 10.2-3.6 3.6L1230 193l-10.2 10.8-3.6-3.6L1227 190l-10.8-10.2z" stroke="#a5a5a5" stroke-width="2" fill="#fff"/><path d="M1282 130h58.5" stroke="#6c7777" stroke-width="2" fill="none"/><path d="M1282.03 131H1281v-2h1.03z" stroke="#6c7777" stroke-width=".05" fill="#6c7777"/><path d="M1355.76 130l-14.26 4.63v-9.27z" stroke="#6c7777" stroke-width="2" fill="#6c7777"/><path d="M1360 70h160v120h-160z" stroke="#a5a5a5" stroke-width="2" fill="#f6edc5"/><use xlink:href="#p" transform="matrix(1,0,0,1,1360,70) translate(15.079999999999993 63.15)"/><use xlink:href="#q" transform="matrix(1,0,0,1,1360,70) translate(54.97999999999999 63.15)"/><use xlink:href="#r" transform="matrix(1,0,0,1,1360,70) translate(94.92999999999999 63.15)"/><path d="M1581 511H241v119.5h-2V509h1340V131h-57v-2h59z" stroke="#6c7777" stroke-width=".05" fill="#6c7777"/><path d="M1522.03 131H1521v-2h1.03z" fill="#6c7777"/><path d="M1522.05 131.03h-1.08v-2.06h1.08zm-1.02-2v1.94h.97v-1.94z" stroke="#6c7777" stroke-width=".05" fill="#6c7777"/><path d="M240 645.76l-4.63-14.26h9.26z" fill="#6c7777"/><path d="M240 649l-6-18.5h12zm-3.26-16.5l3.26 10.03 3.26-10.03z" stroke="#6c7777" stroke-width=".05" fill="#6c7777"/><path d="M160 650h160v120H160z" stroke="#a5a5a5" stroke-width="2" fill="#f6edc5"/><path d="M225 728.8h30v30h-30zm15 5.4v19.2m-9.6-9.6h19.2" stroke="#a5a5a5" stroke-width="2" fill="none"/><use xlink:href="#s" transform="matrix(1,0,0,1,160.0000000000001,650) translate(16.055 63.15)"/><use xlink:href="#t" transform="matrix(1,0,0,1,160.0000000000001,650) translate(115.055 63.15)"/><path d="M322 710h58.5" stroke="#6c7777" stroke-width="2" fill="none"/><path d="M322.03 711H321v-2h1.03z" stroke="#6c7777" stroke-width=".05" fill="#6c7777"/><path d="M395.76 710l-14.26 4.63v-9.26z" stroke="#6c7777" stroke-width="2" fill="#6c7777"/><path d="M400 650h160v120H400z" stroke="#a5a5a5" stroke-width="2" fill="#f6edc5"/><use xlink:href="#u" transform="matrix(1,0,0,1,400.0000000000001,650) translate(33.605 63.15)"/><use xlink:href="#v" transform="matrix(1,0,0,1,400.0000000000001,650) translate(73.505 63.15)"/><path d="M562 710h58.08" stroke="#6c7777" stroke-width="2" fill="none"/><path d="M562.03 711H561v-2h1.03z" stroke="#6c7777" stroke-width=".05" fill="#6c7777"/><path d="M635.35 710l-14.27 4.63v-9.26z" stroke="#6c7777" stroke-width="2" fill="#6c7777"/><path d="M640 710l37.5-37.5L715 710l-37.5 37.5z" stroke="#a5a5a5" stroke-width="2" fill="#f6edc5"/><use xlink:href="#w" transform="matrix(1,0,0,1,640.0000000000001,747.5) translate(1.5750000000000028 14.4)"/><use xlink:href="#x" transform="matrix(1,0,0,1,640.0000000000001,747.5) translate(34.525000000000006 14.4)"/><path d="M678.5 670.1h-2v-9.58h2zm0-31.18h-2V611H241v19.5h-2V609h439.5z" stroke="#6c7777" stroke-width=".05" fill="#6c7777"/><path d="M678.5 672.1l-1-1-1 1v-2.04h2z" fill="#6c7777"/><path d="M678.52 672.15l-1.02-1.03-1.02 1.03v-2.12h2.04zm-2-2.06V672l.98-.97.98.98v-1.94z" stroke="#6c7777" stroke-width=".05" fill="#6c7777"/><path d="M240 645.76l-4.63-14.26h9.26z" fill="#6c7777"/><path d="M240 649l-6-18.5h12zm-3.26-16.5l3.26 10.03 3.26-10.03z" stroke="#6c7777" stroke-width=".05" fill="#6c7777"/><use xlink:href="#y" transform="matrix(1,0,0,1,667.5000000000001,638.9181745035922) translate(0 14.4)"/><path d="M717.4 710h63.1" stroke="#6c7777" stroke-width="2" fill="none"/><path d="M717.44 711h-2.03l1-1-1-1h2.04z" stroke="#6c7777" stroke-width=".05" fill="#6c7777"/><path d="M795.76 710l-14.26 4.63v-9.26z" stroke="#6c7777" stroke-width="2" fill="#6c7777"/><path d="M800 650h160v120H800z" stroke="#a5a5a5" stroke-width="2" fill="#f6edc5"/><use xlink:href="#z" transform="matrix(1,0,0,1,800.0000000000001,650) translate(37.57999999999999 63.15)"/><use xlink:href="#A" transform="matrix(1,0,0,1,800.0000000000001,650) translate(78.53 63.15)"/><path d="M962 710h58.5" stroke="#6c7777" stroke-width="2" fill="none"/><path d="M962.03 711H961v-2h1.03z" stroke="#6c7777" stroke-width=".05" fill="#6c7777"/><path d="M1035.76 710l-14.26 4.63v-9.26z" stroke="#6c7777" stroke-width="2" fill="#6c7777"/><path d="M1040 650h160v120h-160z" stroke="#a5a5a5" stroke-width="2" fill="#f6edc5"/><use xlink:href="#B" transform="matrix(1,0,0,1,1040,650) translate(18.029999999999994 51.9)"/><use xlink:href="#C" transform="matrix(1,0,0,1,1040,650) translate(76.97999999999999 51.9)"/><use xlink:href="#D" transform="matrix(1,0,0,1,1040,650) translate(64.53 73.5)"/><path d="M1202 710h58.5" stroke="#6c7777" stroke-width="2" fill="none"/><path d="M1202.03 711H1201v-2h1.03z" stroke="#6c7777" stroke-width=".05" fill="#6c7777"/><path d="M1275.76 710l-14.26 4.63v-9.26z" stroke="#6c7777" stroke-width="2" fill="#6c7777"/><path d="M1280 650h160v120h-160z" stroke="#a5a5a5" stroke-width="2" fill="#f6edc5"/><use xlink:href="#B" transform="matrix(1,0,0,1,1280,650) translate(18.07999999999999 63.15)"/><use xlink:href="#E" transform="matrix(1,0,0,1,1280,650) translate(77.03 63.15)"/><path d="M1442 710h39v180H260v90.5" stroke="#6c7777" stroke-width="2" fill="none"/><path d="M1442.03 711H1441v-2h1.03z" stroke="#6c7777" stroke-width=".05" fill="#6c7777"/><path d="M260 995.76l-4.63-14.26h9.26z" stroke="#6c7777" stroke-width="2" fill="#6c7777"/><path d="M180 1000h160v120H180z" stroke="#a5a5a5" stroke-width="2" fill="#f6edc5"/><use xlink:href="#F" transform="matrix(1,0,0,1,180.0000000000001,1000) translate(21.104999999999997 63.15)"/><use xlink:href="#l" transform="matrix(1,0,0,1,180.0000000000001,1000) translate(75.055 63.15)"/><use xlink:href="#m" transform="matrix(1,0,0,1,180.0000000000001,1000) translate(116.005 63.15)"/><path d="M342 1060h58.5" stroke="#6c7777" stroke-width="2" fill="none"/><path d="M342.03 1061H341v-2h1.03z" stroke="#6c7777" stroke-width=".05" fill="#6c7777"/><path d="M415.76 1060l-14.26 4.63v-9.27z" stroke="#6c7777" stroke-width="2" fill="#6c7777"/><path d="M420 1000h160v120H420z" stroke="#a5a5a5" stroke-width="2" fill="#f6edc5"/><use xlink:href="#G" transform="matrix(1,0,0,1,420.0000000000001,1000) translate(18.604999999999997 63.15)"/><use xlink:href="#H" transform="matrix(1,0,0,1,420.0000000000001,1000) translate(65.555 63.15)"/><path d="M582 1060h58.5" stroke="#6c7777" stroke-width="2" fill="none"/><path d="M582.03 1061H581v-2h1.03z" stroke="#6c7777" stroke-width=".05" fill="#6c7777"/><path d="M655.76 1060l-14.26 4.63v-9.27z" stroke="#6c7777" stroke-width="2" fill="#6c7777"/><path d="M660 1000h160v120H660z" stroke="#a5a5a5" stroke-width="2" fill="#f6edc5"/><use xlink:href="#I" transform="matrix(1,0,0,1,660.0000000000001,1000) translate(22.57999999999999 63.15)"/><use xlink:href="#J" transform="matrix(1,0,0,1,660.0000000000001,1000) translate(66.57999999999998 63.15)"/><path d="M822 1060h59.5" stroke="#6c7777" stroke-width="2" fill="none"/><path d="M822.03 1061H821v-2h1.03z" stroke="#6c7777" stroke-width=".05" fill="#6c7777"/><path d="M896.76 1060l-14.26 4.63v-9.27z" stroke="#6c7777" stroke-width="2" fill="#6c7777"/><path d="M960 1060c0 16.57-13.43 30-30 30s-30-13.43-30-30 13.43-30 30-30 30 13.43 30 30z" stroke="#a5a5a5" stroke-width="6" fill="#f6edc5"/><use xlink:href="#K" transform="matrix(1,0,0,1,900.0000000000001,1092) translate(15 14.4)"/><path d="M1230 222v58.5" stroke="#6c7777" stroke-width="2" fill="none"/><path d="M1229.98 221l1.02-.03v1.06h-2v-1.1z" stroke="#6c7777" stroke-width=".05" fill="#6c7777"/><path d="M1230 295.76l-4.63-14.26h9.27z" stroke="#6c7777" stroke-width="2" fill="#6c7777"/><path d="M1150 300h160v120h-160z" stroke="#a5a5a5" stroke-width="2" fill="#f6edc5"/><path d="M1215 378.8h30v30h-30zm15 5.4v19.2m-9.6-9.6h19.2" stroke="#a5a5a5" stroke-width="2" fill="none"/><use xlink:href="#L" transform="matrix(1,0,0,1,1150,300) translate(10.579999999999993 19.41)"/><use xlink:href="#M" transform="matrix(1,0,0,1,1150,300) translate(24.529999999999994 19.41)"/><use xlink:href="#N" transform="matrix(1,0,0,1,1150,300) translate(64.53 19.41)"/><use xlink:href="#O" transform="matrix(1,0,0,1,1150,300) translate(94.53 19.41)"/><use xlink:href="#P" transform="matrix(1,0,0,1,1150,300) translate(25.104999999999997 41.01)"/><use xlink:href="#Q" transform="matrix(1,0,0,1,1150,300) translate(79.955 41.01)"/><path d="M770 190c0 16.57-13.43 30-30 30s-30-13.43-30-30 13.43-30 30-30 30 13.43 30 30z" stroke="#a5a5a5" stroke-width="2" fill="#f6edc5"/><path d="M767 190c0 14.9-12.1 27-27 27s-27-12.1-27-27 12.1-27 27-27 27 12.1 27 27z" stroke="#a5a5a5" stroke-width="2" fill="#f6edc5"/><path d="M724.25 207.5l10.5-24.5 10.5 8.75 10.5-19.25-8.75 26.25-10.5-9.63z" stroke="#a5a5a5" stroke-width="2" fill="#fff"/><path d="M740 222v58.5" stroke="#6c7777" stroke-width="2" fill="none"/><path d="M739.98 221l1.02-.03v1.06h-2v-1.1z" stroke="#6c7777" stroke-width=".05" fill="#6c7777"/><path d="M740 295.76l-4.63-14.26h9.26z" stroke="#6c7777" stroke-width="2" fill="#6c7777"/><path d="M660 300h160v120H660z" stroke="#a5a5a5" stroke-width="2" fill="#f6edc5"/><path d="M725 378.8h30v30h-30zm15 5.4v19.2m-9.6-9.6h19.2" stroke="#a5a5a5" stroke-width="2" fill="none"/><g><use xlink:href="#L" transform="matrix(1,0,0,1,660.0000000000001,300) translate(21.555 19.41)"/><use xlink:href="#R" transform="matrix(1,0,0,1,660.0000000000001,300) translate(35.505 19.41)"/><use xlink:href="#S" transform="matrix(1,0,0,1,660.0000000000001,300) translate(113.455 19.41)"/><use xlink:href="#T" transform="matrix(1,0,0,1,660.0000000000001,300) translate(17.154999999999994 41.01)"/><use xlink:href="#U" transform="matrix(1,0,0,1,660.0000000000001,300) translate(93.00500000000001 41.01)"/><use xlink:href="#Q" transform="matrix(1,0,0,1,660.0000000000001,300) translate(52.529999999999994 62.61)"/></g><path d="M1312 360h49.5" stroke="#6c7777" stroke-width="2" fill="none"/><path d="M1312.03 361H1311v-2h1.03z" stroke="#6c7777" stroke-width=".05" fill="#6c7777"/><path d="M1376.76 360l-14.26 4.63v-9.26z" stroke="#6c7777" stroke-width="2" fill="#6c7777"/><path d="M1440 360c0 16.57-13.43 30-30 30s-30-13.43-30-30 13.43-30 30-30 30 13.43 30 30z" stroke="#a5a5a5" stroke-width="6" fill="#f6edc5"/><g><use xlink:href="#K" transform="matrix(1,0,0,1,1380,392) translate(15 14.4)"/></g><path d="M822 360h59.5" stroke="#6c7777" stroke-width="2" fill="none"/><path d="M822.03 361H821v-2h1.03z" stroke="#6c7777" stroke-width=".05" fill="#6c7777"/><path d="M896.76 360l-14.26 4.63v-9.26z" stroke="#6c7777" stroke-width="2" fill="#6c7777"/><path d="M960 360c0 16.57-13.43 30-30 30s-30-13.43-30-30 13.43-30 30-30 30 13.43 30 30z" stroke="#a5a5a5" stroke-width="6" fill="#f6edc5"/><g><use xlink:href="#K" transform="matrix(1,0,0,1,900,392) translate(15 14.4)"/></g><defs><path fill="#6c7878" d="M24-231v-30h32v30H24zM24 0v-190h32V0H24" id="V"/><path fill="#6c7878" d="M117-194c89-4 53 116 60 194h-32v-121c0-31-8-49-39-48C34-167 62-67 57 0H25l-1-190h30c1 10-1 24 2 32 11-22 29-35 61-36" id="W"/><path fill="#6c7878" d="M59-47c-2 24 18 29 38 22v24C64 9 27 4 27-40v-127H5v-23h24l9-43h21v43h35v23H59v120" id="X"/><path fill="#6c7878" d="M141-36C126-15 110 5 73 4 37 3 15-17 15-53c-1-64 63-63 125-63 3-35-9-54-41-54-24 1-41 7-42 31l-33-3c5-37 33-52 76-52 45 0 72 20 72 64v82c-1 20 7 32 28 27v20c-31 9-61-2-59-35zM48-53c0 20 12 33 32 33 41-3 63-29 60-74-43 2-92-5-92 41" id="Y"/><path fill="#6c7878" d="M24 0v-261h32V0H24" id="Z"/><path fill="#6c7878" d="M9 0v-24l116-142H16v-24h144v24L44-24h123V0H9" id="aa"/><path fill="#6c7878" d="M100-194c63 0 86 42 84 106H49c0 40 14 67 53 68 26 1 43-12 49-29l28 8c-11 28-37 45-77 45C44 4 14-33 15-96c1-61 26-98 85-98zm52 81c6-60-76-77-97-28-3 7-6 17-6 28h103" id="ab"/><g id="a"><use transform="matrix(0.05,0,0,0.05,0,0)" xlink:href="#V"/><use transform="matrix(0.05,0,0,0.05,3.95,0)" xlink:href="#W"/><use transform="matrix(0.05,0,0,0.05,13.949999999999998,0)" xlink:href="#V"/><use transform="matrix(0.05,0,0,0.05,17.9,0)" xlink:href="#X"/><use transform="matrix(0.05,0,0,0.05,22.9,0)" xlink:href="#V"/><use transform="matrix(0.05,0,0,0.05,26.849999999999994,0)" xlink:href="#Y"/><use transform="matrix(0.05,0,0,0.05,36.849999999999994,0)" xlink:href="#Z"/><use transform="matrix(0.05,0,0,0.05,40.8,0)" xlink:href="#V"/><use transform="matrix(0.05,0,0,0.05,44.75,0)" xlink:href="#aa"/><use transform="matrix(0.05,0,0,0.05,53.75,0)" xlink:href="#ab"/></g><path fill="#6c7878" d="M240 0l2-218c-23 76-54 145-80 218h-23L58-218 59 0H30v-248h44l77 211c21-75 51-140 76-211h43V0h-30" id="ac"/><g id="b"><use transform="matrix(0.05,0,0,0.05,0,0)" xlink:href="#ac"/><use transform="matrix(0.05,0,0,0.05,14.950000000000001,0)" xlink:href="#Y"/><use transform="matrix(0.05,0,0,0.05,24.950000000000003,0)" xlink:href="#V"/><use transform="matrix(0.05,0,0,0.05,28.900000000000002,0)" xlink:href="#W"/></g><path fill="#6c7878" d="M114-163C36-179 61-72 57 0H25l-1-190h30c1 12-1 29 2 39 6-27 23-49 58-41v29" id="ad"/><path fill="#6c7878" d="M85-194c31 0 48 13 60 33l-1-100h32l1 261h-30c-2-10 0-23-3-31C134-8 116 4 85 4 32 4 16-35 15-94c0-66 23-100 70-100zm9 24c-40 0-46 34-46 75 0 40 6 74 45 74 42 0 51-32 51-76 0-42-9-74-50-73" id="ae"/><path fill="#6c7878" d="M100-194c62-1 85 37 85 99 1 63-27 99-86 99S16-35 15-95c0-66 28-99 85-99zM99-20c44 1 53-31 53-75 0-43-8-75-51-75s-53 32-53 75 10 74 51 75" id="af"/><path fill="#6c7878" d="M206 0h-36l-40-164L89 0H53L-1-190h32L70-26l43-164h34l41 164 42-164h31" id="ag"/><g id="c"><use transform="matrix(0.05,0,0,0.05,0,0)" xlink:href="#X"/><use transform="matrix(0.05,0,0,0.05,5,0)" xlink:href="#ab"/><use transform="matrix(0.05,0,0,0.05,15,0)" xlink:href="#Y"/><use transform="matrix(0.05,0,0,0.05,25,0)" xlink:href="#ad"/><use transform="matrix(0.05,0,0,0.05,30.950000000000003,0)" xlink:href="#ae"/><use transform="matrix(0.05,0,0,0.05,40.95,0)" xlink:href="#af"/><use transform="matrix(0.05,0,0,0.05,50.95,0)" xlink:href="#ag"/><use transform="matrix(0.05,0,0,0.05,63.900000000000006,0)" xlink:href="#W"/></g><path fill="#6c7878" d="M135-143c-3-34-86-38-87 0 15 53 115 12 119 90S17 21 10-45l28-5c4 36 97 45 98 0-10-56-113-15-118-90-4-57 82-63 122-42 12 7 21 19 24 35" id="ah"/><g id="d"><use transform="matrix(0.05,0,0,0.05,0,0)" xlink:href="#ah"/><use transform="matrix(0.05,0,0,0.05,9,0)" xlink:href="#X"/><use transform="matrix(0.05,0,0,0.05,14,0)" xlink:href="#Y"/><use transform="matrix(0.05,0,0,0.05,24,0)" xlink:href="#ad"/><use transform="matrix(0.05,0,0,0.05,29.950000000000003,0)" xlink:href="#X"/></g><path fill="#6c7878" d="M115-194c55 1 70 41 70 98S169 2 115 4C84 4 66-9 55-30l1 105H24l-1-265h31l2 30c10-21 28-34 59-34zm-8 174c40 0 45-34 45-75s-6-73-45-74c-42 0-51 32-51 76 0 43 10 73 51 73" id="ai"/><g id="e"><use transform="matrix(0.05,0,0,0.05,0,0)" xlink:href="#af"/><use transform="matrix(0.05,0,0,0.05,10,0)" xlink:href="#ai"/><use transform="matrix(0.05,0,0,0.05,20,0)" xlink:href="#ab"/><use transform="matrix(0.05,0,0,0.05,30,0)" xlink:href="#W"/></g><path fill="#6c7878" d="M30 0v-248h187v28H63v79h144v27H63v87h162V0H30" id="aj"/><path fill="#6c7878" d="M141 0L90-78 38 0H4l68-98-65-92h35l48 74 47-74h35l-64 92 68 98h-35" id="ak"/><path fill="#6c7878" d="M96-169c-40 0-48 33-48 73s9 75 48 75c24 0 41-14 43-38l32 2c-6 37-31 61-74 61-59 0-76-41-82-99-10-93 101-131 147-64 4 7 5 14 7 22l-32 3c-4-21-16-35-41-35" id="al"/><g id="f"><use transform="matrix(0.05,0,0,0.05,0,0)" xlink:href="#aj"/><use transform="matrix(0.05,0,0,0.05,12,0)" xlink:href="#ak"/><use transform="matrix(0.05,0,0,0.05,21,0)" xlink:href="#al"/><use transform="matrix(0.05,0,0,0.05,30,0)" xlink:href="#ab"/><use transform="matrix(0.05,0,0,0.05,40,0)" xlink:href="#Z"/></g><path fill="#6c7878" d="M115-194c53 0 69 39 70 98 0 66-23 100-70 100C84 3 66-7 56-30L54 0H23l1-261h32v101c10-23 28-34 59-34zm-8 174c40 0 45-34 45-75 0-40-5-75-45-74-42 0-51 32-51 76 0 43 10 73 51 73" id="am"/><g id="g"><use transform="matrix(0.05,0,0,0.05,0,0)" xlink:href="#am"/><use transform="matrix(0.05,0,0,0.05,10,0)" xlink:href="#ad"/><use transform="matrix(0.05,0,0,0.05,15.949999999999998,0)" xlink:href="#af"/><use transform="matrix(0.05,0,0,0.05,25.950000000000003,0)" xlink:href="#ag"/><use transform="matrix(0.05,0,0,0.05,38.9,0)" xlink:href="#ah"/><use transform="matrix(0.05,0,0,0.05,47.9,0)" xlink:href="#ab"/><use transform="matrix(0.05,0,0,0.05,57.900000000000006,0)" xlink:href="#ad"/></g><path fill="#6c7878" d="M108 0H70L1-190h34L89-25l56-165h34" id="an"/><path fill="#6c7878" d="M177-190C167-65 218 103 67 71c-23-6-38-20-44-43l32-5c15 47 100 32 89-28v-30C133-14 115 1 83 1 29 1 15-40 15-95c0-56 16-97 71-98 29-1 48 16 59 35 1-10 0-23 2-32h30zM94-22c36 0 50-32 50-73 0-42-14-75-50-75-39 0-46 34-46 75s6 73 46 73" id="ao"/><g id="h"><use transform="matrix(0.05,0,0,0.05,0,0)" xlink:href="#W"/><use transform="matrix(0.05,0,0,0.05,10,0)" xlink:href="#Y"/><use transform="matrix(0.05,0,0,0.05,20,0)" xlink:href="#an"/><use transform="matrix(0.05,0,0,0.05,29,0)" xlink:href="#V"/><use transform="matrix(0.05,0,0,0.05,32.95,0)" xlink:href="#ao"/><use transform="matrix(0.05,0,0,0.05,42.95,0)" xlink:href="#Y"/><use transform="matrix(0.05,0,0,0.05,52.95,0)" xlink:href="#X"/><use transform="matrix(0.05,0,0,0.05,57.95,0)" xlink:href="#ab"/></g><g id="i"><use transform="matrix(0.05,0,0,0.05,0,0)" xlink:href="#X"/><use transform="matrix(0.05,0,0,0.05,5,0)" xlink:href="#af"/></g><path fill="#6c7878" d="M232-93c-1 65-40 97-104 97C67 4 28-28 28-90v-158h33c8 89-33 224 67 224 102 0 64-133 71-224h33v155" id="ap"/><path fill="#6c7878" d="M233-177c-1 41-23 64-60 70L243 0h-38l-65-103H63V0H30v-248c88 3 205-21 203 71zM63-129c60-2 137 13 137-47 0-61-80-42-137-45v92" id="aq"/><path fill="#6c7878" d="M30 0v-248h33v221h125V0H30" id="ar"/><g id="j"><use transform="matrix(0.05,0,0,0.05,0,0)" xlink:href="#ap"/><use transform="matrix(0.05,0,0,0.05,12.950000000000001,0)" xlink:href="#aq"/><use transform="matrix(0.05,0,0,0.05,25.900000000000002,0)" xlink:href="#ar"/></g><g id="k"><use transform="matrix(0.05,0,0,0.05,0,0)" xlink:href="#ae"/><use transform="matrix(0.05,0,0,0.05,10,0)" xlink:href="#af"/><use transform="matrix(0.05,0,0,0.05,20,0)" xlink:href="#ag"/><use transform="matrix(0.05,0,0,0.05,32.95,0)" xlink:href="#W"/><use transform="matrix(0.05,0,0,0.05,42.95,0)" xlink:href="#Z"/><use transform="matrix(0.05,0,0,0.05,46.900000000000006,0)" xlink:href="#af"/><use transform="matrix(0.05,0,0,0.05,56.900000000000006,0)" xlink:href="#Y"/><use transform="matrix(0.05,0,0,0.05,66.9,0)" xlink:href="#ae"/></g><path fill="#6c7878" d="M33 0v-38h34V0H33" id="as"/><g id="l"><use transform="matrix(0.05,0,0,0.05,0,0)" xlink:href="#as"/><use transform="matrix(0.05,0,0,0.05,5,0)" xlink:href="#ak"/><use transform="matrix(0.05,0,0,0.05,14,0)" xlink:href="#Z"/><use transform="matrix(0.05,0,0,0.05,17.95,0)" xlink:href="#ah"/><use transform="matrix(0.05,0,0,0.05,26.950000000000003,0)" xlink:href="#ak"/></g><path fill="#6c7878" d="M101-234c-31-9-42 10-38 44h38v23H63V0H32v-167H5v-23h27c-7-52 17-82 69-68v24" id="at"/><g id="m"><use transform="matrix(0.05,0,0,0.05,0,0)" xlink:href="#at"/><use transform="matrix(0.05,0,0,0.05,5,0)" xlink:href="#V"/><use transform="matrix(0.05,0,0,0.05,8.95,0)" xlink:href="#Z"/><use transform="matrix(0.05,0,0,0.05,12.899999999999999,0)" xlink:href="#ab"/></g><g id="n"><use transform="matrix(0.05,0,0,0.05,0,0)" xlink:href="#an"/><use transform="matrix(0.05,0,0,0.05,9,0)" xlink:href="#Y"/><use transform="matrix(0.05,0,0,0.05,19,0)" xlink:href="#Z"/><use transform="matrix(0.05,0,0,0.05,22.95,0)" xlink:href="#V"/><use transform="matrix(0.05,0,0,0.05,26.899999999999995,0)" xlink:href="#ae"/><use transform="matrix(0.05,0,0,0.05,36.9,0)" xlink:href="#Y"/><use transform="matrix(0.05,0,0,0.05,46.9,0)" xlink:href="#X"/><use transform="matrix(0.05,0,0,0.05,51.900000000000006,0)" xlink:href="#ab"/></g><g id="o"><use transform="matrix(0.05,0,0,0.05,0,0)" xlink:href="#ae"/><use transform="matrix(0.05,0,0,0.05,10,0)" xlink:href="#Y"/><use transform="matrix(0.05,0,0,0.05,20,0)" xlink:href="#X"/><use transform="matrix(0.05,0,0,0.05,25,0)" xlink:href="#Y"/></g><path fill="#6c7878" d="M143 0L79-87 56-68V0H24v-261h32v163l83-92h37l-77 82L181 0h-38" id="au"/><g id="p"><use transform="matrix(0.05,0,0,0.05,0,0)" xlink:href="#al"/><use transform="matrix(0.05,0,0,0.05,9,0)" xlink:href="#Z"/><use transform="matrix(0.05,0,0,0.05,12.949999999999998,0)" xlink:href="#V"/><use transform="matrix(0.05,0,0,0.05,16.9,0)" xlink:href="#al"/><use transform="matrix(0.05,0,0,0.05,25.899999999999995,0)" xlink:href="#au"/></g><g id="q"><use transform="matrix(0.05,0,0,0.05,0,0)" xlink:href="#ah"/><use transform="matrix(0.05,0,0,0.05,9,0)" xlink:href="#X"/><use transform="matrix(0.05,0,0,0.05,14,0)" xlink:href="#Y"/><use transform="matrix(0.05,0,0,0.05,24,0)" xlink:href="#ad"/><use transform="matrix(0.05,0,0,0.05,29.950000000000003,0)" xlink:href="#X"/></g><path fill="#6c7878" d="M84 4C-5 8 30-112 23-190h32v120c0 31 7 50 39 49 72-2 45-101 50-169h31l1 190h-30c-1-10 1-25-2-33-11 22-28 36-60 37" id="av"/><g id="r"><use transform="matrix(0.05,0,0,0.05,0,0)" xlink:href="#am"/><use transform="matrix(0.05,0,0,0.05,10,0)" xlink:href="#av"/><use transform="matrix(0.05,0,0,0.05,20,0)" xlink:href="#X"/><use transform="matrix(0.05,0,0,0.05,25,0)" xlink:href="#X"/><use transform="matrix(0.05,0,0,0.05,30,0)" xlink:href="#af"/><use transform="matrix(0.05,0,0,0.05,40,0)" xlink:href="#W"/></g><path fill="#6c7878" d="M179-190L93 31C79 59 56 82 12 73V49c39 6 53-20 64-50L1-190h34L92-34l54-156h33" id="aw"/><path fill="#6c7878" d="M234-2c-28 10-62 0-77-18C117 19 8 12 13-65c3-43 29-61 60-76-25-40-17-114 47-108 35 3 59 15 59 50 0 44-40 53-71 69 14 26 32 50 51 72 14-21 24-43 30-72l26 8c-9 33-21 57-38 82 13 13 33 22 57 15v23zM97-151c25-10 52-18 56-48-1-18-13-29-33-29-42 0-39 50-23 77zM42-66c-3 51 71 58 98 28-20-24-41-51-56-80-23 10-40 24-42 52" id="ax"/><g id="s"><use transform="matrix(0.05,0,0,0.05,0,0)" xlink:href="#al"/><use transform="matrix(0.05,0,0,0.05,9,0)" xlink:href="#af"/><use transform="matrix(0.05,0,0,0.05,19,0)" xlink:href="#ai"/><use transform="matrix(0.05,0,0,0.05,29,0)" xlink:href="#aw"/><use transform="matrix(0.05,0,0,0.05,38,0)" xlink:href="#ax"/><use transform="matrix(0.05,0,0,0.05,50,0)" xlink:href="#ai"/><use transform="matrix(0.05,0,0,0.05,60,0)" xlink:href="#Y"/><use transform="matrix(0.05,0,0,0.05,70,0)" xlink:href="#ah"/><use transform="matrix(0.05,0,0,0.05,79,0)" xlink:href="#X"/><use transform="matrix(0.05,0,0,0.05,84,0)" xlink:href="#ab"/><path fill="#6c7878" d="M-.9 1.25H99.9v1.32H-.9z"/></g><g id="t"><use transform="matrix(0.05,0,0,0.05,0,0)" xlink:href="#ad"/><use transform="matrix(0.05,0,0,0.05,5.95,0)" xlink:href="#af"/><use transform="matrix(0.05,0,0,0.05,15.949999999999998,0)" xlink:href="#ag"/><path fill="#6c7878" d="M-.9 1.25h30.7v1.32H-.9z"/></g><g id="u"><use transform="matrix(0.05,0,0,0.05,0,0)" xlink:href="#al"/><use transform="matrix(0.05,0,0,0.05,9,0)" xlink:href="#Z"/><use transform="matrix(0.05,0,0,0.05,12.949999999999998,0)" xlink:href="#V"/><use transform="matrix(0.05,0,0,0.05,16.9,0)" xlink:href="#al"/><use transform="matrix(0.05,0,0,0.05,25.899999999999995,0)" xlink:href="#au"/><path fill="#6c7878" d="M-.9 1.25h41.7v1.32H-.9z"/></g><path fill="#6c7878" d="M210-169c-67 3-38 105-44 169h-31v-121c0-29-5-50-35-48C34-165 62-65 56 0H25l-1-190h30c1 10-1 24 2 32 10-44 99-50 107 0 11-21 27-35 58-36 85-2 47 119 55 194h-31v-121c0-29-5-49-35-48" id="ay"/><g id="v"><use transform="matrix(0.05,0,0,0.05,0,0)" xlink:href="#ah"/><use transform="matrix(0.05,0,0,0.05,9,0)" xlink:href="#av"/><use transform="matrix(0.05,0,0,0.05,19,0)" xlink:href="#am"/><use transform="matrix(0.05,0,0,0.05,29,0)" xlink:href="#ay"/><use transform="matrix(0.05,0,0,0.05,43.95,0)" xlink:href="#V"/><use transform="matrix(0.05,0,0,0.05,47.900000000000006,0)" xlink:href="#X"/><path fill="#6c7878" d="M-.9 1.25h54.7v1.32H-.9z"/></g><g id="w"><use transform="matrix(0.05,0,0,0.05,0,0)" xlink:href="#Z"/><use transform="matrix(0.05,0,0,0.05,3.95,0)" xlink:href="#Y"/><use transform="matrix(0.05,0,0,0.05,13.949999999999998,0)" xlink:href="#ah"/><use transform="matrix(0.05,0,0,0.05,22.95,0)" xlink:href="#X"/><path fill="#6c7878" d="M-.9 1.25h34.75v1.32H-.9z"/></g><path fill="#6c7878" d="M103-251c84 0 111 97 45 133-19 10-37 24-39 52H78c0-63 77-55 77-114 0-30-21-42-52-43-32 0-53 17-56 46l-32-2c7-45 34-72 88-72zM77 0v-35h34V0H77" id="az"/><g id="x"><use transform="matrix(0.05,0,0,0.05,0,0)" xlink:href="#ad"/><use transform="matrix(0.05,0,0,0.05,5.95,0)" xlink:href="#af"/><use transform="matrix(0.05,0,0,0.05,15.949999999999998,0)" xlink:href="#ag"/><use transform="matrix(0.05,0,0,0.05,28.899999999999995,0)" xlink:href="#az"/><path fill="#6c7878" d="M-.9 1.25h40.7v1.32H-.9z"/></g><g id="y"><use transform="matrix(0.05,0,0,0.05,0,0)" xlink:href="#W"/><use transform="matrix(0.05,0,0,0.05,10,0)" xlink:href="#af"/></g><g id="z"><use transform="matrix(0.05,0,0,0.05,0,0)" xlink:href="#ad"/><use transform="matrix(0.05,0,0,0.05,5.95,0)" xlink:href="#ab"/><use transform="matrix(0.05,0,0,0.05,15.949999999999998,0)" xlink:href="#Y"/><use transform="matrix(0.05,0,0,0.05,25.950000000000003,0)" xlink:href="#ae"/></g><g id="A"><use transform="matrix(0.05,0,0,0.05,0,0)" xlink:href="#ad"/><use transform="matrix(0.05,0,0,0.05,5.95,0)" xlink:href="#ab"/><use transform="matrix(0.05,0,0,0.05,15.949999999999998,0)" xlink:href="#ah"/><use transform="matrix(0.05,0,0,0.05,24.95,0)" xlink:href="#av"/><use transform="matrix(0.05,0,0,0.05,34.95,0)" xlink:href="#Z"/><use transform="matrix(0.05,0,0,0.05,38.900000000000006,0)" xlink:href="#X"/></g><g id="B"><use transform="matrix(0.05,0,0,0.05,0,0)" xlink:href="#ab"/><use transform="matrix(0.05,0,0,0.05,10,0)" xlink:href="#ak"/><use transform="matrix(0.05,0,0,0.05,19,0)" xlink:href="#X"/><use transform="matrix(0.05,0,0,0.05,24,0)" xlink:href="#ad"/><use transform="matrix(0.05,0,0,0.05,29.950000000000003,0)" xlink:href="#Y"/><use transform="matrix(0.05,0,0,0.05,39.95,0)" xlink:href="#al"/><use transform="matrix(0.05,0,0,0.05,48.95,0)" xlink:href="#X"/></g><g id="C"><use transform="matrix(0.05,0,0,0.05,0,0)" xlink:href="#ah"/><use transform="matrix(0.05,0,0,0.05,9,0)" xlink:href="#av"/><use transform="matrix(0.05,0,0,0.05,19,0)" xlink:href="#al"/><use transform="matrix(0.05,0,0,0.05,28,0)" xlink:href="#al"/><use transform="matrix(0.05,0,0,0.05,37,0)" xlink:href="#ab"/><use transform="matrix(0.05,0,0,0.05,47,0)" xlink:href="#ah"/><use transform="matrix(0.05,0,0,0.05,56,0)" xlink:href="#ah"/></g><g id="D"><use transform="matrix(0.05,0,0,0.05,0,0)" xlink:href="#ad"/><use transform="matrix(0.05,0,0,0.05,5.95,0)" xlink:href="#Y"/><use transform="matrix(0.05,0,0,0.05,15.949999999999998,0)" xlink:href="#X"/><use transform="matrix(0.05,0,0,0.05,20.95,0)" xlink:href="#ab"/></g><g id="E"><use transform="matrix(0.05,0,0,0.05,0,0)" xlink:href="#ae"/><use transform="matrix(0.05,0,0,0.05,10,0)" xlink:href="#av"/><use transform="matrix(0.05,0,0,0.05,20,0)" xlink:href="#ad"/><use transform="matrix(0.05,0,0,0.05,25.950000000000003,0)" xlink:href="#Y"/><use transform="matrix(0.05,0,0,0.05,35.95,0)" xlink:href="#X"/><use transform="matrix(0.05,0,0,0.05,40.95,0)" xlink:href="#V"/><use transform="matrix(0.05,0,0,0.05,44.900000000000006,0)" xlink:href="#af"/><use transform="matrix(0.05,0,0,0.05,54.900000000000006,0)" xlink:href="#W"/></g><g id="F"><use transform="matrix(0.05,0,0,0.05,0,0)" xlink:href="#ae"/><use transform="matrix(0.05,0,0,0.05,10,0)" xlink:href="#ab"/><use transform="matrix(0.05,0,0,0.05,20,0)" xlink:href="#Z"/><use transform="matrix(0.05,0,0,0.05,23.95,0)" xlink:href="#ab"/><use transform="matrix(0.05,0,0,0.05,33.95,0)" xlink:href="#X"/><use transform="matrix(0.05,0,0,0.05,38.95,0)" xlink:href="#ab"/></g><g id="G"><use transform="matrix(0.05,0,0,0.05,0,0)" xlink:href="#al"/><use transform="matrix(0.05,0,0,0.05,9,0)" xlink:href="#Z"/><use transform="matrix(0.05,0,0,0.05,12.949999999999998,0)" xlink:href="#af"/><use transform="matrix(0.05,0,0,0.05,22.95,0)" xlink:href="#ah"/><use transform="matrix(0.05,0,0,0.05,31.950000000000003,0)" xlink:href="#ab"/></g><g id="H"><use transform="matrix(0.05,0,0,0.05,0,0)" xlink:href="#ai"/><use transform="matrix(0.05,0,0,0.05,10,0)" xlink:href="#ad"/><use transform="matrix(0.05,0,0,0.05,15.949999999999998,0)" xlink:href="#af"/><use transform="matrix(0.05,0,0,0.05,25.950000000000003,0)" xlink:href="#ao"/><use transform="matrix(0.05,0,0,0.05,35.95,0)" xlink:href="#ad"/><use transform="matrix(0.05,0,0,0.05,41.900000000000006,0)" xlink:href="#Y"/><use transform="matrix(0.05,0,0,0.05,51.900000000000006,0)" xlink:href="#ay"/><use transform="matrix(0.05,0,0,0.05,66.85000000000001,0)" xlink:href="#ah"/></g><g id="I"><use transform="matrix(0.05,0,0,0.05,0,0)" xlink:href="#ah"/><use transform="matrix(0.05,0,0,0.05,9,0)" xlink:href="#ab"/><use transform="matrix(0.05,0,0,0.05,19,0)" xlink:href="#W"/><use transform="matrix(0.05,0,0,0.05,29,0)" xlink:href="#ae"/></g><g id="J"><use transform="matrix(0.05,0,0,0.05,0,0)" xlink:href="#ad"/><use transform="matrix(0.05,0,0,0.05,5.95,0)" xlink:href="#ab"/><use transform="matrix(0.05,0,0,0.05,15.949999999999998,0)" xlink:href="#ai"/><use transform="matrix(0.05,0,0,0.05,25.950000000000003,0)" xlink:href="#af"/><use transform="matrix(0.05,0,0,0.05,35.95,0)" xlink:href="#ad"/><use transform="matrix(0.05,0,0,0.05,41.900000000000006,0)" xlink:href="#X"/><use transform="matrix(0.05,0,0,0.05,46.900000000000006,0)" xlink:href="#V"/><use transform="matrix(0.05,0,0,0.05,50.85000000000001,0)" xlink:href="#W"/><use transform="matrix(0.05,0,0,0.05,60.85,0)" xlink:href="#ao"/></g><g id="K"><use transform="matrix(0.05,0,0,0.05,0,0)" xlink:href="#ab"/><use transform="matrix(0.05,0,0,0.05,10,0)" xlink:href="#W"/><use transform="matrix(0.05,0,0,0.05,20,0)" xlink:href="#ae"/></g><g id="L"><use transform="matrix(0.05,0,0,0.05,0,0)" xlink:href="#V"/><use transform="matrix(0.05,0,0,0.05,3.95,0)" xlink:href="#at"/></g><g id="M"><use transform="matrix(0.05,0,0,0.05,0,0)" xlink:href="#ae"/><use transform="matrix(0.05,0,0,0.05,10,0)" xlink:href="#Y"/><use transform="matrix(0.05,0,0,0.05,20,0)" xlink:href="#X"/><use transform="matrix(0.05,0,0,0.05,25,0)" xlink:href="#Y"/></g><g id="N"><use transform="matrix(0.05,0,0,0.05,0,0)" xlink:href="#W"/><use transform="matrix(0.05,0,0,0.05,10,0)" xlink:href="#af"/><use transform="matrix(0.05,0,0,0.05,20,0)" xlink:href="#X"/></g><g id="O"><use transform="matrix(0.05,0,0,0.05,0,0)" xlink:href="#al"/><use transform="matrix(0.05,0,0,0.05,9,0)" xlink:href="#af"/><use transform="matrix(0.05,0,0,0.05,19,0)" xlink:href="#ad"/><use transform="matrix(0.05,0,0,0.05,24.95,0)" xlink:href="#ad"/><use transform="matrix(0.05,0,0,0.05,30.899999999999995,0)" xlink:href="#ab"/><use transform="matrix(0.05,0,0,0.05,40.9,0)" xlink:href="#al"/><use transform="matrix(0.05,0,0,0.05,49.9,0)" xlink:href="#X"/></g><g id="P"><use transform="matrix(0.05,0,0,0.05,0,0)" xlink:href="#V"/><use transform="matrix(0.05,0,0,0.05,3.95,0)" xlink:href="#W"/><use transform="matrix(0.05,0,0,0.05,13.949999999999998,0)" xlink:href="#at"/><use transform="matrix(0.05,0,0,0.05,18.95,0)" xlink:href="#af"/><use transform="matrix(0.05,0,0,0.05,28.950000000000003,0)" xlink:href="#ad"/><use transform="matrix(0.05,0,0,0.05,34.9,0)" xlink:href="#ay"/></g><path fill="#6c7878" d="M106-169C34-169 62-67 57 0H25v-261h32l-1 103c12-21 28-36 61-36 89 0 53 116 60 194h-32v-121c2-32-8-49-39-48" id="aA"/><g id="Q"><use transform="matrix(0.05,0,0,0.05,0,0)" xlink:href="#aA"/><use transform="matrix(0.05,0,0,0.05,10,0)" xlink:href="#av"/><use transform="matrix(0.05,0,0,0.05,20,0)" xlink:href="#ay"/><use transform="matrix(0.05,0,0,0.05,34.95,0)" xlink:href="#Y"/><use transform="matrix(0.05,0,0,0.05,44.95,0)" xlink:href="#W"/></g><g id="R"><use transform="matrix(0.05,0,0,0.05,0,0)" xlink:href="#ag"/><use transform="matrix(0.05,0,0,0.05,12.950000000000001,0)" xlink:href="#ab"/><use transform="matrix(0.05,0,0,0.05,22.950000000000003,0)" xlink:href="#am"/><use transform="matrix(0.05,0,0,0.05,32.95,0)" xlink:href="#ai"/><use transform="matrix(0.05,0,0,0.05,42.95,0)" xlink:href="#Y"/><use transform="matrix(0.05,0,0,0.05,52.95,0)" xlink:href="#ao"/><use transform="matrix(0.05,0,0,0.05,62.95,0)" xlink:href="#ab"/></g><g id="S"><use transform="matrix(0.05,0,0,0.05,0,0)" xlink:href="#W"/><use transform="matrix(0.05,0,0,0.05,10,0)" xlink:href="#af"/><use transform="matrix(0.05,0,0,0.05,20,0)" xlink:href="#X"/></g><g id="T"><use transform="matrix(0.05,0,0,0.05,0,0)" xlink:href="#Y"/><use transform="matrix(0.05,0,0,0.05,10,0)" xlink:href="#an"/><use transform="matrix(0.05,0,0,0.05,19,0)" xlink:href="#Y"/><use transform="matrix(0.05,0,0,0.05,29,0)" xlink:href="#V"/><use transform="matrix(0.05,0,0,0.05,32.95,0)" xlink:href="#Z"/><use transform="matrix(0.05,0,0,0.05,36.900000000000006,0)" xlink:href="#Y"/><use transform="matrix(0.05,0,0,0.05,46.900000000000006,0)" xlink:href="#am"/><use transform="matrix(0.05,0,0,0.05,56.900000000000006,0)" xlink:href="#Z"/><use transform="matrix(0.05,0,0,0.05,60.85,0)" xlink:href="#ab"/></g><g id="U"><use transform="matrix(0.05,0,0,0.05,0,0)" xlink:href="#V"/><use transform="matrix(0.05,0,0,0.05,3.95,0)" xlink:href="#W"/><use transform="matrix(0.05,0,0,0.05,13.949999999999998,0)" xlink:href="#at"/><use transform="matrix(0.05,0,0,0.05,18.95,0)" xlink:href="#af"/><use transform="matrix(0.05,0,0,0.05,28.950000000000003,0)" xlink:href="#ad"/><use transform="matrix(0.05,0,0,0.05,34.9,0)" xlink:href="#ay"/></g></defs></g></svg>