<svg xmlns="http://www.w3.org/2000/svg" xmlns:xlink="http://www.w3.org/1999/xlink" xmlns:lucid="lucid" width="1088.72" height="240"><g transform="translate(0 0)" lucid:page-tab-id="_hQ8zkRaX~wp"><path d="M0 0h1088.72v240H0z" fill="#fdf6e3"/><path d="M20 20h1050v40H20z" stroke="#a5a5a5" stroke-width="2" fill="#f6edc5"/><use xlink:href="#a" transform="matrix(1,0,0,1,20,20) translate(395.6036328125 26.0927734375)"/><use xlink:href="#b" transform="matrix(1,0,0,1,20,20) translate(498.3477734375 26.0927734375)"/><use xlink:href="#c" transform="matrix(1,0,0,1,20,20) translate(591.0196484375 26.0927734375)"/><path d="M182 125h41.5" stroke="#6c7777" stroke-width="2" fill="none"/><path d="M182.03 126H181v-2h1.03z" stroke="#6c7777" stroke-width=".05" fill="#6c7777"/><path d="M238.76 125l-14.26 4.63v-9.27z" stroke="#6c7777" stroke-width="2" fill="#6c7777"/><path d="M405 125h41.5" stroke="#6c7777" stroke-width="2" fill="none"/><path d="M405.03 126H404v-2h1.03z" stroke="#6c7777" stroke-width=".05" fill="#6c7777"/><path d="M461.76 125l-14.26 4.63v-9.27z" stroke="#6c7777" stroke-width="2" fill="#6c7777"/><path d="M628 125h41.5" stroke="#6c7777" stroke-width="2" fill="none"/><path d="M628.03 126H627v-2h1.03z" stroke="#6c7777" stroke-width=".05" fill="#6c7777"/><path d="M684.76 125l-14.26 4.63v-9.27z" stroke="#6c7777" stroke-width="2" fill="#6c7777"/><path d="M851 125h41.5" stroke="#6c7777" stroke-width="2" fill="none"/><path d="M851.03 126H850v-2h1.03z" stroke="#6c7777" stroke-width=".05" fill="#6c7777"/><path d="M907.76 125l-14.26 4.63v-9.27z" stroke="#6c7777" stroke-width="2" fill="#6c7777"/><path d="M20 80h160v90H20z" stroke="#a5a5a5" stroke-width="2" fill="#f6edc5"/><use xlink:href="#d" transform="matrix(1,0,0,1,20,80) translate(50.201289062499995 49.8427734375)"/><path d="M146 140l24 22.5V215h-60v-75z" stroke="#a5a5a5" stroke-width="2" fill="#f6edc5"/><path d="M146 140v22.5h24" stroke="#a5a5a5" stroke-width="2" fill="none"/><use xlink:href="#e" transform="matrix(1,0,0,1,110,215) translate(-1.91748046875 16.24462890625)"/><path d="M243 80h160v90H243z" stroke="#a5a5a5" stroke-width="2" fill="#f6edc5"/><use xlink:href="#f" transform="matrix(1,0,0,1,243,80) translate(64.03527343750001 49.8427734375)"/><path d="M369 140l24 22.5V215h-60v-75z" stroke="#a5a5a5" stroke-width="2" fill="#f6edc5"/><path d="M369 140v22.5h24" stroke="#a5a5a5" stroke-width="2" fill="none"/><use xlink:href="#g" transform="matrix(1,0,0,1,333,215) translate(12.3515625 16.24462890625)"/><path d="M466 80h160v90H466z" stroke="#a5a5a5" stroke-width="2" fill="#f6edc5"/><use xlink:href="#h" transform="matrix(1,0,0,1,466,80) translate(61.48205078125 49.8427734375)"/><path d="M592 140l24 22.5V215h-60v-75z" stroke="#a5a5a5" stroke-width="2" fill="#f6edc5"/><path d="M592 140v22.5h24" stroke="#a5a5a5" stroke-width="2" fill="none"/><use xlink:href="#i" transform="matrix(1,0,0,1,556,215) translate(13.02392578125 16.24462890625)"/><path d="M689 80h160v90H689z" stroke="#a5a5a5" stroke-width="2" fill="#f6edc5"/><use xlink:href="#j" transform="matrix(1,0,0,1,689,80) translate(54.85509765625 49.8427734375)"/><path d="M815 140l24 22.5V215h-60v-75z" stroke="#a5a5a5" stroke-width="2" fill="#f6edc5"/><path d="M815 140v22.5h24" stroke="#a5a5a5" stroke-width="2" fill="none"/><use xlink:href="#k" transform="matrix(1,0,0,1,779,215) translate(-7.99072265625 16.24462890625)"/><path d="M912 80h160v90H912z" stroke="#a5a5a5" stroke-width="2" fill="#f6edc5"/><use xlink:href="#l" transform="matrix(1,0,0,1,912,80) translate(67.09826171875001 49.8427734375)"/><path d="M1038 140l24 22.5V215h-60v-75z" stroke="#a5a5a5" stroke-width="2" fill="#f6edc5"/><path d="M1038 140v22.5h24" stroke="#a5a5a5" stroke-width="2" fill="none"/><g><use xlink:href="#m" transform="matrix(1,0,0,1,1002,215) translate(-1.63623046875 16.24462890625)"/></g><defs><path fill="#6c7878" d="M1225-899c183 0 215 136 215 326v323c7 157-4 171 131 187 11 9 9 58 0 67-262-5-160-5-420 0-11-9-11-58 0-67 130-15 127-35 127-187v-360c0-121-42-183-127-183-90 0-176 45-258 136 4 127-2 276 2 407 5 152-6 170 121 187 11 9 9 58 0 67-263-5-149-5-410 0-11-9-9-58 0-67 133-15 127-32 127-187v-356c0-124-45-186-135-187-57 0-128 40-209 121-24 24-35 53-35 86 4 144-17 336 10 458 13 58 41 55 113 65 12 9 12 58 0 67C222-2 306-1 53 4c-12-9-12-58 0-67 136-15 140-32 140-187v-399c-4-124-19-123-134-139-8-23-9-43-4-58 130-17 224-36 283-59 17 0 25 5 24 16-7 63-9 115-9 156 0 24 13 9 20 0 105-111 205-166 299-166 103 0 187 66 205 150 3 13 11 14 22 1 95-101 204-151 326-151" id="n"/><path fill="#6c7878" d="M244-209c1 78 59 146 147 146 48 0 107-31 180-89 18-15 29-31 29-53v-272l-162 43c-130 34-195 109-194 225zM932-72c-25 44-101 91-174 92-82 1-135-39-158-118C507-39 468 23 332 20 180 17 74-46 74-201c0-68 33-126 93-180 95-85 268-124 421-160 8-3 12-11 12-24 0-177-55-266-166-266-74 0-168 20-170 86-2 41 11 40 10 77-1 36-45 68-90 68-48 0-72-24-71-72-1-122 201-227 338-227 206 0 309 115 309 346 0 128-5 274 3 395 3 41 31 87 79 84 23 6 54-26 63-32 8 0 29 24 27 34" id="o"/><path fill="#6c7878" d="M764-561c5-134-34-232-133-232-75 0-156 39-238 121-25 25-35 55-35 86v336c7 153-4 168 123 187 12 9 12 58 0 67C227-2 305-1 53 4c-12-9-12-58 0-67 142-18 144-25 144-187v-399c-4-124-18-123-134-139-8-23-9-43-4-58 131-18 226-38 283-59 17 0 25 5 25 16 0 63-11 115-11 156 0 18 6 17 21 0 96-106 162-166 323-166 78 0 133 25 170 70 75 93 50 392 56 579 5 158 2 168 137 187 11 9 11 58 0 67-262-5-167-5-426 0-11-9-11-58 0-67 129-18 127-33 127-187v-311" id="p"/><path fill="#6c7878" d="M291-618c-1 154 34 276 190 276 115 0 172-76 172-229 1-153-57-265-198-265-109 0-164 73-164 218zM750 59c-55-39-273-28-398-28-30 0-57-4-82-11-42 51-63 115-63 193 0 61 30 107 86 145 107 72 216 62 346 29 98-25 215-90 215-201 0-76-44-85-104-127zm235-929c0 39-38 78-76 77-48 9-55-61-98-61-26 0-71 32-82 49 59 60 88 131 88 213 0 256-308 388-532 270-25 34-37 74-37 119-2 98 92 129 192 113 159-25 367-1 437 57 122 101 111 249 3 355-105 103-289 165-489 165-170 0-325-62-325-233 0-98 56-181 167-248-63-31-94-84-94-158 1-80 41-169 90-206-71-68-106-145-106-230 0-181 171-311 350-311 85 0 156 19 213 57 35-54 129-101 205-104 49-1 94 30 94 76" id="q"/><path fill="#6c7878" d="M655-612c0-154-82-240-223-208-102 23-159 123-178 242l371-6c21 0 30-9 30-28zM537-80c134 0 179-37 254-110 23 1 38 12 43 32C743-39 626 20 485 20 230 21 76-149 76-414c0-145 43-261 130-349s180-132 279-132c231 0 346 119 346 356 0 23-13 35-38 35l-545-4C237-289 361-80 537-80" id="r"/><path fill="#6c7878" d="M51-838c-4-64 79-34 131-41 2-96-5-216-2-246 45-27 98-45 146-69 18 0 27 7 26 20-8 67-9 197-8 295h246c26-1 16 33 16 54 0 18-16 26-49 26H344v518c0 67 4 115 14 145s28 44 54 44c63 0 119-19 168-58 21 1 33 13 36 35C535-25 443 20 340 20c-105 0-158-67-158-202v-617H61c-16 0-8-25-10-39" id="s"/><path fill="#6c7878" d="M104-94c-1-58 50-103 109-101 93 3 135 98 135 203 0 140-121 244-242 264-12-12-18-28-18-49 74-11 180-96 180-164 0-37-24-56-73-63-60-8-90-39-91-90" id="t"/><g id="a"><use transform="matrix(0.0087890625,0,0,0.0087890625,0,0)" xlink:href="#n"/><use transform="matrix(0.0087890625,0,0,0.0087890625,14.0361328125,0)" xlink:href="#o"/><use transform="matrix(0.0087890625,0,0,0.0087890625,22.25390625,0)" xlink:href="#p"/><use transform="matrix(0.0087890625,0,0,0.0087890625,31.8955078125,0)" xlink:href="#o"/><use transform="matrix(0.0087890625,0,0,0.0087890625,40.11328125,0)" xlink:href="#q"/><use transform="matrix(0.0087890625,0,0,0.0087890625,48.8408203125,0)" xlink:href="#r"/><use transform="matrix(0.0087890625,0,0,0.0087890625,56.8828125,0)" xlink:href="#n"/><use transform="matrix(0.0087890625,0,0,0.0087890625,70.9189453125,0)" xlink:href="#r"/><use transform="matrix(0.0087890625,0,0,0.0087890625,78.9609375,0)" xlink:href="#p"/><use transform="matrix(0.0087890625,0,0,0.0087890625,88.6025390625,0)" xlink:href="#s"/><use transform="matrix(0.0087890625,0,0,0.0087890625,94.2890625,0)" xlink:href="#t"/></g><path fill="#6c7878" d="M518-899c288 6 430 185 430 461 0 178-69 301-188 384-69 48-151 74-246 74-135 0-240-45-316-134S84-305 84-420c0-262 168-485 434-479zm-22 68c-264 0-278 434-172 633 41 76 117 151 227 151 60 0 110-24 155-71 100-104 70-488-6-596-53-75-115-117-204-117" id="u"/><path fill="#6c7878" d="M768-760c0-49-43-48-102-55-12-9-13-58 0-68 191 4 172 7 331 0 12 9 13 60 0 68-121 14-132 51-175 151L549-23c-21 62-77 63-100 5-88-223-177-445-269-666-40-97-42-115-157-131-12-9-13-59 0-68 223 6 175 5 397 0 12 9 12 59 0 68-53 8-86 4-94 44 48 157 121 334 178 488 32 86 42 90 76 7l165-402c15-37 23-65 23-82" id="v"/><path fill="#6c7878" d="M637-698c-65-2-61-75-127-74-17 0-49 33-94 100-33 49-49 95-49 137v285c6 172 11 167 168 187 12 9 12 58 0 67C279-1 308-2 53 4c-12-9-12-58 0-67 146-15 152-24 152-187v-399c-3-121-21-123-133-139-7-7-11-48-4-58 130-17 223-36 280-59 18 0 27 5 27 14 0 66-10 120-10 164 0 19 10 11 18-2 43-75 122-165 227-170 67-3 120 43 123 98 3 48-48 104-96 103" id="w"/><path fill="#6c7878" d="M252-471c0 200 100 391 274 391 94 0 176-45 246-135 22 3 36 12 43 29C731-52 661 15 481 20 224 27 76-166 76-426c0-138 43-251 129-340s183-133 291-133c161 0 306 58 313 194 4 54-52 91-100 91-47 0-75-24-78-74-5-94-48-143-146-143-159 0-233 174-233 360" id="x"/><g id="b"><use transform="matrix(0.0087890625,0,0,0.0087890625,0,0)" xlink:href="#q"/><use transform="matrix(0.0087890625,0,0,0.0087890625,8.7275390625,0)" xlink:href="#u"/><use transform="matrix(0.0087890625,0,0,0.0087890625,17.6748046875,0)" xlink:href="#v"/><use transform="matrix(0.0087890625,0,0,0.0087890625,26.47265625,0)" xlink:href="#r"/><use transform="matrix(0.0087890625,0,0,0.0087890625,34.5146484375,0)" xlink:href="#w"/><use transform="matrix(0.0087890625,0,0,0.0087890625,41.23828125,0)" xlink:href="#p"/><use transform="matrix(0.0087890625,0,0,0.0087890625,50.8798828125,0)" xlink:href="#o"/><use transform="matrix(0.0087890625,0,0,0.0087890625,59.09765625,0)" xlink:href="#p"/><use transform="matrix(0.0087890625,0,0,0.0087890625,68.7392578125,0)" xlink:href="#x"/><use transform="matrix(0.0087890625,0,0,0.0087890625,76.3505859375,0)" xlink:href="#r"/><use transform="matrix(0.0087890625,0,0,0.0087890625,84.216796875,0)" xlink:href="#t"/></g><path fill="#6c7878" d="M520-49c214 0 289-167 289-377 0-112-24-204-71-274S634-805 565-805c-61 0-130 40-207 119-22 23-32 53-32 90v381c1 80 6 82 49 123 31 30 80 43 145 43zm465-432c0 273-176 501-453 501-67 0-126-10-178-31-21-9-28-12-28 15 0 110-16 319 28 373 17 21 65 31 140 35 12 9 12 58 0 67-256-5-223-6-478 0-12-9-12-58 0-67 144-12 148-28 148-187v-874c-4-124-18-123-133-139-8-23-9-43-4-58 125-17 217-36 276-59 18 0 27 5 27 14 0 38-8 82-8 131 0 13 15 14 20 6 70-70 167-140 281-145 206-9 362 209 362 418" id="y"/><path fill="#6c7878" d="M195-250c0-330-3-669-3-994 0-35-37-59-61-64-8-1-31-2-68-5-12-10-15-37-12-61 121-9 217-28 287-56 18 0 27 7 27 21 0 55-9 126-9 215v944c6 160 5 174 148 187 12 9 12 58 0 67C246-1 303-1 47 4c-12-9-12-58 0-67 144-12 148-28 148-187" id="z"/><path fill="#6c7878" d="M809-1282c0 37-49 84-84 84s-63-22-82-66c-26-61-47-96-123-96-108 0-162 122-162 365v116h222c26-1 16 33 16 54 0 18-16 26-47 26H358v549c6 168 8 170 162 187 12 9 12 58 0 67C263-1 319-2 63 4c-12-9-12-58 0-67 135-15 134-31 134-187v-549H55c-16 0-9-25-10-39-3-63 96-34 152-41-8-186 22-332 109-428 74-81 158-123 253-123 82 0 144 14 184 44 44 32 66 67 66 104" id="A"/><g id="c"><use transform="matrix(0.0087890625,0,0,0.0087890625,0,0)" xlink:href="#y"/><use transform="matrix(0.0087890625,0,0,0.0087890625,9.333984375,0)" xlink:href="#z"/><use transform="matrix(0.0087890625,0,0,0.0087890625,14.080078125,0)" xlink:href="#o"/><use transform="matrix(0.0087890625,0,0,0.0087890625,22.2978515625,0)" xlink:href="#s"/><use transform="matrix(0.0087890625,0,0,0.0087890625,27.984375,0)" xlink:href="#A"/><use transform="matrix(0.0087890625,0,0,0.0087890625,33.556640625,0)" xlink:href="#u"/><use transform="matrix(0.0087890625,0,0,0.0087890625,42.626953125,0)" xlink:href="#w"/><use transform="matrix(0.0087890625,0,0,0.0087890625,49.3505859375,0)" xlink:href="#n"/></g><path fill="#6c7878" d="M283-1120c-48 0-99-59-99-107 0-47 61-98 107-98 50 0 98 58 98 106 0 46-57 99-106 99zm88 870c0 162 3 171 147 187 12 9 12 58 0 67C259-1 318-1 61 4c-12-9-12-58 0-67 144-18 148-24 148-187v-399c-4-124-18-123-133-139-8-23-9-43-4-58 127-17 220-36 280-59 18 0 27 5 27 14-14 218-8 417-8 641" id="B"/><path fill="#6c7878" d="M707-254v-389c-1-66-5-74-35-111-42-49-97-73-166-73-82 0-145 35-191 102-39 57-59 147-59 272 0 120 21 215 68 279 104 144 214 120 350 0 22-19 33-46 33-80zM528-899c54 0 120 24 160 35 12 0 18-6 19-19-1-114-3-255-3-361 0-35-37-59-61-64-8-1-31-2-68-5-12-10-15-37-12-61 121-9 217-28 287-56 18 0 27 7 27 21 0 55-9 126-9 215v928c4 120 31 135 150 149 12 11 12 45 0 56-115 13-197 40-248 81-21 5-21 6-39 0-15-48-22-88-22-120 0-15-17-11-25-3C584-21 499 20 428 20 200 21 80-177 80-416c0-261 191-483 448-483" id="C"/><g id="d"><use transform="matrix(0.0087890625,0,0,0.0087890625,0,0)" xlink:href="#B"/><use transform="matrix(0.0087890625,0,0,0.0087890625,4.8779296875,0)" xlink:href="#C"/><use transform="matrix(0.0087890625,0,0,0.0087890625,13.9833984375,0)" xlink:href="#r"/><use transform="matrix(0.0087890625,0,0,0.0087890625,22.11328125,0)" xlink:href="#o"/><use transform="matrix(0.0087890625,0,0,0.0087890625,30.3310546875,0)" xlink:href="#s"/><use transform="matrix(0.0087890625,0,0,0.0087890625,36.017578125,0)" xlink:href="#B"/><use transform="matrix(0.0087890625,0,0,0.0087890625,40.8955078125,0)" xlink:href="#u"/><use transform="matrix(0.0087890625,0,0,0.0087890625,49.9658203125,0)" xlink:href="#p"/></g><path fill="#6c7878" d="M760-561c3-134-32-232-133-232-85 0-169 39-250 121-24 24-35 54-35 86 4 145-16 338 10 460 12 57 41 54 112 63 12 9 13 58 0 67C210-2 290-1 37 4c-12-9-12-58 0-67 123 4 145-56 143-187-6-330-3-668-3-994 0-35-37-59-61-64-8-1-30-2-67-5-12-10-17-39-12-61 121-9 217-28 287-56 18 0 27 7 26 21-15 197-5 462-10 676-1 22 12 10 20 0 98-112 212-166 336-166 78 0 133 25 170 70 75 91 50 394 56 579 5 158 2 168 137 187 11 9 9 58 0 67-262-5-167-5-426 0-11-9-11-58 0-67 129-18 127-33 127-187v-311" id="D"/><path fill="#6c7878" d="M176-250c0-330-3-668-3-994 0-35-37-59-61-64-8-1-30-2-67-5-12-10-17-39-12-61 121-9 217-28 286-56 18 0 27 7 27 21-16 283-4 624-8 923 53-15 139-93 264-225 48-51 59-101-37-104-12-9-12-58 0-68 227 5 140 6 367 0 12 9 12 59 0 68-95 4-172 32-225 90L551-553c-12 13-9 34 2 49l240 354c43 64 85 72 176 87 12 9 12 58 0 67-159-5-171 0-310 0-14 0-8-29-8-43 0-29-15-66-47-111L455-360c-35-47-51-71-117-74 3 94-9 286 20 334 13 20 41 32 86 37 12 9 13 58 0 67C183-2 300-1 39 4c-12-9-12-58 0-67 137-15 137-30 137-187" id="E"/><path fill="#6c7878" d="M391 20C288 26 212-18 113 0c-1-71-6-166-15-283 9-12 53-14 64-2 23 97 51 159 80 189 84 88 319 55 319-94 0-45-14-82-42-109s-85-56-167-92c-142-63-220-101-225-279-4-133 149-229 289-229 90 0 193 26 268 39 1 36-14 179-12 217-9 12-55 14-66 2-17-111-73-184-190-190-100-4-177 97-132 201 16 36 73 69 107 85 18 8 47 20 86 35 160 61 240 151 240 272C717-56 566 9 391 20" id="F"/><g id="e"><use transform="matrix(0.0087890625,0,0,0.0087890625,0,0)" xlink:href="#x"/><use transform="matrix(0.0087890625,0,0,0.0087890625,7.611328125,0)" xlink:href="#D"/><use transform="matrix(0.0087890625,0,0,0.0087890625,17.1826171875,0)" xlink:href="#r"/><use transform="matrix(0.0087890625,0,0,0.0087890625,25.34765625,0)" xlink:href="#x"/><use transform="matrix(0.0087890625,0,0,0.0087890625,32.958984375,0)" xlink:href="#E"/><use transform="matrix(0.0087890625,0,0,0.0087890625,41.6337890625,0)" xlink:href="#z"/><use transform="matrix(0.0087890625,0,0,0.0087890625,46.3798828125,0)" xlink:href="#B"/><use transform="matrix(0.0087890625,0,0,0.0087890625,51.2578125,0)" xlink:href="#F"/><use transform="matrix(0.0087890625,0,0,0.0087890625,58.1484375,0)" xlink:href="#s"/></g><g id="f"><use transform="matrix(0.0087890625,0,0,0.0087890625,0,0)" xlink:href="#y"/><use transform="matrix(0.0087890625,0,0,0.0087890625,9.333984375,0)" xlink:href="#z"/><use transform="matrix(0.0087890625,0,0,0.0087890625,14.080078125,0)" xlink:href="#o"/><use transform="matrix(0.0087890625,0,0,0.0087890625,22.2978515625,0)" xlink:href="#p"/></g><path fill="#6c7878" d="M848-958c0-218-91-308-283-308-119 0-178 44-178 131v478c25 7 77 10 156 10 207-1 305-100 305-311zM35-1325c259 9 328-3 545-10 224-7 383 78 438 234 52 146-9 293-81 379-73 88-216 146-384 144-68 0-123-7-166-20v348c5 177 38 169 209 187 12 9 12 58 0 67C300-1 330-2 35 4c-12-9-12-58 0-67 161-12 178-18 178-187v-821c-6-169-17-174-178-186-12-9-12-59 0-68" id="G"/><path fill="#6c7878" d="M614-66c348 1 544-158 537-516-8-396-183-673-588-673-115 0-172 33-172 100v985c0 37 14 64 42 80s88 24 181 24zm292 40C747 22 491-3 305 0 261 0 172 1 39 4c-12-9-12-58 0-67 161-12 178-18 178-187v-821c-6-169-17-174-178-186-12-9-12-59 0-68 270 8 355 6 602 0 377-9 707 320 707 694 0 234-90 418-228 509-69 45-142 74-214 96" id="H"/><g id="g"><use transform="matrix(0.0087890625,0,0,0.0087890625,0,0)" xlink:href="#G"/><use transform="matrix(0.0087890625,0,0,0.0087890625,10.072265625,0)" xlink:href="#H"/><use transform="matrix(0.0087890625,0,0,0.0087890625,22.6845703125,0)" xlink:href="#H"/></g><path fill="#6c7878" d="M530-809c-90 0-207 46-208 152v512c52 64 101 96 147 96 205-1 289-192 289-410 0-164-84-350-228-350zM274-44c-34 12-42 39-77 69-21 0-36-8-45-25 5-26 8-74 8-145-2-365-3-738-3-1099 0-35-37-59-61-64-8-1-30-2-67-5-12-10-16-37-13-61 121-9 217-28 287-56 18 0 27 7 27 21 0 168-6 405-8 592 0 19 7 22 20 10 68-61 144-92 229-92 196-1 363 188 363 403 0 153-48 276-142 372S594 20 481 20c-80 0-140-17-180-50-11-9-20-13-27-14" id="I"/><path fill="#6c7878" d="M342-287c-3 138 55 211 164 211 53 0 117-33 192-98 22-19 33-46 33-80v-395c-4-126-13-156-127-166-12-9-12-58 0-68 146 2 189 8 281 0 11 0 16 4 16 13-14 230-8 378-8 604 0 120 30 135 149 149 12 11 13 45 0 56-115 13-197 40-247 81-17 5-24 8-39 0-15-49-23-89-23-120 0-15-16-11-24-3C608-21 520 20 444 20 263 20 180-90 180-258v-393c-3-125-17-152-127-164-12-9-12-58 0-68 146 2 189 8 281 0 11 0 16 4 16 13-14 224-4 363-8 583" id="J"/><g id="h"><use transform="matrix(0.0087890625,0,0,0.0087890625,0,0)" xlink:href="#I"/><use transform="matrix(0.0087890625,0,0,0.0087890625,8.8681640625,0)" xlink:href="#J"/><use transform="matrix(0.0087890625,0,0,0.0087890625,18.31640625,0)" xlink:href="#B"/><use transform="matrix(0.0087890625,0,0,0.0087890625,23.1943359375,0)" xlink:href="#z"/><use transform="matrix(0.0087890625,0,0,0.0087890625,27.9404296875,0)" xlink:href="#C"/></g><path fill="#6c7878" d="M104-993c-8-199 198-355 390-355 115 0 240 41 314 56 19 94 31 182 37 264-11 10-39 13-67 12-44-144-112-262-303-262-156 0-277 169-202 320 63 127 222 167 356 225 152 66 276 153 280 356 4 214-221 397-445 397-105 0-277-48-368-47-21-86-34-190-41-311 22-12 42-13 67-6C165-150 284-53 481-53c163 1 257-89 256-252-1-220-181-262-337-330-159-69-288-152-296-358" id="K"/><g id="i"><use transform="matrix(0.0087890625,0,0,0.0087890625,0,0)" xlink:href="#K"/><use transform="matrix(0.0087890625,0,0,0.0087890625,8.7275390625,0)" xlink:href="#H"/><use transform="matrix(0.0087890625,0,0,0.0087890625,21.33984375,0)" xlink:href="#H"/></g><g id="j"><use transform="matrix(0.0087890625,0,0,0.0087890625,0,0)" xlink:href="#C"/><use transform="matrix(0.0087890625,0,0,0.0087890625,9.10546875,0)" xlink:href="#r"/><use transform="matrix(0.0087890625,0,0,0.0087890625,17.1474609375,0)" xlink:href="#z"/><use transform="matrix(0.0087890625,0,0,0.0087890625,21.8935546875,0)" xlink:href="#B"/><use transform="matrix(0.0087890625,0,0,0.0087890625,26.771484375,0)" xlink:href="#v"/><use transform="matrix(0.0087890625,0,0,0.0087890625,35.5693359375,0)" xlink:href="#r"/><use transform="matrix(0.0087890625,0,0,0.0087890625,43.611328125,0)" xlink:href="#w"/></g><path fill="#6c7878" d="M600-1323L115 121H31l485-1444h84" id="L"/><path fill="#6c7878" d="M831-1241c-71-2-115 56-114 127v864c6 177 25 172 198 187 12 9 13 58 0 67-297-5-276-5-571 0-12-9-12-58 0-67 173-13 199-11 199-187v-870c0-68-46-121-117-121H264c-147 8-135 51-180 190-28 0-52-3-70-10 21-89 36-194 45-315 25-3 39 0 64 8 0 31 14 47 43 47h891c30 0 45-16 45-47 18-5 38-8 61-8 0 97 9 202 27 315-12 5-35 9-70 10-42-138-19-182-162-190H831" id="M"/><g id="k"><use transform="matrix(0.0087890625,0,0,0.0087890625,0,0)" xlink:href="#K"/><use transform="matrix(0.0087890625,0,0,0.0087890625,8.7275390625,0)" xlink:href="#H"/><use transform="matrix(0.0087890625,0,0,0.0087890625,21.33984375,0)" xlink:href="#H"/><use transform="matrix(0.0087890625,0,0,0.0087890625,33.9521484375,0)" xlink:href="#L"/><use transform="matrix(0.0087890625,0,0,0.0087890625,39.76171875,0)" xlink:href="#M"/><use transform="matrix(0.0087890625,0,0,0.0087890625,50.7568359375,0)" xlink:href="#H"/><use transform="matrix(0.0087890625,0,0,0.0087890625,63.369140625,0)" xlink:href="#H"/></g><g id="l"><use transform="matrix(0.0087890625,0,0,0.0087890625,0,0)" xlink:href="#w"/><use transform="matrix(0.0087890625,0,0,0.0087890625,6.7236328125,0)" xlink:href="#J"/><use transform="matrix(0.0087890625,0,0,0.0087890625,16.171875,0)" xlink:href="#p"/></g><path fill="#6c7878" d="M610-539c0 21-32 82-55 82H113c-21 0-31-13-31-39 0-31 24-84 51-84h449c19 0 28 14 28 41" id="N"/><g id="m"><use transform="matrix(0.0087890625,0,0,0.0087890625,0,0)" xlink:href="#u"/><use transform="matrix(0.0087890625,0,0,0.0087890625,9.0703125,0)" xlink:href="#y"/><use transform="matrix(0.0087890625,0,0,0.0087890625,18.404296875,0)" xlink:href="#F"/><use transform="matrix(0.0087890625,0,0,0.0087890625,25.294921875,0)" xlink:href="#N"/><use transform="matrix(0.0087890625,0,0,0.0087890625,31.376953125,0)" xlink:href="#n"/><use transform="matrix(0.0087890625,0,0,0.0087890625,45.4130859375,0)" xlink:href="#o"/><use transform="matrix(0.0087890625,0,0,0.0087890625,53.630859375,0)" xlink:href="#p"/></g></defs></g></svg>