<svg id="Group_593" data-name="Group 593" xmlns="http://www.w3.org/2000/svg" width="29.798" height="41.951" viewBox="0 0 29.798 41.951">
  <path id="Path_517" data-name="Path 517" d="M797.6,333.079a7.593,7.593,0,0,1,7.311,6.4h7.586V320.414h-7.447v7.346a15.014,15.014,0,0,0-7.45-1.9c-8.145,0-14.036,5.969-14.809,13.625h7.532a7.649,7.649,0,0,1,7.277-6.4" transform="translate(-782.697 -320.414)" fill="#00a7bc"/>
  <path id="Path_518" data-name="Path 518" d="M797.17,414.909h-7.283v-4.437H782.44v18.372h7.447v-6.708h8.189a14.044,14.044,0,0,0,13.878-11.664h-7.773a7.454,7.454,0,0,1-7.012,4.437" transform="translate(-782.44 -386.893)"/>
</svg>
