<?xml version="1.0" encoding="UTF-8" standalone="no"?>
<!-- Created with Inkscape (http://www.inkscape.org/) -->

<svg
   width="640"
   height="400"
   viewBox="0 0 169.33333 105.83334"
   version="1.1"
   id="svg32097"
   inkscape:version="1.1 (c68e22c387, 2021-05-23)"
   sodipodi:docname="home-sweet-office_onair_level1-3.svg"
   inkscape:export-filename="S:\github.com\cprima\cprimanet\tec\log\homeoffice-onair\images\home-sweet-office_onair_level1-3.png"
   inkscape:export-xdpi="96"
   inkscape:export-ydpi="96"
   xmlns:inkscape="http://www.inkscape.org/namespaces/inkscape"
   xmlns:sodipodi="http://sodipodi.sourceforge.net/DTD/sodipodi-0.dtd"
   xmlns:xlink="http://www.w3.org/1999/xlink"
   xmlns="http://www.w3.org/2000/svg"
   xmlns:svg="http://www.w3.org/2000/svg">
  <sodipodi:namedview
     id="namedview32099"
     pagecolor="#ffffff"
     bordercolor="#666666"
     borderopacity="1.0"
     inkscape:pageshadow="2"
     inkscape:pageopacity="0.0"
     inkscape:pagecheckerboard="0"
     inkscape:document-units="px"
     showgrid="false"
     units="px"
     inkscape:zoom="0.70710678"
     inkscape:cx="144.95689"
     inkscape:cy="239.7092"
     inkscape:window-width="2400"
     inkscape:window-height="1321"
     inkscape:window-x="1341"
     inkscape:window-y="545"
     inkscape:window-maximized="1"
     inkscape:current-layer="layer1" />
  <defs
     id="defs32094">
    <inkscape:path-effect
       effect="spiro"
       id="path-effect6045"
       is_visible="true"
       lpeversion="1" />
    <inkscape:path-effect
       effect="simplify"
       id="path-effect6043"
       is_visible="true"
       lpeversion="1"
       steps="1"
       threshold="0.00457143"
       smooth_angles="360"
       helper_size="0"
       simplify_individual_paths="false"
       simplify_just_coalesce="false" />
    <inkscape:path-effect
       effect="spiro"
       id="path-effect6039"
       is_visible="true"
       lpeversion="1" />
    <inkscape:path-effect
       effect="simplify"
       id="path-effect6037"
       is_visible="true"
       lpeversion="1"
       steps="1"
       threshold="0.00457143"
       smooth_angles="360"
       helper_size="0"
       simplify_individual_paths="false"
       simplify_just_coalesce="false" />
    <inkscape:path-effect
       effect="spiro"
       id="path-effect6033"
       is_visible="true"
       lpeversion="1" />
    <inkscape:path-effect
       effect="simplify"
       id="path-effect6031"
       is_visible="true"
       lpeversion="1"
       steps="1"
       threshold="0.00457143"
       smooth_angles="360"
       helper_size="0"
       simplify_individual_paths="false"
       simplify_just_coalesce="false" />
    <inkscape:path-effect
       effect="spiro"
       id="path-effect6027"
       is_visible="true"
       lpeversion="1" />
    <inkscape:path-effect
       effect="simplify"
       id="path-effect6025"
       is_visible="true"
       lpeversion="1"
       steps="1"
       threshold="0.00457143"
       smooth_angles="360"
       helper_size="0"
       simplify_individual_paths="false"
       simplify_just_coalesce="false" />
    <inkscape:path-effect
       effect="spiro"
       id="path-effect6021"
       is_visible="true"
       lpeversion="1" />
    <inkscape:path-effect
       effect="simplify"
       id="path-effect6019"
       is_visible="true"
       lpeversion="1"
       steps="1"
       threshold="0.00457143"
       smooth_angles="360"
       helper_size="0"
       simplify_individual_paths="false"
       simplify_just_coalesce="false" />
    <inkscape:path-effect
       effect="spiro"
       id="path-effect6015"
       is_visible="true"
       lpeversion="1" />
    <inkscape:path-effect
       effect="simplify"
       id="path-effect6013"
       is_visible="true"
       lpeversion="1"
       steps="1"
       threshold="0.00457143"
       smooth_angles="360"
       helper_size="0"
       simplify_individual_paths="false"
       simplify_just_coalesce="false" />
    <inkscape:path-effect
       effect="spiro"
       id="path-effect6009"
       is_visible="true"
       lpeversion="1" />
    <inkscape:path-effect
       effect="simplify"
       id="path-effect6007"
       is_visible="true"
       lpeversion="1"
       steps="1"
       threshold="0.00457143"
       smooth_angles="360"
       helper_size="0"
       simplify_individual_paths="false"
       simplify_just_coalesce="false" />
    <inkscape:path-effect
       effect="spiro"
       id="path-effect6003"
       is_visible="true"
       lpeversion="1" />
    <inkscape:path-effect
       effect="simplify"
       id="path-effect6001"
       is_visible="true"
       lpeversion="1"
       steps="1"
       threshold="0.00457143"
       smooth_angles="360"
       helper_size="0"
       simplify_individual_paths="false"
       simplify_just_coalesce="false" />
    <inkscape:path-effect
       effect="spiro"
       id="path-effect5997"
       is_visible="true"
       lpeversion="1" />
    <inkscape:path-effect
       effect="simplify"
       id="path-effect5995"
       is_visible="true"
       lpeversion="1"
       steps="1"
       threshold="0.00457143"
       smooth_angles="360"
       helper_size="0"
       simplify_individual_paths="false"
       simplify_just_coalesce="false" />
    <inkscape:path-effect
       effect="spiro"
       id="path-effect5991"
       is_visible="true"
       lpeversion="1" />
    <inkscape:path-effect
       effect="simplify"
       id="path-effect5989"
       is_visible="true"
       lpeversion="1"
       steps="1"
       threshold="0.00457143"
       smooth_angles="360"
       helper_size="0"
       simplify_individual_paths="false"
       simplify_just_coalesce="false" />
    <inkscape:path-effect
       effect="spiro"
       id="path-effect5985"
       is_visible="true"
       lpeversion="1" />
    <inkscape:path-effect
       effect="simplify"
       id="path-effect5983"
       is_visible="true"
       lpeversion="1"
       steps="1"
       threshold="0.00457143"
       smooth_angles="360"
       helper_size="0"
       simplify_individual_paths="false"
       simplify_just_coalesce="false" />
    <inkscape:path-effect
       effect="spiro"
       id="path-effect5979"
       is_visible="true"
       lpeversion="1" />
    <inkscape:path-effect
       effect="simplify"
       id="path-effect5977"
       is_visible="true"
       lpeversion="1"
       steps="1"
       threshold="0.00457143"
       smooth_angles="360"
       helper_size="0"
       simplify_individual_paths="false"
       simplify_just_coalesce="false" />
    <inkscape:path-effect
       effect="simplify"
       id="path-effect5971"
       is_visible="true"
       lpeversion="1"
       steps="1"
       threshold="0.00457143"
       smooth_angles="360"
       helper_size="0"
       simplify_individual_paths="false"
       simplify_just_coalesce="false" />
    <inkscape:path-effect
       effect="spiro"
       id="path-effect5967"
       is_visible="true"
       lpeversion="1" />
    <inkscape:path-effect
       effect="simplify"
       id="path-effect5965"
       is_visible="true"
       lpeversion="1"
       steps="1"
       threshold="0.00457143"
       smooth_angles="360"
       helper_size="0"
       simplify_individual_paths="false"
       simplify_just_coalesce="false" />
    <inkscape:path-effect
       effect="spiro"
       id="path-effect5961"
       is_visible="true"
       lpeversion="1" />
    <inkscape:path-effect
       effect="simplify"
       id="path-effect5959"
       is_visible="true"
       lpeversion="1"
       steps="1"
       threshold="0.00457143"
       smooth_angles="360"
       helper_size="0"
       simplify_individual_paths="false"
       simplify_just_coalesce="false" />
    <mask
       maskUnits="userSpaceOnUse"
       id="mask40781">
      <path
         style="fill:#ffffff;fill-opacity:1;stroke:#cb4b16;stroke-width:3.47889;stroke-linecap:butt;stroke-linejoin:miter;stroke-miterlimit:4;stroke-dasharray:none;stroke-opacity:1"
         d="m 168.72477,67.311524 c 0.93692,-2.968168 20.14304,-23.734619 24.01093,-23.497284 3.8679,0.23732 15.65847,23.535814 15.65847,23.535814 0,0 -38.07219,2.929635 -39.6694,-0.03857 z"
         id="path40783"
         sodipodi:nodetypes="csccc" />
    </mask>
  </defs>
  <g
     inkscape:label="Layer 1"
     inkscape:groupmode="layer"
     id="layer1">
    <rect
       style="opacity:1;fill:#eee8d5;fill-opacity:1;stroke:none;stroke-width:2.74926;stroke-linecap:round;stroke-linejoin:bevel;stroke-miterlimit:4;stroke-dasharray:none"
       id="rect50434"
       width="169.33334"
       height="105.83334"
       x="0"
       y="5.5511151e-17" />
    <g
       id="g59499"
       transform="translate(77.116084,-71.690679)">
      <g
         id="g5830"
         transform="translate(0.52916668,2.1166668)">
        <path
           id="path59493"
           style="opacity:1;fill:#fdf6e3;stroke-width:2.48708;stroke-linecap:round;stroke-linejoin:bevel"
           d="m 5.0870004,128.46655 a 7.5406251,7.0776043 0 0 0 7.5406246,7.07761 7.5406251,7.0776043 0 0 0 7.540626,-7.07761 7.5406251,7.0776043 0 0 0 -7.540626,-7.0776 7.5406251,7.0776043 0 0 0 -7.5406246,7.0776 z" />
        <path
           id="path59495"
           style="opacity:1;fill:#fdf6e3;stroke-width:2.48708;stroke-linecap:round;stroke-linejoin:bevel"
           d="m 3.5306894,122.95908 c -2.55055804,3.91915 -2.328127,8.58661 1.591024,11.13717 3.919151,2.55056 8.2768566,0.86382 10.8274116,-3.05533 2.550558,-3.91915 2.328127,-8.58661 -1.591024,-11.13717 -3.919151,-2.55056 -8.2768556,-0.86382 -10.8274116,3.05533 z"
           sodipodi:nodetypes="sssss" />
        <path
           id="path59497"
           style="opacity:1;fill:#cb4b16;stroke-width:1.94303;stroke-linecap:round;stroke-linejoin:bevel"
           d="m 5.0829934,123.96931 c -1.992618,3.06184 -2.012881,6.58201 1.048953,8.57463 3.061835,1.99262 6.2722516,0.54858 8.2648746,-2.51325 1.992619,-3.06184 2.012882,-6.58201 -1.048953,-8.57463 -3.061835,-1.99262 -6.2722516,-0.54858 -8.2648746,2.51325 z"
           sodipodi:nodetypes="sssss" />
      </g>
    </g>
    <g
       id="g51006"
       transform="translate(77.832341,-32.640049)">
      <path
         id="path50899"
         style="opacity:1;fill:#fdf6e3;stroke-width:2.48708;stroke-linecap:round;stroke-linejoin:bevel"
         d="m 5.0870004,128.46655 a 7.5406251,7.0776043 0 0 0 7.5406246,7.07761 7.5406251,7.0776043 0 0 0 7.540626,-7.07761 7.5406251,7.0776043 0 0 0 -7.540626,-7.0776 7.5406251,7.0776043 0 0 0 -7.5406246,7.0776 z" />
      <path
         id="path50591"
         style="opacity:1;fill:#fdf6e3;stroke-width:2.48708;stroke-linecap:round;stroke-linejoin:bevel"
         d="m 3.5306894,122.95908 c -2.55055804,3.91915 -2.328127,8.58661 1.591024,11.13717 3.919151,2.55056 8.2768566,0.86382 10.8274116,-3.05533 2.550558,-3.91915 2.328127,-8.58661 -1.591024,-11.13717 -3.919151,-2.55056 -8.2768556,-0.86382 -10.8274116,3.05533 z"
         sodipodi:nodetypes="sssss" />
      <path
         id="circle50615"
         style="opacity:1;fill:#859900;stroke-width:1.94303;stroke-linecap:round;stroke-linejoin:bevel"
         d="m 5.0829934,123.96931 c -1.992618,3.06184 -2.012881,6.58201 1.048953,8.57463 3.061835,1.99262 6.2722516,0.54858 8.2648746,-2.51325 1.992619,-3.06184 2.012882,-6.58201 -1.048953,-8.57463 -3.061835,-1.99262 -6.2722516,-0.54858 -8.2648746,2.51325 z"
         sodipodi:nodetypes="sssss" />
    </g>
    <g
       id="g59525"
       transform="translate(141.2875,-49.852207)">
      <path
         id="path59519"
         style="opacity:1;fill:#fdf6e3;stroke-width:2.48708;stroke-linecap:round;stroke-linejoin:bevel"
         d="m -58.897326,126.78275 a 7.5406251,7.0776043 0 0 0 7.540625,7.07761 7.5406251,7.0776043 0 0 0 7.540626,-7.07761 7.5406251,7.0776043 0 0 0 -7.540626,-7.0776 7.5406251,7.0776043 0 0 0 -7.540625,7.0776 z" />
      <path
         id="path59521"
         style="opacity:1;fill:#fdf6e3;stroke-width:2.48708;stroke-linecap:round;stroke-linejoin:bevel"
         d="m -60.453637,121.27528 c -2.550558,3.91915 -2.328127,8.58661 1.591024,11.13717 3.919151,2.55056 8.276857,0.86382 10.827412,-3.05533 2.550558,-3.91915 2.328127,-8.58661 -1.591024,-11.13717 -3.919151,-2.55056 -8.276856,-0.86382 -10.827412,3.05533 z"
         sodipodi:nodetypes="sssss" />
      <path
         id="path59523"
         style="opacity:1;fill:#b58900;stroke-width:1.94303;stroke-linecap:round;stroke-linejoin:bevel"
         d="m -58.901333,122.28551 c -1.992618,3.06184 -2.012881,6.58201 1.048953,8.57463 3.061835,1.99262 6.272252,0.54858 8.264875,-2.51325 1.992619,-3.06184 2.012882,-6.58201 -1.048953,-8.57463 -3.061835,-1.99262 -6.272252,-0.54858 -8.264875,2.51325 z"
         sodipodi:nodetypes="sssss" />
    </g>
    <g
       id="g50562"
       transform="matrix(1.5750777,0,0,1.5750777,-5.8002321,-68.344432)">
      <g
         id="g32297"
         transform="translate(-50.238807,-104.91045)">
        <g
           id="g26735"
           transform="matrix(0.65281056,0,0,0.73373588,-50.144096,120.99867)"
           mask="url(#mask40781)">
          <g
             id="g26878"
             transform="translate(74.257492,6.8069368)">
            <path
               style="color:#000000;fill:#586e75;stroke-width:1.89519;-inkscape-stroke:none"
               d="m 104.8342,40.178256 a 18.579629,17.046236 0 0 1 25.51546,5.756471 18.579629,17.046236 0 0 1 -6.2743,23.409646 18.579629,17.046236 0 0 1 -25.515451,-5.756474 18.579629,17.046236 0 0 1 6.274291,-23.409643 z"
               id="circle25900" />
            <path
               style="color:#000000;fill:#657b83;stroke-width:1.6583;-inkscape-stroke:none"
               d="m 104.22267,43.725446 a 16.257176,14.915458 0 0 1 22.32603,5.036915 16.257176,14.915458 0 0 1 -5.49001,20.483436 16.257176,14.915458 0 0 1 -22.326018,-5.03691 16.257176,14.915458 0 0 1 5.489998,-20.483441 z"
               id="circle26002" />
            <path
               style="color:#000000;fill:#839496;stroke-width:1.4214;-inkscape-stroke:none"
               d="m 104.20905,46.860012 a 13.934722,12.784678 0 0 1 19.13659,4.317352 13.934722,12.784678 0 0 1 -4.70572,17.557233 13.934722,12.784678 0 0 1 -19.136595,-4.317354 13.934722,12.784678 0 0 1 4.705725,-17.557231 z"
               id="circle26022" />
            <path
               style="color:#000000;fill:#93a1a1;stroke-width:1.1845;-inkscape-stroke:none"
               d="m 104.16105,49.339915 a 11.612269,10.653898 0 0 1 15.94716,3.597797 11.612269,10.653898 0 0 1 -3.92143,14.631023 11.612269,10.653898 0 0 1 -15.94716,-3.59779 11.612269,10.653898 0 0 1 3.92143,-14.63103 z"
               id="circle26042" />
            <path
               style="color:#000000;fill:#eee8d5;stroke-width:0.947605;-inkscape-stroke:none"
               d="m 103.49423,51.39835 a 9.2898145,8.5231181 0 0 1 12.75773,2.878233 9.2898145,8.5231181 0 0 1 -3.13715,11.704827 9.2898145,8.5231181 0 0 1 -12.75772,-2.878241 9.2898145,8.5231181 0 0 1 3.13714,-11.704819 z"
               id="circle26062" />
          </g>
        </g>
        <path
           style="fill:#eee8d5;stroke:none;stroke-width:0.264583px;stroke-linecap:butt;stroke-linejoin:miter;stroke-opacity:1"
           d="m 60.221333,171.46744 c 0.46772,-0.56127 9.078574,0.32216 11.604271,0.32216 2.525694,0 13.093367,-2.09664 13.559157,-0.88343 4.0224,10.47697 4.77075,15.52836 4.67721,33.58242 -0.009,1.71976 -32.240209,1.86876 -32.366334,0.18709 -0.841901,-11.22532 0.748353,-24.8828 2.525696,-33.20824 z"
           id="path30931"
           sodipodi:nodetypes="cssssc" />
        <g
           id="g26120"
           transform="matrix(1.1281907,0,0,1.1564786,-3.86224,101.45328)"
           style="fill:none">
          <path
             style="fill:none;stroke:#cb4b16;stroke-width:2.16958;stroke-linecap:round;stroke-linejoin:bevel;stroke-miterlimit:4;stroke-dasharray:none;stroke-opacity:1"
             d="m 56.606967,59.607042 c -1.026083,8.242266 -4.783406,32.101191 -2.538342,33.223723 2.245063,1.122532 27.502035,1.870887 28.998743,0.748355 1.496711,-1.122534 -0.970076,-33.067658 -3.506298,-33.947633"
             id="path25526"
             sodipodi:nodetypes="cssc" />
          <path
             style="fill:none;stroke:none;stroke-width:0.264583px;stroke-linecap:butt;stroke-linejoin:miter;stroke-opacity:1"
             d="m 56.606966,59.607042 c -0.639151,-0.103999 -2.538341,29.447161 -2.538341,29.447161 l 28.998743,0.748356 c 0,0 -0.849622,-30.524183 -3.506298,-30.171072 -8.955858,1.190365 -13.284015,1.549007 -13.284015,1.549007 0,0 -9.030939,-1.469454 -9.670089,-1.573452 z"
             id="path25692"
             sodipodi:nodetypes="zccscz" />
        </g>
        <text
           xml:space="preserve"
           style="font-style:normal;font-variant:normal;font-weight:normal;font-stretch:normal;font-size:4.23333px;line-height:1.25;font-family:Berlin;-inkscape-font-specification:'Berlin, Normal';font-variant-ligatures:normal;font-variant-caps:normal;font-variant-numeric:normal;font-variant-east-asian:normal;word-spacing:0px;fill:#cb4b16;stroke:none;stroke-width:0.264583"
           id="text24911"><textPath
             xlink:href="#path42729"
             id="textPath42812"><tspan
               id="tspan24909"
               style="font-style:normal;font-variant:normal;font-weight:normal;font-stretch:normal;font-size:4.23333px;font-family:Berlin;-inkscape-font-specification:'Berlin, Normal';font-variant-ligatures:normal;font-variant-caps:normal;font-variant-numeric:normal;font-variant-east-asian:normal;fill:#cb4b16;stroke:none;stroke-width:0.264583">on air</tspan></textPath></text>
        <g
           id="g27396"
           transform="translate(-93.262718,121.89028)">
          <text
             xml:space="preserve"
             style="font-size:10.5833px;line-height:1.25;font-family:sans-serif;word-spacing:0px;fill:#002b36;stroke-width:0.264583"
             x="154.73633"
             y="64.265083"
             id="text1574"><tspan
               sodipodi:role="line"
               id="tspan1572"
               style="font-style:normal;font-variant:normal;font-weight:normal;font-stretch:normal;font-size:10.5833px;font-family:Berlin;-inkscape-font-specification:'Berlin, Normal';font-variant-ligatures:normal;font-variant-caps:normal;font-variant-numeric:normal;font-variant-east-asian:normal;fill:#002b36;stroke-width:0.264583"
               x="154.73633"
               y="64.265083">home</tspan></text>
          <text
             xml:space="preserve"
             style="font-size:11.2889px;line-height:1.25;font-family:sans-serif;word-spacing:0px;fill:#002b36;stroke-width:0.264583"
             x="153.17805"
             y="73.403549"
             id="text2426"><tspan
               sodipodi:role="line"
               id="tspan2424"
               style="font-style:normal;font-variant:normal;font-weight:normal;font-stretch:normal;font-size:11.2889px;font-family:Berlin;-inkscape-font-specification:'Berlin, Normal';font-variant-ligatures:normal;font-variant-caps:normal;font-variant-numeric:normal;font-variant-east-asian:normal;fill:#002b36;stroke-width:0.264583"
               x="153.17805"
               y="73.403549">sweet</tspan></text>
          <text
             xml:space="preserve"
             style="font-size:10.5833px;line-height:1.25;font-family:sans-serif;word-spacing:0px;fill:#002b36;stroke-width:0.264583"
             x="154.29312"
             y="82.113647"
             id="text3288"><tspan
               sodipodi:role="line"
               id="tspan3286"
               style="font-style:normal;font-variant:normal;font-weight:normal;font-stretch:normal;font-size:10.5833px;font-family:Arial;-inkscape-font-specification:'Arial, Normal';font-variant-ligatures:normal;font-variant-caps:normal;font-variant-numeric:normal;font-variant-east-asian:normal;fill:#002b36;stroke-width:0.264583"
               x="154.29312"
               y="82.113647">office</tspan></text>
        </g>
        <path
           style="opacity:0.245935;fill:#cb4b16;stroke:none;stroke-width:0.2949px;stroke-linecap:butt;stroke-linejoin:miter;stroke-opacity:1"
           d="m 68.926773,209.15524 c 0,-5.91643 -3.704166,-16.10582 -0.661458,-16.43452 3.042708,-0.32869 9.657296,-2.79387 9.657296,-0.16434 0,2.62952 -0.92605,13.80499 0,16.43451"
           id="path27511" />
        <path
           style="opacity:0.22561;fill:#cb4b16;stroke:none;stroke-width:0.264583px;stroke-linecap:butt;stroke-linejoin:miter;stroke-opacity:1"
           d="m 84.404901,175.65368 c 0.92604,1.05833 2.91041,6.74688 1.45521,6.74688 -1.45521,0 -8.73125,0.92604 -9.26042,-0.1323 -0.52917,-1.05833 -1.19063,-6.2177 0.39687,-6.61458 1.5875,-0.39687 7.01146,-0.26458 7.40834,0 z"
           id="path27942" />
        <path
           style="opacity:0.252033;fill:#cb4b16;stroke:none;stroke-width:0.264583px;stroke-linecap:butt;stroke-linejoin:miter;stroke-opacity:1"
           d="m 69.45594,183.45889 c -2.645834,-0.13229 -7.276042,0.66146 -7.540625,-0.52917 -0.264583,-1.19062 -2.116667,-5.95312 -0.661458,-5.95312 1.455208,0 7.937499,-1.98438 8.069791,-0.92604 0.132292,1.05833 1.984375,6.61458 0.132292,7.40833 z"
           id="path28670" />
        <path
           style="fill:none;stroke:none;stroke-width:0.264583px;stroke-linecap:butt;stroke-linejoin:miter;stroke-opacity:1"
           d="m 64.150193,170.43845 c 3.098657,0.47941 5.133168,0.73384 7.892725,0.83908 2.064963,0.0787 7.916273,-0.74554 9.880703,-1.40035"
           id="path31407"
           sodipodi:nodetypes="csc" />
        <path
           style="fill:none;stroke:#cb4b16;stroke-width:2.48708;stroke-linecap:round;stroke-linejoin:miter;stroke-miterlimit:4;stroke-dasharray:none;stroke-opacity:1"
           d="m 60.001213,170.38755 c 0.611635,-2.17785 13.149588,-17.41494 15.674591,-17.2408 2.525006,0.17413 10.222015,17.26907 10.222015,17.26907 0,0 -21.867921,0.5738 -25.681121,-0.34195 z"
           id="path40000"
           sodipodi:nodetypes="csccc" />
        <path
           style="fill:none;stroke:none;stroke-width:0.264583px;stroke-linecap:butt;stroke-linejoin:miter;stroke-opacity:1"
           d="m 64.152986,169.125 c 2.893658,0.36941 8.927238,0.24627 10.897389,0.1847"
           id="path42729"
           sodipodi:nodetypes="cc" />
      </g>
    </g>
    <path
       style="fill:#93a1a1;stroke:#000000;stroke-width:0.264583px;stroke-linecap:butt;stroke-linejoin:miter;stroke-opacity:1"
       d="m 152.92917,69.320835 c -2.46918,5.115542 -7.40833,15.345834 -7.40833,15.345834 l 13.49375,2.116667 -0.52917,-17.197918"
       id="path7274"
       sodipodi:nodetypes="cccc" />
    <text
       xml:space="preserve"
       style="font-size:10.5833px;line-height:1.75;font-family:sans-serif;word-spacing:0px;stroke-width:0.264583"
       x="60.607929"
       y="60.641113"
       id="text34765"><tspan
         sodipodi:role="line"
         id="tspan34763"
         style="font-style:normal;font-variant:normal;font-weight:normal;font-stretch:normal;font-size:9.87778px;font-family:'Linux Libertine';-inkscape-font-specification:'Linux Libertine, Normal';font-variant-ligatures:normal;font-variant-caps:normal;font-variant-numeric:normal;font-variant-east-asian:normal;stroke-width:0.264583"
         x="60.607929"
         y="60.641113">Level 1: Philips Hue</tspan><tspan
         sodipodi:role="line"
         style="font-style:normal;font-variant:normal;font-weight:normal;font-stretch:normal;font-size:9.87778px;font-family:'Linux Libertine';-inkscape-font-specification:'Linux Libertine, Normal';font-variant-ligatures:normal;font-variant-caps:normal;font-variant-numeric:normal;font-variant-east-asian:normal;stroke-width:0.264583"
         x="60.607929"
         y="79.161888"
         id="tspan34767">Level 2: Home Automation</tspan><tspan
         sodipodi:role="line"
         style="font-style:normal;font-variant:normal;font-weight:normal;font-stretch:normal;font-size:9.87778px;font-family:'Linux Libertine';-inkscape-font-specification:'Linux Libertine, Normal';font-variant-ligatures:normal;font-variant-caps:normal;font-variant-numeric:normal;font-variant-east-asian:normal;stroke-width:0.264583"
         x="60.607929"
         y="97.682663"
         id="tspan43989">Level 3: StreamDeck</tspan></text>
    <g
       id="g50410"
       transform="translate(-18.502978,-57.521546)">
      <g
         id="g50567"
         transform="translate(3.277176)">
        <rect
           style="opacity:1;fill:#cb4b16;fill-opacity:1;stroke:none;stroke-width:2.40848;stroke-linecap:round;stroke-linejoin:bevel;stroke-miterlimit:4;stroke-dasharray:none"
           id="rect50131"
           width="106.00551"
           height="36.694031"
           x="74.81189"
           y="62.970837" />
        <text
           xml:space="preserve"
           style="font-style:normal;font-variant:normal;font-weight:normal;font-stretch:normal;font-size:22.5778px;line-height:1.25;font-family:sans-serif;-inkscape-font-specification:'sans-serif, Normal';font-variant-ligatures:normal;font-variant-caps:normal;font-variant-numeric:normal;font-variant-east-asian:normal;word-spacing:0px;stroke-width:0.264583"
           x="84.073875"
           y="89.525459"
           id="text47401"><tspan
             sodipodi:role="line"
             id="tspan47399"
             style="font-style:normal;font-variant:normal;font-weight:normal;font-stretch:normal;font-size:22.5778px;font-family:sans-serif;-inkscape-font-specification:'sans-serif, Normal';font-variant-ligatures:normal;font-variant-caps:normal;font-variant-numeric:normal;font-variant-east-asian:normal;stroke-width:0.264583"
             x="84.073875"
             y="89.525459">ON AIR</tspan></text>
      </g>
    </g>
    <path
       style="fill:none;stroke:#000000;stroke-width:0.264583px;stroke-linecap:butt;stroke-linejoin:miter;stroke-opacity:1"
       d="m 156.89792,59.266668 c -2.00759,0.185106 -3.95816,0.951862 -5.5544,2.1834 -0.37167,0.286755 -0.72777,0.601624 -1.00095,0.983385 -0.27319,0.381761 -0.46029,0.836976 -0.46342,1.306402 -0.003,0.505935 0.20755,0.996905 0.51611,1.397869 0.30856,0.400963 0.71044,0.720387 1.1284,1.005502 1.6994,1.159264 3.70381,1.801194 5.72491,2.184611 0.73359,0.139167 1.47833,0.246593 2.22447,0.218452 0.74615,-0.02814 1.49818,-0.197708 2.13914,-0.580721 0.72752,-0.43474 1.29443,-1.157724 1.46866,-1.987137 0.14113,-0.671847 0.0246,-1.378312 -0.22203,-2.018975 -0.24668,-0.640663 -0.61838,-1.224834 -1.00177,-1.794314 -0.79876,-1.186443 -1.65961,-2.331074 -2.57787,-3.427641"
       id="path5957"
       inkscape:path-effect="#path-effect5959;#path-effect5961"
       inkscape:original-d="m 156.89792,59.266668 c -22.73177,5.608286 18.42458,17.806065 2.38125,-0.529167" />
    <path
       style="fill:none;stroke:#000000;stroke-width:0.264583px;stroke-linecap:butt;stroke-linejoin:miter;stroke-opacity:1"
       d="m 152.92917,69.320835 c -1.64084,0.532697 -3.45703,0.508516 -5.08311,-0.06768 -1.73975,-0.616471 -3.1993,-1.813247 -4.70609,-2.879237 -0.7736,-0.547286 -1.56826,-1.064797 -2.38163,-1.551003"
       id="path5987"
       inkscape:path-effect="#path-effect5989;#path-effect5991"
       inkscape:original-d="m 152.92917,69.320835 c -6.01421,1.424985 -7.84902,-2.09691 -12.17083,-4.497917" />
    <path
       style="fill:none;stroke:#000000;stroke-width:0.264583px;stroke-linecap:butt;stroke-linejoin:miter;stroke-opacity:1"
       d="m 158.48542,69.585418 c 0.50187,0.557645 1.14963,0.982836 1.86089,1.221498 0.71125,0.238661 1.48437,0.290243 2.22103,0.148186 0.82308,-0.158723 1.61345,-0.573155 2.12946,-1.233752 0.42047,-0.538288 0.64092,-1.211859 0.72679,-1.889484 0.0859,-0.677625 0.0445,-1.36454 -0.0128,-2.045174 -0.24736,-2.937189 -0.79046,-5.848141 -1.59399,-8.684089 -0.32406,-1.143739 -0.69041,-2.275496 -1.09804,-3.392185"
       id="path6011"
       inkscape:path-effect="#path-effect6013;#path-effect6015"
       inkscape:original-d="m 158.48542,69.585418 c 10.79732,6.191764 6.27301,-10.265899 4.23334,-15.875" />
    <path
       style="fill:none;stroke:#000000;stroke-width:0.264583px;stroke-linecap:butt;stroke-linejoin:miter;stroke-opacity:1"
       d="m 148.79694,85.218891 -0.37417,11.412408 -3.18051,2.80633"
       id="path7791" />
    <path
       style="fill:none;stroke:#000000;stroke-width:0.264583px;stroke-linecap:butt;stroke-linejoin:miter;stroke-opacity:1"
       d="m 155.62568,86.434967 2.71279,8.793168 -0.93545,3.928861"
       id="path7793" />
  </g>
  <g
     inkscape:groupmode="layer"
     id="layer2"
     inkscape:label="Layer 2" />
</svg>
