<?xml version="1.0" encoding="UTF-8" standalone="no"?>
<svg
   width="1920"
   height="1080"
   viewBox="0 0 1920 1080"
   version="1.1"
   id="svg888"
   inkscape:version="1.1 (c68e22c387, 2021-05-23)"
   sodipodi:docname="mixing.svg"
   inkscape:export-filename="S:\github.com\cprima\cprimanet\tec\log\audio\images\audio-signal-chain.png"
   inkscape:export-xdpi="96"
   inkscape:export-ydpi="96"
   xmlns:inkscape="http://www.inkscape.org/namespaces/inkscape"
   xmlns:sodipodi="http://sodipodi.sourceforge.net/DTD/sodipodi-0.dtd"
   xmlns:xlink="http://www.w3.org/1999/xlink"
   xmlns="http://www.w3.org/2000/svg"
   xmlns:svg="http://www.w3.org/2000/svg"
   xmlns:rdf="http://www.w3.org/1999/02/22-rdf-syntax-ns#"
   xmlns:cc="http://creativecommons.org/ns#"
   xmlns:dc="http://purl.org/dc/elements/1.1/">
  <defs
     id="defs882">
    <inkscape:path-effect
       effect="spiro"
       id="path-effect1291"
       is_visible="true"
       lpeversion="1" />
    <inkscape:path-effect
       effect="simplify"
       id="path-effect1287"
       is_visible="true"
       lpeversion="1"
       steps="1"
       threshold="0.00457143"
       smooth_angles="360"
       helper_size="0"
       simplify_individual_paths="false"
       simplify_just_coalesce="false" />
    <inkscape:path-effect
       effect="spiro"
       id="path-effect50817"
       is_visible="true"
       lpeversion="1" />
    <inkscape:path-effect
       effect="simplify"
       id="path-effect50815"
       is_visible="true"
       lpeversion="1"
       steps="1"
       threshold="0.00457143"
       smooth_angles="360"
       helper_size="0"
       simplify_individual_paths="false"
       simplify_just_coalesce="false" />
    <inkscape:path-effect
       effect="spiro"
       id="path-effect50811"
       is_visible="true"
       lpeversion="1" />
    <inkscape:path-effect
       effect="simplify"
       id="path-effect50809"
       is_visible="true"
       lpeversion="1"
       steps="1"
       threshold="0.00457143"
       smooth_angles="360"
       helper_size="0"
       simplify_individual_paths="false"
       simplify_just_coalesce="false" />
    <marker
       style="overflow:visible;"
       id="Arrow1Mend"
       refX="0.0"
       refY="0.0"
       orient="auto"
       inkscape:stockid="Arrow1Mend"
       inkscape:isstock="true">
      <path
         transform="scale(0.4) rotate(180) translate(10,0)"
         style="fill-rule:evenodd;fill:context-stroke;stroke:context-stroke;stroke-width:1.0pt;"
         d="M 0.0,0.0 L 5.0,-5.0 L -12.5,0.0 L 5.0,5.0 L 0.0,0.0 z "
         id="path35145" />
    </marker>
    <inkscape:path-effect
       effect="spiro"
       id="path-effect5483"
       is_visible="true"
       lpeversion="1" />
    <inkscape:path-effect
       effect="simplify"
       id="path-effect5481"
       is_visible="true"
       lpeversion="1"
       steps="1"
       threshold="0.00457143"
       smooth_angles="360"
       helper_size="0"
       simplify_individual_paths="false"
       simplify_just_coalesce="false" />
    <inkscape:path-effect
       effect="spiro"
       id="path-effect5477"
       is_visible="true"
       lpeversion="1" />
    <inkscape:path-effect
       effect="simplify"
       id="path-effect5475"
       is_visible="true"
       lpeversion="1"
       steps="1"
       threshold="0.00457143"
       smooth_angles="360"
       helper_size="0"
       simplify_individual_paths="false"
       simplify_just_coalesce="false" />
    <rect
       x="0"
       y="359.5"
       width="1920"
       height="360"
       id="rect1613" />
    <rect
       x="0"
       y="359.5"
       width="1920"
       height="180"
       id="rect1607" />
    <pattern
       y="0"
       x="0"
       height="6"
       width="6"
       patternUnits="userSpaceOnUse"
       id="EMFhbasepattern" />
  </defs>
  <sodipodi:namedview
     id="base"
     pagecolor="#ffffff"
     bordercolor="#666666"
     borderopacity="1.0"
     inkscape:pageopacity="0.0"
     inkscape:pageshadow="2"
     inkscape:zoom="0.46919481"
     inkscape:cx="997.45349"
     inkscape:cy="431.59045"
     inkscape:document-units="px"
     inkscape:current-layer="layer3"
     inkscape:document-rotation="0"
     showgrid="false"
     units="px"
     inkscape:window-width="1961"
     inkscape:window-height="1117"
     inkscape:window-x="1537"
     inkscape:window-y="1421"
     inkscape:window-maximized="0"
     inkscape:pagecheckerboard="0" />
  <metadata
     id="metadata885">
    <rdf:RDF>
      <cc:Work
         rdf:about="">
        <dc:format>image/svg+xml</dc:format>
        <dc:type
           rdf:resource="http://purl.org/dc/dcmitype/StillImage" />
      </cc:Work>
    </rdf:RDF>
  </metadata>
  <g
     inkscape:label="background_base3"
     inkscape:groupmode="layer"
     id="layer1"
     style="display:inline"
     sodipodi:insensitive="true">
    <rect
       style="opacity:1;mix-blend-mode:normal;fill:#fdf6e3;fill-opacity:1;stroke-width:4;stroke-linecap:round;stop-color:#000000"
       id="rect1451"
       width="1920"
       height="1080"
       x="0"
       y="0" />
  </g>
  <g
     inkscape:groupmode="layer"
     id="layer14"
     inkscape:label="mixing"
     style="display:none"
     sodipodi:insensitive="true">
    <image
       width="2151.0994"
       height="1162.9531"
       preserveAspectRatio="none"
       xlink:href="../../../../../../../net.cprima/net.cprima.2022.YouTubeAudio/input/images/ArtOfMixingDavidGibson_VolumePanningPitch.png"
       id="image2000"
       x="-107.35388"
       y="-4.9313626"
       style="display:inline" />
  </g>
  <g
     inkscape:groupmode="layer"
     id="layer3"
     inkscape:label="mixingB"
     style="display:inline">
    <path
       style="display:inline;fill:#eee8d5;stroke:none;stroke-width:1px;stroke-linecap:butt;stroke-linejoin:miter;stroke-opacity:1"
       d="M 1429.9749,725.51038 1447.9997,200 1920,280 v 800 z"
       id="path6790-2"
       sodipodi:nodetypes="ccccc" />
    <path
       style="display:inline;fill:#eee8d5;stroke:none;stroke-width:1px;stroke-linecap:butt;stroke-linejoin:miter;stroke-opacity:1"
       d="M 606.83795,200 0,280 v 800 L 618.85455,719.50209 Z"
       id="path46879-6"
       sodipodi:nodetypes="ccccc" />
    <path
       style="display:inline;fill:#eee8d5;stroke:none;stroke-width:1px;stroke-linecap:butt;stroke-linejoin:miter;stroke-opacity:1"
       d="m 606.83795,200 h 841.16175 l -18.0248,525.51038 -811.12035,-6.00829 z"
       id="path46199-6"
       sodipodi:nodetypes="ccccc" />
    <path
       style="display:inline;fill:#eee8d5;stroke:#002b36;stroke-width:1px;stroke-linecap:butt;stroke-linejoin:miter;stroke-opacity:1"
       d="M 1920,1080 1429.9749,725.51038 618.85455,719.50209 0,1080"
       id="path6755-0"
       sodipodi:nodetypes="cccc" />
    <path
       style="display:inline;fill:#002b36;stroke:#000000;stroke-width:1px;stroke-linecap:butt;stroke-linejoin:miter;stroke-opacity:1"
       d="M 618.85455,719.50209 606.83795,200"
       id="path6792-7"
       sodipodi:nodetypes="cc" />
    <text
       xml:space="preserve"
       style="font-style:normal;font-variant:normal;font-weight:normal;font-stretch:normal;font-size:155.967px;line-height:1;font-family:'Linux Libertine';-inkscape-font-specification:'Linux Libertine, Normal';font-variant-ligatures:normal;font-variant-caps:normal;font-variant-numeric:normal;font-variant-east-asian:normal;display:inline;mix-blend-mode:normal;fill:#839496;fill-opacity:1;stroke:none;stroke-width:1"
       x="1009.1005"
       y="349.6402"
       id="text23394-9"><tspan
         sodipodi:role="line"
         id="tspan23392-7"
         x="1009.1005"
         y="349.6402"
         style="font-style:normal;font-variant:normal;font-weight:normal;font-stretch:normal;font-size:155.967px;font-family:'Linux Libertine';-inkscape-font-specification:'Linux Libertine, Normal';font-variant-ligatures:normal;font-variant-caps:normal;font-variant-numeric:normal;font-variant-east-asian:normal;text-align:center;text-anchor:middle;fill:#839496;stroke-width:1">Panning/</tspan><tspan
         sodipodi:role="line"
         x="1009.1005"
         y="505.60718"
         style="font-style:normal;font-variant:normal;font-weight:normal;font-stretch:normal;font-size:155.967px;font-family:'Linux Libertine';-inkscape-font-specification:'Linux Libertine, Normal';font-variant-ligatures:normal;font-variant-caps:normal;font-variant-numeric:normal;font-variant-east-asian:normal;text-align:center;text-anchor:middle;fill:#839496;stroke-width:1"
         id="tspan24633-4">Width</tspan></text>
    <text
       xml:space="preserve"
       style="font-style:normal;font-variant:normal;font-weight:normal;font-stretch:normal;font-size:116.976px;line-height:0.8;font-family:'Linux Libertine';-inkscape-font-specification:'Linux Libertine, Normal';font-variant-ligatures:normal;font-variant-caps:normal;font-variant-numeric:normal;font-variant-east-asian:normal;display:inline;mix-blend-mode:normal;fill:#839496;fill-opacity:1;stroke:none;stroke-width:1"
       x="1454.2509"
       y="305.79401"
       id="text30055-1"
       transform="rotate(1.7640517)"><tspan
         sodipodi:role="line"
         id="tspan30647-8"
         x="1454.2509"
         y="305.79401"
         style="font-size:116.976px;fill:#839496;stroke-width:1">P</tspan><tspan
         sodipodi:role="line"
         id="tspan30649-7"
         x="1454.2509"
         y="399.37482"
         style="font-size:116.976px;fill:#839496;stroke-width:1">i</tspan><tspan
         sodipodi:role="line"
         id="tspan30651-7"
         x="1454.2509"
         y="492.9556"
         style="font-size:116.976px;fill:#839496;stroke-width:1">t</tspan><tspan
         sodipodi:role="line"
         id="tspan30653-4"
         x="1454.2509"
         y="586.53638"
         style="font-size:116.976px;fill:#839496;stroke-width:1">c</tspan><tspan
         sodipodi:role="line"
         id="tspan30655-2"
         x="1454.2509"
         y="680.11719"
         style="font-size:116.976px;fill:#839496;stroke-width:1">h</tspan></text>
    <path
       style="display:inline;fill:none;stroke:#002b36;stroke-width:1px;stroke-linecap:butt;stroke-linejoin:miter;stroke-opacity:1"
       d="M 1447.9997,200 1429.975,725.51038"
       id="path46131-8"
       sodipodi:nodetypes="cc" />
    <path
       d="m 157.21811,740.3402 c -0.80969,-0.74207 -1.27759,-2.69045 -1.40187,-5.84878 -0.0237,-3.19125 0.41123,-5.57828 1.305,-7.15927 16.57033,-5.08661 27.28456,-8.45698 32.48998,-10.21526 5.33883,-1.80581 13.65507,-4.8618 24.80248,-9.1113 0.90839,0.9029 1.37446,2.85859 1.40187,5.86888 0.0256,2.88966 -0.4021,5.0336 -1.28855,6.43183 -4.13802,2.05438 -7.71308,4.5255 -10.71058,7.41333 -3.01761,2.90611 -5.5801,6.64568 -7.68384,11.22052 -2.11287,4.47248 -3.72129,8.40214 -4.82341,11.78345 -1.10396,3.26618 -2.5296,8.15174 -4.27692,14.66948 L 124.38636,997.8857 c -1.89354,7.4024 -4.52002,12.1545 -7.88488,14.2564 -3.16931,1.846 -5.77019,0.092 -7.7935,-5.2639 L 36.563278,822.29439 C 31.003282,808.22807 26.302326,799.4677 22.48052,796.0882 c -3.715813,-3.4453 -10.805627,-3.85105 -21.386431,-1.16975 -1.323285,-1.00526 -1.990415,-3.26984 -2.001378,-6.79007 -0.01829,-3.52023 0.508107,-6.19057 1.55906,-8.01283 17.535372,-5.33701 31.014982,-9.60479 40.69837,-12.87828 10.253636,-3.4654 25.065676,-8.75124 44.088832,-15.72407 0.919354,1.05277 1.389085,3.27897 1.407364,6.68039 0.01829,3.26435 -0.424039,5.66783 -1.330601,7.21228 -11.87119,5.66783 -19.010365,11.0871 -21.234725,16.18649 -2.235334,4.98061 -1.124057,13.01171 3.315529,24.01656 l 55.99658,145.12108 1.60658,-0.8591 48.27071,-181.92446 c 3.6957,-11.97173 4.49991,-20.18196 2.42907,-24.7111 -1.97944,-4.5785 -8.15722,-5.56182 -18.68137,-2.89514 z"
       id="path49659-7"
       style="font-size:85.3333px;line-height:1.25;font-family:'Linux Libertine';-inkscape-font-specification:'Linux Libertine, Normal';display:inline;fill:#657b83;stroke-width:1" />
    <path
       d="m 206.93091,876.90371 c -0.22115,-24.90301 4.73935,-47.83205 14.72065,-68.48555 10.54608,-21.74649 24.20298,-35.94806 40.70933,-42.78931 11.84378,-4.90565 21.65877,-4.83621 29.55461,0.0567 7.85931,4.66989 13.2877,11.8913 16.39487,21.67521 3.08888,9.61758 4.6973,20.70833 4.84352,33.32342 0.27416,23.49747 -4.40487,45.0813 -14.21985,65.06401 -8.828,18.02881 -20.54384,31.33851 -35.38512,39.85031 -17.08757,9.9374 -30.84134,9.9008 -40.94511,-0.5283 -10.20977,-10.6795 -15.48281,-26.7928 -15.6729,-48.16646 z m 51.75621,-97.18661 c -19.03594,8.13346 -28.63525,33.82422 -28.22401,76.90414 0.075,7.90865 0.80604,15.60711 2.19146,23.08257 1.46768,7.2927 3.53669,14.18512 6.20154,20.66809 2.73613,6.2857 6.5488,10.5625 11.41609,12.8363 4.90566,2.2043 10.48027,1.5133 16.69461,-2.0215 7.25614,-4.1271 13.5253,-11.9461 18.86231,-23.4006 5.33701,-11.36126 7.85929,-26.76731 7.63997,-46.30406 -0.27416,-24.55939 -3.39961,-42.0253 -9.44943,-52.51656 -6.10468,-10.72885 -14.51229,-13.87074 -25.33254,-9.24838 z"
       id="path49661-0"
       style="font-size:85.3333px;line-height:1.25;font-family:'Linux Libertine';-inkscape-font-specification:'Linux Libertine, Normal';display:inline;fill:#657b83;stroke-width:1" />
    <path
       d="m 343.23854,835.83249 -1.79119,-142.11072 c -0.16449,-11.9114 -0.9687,-18.87693 -2.44917,-20.90757 -1.40736,-2.16769 -5.28219,-2.49486 -11.67929,-0.96321 -1.66324,-1.91182 -2.12018,-5.03543 -1.38908,-9.36354 12.70282,-5.65686 22.44469,-11.77432 29.40839,-18.38892 1.77292,-0.56843 2.68679,0.2303 2.70507,2.39617 -0.40211,8.63244 -0.56661,19.83833 -0.43866,33.6122 l 1.91912,147.05842 c 0.18278,12.83076 1.13321,20.33914 2.90613,22.50683 1.73635,2.05622 5.7391,1.57187 11.93516,-1.41832 0.53004,0.73658 0.8042,2.38704 0.84076,4.95319 0.0366,2.46196 -0.20106,4.25133 -0.69454,5.3699 -8.73661,4.637 -16.24865,8.77318 -22.48125,12.372 -5.84878,3.37584 -13.74463,8.15539 -23.79722,14.40993 -0.7311,-0.45511 -1.09664,-1.98676 -1.1332,-4.59129 -0.0366,-2.71237 0.29244,-4.81428 0.98698,-6.30206 6.78093,-4.27143 11.0213,-8.50084 12.77592,-12.71927 1.75465,-4.20015 2.54057,-12.83624 2.37607,-25.91374 z"
       id="path49663-2"
       style="font-size:85.3333px;line-height:1.25;font-family:'Linux Libertine';-inkscape-font-specification:'Linux Libertine, Normal';display:inline;fill:#657b83;stroke-width:1" />
    <path
       d="m 418.26741,835.61681 c -8.20656,4.77041 -14.27467,4.39938 -18.09466,-1.22276 -3.8017,-5.80308 -5.79394,-14.78096 -5.97672,-26.88976 l -0.82248,-58.87162 c -0.14622,-9.56824 -1.02354,-15.54679 -2.65023,-17.94479 -1.59014,-2.43272 -4.73385,-2.94267 -9.46771,-1.51154 -0.51177,-0.5922 -0.78593,-2.10191 -0.82248,-4.52732 -0.0366,-2.52595 0.20105,-4.45056 0.67626,-5.77019 8.62695,-3.19672 14.98749,-5.65504 19.20958,-7.41515 3.03406,-1.27029 5.17252,-2.35596 6.39711,-3.26435 0.93215,-0.39297 1.42564,0.0457 1.44392,1.31597 -0.25589,14.86139 -0.34728,25.29048 -0.25589,31.26356 l 0.78593,54.72629 c 0.18278,11.88948 1.77291,19.24249 4.75213,22.03528 2.96095,2.77451 6.26916,3.11813 9.92465,1.05826 5.20908,-2.92987 10.83852,-10.81841 16.88835,-23.53951 1.75463,-3.71214 2.55884,-7.94702 2.4309,-12.71927 l -0.85903,-55.67306 c -0.14622,-9.19172 -0.91388,-14.98932 -2.32125,-17.40012 -1.35252,-2.4437 -4.16725,-2.93901 -8.46244,-1.46768 -0.56661,-0.52273 -0.87732,-1.92461 -0.91388,-4.20564 -0.0366,-2.37606 0.21933,-4.20198 0.76766,-5.47774 7.63996,-2.80924 13.26942,-4.97878 17.01629,-6.53968 2.68678,-1.12771 4.58763,-2.10372 5.68428,-2.93169 0.84076,-0.34911 1.26114,0.075 1.27942,1.2721 -0.20106,13.98955 -0.25588,23.80819 -0.1645,29.43399 l 0.85904,54.46128 c 0.12794,7.40236 0.93215,12.14169 2.43091,14.20887 1.49874,1.96666 4.67901,1.97031 9.48599,0.0348 0.51176,0.63057 0.78592,1.80946 0.82248,3.54217 0.0183,1.63949 -0.20106,3.01395 -0.69454,4.12156 -8.38935,6.42817 -14.65851,13.79581 -18.69782,22.06452 -0.95043,1.30867 -1.99224,1.9173 -3.12545,1.82043 -1.07836,-6.02424 -1.75463,-11.33384 -2.04707,-15.91782 -0.10962,-0.88279 -0.47521,-1.10943 -1.06009,-0.68357 -0.54833,0.30158 -1.02353,0.90473 -1.46219,1.80764 -8.15174,16.31627 -15.82827,26.65581 -22.95647,30.80661 z"
       id="path49665-3"
       style="font-size:85.3333px;line-height:1.25;font-family:'Linux Libertine';-inkscape-font-specification:'Linux Libertine, Normal';display:inline;fill:#657b83;stroke-width:1" />
    <path
       d="m 493.95428,691.60889 c 0.12794,2.31759 0.71282,2.05439 1.75463,-0.78227 6.5616,-17.35991 13.50703,-27.45088 20.818,-30.47762 3.41789,-1.41834 6.36055,-0.82248 8.84628,1.76012 2.46745,2.48207 4.05759,6.28012 4.78868,11.39963 0.2559,1.56455 0.71282,1.40006 1.40737,-0.49349 5.75739,-15.04415 12.61143,-24.11708 20.45245,-27.36681 4.9349,-2.04524 8.27967,-0.0731 10.05259,5.87255 1.79119,5.91823 2.79645,15.09716 3.03406,27.56419 l 0.7311,38.28392 c 0.18276,9.73274 0.69454,15.52486 1.5353,17.37087 0.87731,1.74002 2.99749,1.94107 6.32398,0.61595 0.31072,0.6123 0.4935,1.89721 0.53006,3.85289 0.0366,1.87893 -0.0913,3.21683 -0.38384,4.01738 -4.33175,2.1933 -8.37106,4.36282 -12.08138,6.50677 -4.14897,2.39617 -8.27968,4.94952 -12.41037,7.66191 -0.329,-0.46426 -0.51177,-1.6724 -0.54833,-3.62625 -0.0366,-2.03428 0.0913,-3.54948 0.40211,-4.5456 3.36305,-2.39435 5.42839,-5.0263 6.21432,-7.91047 0.82249,-2.89881 1.15148,-9.2027 0.9687,-18.91533 l -0.8042,-43.28461 c -0.14622,-7.84285 -0.87731,-13.17072 -2.15673,-15.99277 -1.26115,-2.92804 -3.10717,-3.86932 -5.55635,-2.80741 -5.97672,2.58992 -11.47822,10.61188 -16.48624,24.19019 0.12794,2.03428 0.2376,5.4156 0.31071,10.1458 l 0.7311,40.49731 c 0.18278,10.23354 0.7311,16.32358 1.60842,18.26282 0.93214,1.82957 3.07061,2.08545 6.41538,0.77862 0.34726,0.63606 0.53004,1.94106 0.5666,3.91686 0.0366,1.89354 -0.10963,3.3466 -0.42038,4.36282 -4.25865,2.12566 -8.49901,4.40852 -12.7211,6.85221 -4.58763,2.6484 -9.157,5.46313 -13.72636,8.44783 -0.36554,-0.64885 -0.5666,-2.00138 -0.60315,-4.05759 -0.0366,-2.14211 0.10963,-3.65732 0.45693,-4.54377 3.81999,-2.67582 6.12294,-5.47958 6.94542,-8.42955 0.87733,-2.96827 1.2246,-9.645 1.04182,-20.0339 l -0.8042,-45.03378 c -0.27416,-15.6601 -3.36305,-22.24546 -9.35805,-19.73598 -4.40487,1.91183 -9.35805,9.31968 -14.85956,22.36429 -1.59013,3.97716 -2.33951,8.11334 -2.26639,12.3994 l 0.74937,44.13269 c 0.12794,7.45537 0.49349,12.65164 1.11492,15.58335 0.62144,2.92988 1.44392,4.58581 2.48573,4.97146 1.04182,0.38383 2.92439,0.064 5.64773,-0.95226 0.43866,0.54651 0.65799,1.90269 0.69454,4.06857 0.0366,2.0818 -0.14622,3.62989 -0.54832,4.64978 -5.68428,2.93901 -10.54609,5.5673 -14.53056,7.87209 -4.6973,2.71967 -10.07087,6.00962 -16.15725,9.88809 -0.40211,-0.4935 -0.62144,-1.82774 -0.65799,-4.00094 -0.0366,-2.26456 0.12794,-3.96254 0.51177,-5.09391 4.45969,-3.06513 7.25614,-6.27465 8.42589,-9.64318 1.16976,-3.35939 1.66326,-10.42727 1.48048,-21.20913 l -0.87732,-53.23669 c -0.12794,-7.63631 -0.78593,-12.17095 -1.99225,-13.61304 -1.2063,-1.53348 -3.92964,-1.74001 -8.18828,-0.60863 -0.65799,-2.88967 -0.78593,-5.45581 -0.42039,-7.69481 7.4572,-4.95501 13.50703,-10.12935 18.22261,-15.5413 0.74937,-0.31254 1.35253,0.14257 1.80947,1.36715 0.51176,1.81312 0.98697,8.47159 1.48047,19.97358 z"
       id="path49667-9"
       style="font-size:85.3333px;line-height:1.25;font-family:'Linux Libertine';-inkscape-font-specification:'Linux Libertine, Normal';display:inline;fill:#657b83;stroke-width:1" />
    <path
       d="m 587.90035,667.72029 19.24603,-9.76746 c 1.04187,-0.48984 1.51707,-1.75646 1.44403,-3.80354 -0.1645,-8.61233 -1.13321,-14.35145 -2.88794,-17.22831 -1.75461,-2.89332 -3.83823,-3.83643 -6.23255,-2.81289 -0.91384,0.39661 -1.82778,1.04912 -2.72332,1.95933 -0.89566,0.91205 -1.97399,2.51863 -3.27169,4.82342 -1.2977,2.23898 -2.46749,5.68245 -3.47266,10.33589 -1.02357,4.67171 -1.71815,10.16957 -2.1019,16.49356 z m 28.36652,29.44312 c 1.1515,-0.47339 1.88254,0.31071 2.17507,2.3523 -4.20381,15.51206 -9.86982,25.4166 -17.0712,29.60214 -7.05505,4.09963 -12.70277,2.31575 -16.85182,-5.49603 -3.65545,-6.63653 -5.64773,-17.42204 -5.94014,-32.29256 -0.31071,-16.79331 1.80949,-31.36957 6.324,-43.60083 4.44148,-12.04483 9.2667,-19.08347 14.42093,-21.22559 11.66102,-4.83986 17.60116,5.70988 18.13124,31.5432 0.0545,2.54239 -0.54837,4.11243 -1.77291,4.71557 l -27.94619,13.11407 c 0.25583,13.11771 1.6267,23.23427 4.09407,30.30582 3.38131,9.4147 7.38416,12.77958 11.99002,10.18967 2.90611,-1.64131 5.24567,-3.85288 7.01858,-6.63654 1.77291,-2.85676 3.60057,-7.05144 5.42835,-12.57122 z"
       id="path49669-1"
       style="font-size:85.3333px;line-height:1.25;font-family:'Linux Libertine';-inkscape-font-specification:'Linux Libertine, Normal';display:inline;fill:#657b83;stroke-width:1" />
    <path
       style="display:inline;fill:none;stroke:#000000;stroke-width:1px;stroke-linecap:butt;stroke-linejoin:miter;stroke-opacity:1"
       d="m 615.62092,561.20758 3.23363,158.29451"
       id="path50813-3"
       inkscape:path-effect="#path-effect1287;#path-effect1291"
       inkscape:original-d="m 615.62092,561.20758 3.23363,158.29451" />
    <text
       xml:space="preserve"
       style="font-style:normal;font-variant:normal;font-weight:normal;font-stretch:normal;font-size:85.3333px;line-height:1;font-family:'Linux Libertine';-inkscape-font-specification:'Linux Libertine, Normal';font-variant-ligatures:normal;font-variant-caps:normal;font-variant-numeric:normal;font-variant-east-asian:normal;text-align:center;text-anchor:middle;display:inline;mix-blend-mode:normal;fill:#002b36;fill-opacity:1;stroke:none"
       x="960.125"
       y="171.89893"
       id="text2334-8-1-7"><tspan
         sodipodi:role="line"
         id="tspan2332-6-0-8"
         x="960.125"
         y="171.89893"
         style="font-style:normal;font-variant:normal;font-weight:normal;font-stretch:normal;font-size:85.3333px;font-family:'Linux Libertine';-inkscape-font-specification:'Linux Libertine, Normal';font-variant-ligatures:normal;font-variant-caps:normal;font-variant-numeric:normal;font-variant-east-asian:normal;text-align:center;text-anchor:middle;fill:#002b36">Mixing</tspan></text>
  </g>
  <g
     inkscape:groupmode="layer"
     id="layer2"
     inkscape:label="goldencut"
     style="display:none"
     sodipodi:insensitive="true">
    <path
       style="display:inline;fill:none;fill-rule:evenodd;stroke:#000000;stroke-width:1;stroke-linecap:butt;stroke-linejoin:miter;stroke-miterlimit:4;stroke-dasharray:none;stroke-opacity:1"
       d="M 0,269.5 H 1920"
       id="path4237-9"
       inkscape:connector-curvature="0" />
    <path
       style="display:inline;fill:none;fill-rule:evenodd;stroke:#000000;stroke-width:1;stroke-linecap:butt;stroke-linejoin:miter;stroke-miterlimit:4;stroke-dasharray:none;stroke-opacity:1"
       d="M 0,539.5 H 1920"
       id="path4237-9-9"
       inkscape:connector-curvature="0" />
    <path
       style="display:inline;fill:none;fill-rule:evenodd;stroke:#000000;stroke-width:1;stroke-linecap:butt;stroke-linejoin:miter;stroke-miterlimit:4;stroke-dasharray:none;stroke-opacity:1"
       d="M 0,809.5 H 1920"
       id="path4237-9-9-8"
       inkscape:connector-curvature="0" />
    <path
       style="display:inline;fill:none;fill-rule:evenodd;stroke:#000000;stroke-width:1;stroke-linecap:butt;stroke-linejoin:miter;stroke-miterlimit:4;stroke-dasharray:none;stroke-opacity:1"
       d="M 0,359.5 H 1920"
       id="path4237-9-9-5"
       inkscape:connector-curvature="0" />
    <path
       style="display:inline;fill:none;fill-rule:evenodd;stroke:#000000;stroke-width:1;stroke-linecap:butt;stroke-linejoin:miter;stroke-miterlimit:4;stroke-dasharray:none;stroke-opacity:1"
       d="M 0,719.5 H 1920"
       id="path4237-9-9-1"
       inkscape:connector-curvature="0" />
    <path
       style="display:inline;fill:none;stroke:#000000;stroke-width:1px;stroke-linecap:butt;stroke-linejoin:miter;stroke-opacity:1"
       d="M 20,996 1620,96"
       id="path5473"
       inkscape:path-effect="#path-effect5475;#path-effect5477"
       inkscape:original-d="M 20,996 1620,96" />
    <path
       style="display:inline;fill:none;stroke:#000000;stroke-width:1px;stroke-linecap:butt;stroke-linejoin:miter;stroke-opacity:1"
       d="M 20,96 1620,996"
       id="path5479"
       inkscape:path-effect="#path-effect5481;#path-effect5483"
       inkscape:original-d="M 20,96 1620,996" />
  </g>
</svg>
