<svg id="Logo" xmlns="http://www.w3.org/2000/svg" viewBox="0 0 304.56 293.98"><defs><style>.cls-1{fill:#fd3456;}.cls-2{fill:#fff;}</style></defs><path class="cls-1" d="M203.13,135.27a102,102,0,0,0-7.24-38.16c-1,.41-1.72.79-2.24,1l0,0a5.85,5.85,0,0,0-3.12,5.93,144.11,144.11,0,0,1,.93,16c0,24.45-7.89,47.89-22.21,66-13.55,17.14-31.74,28.16-51.5,31.31l.16.1a40.3,40.3,0,0,0,37.66,1.13C183.47,204.94,203.13,172.73,203.13,135.27Z"/><path class="cls-1" d="M208.57,94.62a27.7,27.7,0,0,0-5.18.33,109.67,109.67,0,0,1,7.52,40.32c0,42-23.4,79.27-57.57,92.86,1.73.11,3.46.17,5.22.17h.25a54.8,54.8,0,0,0,42.41-20.38c13.09-16.2,21.11-38,21.11-61.91A100.26,100.26,0,0,0,208.57,94.62Z"/><path class="cls-1" d="M240.85,146a82,82,0,0,0-6.27-31.56,36.22,36.22,0,0,0-7.9-12,26.41,26.41,0,0,0-6.22-4.66c-.58-.31-1.16-.58-1.74-.83a109.62,109.62,0,0,1,11.39,49c0,24.3-7.92,47.71-22,65.67A82.15,82.15,0,0,0,240.85,146Z"/><path class="cls-2" d="M217.59,88.68a82,82,0,0,0-59-25c-45.49,0-82.76,37.67-82.3,83.15a82.12,82.12,0,0,0,6.55,31.37,22.34,22.34,0,0,0-4.09-.18c-3.69.17-8.9-1.17-11.27-1.83s-4.46,1.24-3.51,3.44l0,.06c8.17,18.72,26.29,30.9,43.57,30.86h0a33.22,33.22,0,0,0,3.45-.18c40.48-3.08,72.61-42.39,72.61-90.28,0-3-.13-6-.38-9a1.78,1.78,0,0,0-3.2-.92l0,0c-11.19,14.82-27.79,40.87-48.54,27.29-8-5.21-12.25-16.42-9.85-27.83C126,89.2,149.86,75.73,160.38,79.93c.81.33,3.78,1.51,4.78,4.21,1.54,4.12-3.1,7.51-5.46,14.81-2.56,7.89-1.12,16.27.68,16.63,2,.41,5.34-6.93,13.6-13.59,6-4.84,10.52-6.2,13.36-11.32,2.74-5-2.14-10.27-.48-10.74s3.21,5.29,8.15,8.15c4.13,2.39,7.81.89,13.24.68a36,36,0,0,1,6,.46s1.06.14,2.74.49A.61.61,0,0,0,217.59,88.68Zm-61.34,63.44a5.83,5.83,0,0,1,3.75-2.27,4.78,4.78,0,0,1,3.68,1c1.95,1.84,1.41,5.43-.31,7.49-1.6,1.9-4.75,3.15-6.94,1.73a5,5,0,0,1-1.94-4A5.89,5.89,0,0,1,156.25,152.12Z"/></svg>