<?xml version="1.0" encoding="UTF-8" standalone="no"?>
<svg
   width="1920"
   height="1080"
   viewBox="0 0 1920 1080"
   version="1.1"
   id="svg888"
   inkscape:version="1.2.1 (9c6d41e410, 2022-07-14)"
   sodipodi:docname="RPAContentCreatorPleaseGetInTouchWithMe.svg"
   inkscape:export-filename="S:\github.com\cprima\cprimanet\biz\marketing\visualidentity\template_svg_1080p.png"
   inkscape:export-xdpi="96"
   inkscape:export-ydpi="96"
   xml:space="preserve"
   xmlns:inkscape="http://www.inkscape.org/namespaces/inkscape"
   xmlns:sodipodi="http://sodipodi.sourceforge.net/DTD/sodipodi-0.dtd"
   xmlns:xlink="http://www.w3.org/1999/xlink"
   xmlns="http://www.w3.org/2000/svg"
   xmlns:svg="http://www.w3.org/2000/svg"
   xmlns:rdf="http://www.w3.org/1999/02/22-rdf-syntax-ns#"
   xmlns:cc="http://creativecommons.org/ns#"
   xmlns:dc="http://purl.org/dc/elements/1.1/"><defs
     id="defs882"><rect
       x="115.05466"
       y="1051.9283"
       width="3476.2287"
       height="79.790828"
       id="rect9862" /><inkscape:path-effect
       effect="spiro"
       id="path-effect5961"
       is_visible="true"
       lpeversion="1" /><inkscape:path-effect
       effect="simplify"
       id="path-effect5957"
       is_visible="true"
       lpeversion="1"
       steps="1"
       threshold="0.00457143"
       smooth_angles="360"
       helper_size="0"
       simplify_individual_paths="false"
       simplify_just_coalesce="false" /><inkscape:path-effect
       effect="spiro"
       id="path-effect1406"
       is_visible="true"
       lpeversion="1" /><inkscape:path-effect
       effect="simplify"
       id="path-effect1402"
       is_visible="true"
       lpeversion="1"
       steps="1"
       threshold="0.00457143"
       smooth_angles="360"
       helper_size="0"
       simplify_individual_paths="false"
       simplify_just_coalesce="false" /><inkscape:path-effect
       effect="spiro"
       id="path-effect1179"
       is_visible="true"
       lpeversion="1" /><inkscape:path-effect
       effect="simplify"
       id="path-effect1175"
       is_visible="true"
       lpeversion="1"
       steps="1"
       threshold="0.00457143"
       smooth_angles="360"
       helper_size="0"
       simplify_individual_paths="false"
       simplify_just_coalesce="false" /><inkscape:path-effect
       effect="spiro"
       id="path-effect1169"
       is_visible="true"
       lpeversion="1" /><inkscape:path-effect
       effect="simplify"
       id="path-effect1165"
       is_visible="true"
       lpeversion="1"
       steps="1"
       threshold="0.00457143"
       smooth_angles="360"
       helper_size="0"
       simplify_individual_paths="false"
       simplify_just_coalesce="false" /><inkscape:path-effect
       effect="spiro"
       id="path-effect5483"
       is_visible="true"
       lpeversion="1" /><inkscape:path-effect
       effect="simplify"
       id="path-effect5481"
       is_visible="true"
       lpeversion="1"
       steps="1"
       threshold="0.00457143"
       smooth_angles="360"
       helper_size="0"
       simplify_individual_paths="false"
       simplify_just_coalesce="false" /><inkscape:path-effect
       effect="spiro"
       id="path-effect5477"
       is_visible="true"
       lpeversion="1" /><inkscape:path-effect
       effect="simplify"
       id="path-effect5475"
       is_visible="true"
       lpeversion="1"
       steps="1"
       threshold="0.00457143"
       smooth_angles="360"
       helper_size="0"
       simplify_individual_paths="false"
       simplify_just_coalesce="false" /><linearGradient
       inkscape:collect="always"
       id="linearGradient1085"><stop
         style="stop-color:#000000;stop-opacity:1"
         offset="0"
         id="stop1081" /><stop
         style="stop-color:#0c0c0c;stop-opacity:0.94901961;"
         offset="0.09260008"
         id="stop4251" /><stop
         style="stop-color:#848484;stop-opacity:0.47843137;"
         offset="0.92600071"
         id="stop3750" /><stop
         style="stop-color:#ffffff;stop-opacity:0"
         offset="1"
         id="stop1083" /></linearGradient><rect
       x="0"
       y="359.5"
       width="1920"
       height="360"
       id="rect1613" /><rect
       x="0"
       y="359.5"
       width="1920"
       height="180"
       id="rect1607" /><linearGradient
       inkscape:collect="always"
       xlink:href="#linearGradient1085"
       id="linearGradient2688"
       gradientUnits="userSpaceOnUse"
       gradientTransform="translate(-2.0507812e-5)"
       x1="313.80145"
       y1="991.67053"
       x2="313.80145"
       y2="39.515759" /><rect
       x="115.05466"
       y="1051.9283"
       width="3476.2288"
       height="79.790825"
       id="rect9862-0" /><linearGradient
       inkscape:collect="always"
       xlink:href="#linearGradient1085"
       id="linearGradient1218"
       gradientUnits="userSpaceOnUse"
       gradientTransform="matrix(0.56249998,0,0,1.7777778,-1080,0)"
       x1="313.80145"
       y1="991.67053"
       x2="313.80145"
       y2="39.515759" /></defs><sodipodi:namedview
     id="base"
     pagecolor="#ffffff"
     bordercolor="#666666"
     borderopacity="1.0"
     inkscape:pageopacity="0.0"
     inkscape:pageshadow="2"
     inkscape:zoom="0.33142579"
     inkscape:cx="954.9649"
     inkscape:cy="399.78784"
     inkscape:document-units="px"
     inkscape:current-layer="g1990"
     inkscape:document-rotation="0"
     showgrid="false"
     units="px"
     inkscape:window-width="1613"
     inkscape:window-height="912"
     inkscape:window-x="179"
     inkscape:window-y="94"
     inkscape:window-maximized="0"
     inkscape:pagecheckerboard="0"
     showguides="true"
     inkscape:guide-bbox="true"
     inkscape:showpageshadow="2"
     inkscape:deskcolor="#d1d1d1"><sodipodi:guide
       position="0,1080"
       orientation="0,1920"
       id="guide374"
       inkscape:locked="false" /><sodipodi:guide
       position="1920,1080"
       orientation="1080,0"
       id="guide376"
       inkscape:locked="false" /><sodipodi:guide
       position="1920,0"
       orientation="0,-1920"
       id="guide378"
       inkscape:locked="false" /><sodipodi:guide
       position="0,0"
       orientation="-1080,0"
       id="guide380"
       inkscape:locked="false" /><inkscape:page
       x="0"
       y="0"
       width="1920"
       height="1080"
       id="page577"
       inkscape:export-filename="..\..\..\..\..\..\..\Users\cpm\Pictures\Page 1.png"
       inkscape:export-xdpi="96"
       inkscape:export-ydpi="96" /><inkscape:page
       x="1930"
       y="0"
       width="1920"
       height="1080"
       id="page579" /><inkscape:page
       x="5790"
       y="0"
       width="1920"
       height="1080"
       id="page637" /></sodipodi:namedview><metadata
     id="metadata885"><rdf:RDF><cc:Work
         rdf:about=""><dc:format>image/svg+xml</dc:format><dc:type
           rdf:resource="http://purl.org/dc/dcmitype/StillImage" /></cc:Work></rdf:RDF></metadata><g
     inkscape:label="backgrounds"
     inkscape:groupmode="layer"
     id="layer1"
     style="display:inline"
     sodipodi:insensitive="true"><rect
       style="opacity:1;mix-blend-mode:normal;fill:#fdf6e3;fill-opacity:1;stroke-width:6.94023;stroke-linecap:round;stop-color:#000000"
       id="rect1460"
       width="5780"
       height="1080"
       x="0"
       y="0"
       inkscape:label="base3" /><rect
       style="display:none;opacity:1;mix-blend-mode:normal;fill:#eee8d5;fill-opacity:1;stroke-width:6.94023;stroke-linecap:round;stop-color:#000000"
       id="rect1451"
       width="5780"
       height="1080"
       x="0"
       y="0"
       inkscape:label="base2" /></g><g
     inkscape:groupmode="layer"
     id="layer14"
     inkscape:label="broadcastdesign"
     style="display:none"><g
       inkscape:groupmode="layer"
       id="layer3"
       inkscape:label="ticker"
       style="display:none"
       sodipodi:insensitive="true"><rect
         y="1016"
         x="0"
         height="64"
         width="1920"
         id="rect4399"
         style="display:inline;fill:#002b36;fill-opacity:1;stroke:none;stroke-width:1;stroke-miterlimit:4;stroke-dasharray:none" /><text
         xml:space="preserve"
         id="text9860"
         style="font-size:32px;line-height:1;font-family:'Linux Libertine';-inkscape-font-specification:'Linux Libertine, Normal';text-align:center;word-spacing:0px;white-space:pre;shape-inside:url(#rect9862-0);display:inline"
         transform="translate(-892.45801,-14.676943)"
         x="852.12109"
         y="0"><tspan
           x="147.8252"
           y="1077.0207"
           id="tspan4335"><tspan
             style="fill:#fdf6e3"
             id="tspan4333">Please give feedback via the link in the description. 4 + 2 questions, no personal data collected.  Don't forget to subscribe to Anders' YouTube channel! Connect with my on LinkedIn, I will try to answer any questions and share my response with the participants.</tspan></tspan></text></g><g
       inkscape:groupmode="layer"
       id="layer8"
       inkscape:label="bug"
       style="display:none"><text
         xml:space="preserve"
         style="font-size:48px;line-height:1.25;font-family:'Linux Libertine';-inkscape-font-specification:'Linux Libertine, Normal';text-align:end;word-spacing:0px;text-anchor:end;fill:#002b36"
         x="1898.2344"
         y="70.816055"
         id="text2227"><tspan
           sodipodi:role="line"
           id="tspan2225"
           x="1898.2344"
           y="70.816055">cprima.net</tspan></text></g><g
       inkscape:groupmode="layer"
       id="layer7"
       inkscape:label="PIP-layout"
       style="display:none"><rect
         style="display:inline;fill:#268bd2;stroke:none;stroke-width:22.5296;stop-color:#000000"
         id="rect1086"
         width="1600"
         height="900"
         x="20"
         y="96" /><rect
         style="display:inline;fill:#93a1a1;stroke:none;stroke-width:5.00658;stop-color:#000000"
         id="rect1186"
         width="355.55554"
         height="200"
         x="1562.4445"
         y="814" /><rect
         style="display:inline;fill:#93a1a1;stroke:none;stroke-width:5.00658;stop-color:#000000"
         id="rect1206"
         width="355.55554"
         height="200"
         x="1562.4445"
         y="116" /><rect
         style="display:inline;fill:#fdf6e3;stroke:none;stroke-width:15.9308;stop-color:#000000"
         id="rect5655"
         width="800"
         height="900"
         x="20"
         y="96" /></g><g
       inkscape:groupmode="layer"
       id="layer9"
       inkscape:label="toc-left"
       style="display:none"><g
         id="g4929"
         transform="matrix(1.0477454,0,0,1,-1.1933879,0)"
         inkscape:label="toc-bgs"><rect
           style="display:inline;fill:#eee8d5;stroke:none;stroke-width:2.37132;stop-color:#000000"
           id="rect925"
           width="754"
           height="72"
           x="24.994843"
           y="871.76343"
           rx="8"
           ry="8" /><rect
           style="display:inline;fill:#eee8d5;stroke:none;stroke-width:2.37132;stop-color:#000000"
           id="rect51905"
           width="754"
           height="72"
           x="24.994843"
           y="761.76343"
           rx="8"
           ry="8"
           inkscape:label="toc-bg-7" /><rect
           style="display:inline;fill:#eee8d5;stroke:none;stroke-width:2.37132;stop-color:#000000"
           id="rect921"
           width="754"
           height="72"
           x="24.994843"
           y="651.76343"
           rx="8"
           ry="8"
           inkscape:label="toc-bg-6" /><rect
           style="fill:#eee8d5;stroke:none;stroke-width:2.37132;stop-color:#000000"
           id="rect51903"
           width="754"
           height="72"
           x="24.994843"
           y="541.45325"
           rx="8"
           ry="8"
           inkscape:label="toc-bg-5" /><rect
           style="fill:#eee8d5;stroke:none;stroke-width:2.37132;stop-color:#000000"
           id="rect51421"
           width="754"
           height="72"
           x="24.994843"
           y="431.1431"
           rx="8"
           ry="8"
           inkscape:label="toc-bg-4" /><rect
           style="display:inline;fill:#eee8d5;stroke:none;stroke-width:2.65121;stop-color:#000000"
           id="rect51911"
           width="754"
           height="90"
           x="24.994843"
           y="320.83292"
           rx="8"
           ry="8"
           inkscape:label="toc-bg-3" /><rect
           style="display:inline;fill:#eee8d5;stroke:none;stroke-width:2.37132;stop-color:#000000"
           id="rect51907"
           width="754"
           height="72"
           x="24.994843"
           y="210.52274"
           rx="8"
           ry="8"
           inkscape:label="toc-bg-2" /><rect
           style="display:inline;fill:#eee8d5;stroke:none;stroke-width:2.37132;stop-color:#000000"
           id="rect51909"
           width="754"
           height="72"
           x="24.994843"
           y="100.21255"
           rx="8"
           ry="8"
           inkscape:label="toc-bg-1" /></g><text
         xml:space="preserve"
         style="font-style:normal;font-variant:normal;font-weight:normal;font-stretch:normal;font-size:88px;line-height:1.25;font-family:'Linux Libertine';-inkscape-font-specification:'Linux Libertine, Normal';font-variant-ligatures:normal;font-variant-caps:normal;font-variant-numeric:normal;font-variant-east-asian:normal;display:inline;mix-blend-mode:normal;fill:#000000;fill-opacity:1;stroke:none"
         x="33.610424"
         y="167.60426"
         id="text1674-1"
         inkscape:label="toc-text"><tspan
           sodipodi:role="line"
           x="33.610424"
           y="167.60426"
           style="font-style:normal;font-variant:normal;font-weight:normal;font-stretch:normal;font-size:88px;font-family:'Linux Libertine';-inkscape-font-specification:'Linux Libertine, Normal';font-variant-ligatures:normal;font-variant-caps:normal;font-variant-numeric:normal;font-variant-east-asian:normal"
           id="tspan919">Bar</tspan><tspan
           sodipodi:role="line"
           x="33.610424"
           y="277.60425"
           style="font-style:normal;font-variant:normal;font-weight:normal;font-stretch:normal;font-size:88px;line-height:1.25;font-family:'Linux Libertine';-inkscape-font-specification:'Linux Libertine, Normal';font-variant-ligatures:normal;font-variant-caps:normal;font-variant-numeric:normal;font-variant-east-asian:normal;display:inline;mix-blend-mode:normal;fill:#000000;fill-opacity:1;stroke:none"
           id="tspan917">Foo</tspan><tspan
           sodipodi:role="line"
           x="33.610424"
           y="387.60425"
           style="font-style:normal;font-variant:normal;font-weight:normal;font-stretch:normal;font-size:88px;line-height:1.25;font-family:'Linux Libertine';-inkscape-font-specification:'Linux Libertine, Normal';font-variant-ligatures:normal;font-variant-caps:normal;font-variant-numeric:normal;font-variant-east-asian:normal;display:inline;mix-blend-mode:normal;fill:#000000;fill-opacity:1;stroke:none"
           id="tspan23603">Save Searches</tspan><tspan
           sodipodi:role="line"
           x="33.610424"
           y="497.60425"
           style="font-style:normal;font-variant:normal;font-weight:normal;font-stretch:normal;font-size:88px;line-height:1.25;font-family:'Linux Libertine';-inkscape-font-specification:'Linux Libertine, Normal';font-variant-ligatures:normal;font-variant-caps:normal;font-variant-numeric:normal;font-variant-east-asian:normal;display:inline;mix-blend-mode:normal;fill:#000000;fill-opacity:1;stroke:none"
           id="tspan20151">Subselect Results</tspan><tspan
           sodipodi:role="line"
           x="33.610424"
           y="607.60425"
           style="font-style:normal;font-variant:normal;font-weight:normal;font-stretch:normal;font-size:88px;line-height:1.25;font-family:'Linux Libertine';-inkscape-font-specification:'Linux Libertine, Normal';font-variant-ligatures:normal;font-variant-caps:normal;font-variant-numeric:normal;font-variant-east-asian:normal;display:inline;mix-blend-mode:normal;fill:#000000;fill-opacity:1;stroke:none"
           id="tspan19951">Search Result</tspan><tspan
           sodipodi:role="line"
           x="33.610424"
           y="717.60425"
           style="font-style:normal;font-variant:normal;font-weight:normal;font-stretch:normal;font-size:88px;line-height:1.25;font-family:'Linux Libertine';-inkscape-font-specification:'Linux Libertine, Normal';font-variant-ligatures:normal;font-variant-caps:normal;font-variant-numeric:normal;font-variant-east-asian:normal;display:inline;mix-blend-mode:normal;fill:#000000;fill-opacity:1;stroke:none"
           id="tspan16121">Regular Expressions</tspan><tspan
           sodipodi:role="line"
           x="33.610424"
           y="827.60425"
           style="font-style:normal;font-variant:normal;font-weight:normal;font-stretch:normal;font-size:88px;line-height:1.25;font-family:'Linux Libertine';-inkscape-font-specification:'Linux Libertine, Normal';font-variant-ligatures:normal;font-variant-caps:normal;font-variant-numeric:normal;font-variant-east-asian:normal;display:inline;mix-blend-mode:normal;fill:#000000;fill-opacity:1;stroke:none"
           id="tspan15921">Extended Search</tspan><tspan
           sodipodi:role="line"
           id="tspan1672-8"
           x="33.610424"
           y="937.60425"
           style="font-style:normal;font-variant:normal;font-weight:normal;font-stretch:normal;font-size:88px;line-height:1.25;font-family:'Linux Libertine';-inkscape-font-specification:'Linux Libertine, Normal';font-variant-ligatures:normal;font-variant-caps:normal;font-variant-numeric:normal;font-variant-east-asian:normal;display:inline;mix-blend-mode:normal;fill:#000000;fill-opacity:1;stroke:none">Normal Search</tspan></text></g></g><g
     inkscape:groupmode="layer"
     id="layer13"
     inkscape:label="togaf"
     sodipodi:insensitive="true"
     style="display:inline"><g
       inkscape:groupmode="layer"
       id="layer5"
       inkscape:label="app"
       style="display:none"><path
         id="rect4399-1-5"
         style="display:inline;fill:#b58900;fill-opacity:1;stroke:none;stroke-width:0.707107;stroke-miterlimit:4;stroke-dasharray:none"
         d="M 0,0 H 1920 V 12 L 0,52 Z"
         sodipodi:nodetypes="ccccc" /></g><g
       inkscape:groupmode="layer"
       id="g1684"
       inkscape:label="biz"
       style="display:none"><path
         id="rect4399-1-5-0"
         style="display:inline;fill:#268bd2;fill-opacity:1;stroke:none;stroke-width:0.707107;stroke-miterlimit:4;stroke-dasharray:none"
         d="M 0,0 H 1920 V 12 L 0,52 Z"
         sodipodi:nodetypes="ccccc" /><rect
         style="opacity:1;fill:#eee8d5;fill-opacity:1;stroke:none;stroke-width:4;stroke-linecap:round;stop-color:#000000"
         id="rect1723"
         width="200.30829"
         height="151.7487"
         x="52.606216"
         y="-271.12433" /></g><g
       inkscape:groupmode="layer"
       id="g1705"
       inkscape:label="dat"
       style="display:none"><path
         id="rect4399-1-5-7"
         style="display:inline;fill:#dc322f;fill-opacity:1;stroke:none;stroke-width:0.707107;stroke-miterlimit:4;stroke-dasharray:none"
         d="M 0,0 H 1920 V 12 L 0,52 Z"
         sodipodi:nodetypes="ccccc" /></g><g
       inkscape:groupmode="layer"
       id="g1715"
       inkscape:label="tec"
       style="display:none"><path
         id="rect4399-1-5-2"
         style="display:inline;fill:#859900;fill-opacity:1;stroke:none;stroke-width:0.707107;stroke-miterlimit:4;stroke-dasharray:none"
         d="M 0,0 H 1920 V 12 L 0,52 Z"
         sodipodi:nodetypes="ccccc" /></g><g
       inkscape:groupmode="layer"
       id="g1537"
       inkscape:label="lowerthird-app"
       style="display:none"><rect
         style="display:inline;fill:#b58900;fill-opacity:1;stroke:none;stroke-width:0.873478"
         id="rect1535"
         width="1920"
         height="206"
         x="0"
         y="810" /></g><g
       inkscape:groupmode="layer"
       id="g1541"
       inkscape:label="lowerthird-biz"
       style="display:none"><rect
         style="display:inline;fill:#268bd2;fill-opacity:1;stroke:none;stroke-width:0.873478"
         id="rect1539"
         width="1920"
         height="206"
         x="0"
         y="810" /></g><g
       inkscape:groupmode="layer"
       id="g1545"
       inkscape:label="lowerthird-dat"
       style="display:none"><rect
         style="display:inline;fill:#dc322f;fill-opacity:1;stroke:none;stroke-width:0.873478"
         id="rect1543"
         width="1920"
         height="206"
         x="0"
         y="810" /></g><g
       inkscape:groupmode="layer"
       id="layer4"
       inkscape:label="lowerthird-tec"
       style="display:none"><rect
         style="display:inline;fill:#859900;fill-opacity:1;stroke:none;stroke-width:0.873478"
         id="rect4155-7"
         width="1920"
         height="206"
         x="0"
         y="810" /></g></g><g
     inkscape:groupmode="layer"
     id="layer10"
     inkscape:label="luminance"
     style="display:none"
     sodipodi:insensitive="true"><rect
       style="display:none;mix-blend-mode:overlay;fill:url(#linearGradient2688);fill-opacity:1;stroke-width:4.06983;stop-color:#000000"
       id="rect999"
       width="1920"
       height="1080"
       x="0"
       y="0"
       rx="2.0483451"
       ry="1.527025"
       inkscape:export-filename="S:\github.com\cprima\cprimanet\biz\marketing\broadcastdesign\luminance_top-to-bottom_FullHD.png"
       inkscape:export-xdpi="96"
       inkscape:export-ydpi="96"
       inkscape:label="top-to-bottom" /><rect
       style="mix-blend-mode:overlay;fill:url(#linearGradient1218);fill-opacity:1;stroke-width:4.06983;stop-color:#000000"
       id="rect1214"
       width="1080"
       height="1920"
       x="-1080"
       y="0"
       rx="1.152194"
       ry="2.714711"
       inkscape:export-filename="S:\github.com\cprima\cprimanet\biz\marketing\broadcastdesign\luminance_top-to-bottom_FullHD.png"
       inkscape:export-xdpi="96"
       inkscape:export-ydpi="96"
       inkscape:label="left-to-right"
       transform="rotate(-90)" /></g><g
     inkscape:groupmode="layer"
     id="layer2"
     inkscape:label="goldencut"
     style="display:none;opacity:0.303085"><path
       style="display:inline;fill:none;fill-rule:evenodd;stroke:#000000;stroke-width:1;stroke-linecap:butt;stroke-linejoin:miter;stroke-miterlimit:4;stroke-dasharray:none;stroke-opacity:1"
       d="M 0,269.5 H 1920"
       id="path4237-9"
       inkscape:connector-curvature="0" /><path
       style="display:inline;fill:none;fill-rule:evenodd;stroke:#000000;stroke-width:1;stroke-linecap:butt;stroke-linejoin:miter;stroke-miterlimit:4;stroke-dasharray:none;stroke-opacity:1"
       d="M 0,539.5 H 1920"
       id="path4237-9-9"
       inkscape:connector-curvature="0" /><path
       style="display:inline;fill:none;fill-rule:evenodd;stroke:#000000;stroke-width:1;stroke-linecap:butt;stroke-linejoin:miter;stroke-miterlimit:4;stroke-dasharray:none;stroke-opacity:1"
       d="M 0,809.5 H 1920"
       id="path4237-9-9-8"
       inkscape:connector-curvature="0" /><path
       style="display:inline;fill:none;fill-rule:evenodd;stroke:#000000;stroke-width:1;stroke-linecap:butt;stroke-linejoin:miter;stroke-miterlimit:4;stroke-dasharray:none;stroke-opacity:1"
       d="M 0,359.5 H 1920"
       id="path4237-9-9-5"
       inkscape:connector-curvature="0" /><path
       style="display:inline;fill:none;fill-rule:evenodd;stroke:#000000;stroke-width:1;stroke-linecap:butt;stroke-linejoin:miter;stroke-miterlimit:4;stroke-dasharray:none;stroke-opacity:1"
       d="M 0,719.5 H 1920"
       id="path4237-9-9-1"
       inkscape:connector-curvature="0" /><path
       style="display:inline;fill:none;stroke:#000000;stroke-width:1px;stroke-linecap:butt;stroke-linejoin:miter;stroke-opacity:1"
       d="M 20,996 1620,96"
       id="path5473"
       inkscape:path-effect="#path-effect5475;#path-effect5477"
       inkscape:original-d="M 20,996 1620,96" /><path
       style="display:inline;fill:none;stroke:#000000;stroke-width:1px;stroke-linecap:butt;stroke-linejoin:miter;stroke-opacity:1"
       d="M 20,96 1620,996"
       id="path5479"
       inkscape:path-effect="#path-effect5481;#path-effect5483"
       inkscape:original-d="M 20,96 1620,996" /><path
       style="display:inline;fill:none;stroke:#000000;stroke-width:1px;stroke-linecap:butt;stroke-linejoin:miter;stroke-opacity:1"
       d="M 0,0 1920,1080"
       id="path1161"
       inkscape:path-effect="#path-effect1165;#path-effect1169"
       inkscape:original-d="M 0,0 1920,1080" /><path
       style="display:inline;fill:none;stroke:#000000;stroke-width:1px;stroke-linecap:butt;stroke-linejoin:miter;stroke-opacity:1"
       d="M 0,1080 1920,0"
       id="path1398"
       inkscape:path-effect="#path-effect1402;#path-effect1406"
       inkscape:original-d="M 0,1080 1920,0" /><g
       id="g6519"
       transform="translate(-3426.5425,81.90556)"><path
         id="path1430"
         style="opacity:0.392683;fill:none;stroke:#002b36;stroke-width:4;stroke-linecap:round;stop-color:#000000"
         d="m 4624.5425,243.75994 c 0,186.67225 -106.5562,378 -238,378 -131.4438,0 -238,-191.32775 -238,-378 0,-186.672238 106.5562,-297.999995 238,-297.999995 131.4438,0 238,111.327757 238,297.999995 z"
         sodipodi:nodetypes="sssss" /><path
         style="fill:none;stroke:#000000;stroke-width:1px;stroke-linecap:butt;stroke-linejoin:miter;stroke-opacity:1"
         d="m 4624.5425,281.75995 h -476"
         id="path6353" /></g><text
       xml:space="preserve"
       style="font-size:36px;line-height:1.25;font-family:'Linux Libertine';-inkscape-font-specification:'Linux Libertine, Normal';word-spacing:0px;display:inline;fill:#002b36"
       x="1321.7205"
       y="370.93591"
       id="text3338"><tspan
         sodipodi:role="line"
         id="tspan3336"
         x="1321.7205"
         y="370.93591"
         style="font-size:36px;text-align:end;text-anchor:end">eyeline</tspan></text><path
       style="display:inline;fill:none;stroke:#000000;stroke-width:0.999998px;stroke-linecap:butt;stroke-linejoin:miter;stroke-opacity:1"
       d="M 960.00001,1080 V 0"
       id="path6078" /><rect
       style="display:inline;fill:#657b83;stroke-width:5.99812;stroke-linecap:round;stroke-dasharray:23.9925, 5.99812;stop-color:#000000"
       id="rect1274"
       width="1280"
       height="720"
       x="320"
       y="270" /><rect
       style="display:inline;fill:#93a1a1;stroke-width:5.99811;stroke-linecap:round;stroke-dasharray:23.9925, 5.99811;stop-color:#000000"
       id="rect1036"
       width="1280"
       height="540"
       x="320"
       y="270" /><g
       id="g1075"
       transform="matrix(2.2273972,0,0,0.49868565,-792.30673,185.48207)"
       style="stroke-width:1.89765;stroke-dasharray:none"><path
         style="fill:#eee8d5;stroke:#002b36;stroke-width:1.89765;stroke-linecap:round;stroke-linejoin:round;stroke-dasharray:none;stop-color:#000000;-moz-transition:500ms ease-in;-webkit-transition:500ms ease-in"
         d="M 426.70599,630 H 1146.706"
         id="path1049" /><path
         style="fill:#eee8d5;stroke:#002b36;stroke-width:1.89765;stroke-linecap:round;stroke-linejoin:round;stroke-dasharray:none;stop-color:#000000;-moz-transition:500ms ease-in;-webkit-transition:500ms ease-in"
         d="M 786.70599,990 V 270"
         id="path1051" /><path
         style="fill:#eee8d5;stroke:#002b36;stroke-width:1.89765;stroke-linecap:round;stroke-linejoin:round;stroke-dasharray:none;stop-color:#000000;-moz-transition:500ms ease-in;-webkit-transition:500ms ease-in"
         d="M 606.70599,318.23085 966.706,941.76915"
         id="path1053" /><path
         style="fill:#eee8d5;stroke:#002b36;stroke-width:1.89765;stroke-linecap:round;stroke-linejoin:round;stroke-dasharray:none;stop-color:#000000;-moz-transition:500ms ease-in;-webkit-transition:500ms ease-in"
         d="M 474.93685,810 1098.4751,450"
         id="path1055" /><path
         style="fill:#eee8d5;stroke:#002b36;stroke-width:1.89765;stroke-linecap:round;stroke-linejoin:round;stroke-dasharray:none;stop-color:#000000;-moz-transition:500ms ease-in;-webkit-transition:500ms ease-in"
         d="m 474.93684,449.99999 623.53826,360"
         id="path1057" /><path
         style="fill:#eee8d5;stroke:#002b36;stroke-width:1.89765;stroke-linecap:round;stroke-linejoin:round;stroke-dasharray:none;stop-color:#000000;-moz-transition:500ms ease-in;-webkit-transition:500ms ease-in"
         d="M 606.70599,941.76914 966.70596,318.23086"
         id="path1059" /></g><g
       id="g1089"
       transform="translate(-1229.9604,581.0222)"><path
         style="fill:#eee8d5;stroke:#002b36;stroke-width:8;stroke-linecap:round;stroke-linejoin:round;stop-color:#000000;-moz-transition:500ms ease-in;-webkit-transition:500ms ease-in"
         d="M 426.70599,630 H 1146.706"
         id="path1077" /><path
         style="fill:#eee8d5;stroke:#002b36;stroke-width:8;stroke-linecap:round;stroke-linejoin:round;stop-color:#000000;-moz-transition:500ms ease-in;-webkit-transition:500ms ease-in"
         d="M 786.70599,990 V 270"
         id="path1079" /><path
         style="fill:#eee8d5;stroke:#002b36;stroke-width:8;stroke-linecap:round;stroke-linejoin:round;stop-color:#000000;-moz-transition:500ms ease-in;-webkit-transition:500ms ease-in"
         d="M 606.70599,318.23085 966.706,941.76915"
         id="path1081" /><path
         style="fill:#eee8d5;stroke:#002b36;stroke-width:8;stroke-linecap:round;stroke-linejoin:round;stop-color:#000000;-moz-transition:500ms ease-in;-webkit-transition:500ms ease-in"
         d="M 474.93685,810 1098.4751,450"
         id="path1083" /><path
         style="fill:#eee8d5;stroke:#002b36;stroke-width:8;stroke-linecap:round;stroke-linejoin:round;stop-color:#000000;-moz-transition:500ms ease-in;-webkit-transition:500ms ease-in"
         d="m 474.93684,449.99999 623.53826,360"
         id="path1085" /><path
         style="fill:#eee8d5;stroke:#002b36;stroke-width:8;stroke-linecap:round;stroke-linejoin:round;stop-color:#000000;-moz-transition:500ms ease-in;-webkit-transition:500ms ease-in"
         d="M 606.70599,941.76914 966.70596,318.23086"
         id="path1087" /></g></g><g
     inkscape:groupmode="layer"
     id="layer6"
     inkscape:label="visualization"
     style="display:inline"><g
       aria-label="🗣"
       id="text450"
       style="font-size:853.333px;line-height:0.73;font-family:'Linux Biolinum';-inkscape-font-specification:'Linux Biolinum';text-align:center;text-anchor:middle;display:none;fill:#dc322f;stroke-width:8;stroke-linecap:round;stroke-linejoin:round;stop-color:#000000;-moz-transition:500ms ease-in;-webkit-transition:500ms ease-in"
       transform="translate(-1191.0297,37.794831)"><path
         d="m 958.60843,758.54159 c 0,23.61111 -34.99999,43.47221 -104.99996,59.58331 -8.05555,1.94445 -13.05555,7.36111 -14.99999,16.25 -0.55556,2.77777 -0.83334,11.38888 -0.83334,25.83332 0,10.55555 2.22222,24.58333 6.66667,42.08332 4.44444,17.22221 6.66666,29.44443 6.66666,36.66665 H 566.10858 c 0,-8.88889 0.27778,-21.66666 0.83333,-38.33332 0.55556,-18.33333 0.83334,-31.38888 0.83334,-39.16665 0,-57.77775 -16.52777,-99.02774 -49.58332,-123.74995 -36.38887,-27.22221 -61.94442,-57.63887 -76.66664,-91.24997 -13.88888,-31.66665 -20.83332,-73.05553 -20.83332,-124.16662 0,-53.61109 27.3611,-101.24996 82.0833,-142.91661 50.83331,-38.88887 103.88885,-58.33331 159.16661,-58.33331 h 16.24999 c 91.66663,0 144.72217,19.44444 159.16661,58.33331 3.61111,15.27777 8.19444,32.08332 13.74999,50.41665 5.27777,6.94444 8.05555,10.97222 8.33333,12.08333 0.27778,0.83333 0.41667,5.55555 0.41667,14.16666 0,18.6111 4.72222,31.94443 14.16666,39.99998 4.44444,3.88889 15.83332,9.16666 34.16665,15.83333 17.49999,6.11111 31.24999,14.16666 41.24999,24.16666 1.94444,1.94444 2.91666,4.02777 2.91666,6.25 0,4.16666 -7.5,11.1111 -22.49999,20.83332 -14.72221,9.72222 -22.08332,18.74999 -22.08332,27.08332 0,6.38889 2.5,11.25 7.49999,14.58333 5.83333,4.44445 8.88889,6.94445 9.16667,7.5 -7.5,5.55555 -18.05555,14.99999 -31.66666,28.33332 -6.66666,7.77777 -14.16666,17.49999 -22.49999,29.16666 23.6111,7.49999 47.63887,11.24999 72.08331,11.24999 2.49999,0 3.74999,1.80556 3.74999,5.41667 0,6.66666 -1.94444,13.74999 -5.83333,21.24999 -3.88889,7.22222 -5.83333,11.80555 -5.83333,13.74999 0,4.16667 4.02778,9.30555 12.08333,15.41666 8.05555,6.11111 12.08333,13.33333 12.08333,21.66666 z"
         style="fill:#002b36"
         id="path558"
         sodipodi:nodetypes="sccsccccsccscsscccsccsscsccccsscsss" /></g><g
       id="g1990"
       transform="matrix(0.69209276,0,0,0.69209276,295.59094,238.16703)"
       style="display:inline;stroke-width:1.4449"><g
         aria-label="🗣"
         id="g1647"
         style="font-size:853.333px;line-height:0.73;font-family:'Linux Biolinum';-inkscape-font-specification:'Linux Biolinum';text-align:center;text-anchor:middle;display:inline;fill:#dc322f;stroke-width:19.8405;stroke-linecap:round;stroke-linejoin:round;stop-color:#000000;-moz-transition:500ms ease-in;-webkit-transition:500ms ease-in"
         transform="matrix(0.58260306,0,0,0.58260306,-203.2554,216.39816)"><path
           d="m 958.60843,758.54159 c 0,23.61111 -34.99999,43.47221 -104.99996,59.58331 -8.05555,1.94445 -13.05555,7.36111 -14.99999,16.25 -0.55556,2.77777 -0.83334,11.38888 -0.83334,25.83332 0,10.55555 2.22222,24.58333 6.66667,42.08332 4.44444,17.22221 6.66666,29.44443 6.66666,36.66665 H 566.10858 c 0,-8.88889 0.27778,-21.66666 0.83333,-38.33332 0.55556,-18.33333 0.83334,-31.38888 0.83334,-39.16665 0,-57.77775 -16.52777,-99.02774 -49.58332,-123.74995 -36.38887,-27.22221 -61.94442,-57.63887 -76.66664,-91.24997 -13.88888,-31.66665 -20.83332,-73.05553 -20.83332,-124.16662 0,-53.61109 27.3611,-101.24996 82.0833,-142.91661 50.83331,-38.88887 103.88885,-58.33331 159.16661,-58.33331 h 16.24999 c 91.66663,0 144.72217,19.44444 159.16661,58.33331 3.61111,15.27777 8.19444,32.08332 13.74999,50.41665 5.27777,6.94444 8.05555,10.97222 8.33333,12.08333 0.27778,0.83333 0.41667,5.55555 0.41667,14.16666 0,18.6111 4.72222,31.94443 14.16666,39.99998 4.44444,3.88889 15.83332,9.16666 34.16665,15.83333 17.49999,6.11111 31.24999,14.16666 41.24999,24.16666 1.94444,1.94444 2.91666,4.02777 2.91666,6.25 0,4.16666 -7.5,11.1111 -22.49999,20.83332 -14.72221,9.72222 -22.08332,18.74999 -22.08332,27.08332 0,6.38889 2.5,11.25 7.49999,14.58333 5.83333,4.44445 8.88889,6.94445 9.16667,7.5 -7.5,5.55555 -18.05555,14.99999 -31.66666,28.33332 -6.66666,7.77777 -14.16666,17.49999 -22.49999,29.16666 23.6111,7.49999 47.63887,11.24999 72.08331,11.24999 2.49999,0 3.74999,1.80556 3.74999,5.41667 0,6.66666 -1.94444,13.74999 -5.83333,21.24999 -3.88889,7.22222 -5.83333,11.80555 -5.83333,13.74999 0,4.16667 4.02778,9.30555 12.08333,15.41666 8.05555,6.11111 12.08333,13.33333 12.08333,21.66666 z"
           style="fill:#002b36;stroke-width:19.8405"
           id="path1645"
           sodipodi:nodetypes="sccsccccsccscsscccsccsscsccccsscsss" /></g><g
         aria-label="🗣"
         id="g1651"
         style="font-size:853.333px;line-height:0.73;font-family:'Linux Biolinum';-inkscape-font-specification:'Linux Biolinum';text-align:center;text-anchor:middle;display:inline;fill:#dc322f;stroke-width:19.8405;stroke-linecap:round;stroke-linejoin:round;stop-color:#000000;-moz-transition:500ms ease-in;-webkit-transition:500ms ease-in"
         transform="matrix(-0.58260306,0,0,0.58260306,2123.2553,216.39816)"><path
           d="m 958.60843,758.54159 c 0,23.61111 -34.99999,43.47221 -104.99996,59.58331 -8.05555,1.94445 -13.05555,7.36111 -14.99999,16.25 -0.55556,2.77777 -0.83334,11.38888 -0.83334,25.83332 0,10.55555 2.22222,24.58333 6.66667,42.08332 4.44444,17.22221 6.66666,29.44443 6.66666,36.66665 H 566.10858 c 0,-8.88889 0.27778,-21.66666 0.83333,-38.33332 0.55556,-18.33333 0.83334,-31.38888 0.83334,-39.16665 0,-57.77775 -16.52777,-99.02774 -49.58332,-123.74995 -36.38887,-27.22221 -61.94442,-57.63887 -76.66664,-91.24997 -13.88888,-31.66665 -20.83332,-73.05553 -20.83332,-124.16662 0,-53.61109 27.3611,-101.24996 82.0833,-142.91661 50.83331,-38.88887 103.88885,-58.33331 159.16661,-58.33331 h 16.24999 c 91.66663,0 144.72217,19.44444 159.16661,58.33331 3.61111,15.27777 8.19444,32.08332 13.74999,50.41665 5.27777,6.94444 8.05555,10.97222 8.33333,12.08333 0.27778,0.83333 0.41667,5.55555 0.41667,14.16666 0,18.6111 4.72222,31.94443 14.16666,39.99998 4.44444,3.88889 15.83332,9.16666 34.16665,15.83333 17.49999,6.11111 31.24999,14.16666 41.24999,24.16666 1.94444,1.94444 2.91666,4.02777 2.91666,6.25 0,4.16666 -7.5,11.1111 -22.49999,20.83332 -14.72221,9.72222 -22.08332,18.74999 -22.08332,27.08332 0,6.38889 2.5,11.25 7.49999,14.58333 5.83333,4.44445 8.88889,6.94445 9.16667,7.5 -7.5,5.55555 -18.05555,14.99999 -31.66666,28.33332 -6.66666,7.77777 -14.16666,17.49999 -22.49999,29.16666 23.6111,7.49999 47.63887,11.24999 72.08331,11.24999 2.49999,0 3.74999,1.80556 3.74999,5.41667 0,6.66666 -1.94444,13.74999 -5.83333,21.24999 -3.88889,7.22222 -5.83333,11.80555 -5.83333,13.74999 0,4.16667 4.02778,9.30555 12.08333,15.41666 8.05555,6.11111 12.08333,13.33333 12.08333,21.66666 z"
           style="fill:#002b36;stroke-width:19.8405"
           id="path1649"
           sodipodi:nodetypes="sccsccccsccscsscccsccsscsccccsscsss" /></g><g
         id="g1664"
         transform="matrix(1,-0.43061953,0,1,-3.7336315,502.81545)"
         style="stroke-width:1.4449"><g
           aria-label="🗣"
           id="g1655"
           style="font-size:853.333px;line-height:0.73;font-family:'Linux Biolinum';-inkscape-font-specification:'Linux Biolinum';text-align:center;text-anchor:middle;display:inline;fill:#dc322f;stroke-width:19.8405;stroke-linecap:round;stroke-linejoin:round;stop-color:#000000;-moz-transition:500ms ease-in;-webkit-transition:500ms ease-in"
           transform="matrix(-0.58260306,0,0,0.58260306,1764.8371,112.93918)"><path
             d="m 958.60843,758.54159 c 0,23.61111 -34.99999,43.47221 -104.99996,59.58331 -8.05555,1.94445 -13.05555,7.36111 -14.99999,16.25 -0.55556,2.77777 -0.83334,11.38888 -0.83334,25.83332 0,10.55555 2.22222,24.58333 6.66667,42.08332 4.44444,17.22221 6.66666,29.44443 6.66666,36.66665 H 566.10858 c 0,-8.88889 0.27778,-21.66666 0.83333,-38.33332 0.55556,-18.33333 0.83334,-31.38888 0.83334,-39.16665 0,-57.77775 -16.52777,-99.02774 -49.58332,-123.74995 -36.38887,-27.22221 -61.94442,-57.63887 -76.66664,-91.24997 -13.88888,-31.66665 -20.83332,-73.05553 -20.83332,-124.16662 0,-53.61109 27.3611,-101.24996 82.0833,-142.91661 50.83331,-38.88887 103.88885,-58.33331 159.16661,-58.33331 h 16.24999 c 91.66663,0 144.72217,19.44444 159.16661,58.33331 3.61111,15.27777 8.19444,32.08332 13.74999,50.41665 5.27777,6.94444 8.05555,10.97222 8.33333,12.08333 0.27778,0.83333 0.41667,5.55555 0.41667,14.16666 0,18.6111 4.72222,31.94443 14.16666,39.99998 4.44444,3.88889 15.83332,9.16666 34.16665,15.83333 17.49999,6.11111 31.24999,14.16666 41.24999,24.16666 1.94444,1.94444 2.91666,4.02777 2.91666,6.25 0,4.16666 -7.5,11.1111 -22.49999,20.83332 -14.72221,9.72222 -22.08332,18.74999 -22.08332,27.08332 0,6.38889 2.5,11.25 7.49999,14.58333 5.83333,4.44445 8.88889,6.94445 9.16667,7.5 -7.5,5.55555 -18.05555,14.99999 -31.66666,28.33332 -6.66666,7.77777 -14.16666,17.49999 -22.49999,29.16666 23.6111,7.49999 47.63887,11.24999 72.08331,11.24999 2.49999,0 3.74999,1.80556 3.74999,5.41667 0,6.66666 -1.94444,13.74999 -5.83333,21.24999 -3.88889,7.22222 -5.83333,11.80555 -5.83333,13.74999 0,4.16667 4.02778,9.30555 12.08333,15.41666 8.05555,6.11111 12.08333,13.33333 12.08333,21.66666 z"
             style="fill:#002b36;stroke-width:19.8405"
             id="path1653"
             sodipodi:nodetypes="sccsccccsccscsscccsccsscsccccsscsss" /></g></g><g
         id="g1672"
         transform="matrix(-1,-0.3471572,0,1,1923.7336,387.10383)"
         style="stroke-width:1.4449"><g
           aria-label="🗣"
           id="g1668"
           style="font-size:853.333px;line-height:0.73;font-family:'Linux Biolinum';-inkscape-font-specification:'Linux Biolinum';text-align:center;text-anchor:middle;display:inline;fill:#dc322f;stroke-width:19.8405;stroke-linecap:round;stroke-linejoin:round;stop-color:#000000;-moz-transition:500ms ease-in;-webkit-transition:500ms ease-in"
           transform="matrix(-0.58260306,0.02844378,0,0.58260306,1764.8371,93.322916)"><path
             d="m 958.60863,758.5415 c 0,23.61111 -35,43.47221 -105,59.58332 -8.05555,1.94446 -13.05555,7.36112 -14.99999,16.25002 -0.55556,2.77777 -0.83334,11.38888 -0.83334,25.83332 0,10.55555 2.22222,24.58333 6.66667,42.08331 4.44444,17.22221 6.66666,29.44443 6.66666,36.66665 l -285,6e-5 c 0,-8.88889 0.27778,-21.66666 0.83334,-38.33332 0.55556,-18.33333 0.83334,-31.38888 0.83334,-39.16665 0,-57.77775 -16.52778,-99.02774 -49.58334,-123.74993 -36.38889,-27.22221 -61.94445,-57.63886 -76.66667,-91.24996 -13.88889,-31.66665 -20.83333,-73.05553 -20.83333,-124.16662 0,-53.61109 27.36111,-101.24996 82.08333,-142.91662 50.83333,-38.88889 103.88889,-58.33333 159.16667,-58.33335 h 16.25 c 91.66666,-3e-5 144.72222,19.44441 159.16667,58.33328 3.61111,15.27776 8.19444,32.08331 13.74999,50.41664 5.27777,6.94443 8.05556,10.97221 8.33334,12.08332 0.27778,0.83333 0.41667,5.55555 0.41667,14.16666 0,18.6111 4.72222,31.94443 14.16666,39.99998 4.44444,3.88889 15.83333,9.16666 34.16666,15.83333 17.5,6.1111 31.25001,14.16665 41.25001,24.16665 1.94444,1.94444 2.91666,4.02777 2.91666,6.25 0,4.16666 -7.5,11.1111 -22.5,20.83332 -14.72221,9.72223 -22.08333,18.75 -22.08333,27.08333 0,6.38889 2.5,11.25 7.5,14.58333 5.83333,4.44444 8.88889,6.94444 9.16667,7.49999 -7.5,5.55555 -18.05556,15 -31.66667,28.33333 -6.66666,7.77777 -14.16667,17.49999 -22.5,29.16666 23.61111,7.49999 47.63889,11.24998 72.08334,11.24998 2.49999,0 3.74999,1.80556 3.74999,5.41667 0,6.66666 -1.94444,13.74999 -5.83333,21.24999 -3.8889,7.22222 -5.83334,11.80555 -5.83334,13.74999 0,4.16667 4.02779,9.30555 12.08334,15.41666 8.05555,6.11111 12.08333,13.33333 12.08333,21.66666 z"
             style="fill:#002b36;stroke-width:19.8405"
             id="path1666"
             sodipodi:nodetypes="sccsccccsccscsscccsccsscsccccsscsss" /></g></g><g
         id="g1898"
         transform="matrix(0.2977982,0,0,0.2977982,305.06356,285.9254)"
         style="stroke-width:4.85192"><rect
           style="fill:#dc322f;stroke:#cb4b16;stroke-width:9.70385;stroke-linecap:round;stroke-linejoin:round;stroke-dasharray:none;stop-color:#000000;-moz-transition:500ms ease-in;-webkit-transition:500ms ease-in"
           id="rect1738"
           width="1381.1085"
           height="977.26361"
           x="1508.7084"
           y="-668.68103"
           ry="128"
           rx="128" /><path
           id="rect1792"
           style="fill:#fdf6e3;stroke:none;stroke-width:9.70385;stroke-linecap:round;stroke-linejoin:round;stop-color:#000000;-moz-transition:500ms ease-in;-webkit-transition:500ms ease-in"
           d="m 2002.6906,-433.19338 393.1441,253.14411 -393.1442,253.144202 v 0 z"
           sodipodi:nodetypes="ccccc" /></g></g></g><g
     inkscape:groupmode="layer"
     id="g1680"
     inkscape:label="title_text"
     style="display:inline"><rect
       style="display:inline;fill:#cb4b16;stroke:none;stroke-width:2;stroke-linecap:round;stroke-linejoin:round;stroke-dasharray:none;stop-color:#000000;-moz-transition:500ms ease-in;-webkit-transition:500ms ease-in"
       id="rect2172"
       width="1920"
       height="239.99997"
       x="0"
       y="0" /><text
       xml:space="preserve"
       style="font-style:normal;font-variant:normal;font-weight:normal;font-stretch:normal;font-size:85.3333px;line-height:1.25;font-family:'Linux Libertine';-inkscape-font-specification:'Linux Libertine, Normal';font-variant-ligatures:normal;font-variant-caps:normal;font-variant-numeric:normal;font-variant-east-asian:normal;opacity:1;mix-blend-mode:normal;fill:#002b36;fill-opacity:1;stroke:none"
       x="961.52081"
       y="866.3125"
       id="text1674"
       inkscape:label="middle2"><tspan
         sodipodi:role="line"
         id="tspan1672"
         x="961.52081"
         y="866.3125"
         style="font-style:normal;font-variant:normal;font-weight:normal;font-stretch:normal;font-size:85.3333px;font-family:'Linux Libertine';-inkscape-font-specification:'Linux Libertine, Normal';font-variant-ligatures:normal;font-variant-caps:normal;font-variant-numeric:normal;font-variant-east-asian:normal;text-align:center;text-anchor:middle;fill:#002b36">I plan to organize knowhow exchange,</tspan><tspan
         sodipodi:role="line"
         x="961.52081"
         y="972.97906"
         style="font-style:normal;font-variant:normal;font-weight:normal;font-stretch:normal;font-size:85.3333px;font-family:'Linux Libertine';-inkscape-font-specification:'Linux Libertine, Normal';font-variant-ligatures:normal;font-variant-caps:normal;font-variant-numeric:normal;font-variant-east-asian:normal;text-align:center;text-anchor:middle;fill:#002b36"
         id="tspan2116">please get in touch with me!</tspan></text><text
       xml:space="preserve"
       style="font-style:normal;font-variant:normal;font-weight:normal;font-stretch:normal;font-size:85.3333px;line-height:1;font-family:'Linux Libertine';-inkscape-font-specification:'Linux Libertine, Normal';font-variant-ligatures:normal;font-variant-caps:normal;font-variant-numeric:normal;font-variant-east-asian:normal;text-align:center;text-anchor:middle;display:inline;mix-blend-mode:normal;fill:#002b36;fill-opacity:1;stroke:none"
       x="968.88831"
       y="167.89893"
       id="text1674-9"
       inkscape:label="top"><tspan
         sodipodi:role="line"
         id="tspan1672-3"
         x="968.88831"
         y="167.89893"
         style="font-style:normal;font-variant:normal;font-weight:normal;font-stretch:normal;font-size:85.3333px;font-family:'Linux Libertine';-inkscape-font-specification:'Linux Libertine, Normal';font-variant-ligatures:normal;font-variant-caps:normal;font-variant-numeric:normal;font-variant-east-asian:normal;text-align:center;text-anchor:middle;fill:#002b36">RPA Content Creator?</tspan></text></g></svg>
